G04 #@! TF.GenerationSoftware,KiCad,Pcbnew,(5.1.2)-2*
G04 #@! TF.CreationDate,2019-12-07T23:42:41-08:00*
G04 #@! TF.ProjectId,Precharger,50726563-6861-4726-9765-722e6b696361,rev?*
G04 #@! TF.SameCoordinates,Original*
G04 #@! TF.FileFunction,Legend,Top*
G04 #@! TF.FilePolarity,Positive*
%FSLAX46Y46*%
G04 Gerber Fmt 4.6, Leading zero omitted, Abs format (unit mm)*
G04 Created by KiCad (PCBNEW (5.1.2)-2) date 2019-12-07 23:42:41*
%MOMM*%
%LPD*%
G04 APERTURE LIST*
%ADD10C,0.200000*%
%ADD11C,0.300000*%
%ADD12C,0.120000*%
%ADD13C,0.150000*%
G04 APERTURE END LIST*
D10*
X155754761Y-53597619D02*
X155754761Y-53216666D01*
X155850000Y-53026190D01*
X156040476Y-52835714D01*
X156421428Y-52740476D01*
X157088095Y-52740476D01*
X157469047Y-52835714D01*
X157659523Y-53026190D01*
X157754761Y-53216666D01*
X157754761Y-53597619D01*
X157659523Y-53788095D01*
X157469047Y-53978571D01*
X157088095Y-54073809D01*
X156421428Y-54073809D01*
X156040476Y-53978571D01*
X155850000Y-53788095D01*
X155754761Y-53597619D01*
X156421428Y-51026190D02*
X157754761Y-51026190D01*
X156421428Y-51883333D02*
X157469047Y-51883333D01*
X157659523Y-51788095D01*
X157754761Y-51597619D01*
X157754761Y-51311904D01*
X157659523Y-51121428D01*
X157564285Y-51026190D01*
X156421428Y-50359523D02*
X156421428Y-49597619D01*
X155754761Y-50073809D02*
X157469047Y-50073809D01*
X157659523Y-49978571D01*
X157754761Y-49788095D01*
X157754761Y-49597619D01*
X156421428Y-48930952D02*
X158421428Y-48930952D01*
X156516666Y-48930952D02*
X156421428Y-48740476D01*
X156421428Y-48359523D01*
X156516666Y-48169047D01*
X156611904Y-48073809D01*
X156802380Y-47978571D01*
X157373809Y-47978571D01*
X157564285Y-48073809D01*
X157659523Y-48169047D01*
X157754761Y-48359523D01*
X157754761Y-48740476D01*
X157659523Y-48930952D01*
X156421428Y-46264285D02*
X157754761Y-46264285D01*
X156421428Y-47121428D02*
X157469047Y-47121428D01*
X157659523Y-47026190D01*
X157754761Y-46835714D01*
X157754761Y-46550000D01*
X157659523Y-46359523D01*
X157564285Y-46264285D01*
X156421428Y-45597619D02*
X156421428Y-44835714D01*
X155754761Y-45311904D02*
X157469047Y-45311904D01*
X157659523Y-45216666D01*
X157754761Y-45026190D01*
X157754761Y-44835714D01*
X105307142Y-58135714D02*
X105402380Y-57850000D01*
X105497619Y-57754761D01*
X105688095Y-57659523D01*
X105973809Y-57659523D01*
X106164285Y-57754761D01*
X106259523Y-57850000D01*
X106354761Y-58040476D01*
X106354761Y-58802380D01*
X104354761Y-58802380D01*
X104354761Y-58135714D01*
X104450000Y-57945238D01*
X104545238Y-57850000D01*
X104735714Y-57754761D01*
X104926190Y-57754761D01*
X105116666Y-57850000D01*
X105211904Y-57945238D01*
X105307142Y-58135714D01*
X105307142Y-58802380D01*
X106354761Y-55945238D02*
X105307142Y-55945238D01*
X105116666Y-56040476D01*
X105021428Y-56230952D01*
X105021428Y-56611904D01*
X105116666Y-56802380D01*
X106259523Y-55945238D02*
X106354761Y-56135714D01*
X106354761Y-56611904D01*
X106259523Y-56802380D01*
X106069047Y-56897619D01*
X105878571Y-56897619D01*
X105688095Y-56802380D01*
X105592857Y-56611904D01*
X105592857Y-56135714D01*
X105497619Y-55945238D01*
X105021428Y-55278571D02*
X105021428Y-54516666D01*
X104354761Y-54992857D02*
X106069047Y-54992857D01*
X106259523Y-54897619D01*
X106354761Y-54707142D01*
X106354761Y-54516666D01*
X105021428Y-54135714D02*
X105021428Y-53373809D01*
X104354761Y-53850000D02*
X106069047Y-53850000D01*
X106259523Y-53754761D01*
X106354761Y-53564285D01*
X106354761Y-53373809D01*
X106259523Y-51945238D02*
X106354761Y-52135714D01*
X106354761Y-52516666D01*
X106259523Y-52707142D01*
X106069047Y-52802380D01*
X105307142Y-52802380D01*
X105116666Y-52707142D01*
X105021428Y-52516666D01*
X105021428Y-52135714D01*
X105116666Y-51945238D01*
X105307142Y-51850000D01*
X105497619Y-51850000D01*
X105688095Y-52802380D01*
X106354761Y-50992857D02*
X105021428Y-50992857D01*
X105402380Y-50992857D02*
X105211904Y-50897619D01*
X105116666Y-50802380D01*
X105021428Y-50611904D01*
X105021428Y-50421428D01*
X105021428Y-49945238D02*
X106354761Y-49469047D01*
X105021428Y-48992857D02*
X106354761Y-49469047D01*
X106830952Y-49659523D01*
X106926190Y-49754761D01*
X107021428Y-49945238D01*
X106354761Y-46707142D02*
X104354761Y-46707142D01*
X105021428Y-45754761D02*
X106354761Y-45754761D01*
X105211904Y-45754761D02*
X105116666Y-45659523D01*
X105021428Y-45469047D01*
X105021428Y-45183333D01*
X105116666Y-44992857D01*
X105307142Y-44897619D01*
X106354761Y-44897619D01*
X131685714Y-120183333D02*
X132638095Y-120183333D01*
X131495238Y-120754761D02*
X132161904Y-118754761D01*
X132828571Y-120754761D01*
X134352380Y-119421428D02*
X134352380Y-120754761D01*
X133495238Y-119421428D02*
X133495238Y-120469047D01*
X133590476Y-120659523D01*
X133780952Y-120754761D01*
X134066666Y-120754761D01*
X134257142Y-120659523D01*
X134352380Y-120564285D01*
X135114285Y-120754761D02*
X136161904Y-119421428D01*
X135114285Y-119421428D02*
X136161904Y-120754761D01*
X139495238Y-120754761D02*
X138352380Y-120754761D01*
X138923809Y-120754761D02*
X138923809Y-118754761D01*
X138733333Y-119040476D01*
X138542857Y-119230952D01*
X138352380Y-119326190D01*
X140257142Y-118945238D02*
X140352380Y-118850000D01*
X140542857Y-118754761D01*
X141019047Y-118754761D01*
X141209523Y-118850000D01*
X141304761Y-118945238D01*
X141400000Y-119135714D01*
X141400000Y-119326190D01*
X141304761Y-119611904D01*
X140161904Y-120754761D01*
X141400000Y-120754761D01*
X141971428Y-118754761D02*
X142638095Y-120754761D01*
X143304761Y-118754761D01*
D11*
X144378571Y-129192857D02*
X145878571Y-128692857D01*
X144378571Y-128192857D01*
X145807142Y-127050000D02*
X145878571Y-127192857D01*
X145878571Y-127478571D01*
X145807142Y-127621428D01*
X145735714Y-127692857D01*
X145592857Y-127764285D01*
X145164285Y-127764285D01*
X145021428Y-127692857D01*
X144950000Y-127621428D01*
X144878571Y-127478571D01*
X144878571Y-127192857D01*
X144950000Y-127050000D01*
X145807142Y-125764285D02*
X145878571Y-125907143D01*
X145878571Y-126192857D01*
X145807142Y-126335714D01*
X145735714Y-126407143D01*
X145592857Y-126478571D01*
X145164285Y-126478571D01*
X145021428Y-126407143D01*
X144950000Y-126335714D01*
X144878571Y-126192857D01*
X144878571Y-125907143D01*
X144950000Y-125764285D01*
X143578571Y-128121429D02*
X142864285Y-128621429D01*
X143578571Y-128978571D02*
X142078571Y-128978571D01*
X142078571Y-128407143D01*
X142150000Y-128264286D01*
X142221428Y-128192857D01*
X142364285Y-128121429D01*
X142578571Y-128121429D01*
X142721428Y-128192857D01*
X142792857Y-128264286D01*
X142864285Y-128407143D01*
X142864285Y-128978571D01*
X142078571Y-127621429D02*
X143578571Y-126621429D01*
X142078571Y-126621429D02*
X143578571Y-127621429D01*
X139778571Y-129192857D02*
X139778571Y-128335714D01*
X141278571Y-128764285D02*
X139778571Y-128764285D01*
X139778571Y-127978571D02*
X141278571Y-126978571D01*
X139778571Y-126978571D02*
X141278571Y-127978571D01*
X137550000Y-128192857D02*
X137478571Y-128335714D01*
X137478571Y-128550000D01*
X137550000Y-128764285D01*
X137692857Y-128907142D01*
X137835714Y-128978571D01*
X138121428Y-129050000D01*
X138335714Y-129050000D01*
X138621428Y-128978571D01*
X138764285Y-128907142D01*
X138907142Y-128764285D01*
X138978571Y-128550000D01*
X138978571Y-128407142D01*
X138907142Y-128192857D01*
X138835714Y-128121428D01*
X138335714Y-128121428D01*
X138335714Y-128407142D01*
X138978571Y-127478571D02*
X137478571Y-127478571D01*
X138978571Y-126621428D01*
X137478571Y-126621428D01*
X138978571Y-125907142D02*
X137478571Y-125907142D01*
X137478571Y-125550000D01*
X137550000Y-125335714D01*
X137692857Y-125192857D01*
X137835714Y-125121428D01*
X138121428Y-125050000D01*
X138335714Y-125050000D01*
X138621428Y-125121428D01*
X138764285Y-125192857D01*
X138907142Y-125335714D01*
X138978571Y-125550000D01*
X138978571Y-125907142D01*
X191964285Y-100328571D02*
X192464285Y-101828571D01*
X192964285Y-100328571D01*
X193464285Y-101828571D02*
X193464285Y-100828571D01*
X193464285Y-100328571D02*
X193392857Y-100400000D01*
X193464285Y-100471428D01*
X193535714Y-100400000D01*
X193464285Y-100328571D01*
X193464285Y-100471428D01*
X194178571Y-100828571D02*
X194178571Y-101828571D01*
X194178571Y-100971428D02*
X194250000Y-100900000D01*
X194392857Y-100828571D01*
X194607142Y-100828571D01*
X194750000Y-100900000D01*
X194821428Y-101042857D01*
X194821428Y-101828571D01*
X193457142Y-121028571D02*
X193957142Y-122528571D01*
X194457142Y-121028571D01*
X194885714Y-122457142D02*
X195028571Y-122528571D01*
X195314285Y-122528571D01*
X195457142Y-122457142D01*
X195528571Y-122314285D01*
X195528571Y-122242857D01*
X195457142Y-122100000D01*
X195314285Y-122028571D01*
X195100000Y-122028571D01*
X194957142Y-121957142D01*
X194885714Y-121814285D01*
X194885714Y-121742857D01*
X194957142Y-121600000D01*
X195100000Y-121528571D01*
X195314285Y-121528571D01*
X195457142Y-121600000D01*
X196028571Y-121528571D02*
X196314285Y-122528571D01*
X196600000Y-121814285D01*
X196885714Y-122528571D01*
X197171428Y-121528571D01*
X192464285Y-128028571D02*
X192964285Y-129528571D01*
X193464285Y-128028571D01*
X194464285Y-128742857D02*
X194678571Y-128814285D01*
X194750000Y-128885714D01*
X194821428Y-129028571D01*
X194821428Y-129242857D01*
X194750000Y-129385714D01*
X194678571Y-129457142D01*
X194535714Y-129528571D01*
X193964285Y-129528571D01*
X193964285Y-128028571D01*
X194464285Y-128028571D01*
X194607142Y-128100000D01*
X194678571Y-128171428D01*
X194750000Y-128314285D01*
X194750000Y-128457142D01*
X194678571Y-128600000D01*
X194607142Y-128671428D01*
X194464285Y-128742857D01*
X193964285Y-128742857D01*
X196107142Y-129528571D02*
X196107142Y-128742857D01*
X196035714Y-128600000D01*
X195892857Y-128528571D01*
X195607142Y-128528571D01*
X195464285Y-128600000D01*
X196107142Y-129457142D02*
X195964285Y-129528571D01*
X195607142Y-129528571D01*
X195464285Y-129457142D01*
X195392857Y-129314285D01*
X195392857Y-129171428D01*
X195464285Y-129028571D01*
X195607142Y-128957142D01*
X195964285Y-128957142D01*
X196107142Y-128885714D01*
X196607142Y-128528571D02*
X197178571Y-128528571D01*
X196821428Y-128028571D02*
X196821428Y-129314285D01*
X196892857Y-129457142D01*
X197035714Y-129528571D01*
X197178571Y-129528571D01*
X197464285Y-128528571D02*
X198035714Y-128528571D01*
X197678571Y-128028571D02*
X197678571Y-129314285D01*
X197750000Y-129457142D01*
X197892857Y-129528571D01*
X198035714Y-129528571D01*
X194014285Y-136678571D02*
X194942857Y-136678571D01*
X194442857Y-137250000D01*
X194657142Y-137250000D01*
X194800000Y-137321428D01*
X194871428Y-137392857D01*
X194942857Y-137535714D01*
X194942857Y-137892857D01*
X194871428Y-138035714D01*
X194800000Y-138107142D01*
X194657142Y-138178571D01*
X194228571Y-138178571D01*
X194085714Y-138107142D01*
X194014285Y-138035714D01*
X195442857Y-137178571D02*
X195800000Y-138178571D01*
X196157142Y-137178571D01*
X196585714Y-136678571D02*
X197514285Y-136678571D01*
X197014285Y-137250000D01*
X197228571Y-137250000D01*
X197371428Y-137321428D01*
X197442857Y-137392857D01*
X197514285Y-137535714D01*
X197514285Y-137892857D01*
X197442857Y-138035714D01*
X197371428Y-138107142D01*
X197228571Y-138178571D01*
X196800000Y-138178571D01*
X196657142Y-138107142D01*
X196585714Y-138035714D01*
X155678571Y-138785714D02*
X155607142Y-138857142D01*
X155392857Y-138928571D01*
X155250000Y-138928571D01*
X155035714Y-138857142D01*
X154892857Y-138714285D01*
X154821428Y-138571428D01*
X154750000Y-138285714D01*
X154750000Y-138071428D01*
X154821428Y-137785714D01*
X154892857Y-137642857D01*
X155035714Y-137500000D01*
X155250000Y-137428571D01*
X155392857Y-137428571D01*
X155607142Y-137500000D01*
X155678571Y-137571428D01*
X157035714Y-138928571D02*
X156321428Y-138928571D01*
X156321428Y-137428571D01*
X157821428Y-137428571D02*
X158107142Y-137428571D01*
X158250000Y-137500000D01*
X158392857Y-137642857D01*
X158464285Y-137928571D01*
X158464285Y-138428571D01*
X158392857Y-138714285D01*
X158250000Y-138857142D01*
X158107142Y-138928571D01*
X157821428Y-138928571D01*
X157678571Y-138857142D01*
X157535714Y-138714285D01*
X157464285Y-138428571D01*
X157464285Y-137928571D01*
X157535714Y-137642857D01*
X157678571Y-137500000D01*
X157821428Y-137428571D01*
X159035714Y-138857142D02*
X159250000Y-138928571D01*
X159607142Y-138928571D01*
X159750000Y-138857142D01*
X159821428Y-138785714D01*
X159892857Y-138642857D01*
X159892857Y-138500000D01*
X159821428Y-138357142D01*
X159750000Y-138285714D01*
X159607142Y-138214285D01*
X159321428Y-138142857D01*
X159178571Y-138071428D01*
X159107142Y-138000000D01*
X159035714Y-137857142D01*
X159035714Y-137714285D01*
X159107142Y-137571428D01*
X159178571Y-137500000D01*
X159321428Y-137428571D01*
X159678571Y-137428571D01*
X159892857Y-137500000D01*
X160535714Y-138142857D02*
X161035714Y-138142857D01*
X161250000Y-138928571D02*
X160535714Y-138928571D01*
X160535714Y-137428571D01*
X161250000Y-137428571D01*
X164821428Y-139178571D02*
X164821428Y-137678571D01*
X165392857Y-137678571D01*
X165535714Y-137750000D01*
X165607142Y-137821428D01*
X165678571Y-137964285D01*
X165678571Y-138178571D01*
X165607142Y-138321428D01*
X165535714Y-138392857D01*
X165392857Y-138464285D01*
X164821428Y-138464285D01*
X167178571Y-139035714D02*
X167107142Y-139107142D01*
X166892857Y-139178571D01*
X166750000Y-139178571D01*
X166535714Y-139107142D01*
X166392857Y-138964285D01*
X166321428Y-138821428D01*
X166250000Y-138535714D01*
X166250000Y-138321428D01*
X166321428Y-138035714D01*
X166392857Y-137892857D01*
X166535714Y-137750000D01*
X166750000Y-137678571D01*
X166892857Y-137678571D01*
X167107142Y-137750000D01*
X167178571Y-137821428D01*
X167821428Y-139178571D02*
X167821428Y-137678571D01*
X167821428Y-138392857D02*
X168678571Y-138392857D01*
X168678571Y-139178571D02*
X168678571Y-137678571D01*
D12*
X123159000Y-80441000D02*
X123159000Y-79679000D01*
X131541000Y-80441000D02*
X123159000Y-80441000D01*
X131541000Y-72821000D02*
X131541000Y-72059000D01*
X123159000Y-72821000D02*
X123159000Y-72059000D01*
X131541000Y-72059000D02*
X123159000Y-72059000D01*
D13*
X197450000Y-119000000D02*
G75*
G03X197450000Y-119000000I-1750000J0D01*
G01*
X197550000Y-126000000D02*
G75*
G03X197550000Y-126000000I-1750000J0D01*
G01*
X118100000Y-63992000D02*
X118100000Y-51592000D01*
X109900000Y-64000000D02*
X109900000Y-51600000D01*
X126200000Y-63992000D02*
X126200000Y-51592000D01*
X104250000Y-137600000D02*
G75*
G03X104250000Y-137600000I-1750000J0D01*
G01*
X121200000Y-137000000D02*
G75*
G03X121200000Y-137000000I-1750000J0D01*
G01*
D12*
X106961252Y-136390000D02*
X106438748Y-136390000D01*
X106961252Y-137810000D02*
X106438748Y-137810000D01*
X114238748Y-137910000D02*
X114761252Y-137910000D01*
X114238748Y-136490000D02*
X114761252Y-136490000D01*
X163740000Y-104670000D02*
X165200000Y-104670000D01*
X163740000Y-107830000D02*
X165900000Y-107830000D01*
X163740000Y-107830000D02*
X163740000Y-106900000D01*
X163740000Y-104670000D02*
X163740000Y-105600000D01*
X159700000Y-92280000D02*
X159700000Y-116080000D01*
X100300000Y-116080000D02*
X100300000Y-92280000D01*
X159700000Y-116080000D02*
X100300000Y-116080000D01*
X100300000Y-92280000D02*
X159700000Y-92280000D01*
X131750000Y-125450000D02*
X131750000Y-124050000D01*
X132450000Y-123350000D02*
X133050000Y-123350000D01*
X133750000Y-124050000D02*
X133750000Y-125450000D01*
X133050000Y-126150000D02*
X132450000Y-126150000D01*
X132450000Y-126150000D02*
G75*
G02X131750000Y-125450000I0J700000D01*
G01*
X133750000Y-125450000D02*
G75*
G02X133050000Y-126150000I-700000J0D01*
G01*
X133050000Y-123350000D02*
G75*
G02X133750000Y-124050000I0J-700000D01*
G01*
X131750000Y-124050000D02*
G75*
G02X132450000Y-123350000I700000J0D01*
G01*
X131900000Y-133650000D02*
X131900000Y-132250000D01*
X132600000Y-131550000D02*
X133200000Y-131550000D01*
X133900000Y-132250000D02*
X133900000Y-133650000D01*
X133200000Y-134350000D02*
X132600000Y-134350000D01*
X132600000Y-134350000D02*
G75*
G02X131900000Y-133650000I0J700000D01*
G01*
X133900000Y-133650000D02*
G75*
G02X133200000Y-134350000I-700000J0D01*
G01*
X133200000Y-131550000D02*
G75*
G02X133900000Y-132250000I0J-700000D01*
G01*
X131900000Y-132250000D02*
G75*
G02X132600000Y-131550000I700000J0D01*
G01*
D13*
X124192000Y-125900000D02*
X111792000Y-125900000D01*
X124200000Y-134100000D02*
X111800000Y-134100000D01*
X124192000Y-117800000D02*
X111792000Y-117800000D01*
D12*
X136200000Y-82700000D02*
X136200000Y-87700000D01*
X156200000Y-82700000D02*
X156200000Y-87700000D01*
X158620354Y-82625000D02*
X158620354Y-83625000D01*
X158120354Y-83125000D02*
X159120354Y-83125000D01*
X168681000Y-85401000D02*
X168681000Y-86599000D01*
X168641000Y-85138000D02*
X168641000Y-86862000D01*
X168601000Y-84938000D02*
X168601000Y-87062000D01*
X168561000Y-84770000D02*
X168561000Y-87230000D01*
X168521000Y-84622000D02*
X168521000Y-87378000D01*
X168481000Y-84490000D02*
X168481000Y-87510000D01*
X168441000Y-84370000D02*
X168441000Y-87630000D01*
X168401000Y-84258000D02*
X168401000Y-87742000D01*
X168361000Y-84154000D02*
X168361000Y-87846000D01*
X168321000Y-84056000D02*
X168321000Y-87944000D01*
X168281000Y-83963000D02*
X168281000Y-88037000D01*
X168241000Y-83875000D02*
X168241000Y-88125000D01*
X168201000Y-83791000D02*
X168201000Y-88209000D01*
X168161000Y-83711000D02*
X168161000Y-88289000D01*
X168121000Y-83635000D02*
X168121000Y-88365000D01*
X168081000Y-83561000D02*
X168081000Y-88439000D01*
X168041000Y-83490000D02*
X168041000Y-88510000D01*
X168001000Y-83421000D02*
X168001000Y-88579000D01*
X167961000Y-83355000D02*
X167961000Y-88645000D01*
X167921000Y-83291000D02*
X167921000Y-88709000D01*
X167881000Y-83230000D02*
X167881000Y-88770000D01*
X167841000Y-83170000D02*
X167841000Y-88830000D01*
X167801000Y-83111000D02*
X167801000Y-88889000D01*
X167761000Y-83055000D02*
X167761000Y-88945000D01*
X167721000Y-83000000D02*
X167721000Y-89000000D01*
X167681000Y-82946000D02*
X167681000Y-89054000D01*
X167641000Y-82894000D02*
X167641000Y-89106000D01*
X167601000Y-82844000D02*
X167601000Y-89156000D01*
X167561000Y-82794000D02*
X167561000Y-89206000D01*
X167521000Y-82746000D02*
X167521000Y-89254000D01*
X167481000Y-82699000D02*
X167481000Y-89301000D01*
X167441000Y-82653000D02*
X167441000Y-89347000D01*
X167401000Y-82608000D02*
X167401000Y-89392000D01*
X167361000Y-82564000D02*
X167361000Y-89436000D01*
X167321000Y-87241000D02*
X167321000Y-89478000D01*
X167321000Y-82522000D02*
X167321000Y-84759000D01*
X167281000Y-87241000D02*
X167281000Y-89520000D01*
X167281000Y-82480000D02*
X167281000Y-84759000D01*
X167241000Y-87241000D02*
X167241000Y-89561000D01*
X167241000Y-82439000D02*
X167241000Y-84759000D01*
X167201000Y-87241000D02*
X167201000Y-89601000D01*
X167201000Y-82399000D02*
X167201000Y-84759000D01*
X167161000Y-87241000D02*
X167161000Y-89640000D01*
X167161000Y-82360000D02*
X167161000Y-84759000D01*
X167121000Y-87241000D02*
X167121000Y-89679000D01*
X167121000Y-82321000D02*
X167121000Y-84759000D01*
X167081000Y-87241000D02*
X167081000Y-89716000D01*
X167081000Y-82284000D02*
X167081000Y-84759000D01*
X167041000Y-87241000D02*
X167041000Y-89753000D01*
X167041000Y-82247000D02*
X167041000Y-84759000D01*
X167001000Y-87241000D02*
X167001000Y-89789000D01*
X167001000Y-82211000D02*
X167001000Y-84759000D01*
X166961000Y-87241000D02*
X166961000Y-89824000D01*
X166961000Y-82176000D02*
X166961000Y-84759000D01*
X166921000Y-87241000D02*
X166921000Y-89858000D01*
X166921000Y-82142000D02*
X166921000Y-84759000D01*
X166881000Y-87241000D02*
X166881000Y-89892000D01*
X166881000Y-82108000D02*
X166881000Y-84759000D01*
X166841000Y-87241000D02*
X166841000Y-89925000D01*
X166841000Y-82075000D02*
X166841000Y-84759000D01*
X166801000Y-87241000D02*
X166801000Y-89957000D01*
X166801000Y-82043000D02*
X166801000Y-84759000D01*
X166761000Y-87241000D02*
X166761000Y-89989000D01*
X166761000Y-82011000D02*
X166761000Y-84759000D01*
X166721000Y-87241000D02*
X166721000Y-90020000D01*
X166721000Y-81980000D02*
X166721000Y-84759000D01*
X166681000Y-87241000D02*
X166681000Y-90050000D01*
X166681000Y-81950000D02*
X166681000Y-84759000D01*
X166641000Y-87241000D02*
X166641000Y-90080000D01*
X166641000Y-81920000D02*
X166641000Y-84759000D01*
X166601000Y-87241000D02*
X166601000Y-90110000D01*
X166601000Y-81890000D02*
X166601000Y-84759000D01*
X166561000Y-87241000D02*
X166561000Y-90138000D01*
X166561000Y-81862000D02*
X166561000Y-84759000D01*
X166521000Y-87241000D02*
X166521000Y-90166000D01*
X166521000Y-81834000D02*
X166521000Y-84759000D01*
X166481000Y-87241000D02*
X166481000Y-90194000D01*
X166481000Y-81806000D02*
X166481000Y-84759000D01*
X166441000Y-87241000D02*
X166441000Y-90221000D01*
X166441000Y-81779000D02*
X166441000Y-84759000D01*
X166401000Y-87241000D02*
X166401000Y-90247000D01*
X166401000Y-81753000D02*
X166401000Y-84759000D01*
X166361000Y-87241000D02*
X166361000Y-90273000D01*
X166361000Y-81727000D02*
X166361000Y-84759000D01*
X166321000Y-87241000D02*
X166321000Y-90298000D01*
X166321000Y-81702000D02*
X166321000Y-84759000D01*
X166281000Y-87241000D02*
X166281000Y-90323000D01*
X166281000Y-81677000D02*
X166281000Y-84759000D01*
X166241000Y-87241000D02*
X166241000Y-90347000D01*
X166241000Y-81653000D02*
X166241000Y-84759000D01*
X166201000Y-87241000D02*
X166201000Y-90371000D01*
X166201000Y-81629000D02*
X166201000Y-84759000D01*
X166161000Y-87241000D02*
X166161000Y-90395000D01*
X166161000Y-81605000D02*
X166161000Y-84759000D01*
X166121000Y-87241000D02*
X166121000Y-90417000D01*
X166121000Y-81583000D02*
X166121000Y-84759000D01*
X166081000Y-87241000D02*
X166081000Y-90440000D01*
X166081000Y-81560000D02*
X166081000Y-84759000D01*
X166041000Y-87241000D02*
X166041000Y-90462000D01*
X166041000Y-81538000D02*
X166041000Y-84759000D01*
X166001000Y-87241000D02*
X166001000Y-90483000D01*
X166001000Y-81517000D02*
X166001000Y-84759000D01*
X165961000Y-87241000D02*
X165961000Y-90504000D01*
X165961000Y-81496000D02*
X165961000Y-84759000D01*
X165921000Y-87241000D02*
X165921000Y-90525000D01*
X165921000Y-81475000D02*
X165921000Y-84759000D01*
X165881000Y-87241000D02*
X165881000Y-90545000D01*
X165881000Y-81455000D02*
X165881000Y-84759000D01*
X165841000Y-87241000D02*
X165841000Y-90564000D01*
X165841000Y-81436000D02*
X165841000Y-84759000D01*
X165801000Y-87241000D02*
X165801000Y-90584000D01*
X165801000Y-81416000D02*
X165801000Y-84759000D01*
X165761000Y-87241000D02*
X165761000Y-90603000D01*
X165761000Y-81397000D02*
X165761000Y-84759000D01*
X165721000Y-87241000D02*
X165721000Y-90621000D01*
X165721000Y-81379000D02*
X165721000Y-84759000D01*
X165681000Y-87241000D02*
X165681000Y-90639000D01*
X165681000Y-81361000D02*
X165681000Y-84759000D01*
X165641000Y-87241000D02*
X165641000Y-90657000D01*
X165641000Y-81343000D02*
X165641000Y-84759000D01*
X165601000Y-87241000D02*
X165601000Y-90674000D01*
X165601000Y-81326000D02*
X165601000Y-84759000D01*
X165561000Y-87241000D02*
X165561000Y-90690000D01*
X165561000Y-81310000D02*
X165561000Y-84759000D01*
X165521000Y-87241000D02*
X165521000Y-90707000D01*
X165521000Y-81293000D02*
X165521000Y-84759000D01*
X165481000Y-87241000D02*
X165481000Y-90723000D01*
X165481000Y-81277000D02*
X165481000Y-84759000D01*
X165441000Y-87241000D02*
X165441000Y-90738000D01*
X165441000Y-81262000D02*
X165441000Y-84759000D01*
X165401000Y-87241000D02*
X165401000Y-90754000D01*
X165401000Y-81246000D02*
X165401000Y-84759000D01*
X165361000Y-87241000D02*
X165361000Y-90768000D01*
X165361000Y-81232000D02*
X165361000Y-84759000D01*
X165321000Y-87241000D02*
X165321000Y-90783000D01*
X165321000Y-81217000D02*
X165321000Y-84759000D01*
X165281000Y-87241000D02*
X165281000Y-90797000D01*
X165281000Y-81203000D02*
X165281000Y-84759000D01*
X165241000Y-87241000D02*
X165241000Y-90811000D01*
X165241000Y-81189000D02*
X165241000Y-84759000D01*
X165201000Y-87241000D02*
X165201000Y-90824000D01*
X165201000Y-81176000D02*
X165201000Y-84759000D01*
X165161000Y-87241000D02*
X165161000Y-90837000D01*
X165161000Y-81163000D02*
X165161000Y-84759000D01*
X165121000Y-87241000D02*
X165121000Y-90850000D01*
X165121000Y-81150000D02*
X165121000Y-84759000D01*
X165081000Y-87241000D02*
X165081000Y-90862000D01*
X165081000Y-81138000D02*
X165081000Y-84759000D01*
X165041000Y-87241000D02*
X165041000Y-90874000D01*
X165041000Y-81126000D02*
X165041000Y-84759000D01*
X165001000Y-87241000D02*
X165001000Y-90885000D01*
X165001000Y-81115000D02*
X165001000Y-84759000D01*
X164961000Y-87241000D02*
X164961000Y-90897000D01*
X164961000Y-81103000D02*
X164961000Y-84759000D01*
X164921000Y-87241000D02*
X164921000Y-90907000D01*
X164921000Y-81093000D02*
X164921000Y-84759000D01*
X164881000Y-87241000D02*
X164881000Y-90918000D01*
X164881000Y-81082000D02*
X164881000Y-84759000D01*
X164841000Y-81072000D02*
X164841000Y-90928000D01*
X164801000Y-81062000D02*
X164801000Y-90938000D01*
X164761000Y-81053000D02*
X164761000Y-90947000D01*
X164721000Y-81044000D02*
X164721000Y-90956000D01*
X164681000Y-81035000D02*
X164681000Y-90965000D01*
X164641000Y-81026000D02*
X164641000Y-90974000D01*
X164601000Y-81018000D02*
X164601000Y-90982000D01*
X164561000Y-81010000D02*
X164561000Y-90990000D01*
X164521000Y-81003000D02*
X164521000Y-90997000D01*
X164481000Y-80996000D02*
X164481000Y-91004000D01*
X164441000Y-80989000D02*
X164441000Y-91011000D01*
X164401000Y-80982000D02*
X164401000Y-91018000D01*
X164361000Y-80976000D02*
X164361000Y-91024000D01*
X164321000Y-80970000D02*
X164321000Y-91030000D01*
X164280000Y-80965000D02*
X164280000Y-91035000D01*
X164240000Y-80960000D02*
X164240000Y-91040000D01*
X164200000Y-80955000D02*
X164200000Y-91045000D01*
X164160000Y-80950000D02*
X164160000Y-91050000D01*
X164120000Y-80946000D02*
X164120000Y-91054000D01*
X164080000Y-80942000D02*
X164080000Y-91058000D01*
X164040000Y-80938000D02*
X164040000Y-91062000D01*
X164000000Y-80935000D02*
X164000000Y-91065000D01*
X163960000Y-80932000D02*
X163960000Y-91068000D01*
X163920000Y-80930000D02*
X163920000Y-91070000D01*
X163880000Y-80927000D02*
X163880000Y-91073000D01*
X163840000Y-80925000D02*
X163840000Y-91075000D01*
X163800000Y-80923000D02*
X163800000Y-91077000D01*
X163760000Y-80922000D02*
X163760000Y-91078000D01*
X163720000Y-80921000D02*
X163720000Y-91079000D01*
X163680000Y-80920000D02*
X163680000Y-91080000D01*
X163640000Y-80920000D02*
X163640000Y-91080000D01*
X163600000Y-80920000D02*
X163600000Y-91080000D01*
X168720000Y-86000000D02*
G75*
G03X168720000Y-86000000I-5120000J0D01*
G01*
D13*
X168400000Y-134950000D02*
G75*
G03X168400000Y-134950000I-1750000J0D01*
G01*
X159450000Y-134750000D02*
G75*
G03X159450000Y-134750000I-1750000J0D01*
G01*
D12*
X179838748Y-126360000D02*
X180361252Y-126360000D01*
X179838748Y-124940000D02*
X180361252Y-124940000D01*
X179838748Y-128810000D02*
X180361252Y-128810000D01*
X179838748Y-127390000D02*
X180361252Y-127390000D01*
X179838748Y-131410000D02*
X180361252Y-131410000D01*
X179838748Y-129990000D02*
X180361252Y-129990000D01*
X182650000Y-84700000D02*
X178750000Y-84700000D01*
X183200044Y-87700000D02*
X178750000Y-87700000D01*
X183200000Y-86900000D02*
X183200000Y-87700000D01*
X149588748Y-128960000D02*
X150111252Y-128960000D01*
X149588748Y-127540000D02*
X150111252Y-127540000D01*
X137900000Y-139650000D02*
X138300000Y-139650000D01*
X137900000Y-139010000D02*
X137900000Y-139650000D01*
X149305000Y-135791000D02*
X149176000Y-135919000D01*
X151520000Y-133575000D02*
X151426000Y-133669000D01*
X149475000Y-136031000D02*
X149381000Y-136124000D01*
X151725000Y-133781000D02*
X151596000Y-133909000D01*
X145805000Y-135791000D02*
X145676000Y-135919000D01*
X148020000Y-133575000D02*
X147926000Y-133669000D01*
X145975000Y-136031000D02*
X145881000Y-136124000D01*
X148225000Y-133781000D02*
X148096000Y-133909000D01*
X142305000Y-135791000D02*
X142176000Y-135919000D01*
X144520000Y-133575000D02*
X144426000Y-133669000D01*
X142475000Y-136031000D02*
X142381000Y-136124000D01*
X144725000Y-133781000D02*
X144596000Y-133909000D01*
X152260000Y-131690000D02*
X152260000Y-139410000D01*
X138140000Y-131690000D02*
X138140000Y-139410000D01*
X138140000Y-139410000D02*
X152260000Y-139410000D01*
X138140000Y-131690000D02*
X152260000Y-131690000D01*
X138140000Y-137850000D02*
X152260000Y-137850000D01*
X138140000Y-138950000D02*
X152260000Y-138950000D01*
X152130000Y-134850000D02*
G75*
G03X152130000Y-134850000I-1680000J0D01*
G01*
X148630000Y-134850000D02*
G75*
G03X148630000Y-134850000I-1680000J0D01*
G01*
X145130000Y-134850000D02*
G75*
G03X145130000Y-134850000I-1680000J0D01*
G01*
X139978674Y-136530099D02*
G75*
G02X139084000Y-136290000I-28674J1680099D01*
G01*
X138524642Y-135739894D02*
G75*
G02X138510000Y-133984000I1425358J889894D01*
G01*
X139060106Y-133424642D02*
G75*
G02X140816000Y-133410000I889894J-1425358D01*
G01*
X141375505Y-133959807D02*
G75*
G02X141375000Y-135741000I-1425505J-890193D01*
G01*
X140840264Y-136274721D02*
G75*
G02X139950000Y-136530000I-890264J1424721D01*
G01*
D13*
X146000000Y-63992000D02*
X146000000Y-51592000D01*
X137800000Y-64000000D02*
X137800000Y-51600000D01*
X154100000Y-63992000D02*
X154100000Y-51592000D01*
D12*
X151980000Y-126680000D02*
X155430000Y-126680000D01*
X151980000Y-126680000D02*
X150030000Y-126680000D01*
X151980000Y-121560000D02*
X153930000Y-121560000D01*
X151980000Y-121560000D02*
X150030000Y-121560000D01*
X125387000Y-83295000D02*
X123922000Y-83295000D01*
X125387000Y-82940000D02*
X125387000Y-83295000D01*
X127800000Y-82940000D02*
X125387000Y-82941000D01*
X130086000Y-82940000D02*
X130086000Y-83295000D01*
X127800000Y-82940000D02*
X130086000Y-82941000D01*
X125387000Y-87260000D02*
X125387000Y-86905000D01*
X127800000Y-87260000D02*
X125387000Y-87259000D01*
X130086000Y-87260000D02*
X130086000Y-86905000D01*
X127800000Y-87260000D02*
X130086000Y-87260000D01*
X157395000Y-66810000D02*
X157395000Y-68275000D01*
X157040000Y-66810000D02*
X157395000Y-66810000D01*
X157040000Y-64800000D02*
X157040000Y-66810000D01*
X157040000Y-62790000D02*
X157395000Y-62790000D01*
X157040000Y-64800000D02*
X157040000Y-62790000D01*
X161360000Y-66810000D02*
X161005000Y-66810000D01*
X161360000Y-64800000D02*
X161360000Y-66810000D01*
X161360000Y-62790000D02*
X161005000Y-62790000D01*
X161360000Y-64800000D02*
X161360000Y-62790000D01*
X176200000Y-61390000D02*
X176200000Y-62630000D01*
X174960000Y-61390000D02*
X176200000Y-61390000D01*
X175960000Y-73250000D02*
X167340000Y-73250000D01*
X175960000Y-61630000D02*
X167340000Y-61630000D01*
X167340000Y-61630000D02*
X167340000Y-73250000D01*
X175960000Y-61630000D02*
X175960000Y-73250000D01*
X158800000Y-74990000D02*
X156350000Y-74990000D01*
X157000000Y-78210000D02*
X158800000Y-78210000D01*
X187700000Y-84310000D02*
X190150000Y-84310000D01*
X189500000Y-81090000D02*
X187700000Y-81090000D01*
D13*
X197440000Y-133660000D02*
G75*
G03X197440000Y-133660000I-1750000J0D01*
G01*
X195700000Y-97850000D02*
G75*
G03X195700000Y-97850000I-1750000J0D01*
G01*
D12*
X120490000Y-86138748D02*
X120490000Y-86661252D01*
X121910000Y-86138748D02*
X121910000Y-86661252D01*
X163010000Y-72461252D02*
X163010000Y-71938748D01*
X161590000Y-72461252D02*
X161590000Y-71938748D01*
X193540000Y-56200000D02*
X192360000Y-56200000D01*
X165940000Y-56200000D02*
X167120000Y-56200000D01*
X192360000Y-51580000D02*
X167120000Y-51580000D01*
X192360000Y-60820000D02*
X192360000Y-51580000D01*
X167120000Y-60820000D02*
X192360000Y-60820000D01*
X167120000Y-51580000D02*
X167120000Y-60820000D01*
X193540000Y-46400000D02*
X192360000Y-46400000D01*
X165940000Y-46400000D02*
X167120000Y-46400000D01*
X192360000Y-41780000D02*
X167120000Y-41780000D01*
X192360000Y-51020000D02*
X192360000Y-41780000D01*
X167120000Y-51020000D02*
X192360000Y-51020000D01*
X167120000Y-41780000D02*
X167120000Y-51020000D01*
X153410000Y-73061252D02*
X153410000Y-72538748D01*
X151990000Y-73061252D02*
X151990000Y-72538748D01*
X151438748Y-77910000D02*
X151961252Y-77910000D01*
X151438748Y-76490000D02*
X151961252Y-76490000D01*
X146938748Y-77910000D02*
X147461252Y-77910000D01*
X146938748Y-76490000D02*
X147461252Y-76490000D01*
X195590000Y-82563748D02*
X195590000Y-83086252D01*
X197010000Y-82563748D02*
X197010000Y-83086252D01*
X195590000Y-77963748D02*
X195590000Y-78486252D01*
X197010000Y-77963748D02*
X197010000Y-78486252D01*
X195590000Y-73638748D02*
X195590000Y-74161252D01*
X197010000Y-73638748D02*
X197010000Y-74161252D01*
X180802064Y-63140000D02*
X179597936Y-63140000D01*
X180802064Y-65860000D02*
X179597936Y-65860000D01*
X187950000Y-63250000D02*
X196550000Y-63250000D01*
X187950000Y-63250000D02*
X187950000Y-67350000D01*
X196550000Y-63250000D02*
X196550000Y-67350000D01*
X187950000Y-67350000D02*
X196550000Y-67350000D01*
X155238748Y-128710000D02*
X155761252Y-128710000D01*
X155238748Y-127290000D02*
X155761252Y-127290000D01*
X194338748Y-106010000D02*
X194861252Y-106010000D01*
X194338748Y-104590000D02*
X194861252Y-104590000D01*
X178138748Y-74410000D02*
X178661252Y-74410000D01*
X178138748Y-72990000D02*
X178661252Y-72990000D01*
X176740000Y-69097936D02*
X176740000Y-70302064D01*
X179460000Y-69097936D02*
X179460000Y-70302064D01*
X183740000Y-65397936D02*
X183740000Y-66602064D01*
X186460000Y-65397936D02*
X186460000Y-66602064D01*
X190440000Y-93760000D02*
X172400000Y-93760000D01*
X190440000Y-137200000D02*
X190440000Y-93760000D01*
X172400000Y-137200000D02*
X190440000Y-137200000D01*
X175070000Y-134530000D02*
X172400000Y-134530000D01*
X175070000Y-98970000D02*
X175070000Y-134530000D01*
X175070000Y-98970000D02*
X172400000Y-98970000D01*
X187770000Y-134530000D02*
X190440000Y-134530000D01*
X187770000Y-96430000D02*
X187770000Y-134530000D01*
X187770000Y-96430000D02*
X190440000Y-96430000D01*
X172400000Y-93760000D02*
X172400000Y-96430000D01*
X172400000Y-98970000D02*
X172400000Y-137200000D01*
X175070000Y-96430000D02*
X172400000Y-96430000D01*
X175070000Y-98970000D02*
X175070000Y-96430000D01*
D13*
X133612619Y-72662238D02*
X133565000Y-72757476D01*
X133469761Y-72852714D01*
X133326904Y-72995571D01*
X133279285Y-73090809D01*
X133279285Y-73186047D01*
X133517380Y-73138428D02*
X133469761Y-73233666D01*
X133374523Y-73328904D01*
X133184047Y-73376523D01*
X132850714Y-73376523D01*
X132660238Y-73328904D01*
X132565000Y-73233666D01*
X132517380Y-73138428D01*
X132517380Y-72947952D01*
X132565000Y-72852714D01*
X132660238Y-72757476D01*
X132850714Y-72709857D01*
X133184047Y-72709857D01*
X133374523Y-72757476D01*
X133469761Y-72852714D01*
X133517380Y-72947952D01*
X133517380Y-73138428D01*
X133517380Y-71757476D02*
X133517380Y-72328904D01*
X133517380Y-72043190D02*
X132517380Y-72043190D01*
X132660238Y-72138428D01*
X132755476Y-72233666D01*
X132803095Y-72328904D01*
X194438095Y-115702380D02*
X195009523Y-115702380D01*
X194723809Y-116702380D02*
X194723809Y-115702380D01*
X195342857Y-116702380D02*
X195342857Y-115702380D01*
X195723809Y-115702380D01*
X195819047Y-115750000D01*
X195866666Y-115797619D01*
X195914285Y-115892857D01*
X195914285Y-116035714D01*
X195866666Y-116130952D01*
X195819047Y-116178571D01*
X195723809Y-116226190D01*
X195342857Y-116226190D01*
X196485714Y-116130952D02*
X196390476Y-116083333D01*
X196342857Y-116035714D01*
X196295238Y-115940476D01*
X196295238Y-115892857D01*
X196342857Y-115797619D01*
X196390476Y-115750000D01*
X196485714Y-115702380D01*
X196676190Y-115702380D01*
X196771428Y-115750000D01*
X196819047Y-115797619D01*
X196866666Y-115892857D01*
X196866666Y-115940476D01*
X196819047Y-116035714D01*
X196771428Y-116083333D01*
X196676190Y-116130952D01*
X196485714Y-116130952D01*
X196390476Y-116178571D01*
X196342857Y-116226190D01*
X196295238Y-116321428D01*
X196295238Y-116511904D01*
X196342857Y-116607142D01*
X196390476Y-116654761D01*
X196485714Y-116702380D01*
X196676190Y-116702380D01*
X196771428Y-116654761D01*
X196819047Y-116607142D01*
X196866666Y-116511904D01*
X196866666Y-116321428D01*
X196819047Y-116226190D01*
X196771428Y-116178571D01*
X196676190Y-116130952D01*
X191388095Y-124502380D02*
X191959523Y-124502380D01*
X191673809Y-125502380D02*
X191673809Y-124502380D01*
X192292857Y-125502380D02*
X192292857Y-124502380D01*
X192673809Y-124502380D01*
X192769047Y-124550000D01*
X192816666Y-124597619D01*
X192864285Y-124692857D01*
X192864285Y-124835714D01*
X192816666Y-124930952D01*
X192769047Y-124978571D01*
X192673809Y-125026190D01*
X192292857Y-125026190D01*
X193769047Y-124502380D02*
X193292857Y-124502380D01*
X193245238Y-124978571D01*
X193292857Y-124930952D01*
X193388095Y-124883333D01*
X193626190Y-124883333D01*
X193721428Y-124930952D01*
X193769047Y-124978571D01*
X193816666Y-125073809D01*
X193816666Y-125311904D01*
X193769047Y-125407142D01*
X193721428Y-125454761D01*
X193626190Y-125502380D01*
X193388095Y-125502380D01*
X193292857Y-125454761D01*
X193245238Y-125407142D01*
X110066666Y-65052380D02*
X110066666Y-65766666D01*
X110019047Y-65909523D01*
X109923809Y-66004761D01*
X109780952Y-66052380D01*
X109685714Y-66052380D01*
X110447619Y-65052380D02*
X111066666Y-65052380D01*
X110733333Y-65433333D01*
X110876190Y-65433333D01*
X110971428Y-65480952D01*
X111019047Y-65528571D01*
X111066666Y-65623809D01*
X111066666Y-65861904D01*
X111019047Y-65957142D01*
X110971428Y-66004761D01*
X110876190Y-66052380D01*
X110590476Y-66052380D01*
X110495238Y-66004761D01*
X110447619Y-65957142D01*
X108990476Y-118202380D02*
X108990476Y-117202380D01*
X109323809Y-117916666D01*
X109657142Y-117202380D01*
X109657142Y-118202380D01*
X110038095Y-117202380D02*
X110657142Y-117202380D01*
X110323809Y-117583333D01*
X110466666Y-117583333D01*
X110561904Y-117630952D01*
X110609523Y-117678571D01*
X110657142Y-117773809D01*
X110657142Y-118011904D01*
X110609523Y-118107142D01*
X110561904Y-118154761D01*
X110466666Y-118202380D01*
X110180952Y-118202380D01*
X110085714Y-118154761D01*
X110038095Y-118107142D01*
X103188095Y-134802380D02*
X103759523Y-134802380D01*
X103473809Y-135802380D02*
X103473809Y-134802380D01*
X104092857Y-135802380D02*
X104092857Y-134802380D01*
X104473809Y-134802380D01*
X104569047Y-134850000D01*
X104616666Y-134897619D01*
X104664285Y-134992857D01*
X104664285Y-135135714D01*
X104616666Y-135230952D01*
X104569047Y-135278571D01*
X104473809Y-135326190D01*
X104092857Y-135326190D01*
X104997619Y-134802380D02*
X105664285Y-134802380D01*
X105235714Y-135802380D01*
X121888095Y-137852380D02*
X122459523Y-137852380D01*
X122173809Y-138852380D02*
X122173809Y-137852380D01*
X122792857Y-138852380D02*
X122792857Y-137852380D01*
X123173809Y-137852380D01*
X123269047Y-137900000D01*
X123316666Y-137947619D01*
X123364285Y-138042857D01*
X123364285Y-138185714D01*
X123316666Y-138280952D01*
X123269047Y-138328571D01*
X123173809Y-138376190D01*
X122792857Y-138376190D01*
X124221428Y-137852380D02*
X124030952Y-137852380D01*
X123935714Y-137900000D01*
X123888095Y-137947619D01*
X123792857Y-138090476D01*
X123745238Y-138280952D01*
X123745238Y-138661904D01*
X123792857Y-138757142D01*
X123840476Y-138804761D01*
X123935714Y-138852380D01*
X124126190Y-138852380D01*
X124221428Y-138804761D01*
X124269047Y-138757142D01*
X124316666Y-138661904D01*
X124316666Y-138423809D01*
X124269047Y-138328571D01*
X124221428Y-138280952D01*
X124126190Y-138233333D01*
X123935714Y-138233333D01*
X123840476Y-138280952D01*
X123792857Y-138328571D01*
X123745238Y-138423809D01*
X106057142Y-139202380D02*
X105723809Y-138726190D01*
X105485714Y-139202380D02*
X105485714Y-138202380D01*
X105866666Y-138202380D01*
X105961904Y-138250000D01*
X106009523Y-138297619D01*
X106057142Y-138392857D01*
X106057142Y-138535714D01*
X106009523Y-138630952D01*
X105961904Y-138678571D01*
X105866666Y-138726190D01*
X105485714Y-138726190D01*
X107009523Y-139202380D02*
X106438095Y-139202380D01*
X106723809Y-139202380D02*
X106723809Y-138202380D01*
X106628571Y-138345238D01*
X106533333Y-138440476D01*
X106438095Y-138488095D01*
X107914285Y-138202380D02*
X107438095Y-138202380D01*
X107390476Y-138678571D01*
X107438095Y-138630952D01*
X107533333Y-138583333D01*
X107771428Y-138583333D01*
X107866666Y-138630952D01*
X107914285Y-138678571D01*
X107961904Y-138773809D01*
X107961904Y-139011904D01*
X107914285Y-139107142D01*
X107866666Y-139154761D01*
X107771428Y-139202380D01*
X107533333Y-139202380D01*
X107438095Y-139154761D01*
X107390476Y-139107142D01*
X113957142Y-139452380D02*
X113623809Y-138976190D01*
X113385714Y-139452380D02*
X113385714Y-138452380D01*
X113766666Y-138452380D01*
X113861904Y-138500000D01*
X113909523Y-138547619D01*
X113957142Y-138642857D01*
X113957142Y-138785714D01*
X113909523Y-138880952D01*
X113861904Y-138928571D01*
X113766666Y-138976190D01*
X113385714Y-138976190D01*
X114909523Y-139452380D02*
X114338095Y-139452380D01*
X114623809Y-139452380D02*
X114623809Y-138452380D01*
X114528571Y-138595238D01*
X114433333Y-138690476D01*
X114338095Y-138738095D01*
X115766666Y-138785714D02*
X115766666Y-139452380D01*
X115528571Y-138404761D02*
X115290476Y-139119047D01*
X115909523Y-139119047D01*
X164404761Y-109297619D02*
X164309523Y-109250000D01*
X164214285Y-109154761D01*
X164071428Y-109011904D01*
X163976190Y-108964285D01*
X163880952Y-108964285D01*
X163928571Y-109202380D02*
X163833333Y-109154761D01*
X163738095Y-109059523D01*
X163690476Y-108869047D01*
X163690476Y-108535714D01*
X163738095Y-108345238D01*
X163833333Y-108250000D01*
X163928571Y-108202380D01*
X164119047Y-108202380D01*
X164214285Y-108250000D01*
X164309523Y-108345238D01*
X164357142Y-108535714D01*
X164357142Y-108869047D01*
X164309523Y-109059523D01*
X164214285Y-109154761D01*
X164119047Y-109202380D01*
X163928571Y-109202380D01*
X164738095Y-108297619D02*
X164785714Y-108250000D01*
X164880952Y-108202380D01*
X165119047Y-108202380D01*
X165214285Y-108250000D01*
X165261904Y-108297619D01*
X165309523Y-108392857D01*
X165309523Y-108488095D01*
X165261904Y-108630952D01*
X164690476Y-109202380D01*
X165309523Y-109202380D01*
X156385714Y-117552380D02*
X156385714Y-116552380D01*
X156766666Y-116552380D01*
X156861904Y-116600000D01*
X156909523Y-116647619D01*
X156957142Y-116742857D01*
X156957142Y-116885714D01*
X156909523Y-116980952D01*
X156861904Y-117028571D01*
X156766666Y-117076190D01*
X156385714Y-117076190D01*
X157338095Y-117504761D02*
X157480952Y-117552380D01*
X157719047Y-117552380D01*
X157814285Y-117504761D01*
X157861904Y-117457142D01*
X157909523Y-117361904D01*
X157909523Y-117266666D01*
X157861904Y-117171428D01*
X157814285Y-117123809D01*
X157719047Y-117076190D01*
X157528571Y-117028571D01*
X157433333Y-116980952D01*
X157385714Y-116933333D01*
X157338095Y-116838095D01*
X157338095Y-116742857D01*
X157385714Y-116647619D01*
X157433333Y-116600000D01*
X157528571Y-116552380D01*
X157766666Y-116552380D01*
X157909523Y-116600000D01*
X158861904Y-117552380D02*
X158290476Y-117552380D01*
X158576190Y-117552380D02*
X158576190Y-116552380D01*
X158480952Y-116695238D01*
X158385714Y-116790476D01*
X158290476Y-116838095D01*
X130402380Y-126059523D02*
X131116666Y-126059523D01*
X131259523Y-126107142D01*
X131354761Y-126202380D01*
X131402380Y-126345238D01*
X131402380Y-126440476D01*
X131402380Y-125583333D02*
X130402380Y-125583333D01*
X130402380Y-125202380D01*
X130450000Y-125107142D01*
X130497619Y-125059523D01*
X130592857Y-125011904D01*
X130735714Y-125011904D01*
X130830952Y-125059523D01*
X130878571Y-125107142D01*
X130926190Y-125202380D01*
X130926190Y-125583333D01*
X131402380Y-124059523D02*
X131402380Y-124630952D01*
X131402380Y-124345238D02*
X130402380Y-124345238D01*
X130545238Y-124440476D01*
X130640476Y-124535714D01*
X130688095Y-124630952D01*
X130402380Y-123440476D02*
X130402380Y-123345238D01*
X130450000Y-123250000D01*
X130497619Y-123202380D01*
X130592857Y-123154761D01*
X130783333Y-123107142D01*
X131021428Y-123107142D01*
X131211904Y-123154761D01*
X131307142Y-123202380D01*
X131354761Y-123250000D01*
X131402380Y-123345238D01*
X131402380Y-123440476D01*
X131354761Y-123535714D01*
X131307142Y-123583333D01*
X131211904Y-123630952D01*
X131021428Y-123678571D01*
X130783333Y-123678571D01*
X130592857Y-123630952D01*
X130497619Y-123583333D01*
X130450000Y-123535714D01*
X130402380Y-123440476D01*
X130552380Y-133783333D02*
X131266666Y-133783333D01*
X131409523Y-133830952D01*
X131504761Y-133926190D01*
X131552380Y-134069047D01*
X131552380Y-134164285D01*
X131552380Y-133307142D02*
X130552380Y-133307142D01*
X130552380Y-132926190D01*
X130600000Y-132830952D01*
X130647619Y-132783333D01*
X130742857Y-132735714D01*
X130885714Y-132735714D01*
X130980952Y-132783333D01*
X131028571Y-132830952D01*
X131076190Y-132926190D01*
X131076190Y-133307142D01*
X131552380Y-132259523D02*
X131552380Y-132069047D01*
X131504761Y-131973809D01*
X131457142Y-131926190D01*
X131314285Y-131830952D01*
X131123809Y-131783333D01*
X130742857Y-131783333D01*
X130647619Y-131830952D01*
X130600000Y-131878571D01*
X130552380Y-131973809D01*
X130552380Y-132164285D01*
X130600000Y-132259523D01*
X130647619Y-132307142D01*
X130742857Y-132354761D01*
X130980952Y-132354761D01*
X131076190Y-132307142D01*
X131123809Y-132259523D01*
X131171428Y-132164285D01*
X131171428Y-131973809D01*
X131123809Y-131878571D01*
X131076190Y-131830952D01*
X130980952Y-131783333D01*
X125252380Y-133933333D02*
X125966666Y-133933333D01*
X126109523Y-133980952D01*
X126204761Y-134076190D01*
X126252380Y-134219047D01*
X126252380Y-134314285D01*
X125252380Y-132980952D02*
X125252380Y-133457142D01*
X125728571Y-133504761D01*
X125680952Y-133457142D01*
X125633333Y-133361904D01*
X125633333Y-133123809D01*
X125680952Y-133028571D01*
X125728571Y-132980952D01*
X125823809Y-132933333D01*
X126061904Y-132933333D01*
X126157142Y-132980952D01*
X126204761Y-133028571D01*
X126252380Y-133123809D01*
X126252380Y-133361904D01*
X126204761Y-133457142D01*
X126157142Y-133504761D01*
X154266666Y-90128571D02*
X153933333Y-90128571D01*
X153933333Y-90652380D02*
X153933333Y-89652380D01*
X154409523Y-89652380D01*
X154742857Y-89747619D02*
X154790476Y-89700000D01*
X154885714Y-89652380D01*
X155123809Y-89652380D01*
X155219047Y-89700000D01*
X155266666Y-89747619D01*
X155314285Y-89842857D01*
X155314285Y-89938095D01*
X155266666Y-90080952D01*
X154695238Y-90652380D01*
X155314285Y-90652380D01*
X163433333Y-80107142D02*
X163385714Y-80154761D01*
X163242857Y-80202380D01*
X163147619Y-80202380D01*
X163004761Y-80154761D01*
X162909523Y-80059523D01*
X162861904Y-79964285D01*
X162814285Y-79773809D01*
X162814285Y-79630952D01*
X162861904Y-79440476D01*
X162909523Y-79345238D01*
X163004761Y-79250000D01*
X163147619Y-79202380D01*
X163242857Y-79202380D01*
X163385714Y-79250000D01*
X163433333Y-79297619D01*
X163766666Y-79202380D02*
X164433333Y-79202380D01*
X164004761Y-80202380D01*
X165388095Y-131652380D02*
X165959523Y-131652380D01*
X165673809Y-132652380D02*
X165673809Y-131652380D01*
X166292857Y-132652380D02*
X166292857Y-131652380D01*
X166673809Y-131652380D01*
X166769047Y-131700000D01*
X166816666Y-131747619D01*
X166864285Y-131842857D01*
X166864285Y-131985714D01*
X166816666Y-132080952D01*
X166769047Y-132128571D01*
X166673809Y-132176190D01*
X166292857Y-132176190D01*
X167816666Y-132652380D02*
X167245238Y-132652380D01*
X167530952Y-132652380D02*
X167530952Y-131652380D01*
X167435714Y-131795238D01*
X167340476Y-131890476D01*
X167245238Y-131938095D01*
X156438095Y-131452380D02*
X157009523Y-131452380D01*
X156723809Y-132452380D02*
X156723809Y-131452380D01*
X157342857Y-132452380D02*
X157342857Y-131452380D01*
X157723809Y-131452380D01*
X157819047Y-131500000D01*
X157866666Y-131547619D01*
X157914285Y-131642857D01*
X157914285Y-131785714D01*
X157866666Y-131880952D01*
X157819047Y-131928571D01*
X157723809Y-131976190D01*
X157342857Y-131976190D01*
X158295238Y-131547619D02*
X158342857Y-131500000D01*
X158438095Y-131452380D01*
X158676190Y-131452380D01*
X158771428Y-131500000D01*
X158819047Y-131547619D01*
X158866666Y-131642857D01*
X158866666Y-131738095D01*
X158819047Y-131880952D01*
X158247619Y-132452380D01*
X158866666Y-132452380D01*
X175957142Y-126202380D02*
X175623809Y-125726190D01*
X175385714Y-126202380D02*
X175385714Y-125202380D01*
X175766666Y-125202380D01*
X175861904Y-125250000D01*
X175909523Y-125297619D01*
X175957142Y-125392857D01*
X175957142Y-125535714D01*
X175909523Y-125630952D01*
X175861904Y-125678571D01*
X175766666Y-125726190D01*
X175385714Y-125726190D01*
X176909523Y-126202380D02*
X176338095Y-126202380D01*
X176623809Y-126202380D02*
X176623809Y-125202380D01*
X176528571Y-125345238D01*
X176433333Y-125440476D01*
X176338095Y-125488095D01*
X177242857Y-125202380D02*
X177861904Y-125202380D01*
X177528571Y-125583333D01*
X177671428Y-125583333D01*
X177766666Y-125630952D01*
X177814285Y-125678571D01*
X177861904Y-125773809D01*
X177861904Y-126011904D01*
X177814285Y-126107142D01*
X177766666Y-126154761D01*
X177671428Y-126202380D01*
X177385714Y-126202380D01*
X177290476Y-126154761D01*
X177242857Y-126107142D01*
X176032142Y-128552380D02*
X175698809Y-128076190D01*
X175460714Y-128552380D02*
X175460714Y-127552380D01*
X175841666Y-127552380D01*
X175936904Y-127600000D01*
X175984523Y-127647619D01*
X176032142Y-127742857D01*
X176032142Y-127885714D01*
X175984523Y-127980952D01*
X175936904Y-128028571D01*
X175841666Y-128076190D01*
X175460714Y-128076190D01*
X176984523Y-128552380D02*
X176413095Y-128552380D01*
X176698809Y-128552380D02*
X176698809Y-127552380D01*
X176603571Y-127695238D01*
X176508333Y-127790476D01*
X176413095Y-127838095D01*
X177365476Y-127647619D02*
X177413095Y-127600000D01*
X177508333Y-127552380D01*
X177746428Y-127552380D01*
X177841666Y-127600000D01*
X177889285Y-127647619D01*
X177936904Y-127742857D01*
X177936904Y-127838095D01*
X177889285Y-127980952D01*
X177317857Y-128552380D01*
X177936904Y-128552380D01*
X175982142Y-131252380D02*
X175648809Y-130776190D01*
X175410714Y-131252380D02*
X175410714Y-130252380D01*
X175791666Y-130252380D01*
X175886904Y-130300000D01*
X175934523Y-130347619D01*
X175982142Y-130442857D01*
X175982142Y-130585714D01*
X175934523Y-130680952D01*
X175886904Y-130728571D01*
X175791666Y-130776190D01*
X175410714Y-130776190D01*
X176934523Y-131252380D02*
X176363095Y-131252380D01*
X176648809Y-131252380D02*
X176648809Y-130252380D01*
X176553571Y-130395238D01*
X176458333Y-130490476D01*
X176363095Y-130538095D01*
X177886904Y-131252380D02*
X177315476Y-131252380D01*
X177601190Y-131252380D02*
X177601190Y-130252380D01*
X177505952Y-130395238D01*
X177410714Y-130490476D01*
X177315476Y-130538095D01*
X179961904Y-89302380D02*
X179961904Y-88302380D01*
X180200000Y-88302380D01*
X180342857Y-88350000D01*
X180438095Y-88445238D01*
X180485714Y-88540476D01*
X180533333Y-88730952D01*
X180533333Y-88873809D01*
X180485714Y-89064285D01*
X180438095Y-89159523D01*
X180342857Y-89254761D01*
X180200000Y-89302380D01*
X179961904Y-89302380D01*
X181485714Y-89302380D02*
X180914285Y-89302380D01*
X181200000Y-89302380D02*
X181200000Y-88302380D01*
X181104761Y-88445238D01*
X181009523Y-88540476D01*
X180914285Y-88588095D01*
X149633333Y-130807142D02*
X149585714Y-130854761D01*
X149442857Y-130902380D01*
X149347619Y-130902380D01*
X149204761Y-130854761D01*
X149109523Y-130759523D01*
X149061904Y-130664285D01*
X149014285Y-130473809D01*
X149014285Y-130330952D01*
X149061904Y-130140476D01*
X149109523Y-130045238D01*
X149204761Y-129950000D01*
X149347619Y-129902380D01*
X149442857Y-129902380D01*
X149585714Y-129950000D01*
X149633333Y-129997619D01*
X150490476Y-129902380D02*
X150300000Y-129902380D01*
X150204761Y-129950000D01*
X150157142Y-129997619D01*
X150061904Y-130140476D01*
X150014285Y-130330952D01*
X150014285Y-130711904D01*
X150061904Y-130807142D01*
X150109523Y-130854761D01*
X150204761Y-130902380D01*
X150395238Y-130902380D01*
X150490476Y-130854761D01*
X150538095Y-130807142D01*
X150585714Y-130711904D01*
X150585714Y-130473809D01*
X150538095Y-130378571D01*
X150490476Y-130330952D01*
X150395238Y-130283333D01*
X150204761Y-130283333D01*
X150109523Y-130330952D01*
X150061904Y-130378571D01*
X150014285Y-130473809D01*
X144866666Y-130142380D02*
X144866666Y-130856666D01*
X144819047Y-130999523D01*
X144723809Y-131094761D01*
X144580952Y-131142380D01*
X144485714Y-131142380D01*
X145866666Y-131142380D02*
X145295238Y-131142380D01*
X145580952Y-131142380D02*
X145580952Y-130142380D01*
X145485714Y-130285238D01*
X145390476Y-130380476D01*
X145295238Y-130428095D01*
X137966666Y-65052380D02*
X137966666Y-65766666D01*
X137919047Y-65909523D01*
X137823809Y-66004761D01*
X137680952Y-66052380D01*
X137585714Y-66052380D01*
X138395238Y-65147619D02*
X138442857Y-65100000D01*
X138538095Y-65052380D01*
X138776190Y-65052380D01*
X138871428Y-65100000D01*
X138919047Y-65147619D01*
X138966666Y-65242857D01*
X138966666Y-65338095D01*
X138919047Y-65480952D01*
X138347619Y-66052380D01*
X138966666Y-66052380D01*
X151947619Y-118338095D02*
X151138095Y-118338095D01*
X151042857Y-118385714D01*
X150995238Y-118433333D01*
X150947619Y-118528571D01*
X150947619Y-118719047D01*
X150995238Y-118814285D01*
X151042857Y-118861904D01*
X151138095Y-118909523D01*
X151947619Y-118909523D01*
X151947619Y-119814285D02*
X151947619Y-119623809D01*
X151900000Y-119528571D01*
X151852380Y-119480952D01*
X151709523Y-119385714D01*
X151519047Y-119338095D01*
X151138095Y-119338095D01*
X151042857Y-119385714D01*
X150995238Y-119433333D01*
X150947619Y-119528571D01*
X150947619Y-119719047D01*
X150995238Y-119814285D01*
X151042857Y-119861904D01*
X151138095Y-119909523D01*
X151376190Y-119909523D01*
X151471428Y-119861904D01*
X151519047Y-119814285D01*
X151566666Y-119719047D01*
X151566666Y-119528571D01*
X151519047Y-119433333D01*
X151471428Y-119385714D01*
X151376190Y-119338095D01*
X125347619Y-87838095D02*
X124538095Y-87838095D01*
X124442857Y-87885714D01*
X124395238Y-87933333D01*
X124347619Y-88028571D01*
X124347619Y-88219047D01*
X124395238Y-88314285D01*
X124442857Y-88361904D01*
X124538095Y-88409523D01*
X125347619Y-88409523D01*
X125347619Y-89361904D02*
X125347619Y-88885714D01*
X124871428Y-88838095D01*
X124919047Y-88885714D01*
X124966666Y-88980952D01*
X124966666Y-89219047D01*
X124919047Y-89314285D01*
X124871428Y-89361904D01*
X124776190Y-89409523D01*
X124538095Y-89409523D01*
X124442857Y-89361904D01*
X124395238Y-89314285D01*
X124347619Y-89219047D01*
X124347619Y-88980952D01*
X124395238Y-88885714D01*
X124442857Y-88838095D01*
X156747619Y-64038095D02*
X155938095Y-64038095D01*
X155842857Y-64085714D01*
X155795238Y-64133333D01*
X155747619Y-64228571D01*
X155747619Y-64419047D01*
X155795238Y-64514285D01*
X155842857Y-64561904D01*
X155938095Y-64609523D01*
X156747619Y-64609523D01*
X156414285Y-65514285D02*
X155747619Y-65514285D01*
X156795238Y-65276190D02*
X156080952Y-65038095D01*
X156080952Y-65657142D01*
X173838095Y-73952380D02*
X173838095Y-74761904D01*
X173885714Y-74857142D01*
X173933333Y-74904761D01*
X174028571Y-74952380D01*
X174219047Y-74952380D01*
X174314285Y-74904761D01*
X174361904Y-74857142D01*
X174409523Y-74761904D01*
X174409523Y-73952380D01*
X174790476Y-73952380D02*
X175409523Y-73952380D01*
X175076190Y-74333333D01*
X175219047Y-74333333D01*
X175314285Y-74380952D01*
X175361904Y-74428571D01*
X175409523Y-74523809D01*
X175409523Y-74761904D01*
X175361904Y-74857142D01*
X175314285Y-74904761D01*
X175219047Y-74952380D01*
X174933333Y-74952380D01*
X174838095Y-74904761D01*
X174790476Y-74857142D01*
X157138095Y-73152380D02*
X157138095Y-73961904D01*
X157185714Y-74057142D01*
X157233333Y-74104761D01*
X157328571Y-74152380D01*
X157519047Y-74152380D01*
X157614285Y-74104761D01*
X157661904Y-74057142D01*
X157709523Y-73961904D01*
X157709523Y-73152380D01*
X158138095Y-73247619D02*
X158185714Y-73200000D01*
X158280952Y-73152380D01*
X158519047Y-73152380D01*
X158614285Y-73200000D01*
X158661904Y-73247619D01*
X158709523Y-73342857D01*
X158709523Y-73438095D01*
X158661904Y-73580952D01*
X158090476Y-74152380D01*
X158709523Y-74152380D01*
X187838095Y-85052380D02*
X187838095Y-85861904D01*
X187885714Y-85957142D01*
X187933333Y-86004761D01*
X188028571Y-86052380D01*
X188219047Y-86052380D01*
X188314285Y-86004761D01*
X188361904Y-85957142D01*
X188409523Y-85861904D01*
X188409523Y-85052380D01*
X189409523Y-86052380D02*
X188838095Y-86052380D01*
X189123809Y-86052380D02*
X189123809Y-85052380D01*
X189028571Y-85195238D01*
X188933333Y-85290476D01*
X188838095Y-85338095D01*
X191238095Y-131852380D02*
X191809523Y-131852380D01*
X191523809Y-132852380D02*
X191523809Y-131852380D01*
X192142857Y-132852380D02*
X192142857Y-131852380D01*
X192523809Y-131852380D01*
X192619047Y-131900000D01*
X192666666Y-131947619D01*
X192714285Y-132042857D01*
X192714285Y-132185714D01*
X192666666Y-132280952D01*
X192619047Y-132328571D01*
X192523809Y-132376190D01*
X192142857Y-132376190D01*
X193571428Y-132185714D02*
X193571428Y-132852380D01*
X193333333Y-131804761D02*
X193095238Y-132519047D01*
X193714285Y-132519047D01*
X192688095Y-94552380D02*
X193259523Y-94552380D01*
X192973809Y-95552380D02*
X192973809Y-94552380D01*
X193592857Y-95552380D02*
X193592857Y-94552380D01*
X193973809Y-94552380D01*
X194069047Y-94600000D01*
X194116666Y-94647619D01*
X194164285Y-94742857D01*
X194164285Y-94885714D01*
X194116666Y-94980952D01*
X194069047Y-95028571D01*
X193973809Y-95076190D01*
X193592857Y-95076190D01*
X194497619Y-94552380D02*
X195116666Y-94552380D01*
X194783333Y-94933333D01*
X194926190Y-94933333D01*
X195021428Y-94980952D01*
X195069047Y-95028571D01*
X195116666Y-95123809D01*
X195116666Y-95361904D01*
X195069047Y-95457142D01*
X195021428Y-95504761D01*
X194926190Y-95552380D01*
X194640476Y-95552380D01*
X194545238Y-95504761D01*
X194497619Y-95457142D01*
X123302380Y-87042857D02*
X122826190Y-87376190D01*
X123302380Y-87614285D02*
X122302380Y-87614285D01*
X122302380Y-87233333D01*
X122350000Y-87138095D01*
X122397619Y-87090476D01*
X122492857Y-87042857D01*
X122635714Y-87042857D01*
X122730952Y-87090476D01*
X122778571Y-87138095D01*
X122826190Y-87233333D01*
X122826190Y-87614285D01*
X123302380Y-86090476D02*
X123302380Y-86661904D01*
X123302380Y-86376190D02*
X122302380Y-86376190D01*
X122445238Y-86471428D01*
X122540476Y-86566666D01*
X122588095Y-86661904D01*
X122302380Y-85471428D02*
X122302380Y-85376190D01*
X122350000Y-85280952D01*
X122397619Y-85233333D01*
X122492857Y-85185714D01*
X122683333Y-85138095D01*
X122921428Y-85138095D01*
X123111904Y-85185714D01*
X123207142Y-85233333D01*
X123254761Y-85280952D01*
X123302380Y-85376190D01*
X123302380Y-85471428D01*
X123254761Y-85566666D01*
X123207142Y-85614285D01*
X123111904Y-85661904D01*
X122921428Y-85709523D01*
X122683333Y-85709523D01*
X122492857Y-85661904D01*
X122397619Y-85614285D01*
X122350000Y-85566666D01*
X122302380Y-85471428D01*
X161102380Y-72366666D02*
X160626190Y-72700000D01*
X161102380Y-72938095D02*
X160102380Y-72938095D01*
X160102380Y-72557142D01*
X160150000Y-72461904D01*
X160197619Y-72414285D01*
X160292857Y-72366666D01*
X160435714Y-72366666D01*
X160530952Y-72414285D01*
X160578571Y-72461904D01*
X160626190Y-72557142D01*
X160626190Y-72938095D01*
X161102380Y-71890476D02*
X161102380Y-71700000D01*
X161054761Y-71604761D01*
X161007142Y-71557142D01*
X160864285Y-71461904D01*
X160673809Y-71414285D01*
X160292857Y-71414285D01*
X160197619Y-71461904D01*
X160150000Y-71509523D01*
X160102380Y-71604761D01*
X160102380Y-71795238D01*
X160150000Y-71890476D01*
X160197619Y-71938095D01*
X160292857Y-71985714D01*
X160530952Y-71985714D01*
X160626190Y-71938095D01*
X160673809Y-71890476D01*
X160721428Y-71795238D01*
X160721428Y-71604761D01*
X160673809Y-71509523D01*
X160626190Y-71461904D01*
X160530952Y-71414285D01*
X164533333Y-59552380D02*
X164200000Y-59076190D01*
X163961904Y-59552380D02*
X163961904Y-58552380D01*
X164342857Y-58552380D01*
X164438095Y-58600000D01*
X164485714Y-58647619D01*
X164533333Y-58742857D01*
X164533333Y-58885714D01*
X164485714Y-58980952D01*
X164438095Y-59028571D01*
X164342857Y-59076190D01*
X163961904Y-59076190D01*
X165104761Y-58980952D02*
X165009523Y-58933333D01*
X164961904Y-58885714D01*
X164914285Y-58790476D01*
X164914285Y-58742857D01*
X164961904Y-58647619D01*
X165009523Y-58600000D01*
X165104761Y-58552380D01*
X165295238Y-58552380D01*
X165390476Y-58600000D01*
X165438095Y-58647619D01*
X165485714Y-58742857D01*
X165485714Y-58790476D01*
X165438095Y-58885714D01*
X165390476Y-58933333D01*
X165295238Y-58980952D01*
X165104761Y-58980952D01*
X165009523Y-59028571D01*
X164961904Y-59076190D01*
X164914285Y-59171428D01*
X164914285Y-59361904D01*
X164961904Y-59457142D01*
X165009523Y-59504761D01*
X165104761Y-59552380D01*
X165295238Y-59552380D01*
X165390476Y-59504761D01*
X165438095Y-59457142D01*
X165485714Y-59361904D01*
X165485714Y-59171428D01*
X165438095Y-59076190D01*
X165390476Y-59028571D01*
X165295238Y-58980952D01*
X164733333Y-50552380D02*
X164400000Y-50076190D01*
X164161904Y-50552380D02*
X164161904Y-49552380D01*
X164542857Y-49552380D01*
X164638095Y-49600000D01*
X164685714Y-49647619D01*
X164733333Y-49742857D01*
X164733333Y-49885714D01*
X164685714Y-49980952D01*
X164638095Y-50028571D01*
X164542857Y-50076190D01*
X164161904Y-50076190D01*
X165066666Y-49552380D02*
X165733333Y-49552380D01*
X165304761Y-50552380D01*
X151502380Y-72966666D02*
X151026190Y-73300000D01*
X151502380Y-73538095D02*
X150502380Y-73538095D01*
X150502380Y-73157142D01*
X150550000Y-73061904D01*
X150597619Y-73014285D01*
X150692857Y-72966666D01*
X150835714Y-72966666D01*
X150930952Y-73014285D01*
X150978571Y-73061904D01*
X151026190Y-73157142D01*
X151026190Y-73538095D01*
X150502380Y-72109523D02*
X150502380Y-72300000D01*
X150550000Y-72395238D01*
X150597619Y-72442857D01*
X150740476Y-72538095D01*
X150930952Y-72585714D01*
X151311904Y-72585714D01*
X151407142Y-72538095D01*
X151454761Y-72490476D01*
X151502380Y-72395238D01*
X151502380Y-72204761D01*
X151454761Y-72109523D01*
X151407142Y-72061904D01*
X151311904Y-72014285D01*
X151073809Y-72014285D01*
X150978571Y-72061904D01*
X150930952Y-72109523D01*
X150883333Y-72204761D01*
X150883333Y-72395238D01*
X150930952Y-72490476D01*
X150978571Y-72538095D01*
X151073809Y-72585714D01*
X151533333Y-76002380D02*
X151200000Y-75526190D01*
X150961904Y-76002380D02*
X150961904Y-75002380D01*
X151342857Y-75002380D01*
X151438095Y-75050000D01*
X151485714Y-75097619D01*
X151533333Y-75192857D01*
X151533333Y-75335714D01*
X151485714Y-75430952D01*
X151438095Y-75478571D01*
X151342857Y-75526190D01*
X150961904Y-75526190D01*
X152438095Y-75002380D02*
X151961904Y-75002380D01*
X151914285Y-75478571D01*
X151961904Y-75430952D01*
X152057142Y-75383333D01*
X152295238Y-75383333D01*
X152390476Y-75430952D01*
X152438095Y-75478571D01*
X152485714Y-75573809D01*
X152485714Y-75811904D01*
X152438095Y-75907142D01*
X152390476Y-75954761D01*
X152295238Y-76002380D01*
X152057142Y-76002380D01*
X151961904Y-75954761D01*
X151914285Y-75907142D01*
X147033333Y-76002380D02*
X146700000Y-75526190D01*
X146461904Y-76002380D02*
X146461904Y-75002380D01*
X146842857Y-75002380D01*
X146938095Y-75050000D01*
X146985714Y-75097619D01*
X147033333Y-75192857D01*
X147033333Y-75335714D01*
X146985714Y-75430952D01*
X146938095Y-75478571D01*
X146842857Y-75526190D01*
X146461904Y-75526190D01*
X147890476Y-75335714D02*
X147890476Y-76002380D01*
X147652380Y-74954761D02*
X147414285Y-75669047D01*
X148033333Y-75669047D01*
X198402380Y-82991666D02*
X197926190Y-83325000D01*
X198402380Y-83563095D02*
X197402380Y-83563095D01*
X197402380Y-83182142D01*
X197450000Y-83086904D01*
X197497619Y-83039285D01*
X197592857Y-82991666D01*
X197735714Y-82991666D01*
X197830952Y-83039285D01*
X197878571Y-83086904D01*
X197926190Y-83182142D01*
X197926190Y-83563095D01*
X197402380Y-82658333D02*
X197402380Y-82039285D01*
X197783333Y-82372619D01*
X197783333Y-82229761D01*
X197830952Y-82134523D01*
X197878571Y-82086904D01*
X197973809Y-82039285D01*
X198211904Y-82039285D01*
X198307142Y-82086904D01*
X198354761Y-82134523D01*
X198402380Y-82229761D01*
X198402380Y-82515476D01*
X198354761Y-82610714D01*
X198307142Y-82658333D01*
X198402380Y-78391666D02*
X197926190Y-78725000D01*
X198402380Y-78963095D02*
X197402380Y-78963095D01*
X197402380Y-78582142D01*
X197450000Y-78486904D01*
X197497619Y-78439285D01*
X197592857Y-78391666D01*
X197735714Y-78391666D01*
X197830952Y-78439285D01*
X197878571Y-78486904D01*
X197926190Y-78582142D01*
X197926190Y-78963095D01*
X197497619Y-78010714D02*
X197450000Y-77963095D01*
X197402380Y-77867857D01*
X197402380Y-77629761D01*
X197450000Y-77534523D01*
X197497619Y-77486904D01*
X197592857Y-77439285D01*
X197688095Y-77439285D01*
X197830952Y-77486904D01*
X198402380Y-78058333D01*
X198402380Y-77439285D01*
X198402380Y-74066666D02*
X197926190Y-74400000D01*
X198402380Y-74638095D02*
X197402380Y-74638095D01*
X197402380Y-74257142D01*
X197450000Y-74161904D01*
X197497619Y-74114285D01*
X197592857Y-74066666D01*
X197735714Y-74066666D01*
X197830952Y-74114285D01*
X197878571Y-74161904D01*
X197926190Y-74257142D01*
X197926190Y-74638095D01*
X198402380Y-73114285D02*
X198402380Y-73685714D01*
X198402380Y-73400000D02*
X197402380Y-73400000D01*
X197545238Y-73495238D01*
X197640476Y-73590476D01*
X197688095Y-73685714D01*
X181533333Y-67352380D02*
X181057142Y-67352380D01*
X181057142Y-66352380D01*
X182390476Y-67352380D02*
X181819047Y-67352380D01*
X182104761Y-67352380D02*
X182104761Y-66352380D01*
X182009523Y-66495238D01*
X181914285Y-66590476D01*
X181819047Y-66638095D01*
X191906666Y-61888571D02*
X191573333Y-61888571D01*
X191573333Y-62412380D02*
X191573333Y-61412380D01*
X192049523Y-61412380D01*
X192954285Y-62412380D02*
X192382857Y-62412380D01*
X192668571Y-62412380D02*
X192668571Y-61412380D01*
X192573333Y-61555238D01*
X192478095Y-61650476D01*
X192382857Y-61698095D01*
X155233333Y-130157142D02*
X155185714Y-130204761D01*
X155042857Y-130252380D01*
X154947619Y-130252380D01*
X154804761Y-130204761D01*
X154709523Y-130109523D01*
X154661904Y-130014285D01*
X154614285Y-129823809D01*
X154614285Y-129680952D01*
X154661904Y-129490476D01*
X154709523Y-129395238D01*
X154804761Y-129300000D01*
X154947619Y-129252380D01*
X155042857Y-129252380D01*
X155185714Y-129300000D01*
X155233333Y-129347619D01*
X156138095Y-129252380D02*
X155661904Y-129252380D01*
X155614285Y-129728571D01*
X155661904Y-129680952D01*
X155757142Y-129633333D01*
X155995238Y-129633333D01*
X156090476Y-129680952D01*
X156138095Y-129728571D01*
X156185714Y-129823809D01*
X156185714Y-130061904D01*
X156138095Y-130157142D01*
X156090476Y-130204761D01*
X155995238Y-130252380D01*
X155757142Y-130252380D01*
X155661904Y-130204761D01*
X155614285Y-130157142D01*
X194433333Y-104007142D02*
X194385714Y-104054761D01*
X194242857Y-104102380D01*
X194147619Y-104102380D01*
X194004761Y-104054761D01*
X193909523Y-103959523D01*
X193861904Y-103864285D01*
X193814285Y-103673809D01*
X193814285Y-103530952D01*
X193861904Y-103340476D01*
X193909523Y-103245238D01*
X194004761Y-103150000D01*
X194147619Y-103102380D01*
X194242857Y-103102380D01*
X194385714Y-103150000D01*
X194433333Y-103197619D01*
X195290476Y-103435714D02*
X195290476Y-104102380D01*
X195052380Y-103054761D02*
X194814285Y-103769047D01*
X195433333Y-103769047D01*
X178433333Y-75807142D02*
X178385714Y-75854761D01*
X178242857Y-75902380D01*
X178147619Y-75902380D01*
X178004761Y-75854761D01*
X177909523Y-75759523D01*
X177861904Y-75664285D01*
X177814285Y-75473809D01*
X177814285Y-75330952D01*
X177861904Y-75140476D01*
X177909523Y-75045238D01*
X178004761Y-74950000D01*
X178147619Y-74902380D01*
X178242857Y-74902380D01*
X178385714Y-74950000D01*
X178433333Y-74997619D01*
X178766666Y-74902380D02*
X179385714Y-74902380D01*
X179052380Y-75283333D01*
X179195238Y-75283333D01*
X179290476Y-75330952D01*
X179338095Y-75378571D01*
X179385714Y-75473809D01*
X179385714Y-75711904D01*
X179338095Y-75807142D01*
X179290476Y-75854761D01*
X179195238Y-75902380D01*
X178909523Y-75902380D01*
X178814285Y-75854761D01*
X178766666Y-75807142D01*
X180907142Y-69966666D02*
X180954761Y-70014285D01*
X181002380Y-70157142D01*
X181002380Y-70252380D01*
X180954761Y-70395238D01*
X180859523Y-70490476D01*
X180764285Y-70538095D01*
X180573809Y-70585714D01*
X180430952Y-70585714D01*
X180240476Y-70538095D01*
X180145238Y-70490476D01*
X180050000Y-70395238D01*
X180002380Y-70252380D01*
X180002380Y-70157142D01*
X180050000Y-70014285D01*
X180097619Y-69966666D01*
X180097619Y-69585714D02*
X180050000Y-69538095D01*
X180002380Y-69442857D01*
X180002380Y-69204761D01*
X180050000Y-69109523D01*
X180097619Y-69061904D01*
X180192857Y-69014285D01*
X180288095Y-69014285D01*
X180430952Y-69061904D01*
X181002380Y-69633333D01*
X181002380Y-69014285D01*
X186457142Y-69466666D02*
X186504761Y-69514285D01*
X186552380Y-69657142D01*
X186552380Y-69752380D01*
X186504761Y-69895238D01*
X186409523Y-69990476D01*
X186314285Y-70038095D01*
X186123809Y-70085714D01*
X185980952Y-70085714D01*
X185790476Y-70038095D01*
X185695238Y-69990476D01*
X185600000Y-69895238D01*
X185552380Y-69752380D01*
X185552380Y-69657142D01*
X185600000Y-69514285D01*
X185647619Y-69466666D01*
X186552380Y-68514285D02*
X186552380Y-69085714D01*
X186552380Y-68800000D02*
X185552380Y-68800000D01*
X185695238Y-68895238D01*
X185790476Y-68990476D01*
X185838095Y-69085714D01*
X180705714Y-92786666D02*
X181181904Y-92786666D01*
X180610476Y-93072380D02*
X180943809Y-92072380D01*
X181277142Y-93072380D01*
X182134285Y-93072380D02*
X181562857Y-93072380D01*
X181848571Y-93072380D02*
X181848571Y-92072380D01*
X181753333Y-92215238D01*
X181658095Y-92310476D01*
X181562857Y-92358095D01*
M02*
