G04 #@! TF.GenerationSoftware,KiCad,Pcbnew,(5.1.2)-2*
G04 #@! TF.CreationDate,2019-12-07T23:42:41-08:00*
G04 #@! TF.ProjectId,Precharger,50726563-6861-4726-9765-722e6b696361,rev?*
G04 #@! TF.SameCoordinates,Original*
G04 #@! TF.FileFunction,Legend,Bot*
G04 #@! TF.FilePolarity,Positive*
%FSLAX46Y46*%
G04 Gerber Fmt 4.6, Leading zero omitted, Abs format (unit mm)*
G04 Created by KiCad (PCBNEW (5.1.2)-2) date 2019-12-07 23:42:41*
%MOMM*%
%LPD*%
G04 APERTURE LIST*
%ADD10C,0.120000*%
%ADD11C,0.150000*%
G04 APERTURE END LIST*
D10*
X185900000Y-136200000D02*
X185900000Y-134800000D01*
X185200000Y-134100000D02*
X184600000Y-134100000D01*
X183900000Y-134800000D02*
X183900000Y-136200000D01*
X184600000Y-136900000D02*
X185200000Y-136900000D01*
X185200000Y-136900000D02*
G75*
G03X185900000Y-136200000I0J700000D01*
G01*
X183900000Y-136200000D02*
G75*
G03X184600000Y-136900000I700000J0D01*
G01*
X184600000Y-134100000D02*
G75*
G03X183900000Y-134800000I0J-700000D01*
G01*
X185900000Y-134800000D02*
G75*
G03X185200000Y-134100000I-700000J0D01*
G01*
X178200000Y-136200000D02*
X178200000Y-134800000D01*
X177500000Y-134100000D02*
X176900000Y-134100000D01*
X176200000Y-134800000D02*
X176200000Y-136200000D01*
X176900000Y-136900000D02*
X177500000Y-136900000D01*
X177500000Y-136900000D02*
G75*
G03X178200000Y-136200000I0J700000D01*
G01*
X176200000Y-136200000D02*
G75*
G03X176900000Y-136900000I700000J0D01*
G01*
X176900000Y-134100000D02*
G75*
G03X176200000Y-134800000I0J-700000D01*
G01*
X178200000Y-134800000D02*
G75*
G03X177500000Y-134100000I-700000J0D01*
G01*
X186700000Y-123200000D02*
X186700000Y-121800000D01*
X186000000Y-121100000D02*
X185400000Y-121100000D01*
X184700000Y-121800000D02*
X184700000Y-123200000D01*
X185400000Y-123900000D02*
X186000000Y-123900000D01*
X186000000Y-123900000D02*
G75*
G03X186700000Y-123200000I0J700000D01*
G01*
X184700000Y-123200000D02*
G75*
G03X185400000Y-123900000I700000J0D01*
G01*
X185400000Y-121100000D02*
G75*
G03X184700000Y-121800000I0J-700000D01*
G01*
X186700000Y-121800000D02*
G75*
G03X186000000Y-121100000I-700000J0D01*
G01*
X184700000Y-125500000D02*
X184700000Y-126900000D01*
X185400000Y-127600000D02*
X186000000Y-127600000D01*
X186700000Y-126900000D02*
X186700000Y-125500000D01*
X186000000Y-124800000D02*
X185400000Y-124800000D01*
X185400000Y-124800000D02*
G75*
G03X184700000Y-125500000I0J-700000D01*
G01*
X186700000Y-125500000D02*
G75*
G03X186000000Y-124800000I-700000J0D01*
G01*
X186000000Y-127600000D02*
G75*
G03X186700000Y-126900000I0J700000D01*
G01*
X184700000Y-126900000D02*
G75*
G03X185400000Y-127600000I700000J0D01*
G01*
X178500000Y-114500000D02*
X177100000Y-114500000D01*
X176400000Y-115200000D02*
X176400000Y-115800000D01*
X177100000Y-116500000D02*
X178500000Y-116500000D01*
X179200000Y-115800000D02*
X179200000Y-115200000D01*
X179200000Y-115200000D02*
G75*
G03X178500000Y-114500000I-700000J0D01*
G01*
X178500000Y-116500000D02*
G75*
G03X179200000Y-115800000I0J700000D01*
G01*
X176400000Y-115800000D02*
G75*
G03X177100000Y-116500000I700000J0D01*
G01*
X177100000Y-114500000D02*
G75*
G03X176400000Y-115200000I0J-700000D01*
G01*
X178500000Y-111900000D02*
X177100000Y-111900000D01*
X176400000Y-112600000D02*
X176400000Y-113200000D01*
X177100000Y-113900000D02*
X178500000Y-113900000D01*
X179200000Y-113200000D02*
X179200000Y-112600000D01*
X179200000Y-112600000D02*
G75*
G03X178500000Y-111900000I-700000J0D01*
G01*
X178500000Y-113900000D02*
G75*
G03X179200000Y-113200000I0J700000D01*
G01*
X176400000Y-113200000D02*
G75*
G03X177100000Y-113900000I700000J0D01*
G01*
X177100000Y-111900000D02*
G75*
G03X176400000Y-112600000I0J-700000D01*
G01*
X178000000Y-96700000D02*
X176600000Y-96700000D01*
X175900000Y-97400000D02*
X175900000Y-98000000D01*
X176600000Y-98700000D02*
X178000000Y-98700000D01*
X178700000Y-98000000D02*
X178700000Y-97400000D01*
X178700000Y-97400000D02*
G75*
G03X178000000Y-96700000I-700000J0D01*
G01*
X178000000Y-98700000D02*
G75*
G03X178700000Y-98000000I0J700000D01*
G01*
X175900000Y-98000000D02*
G75*
G03X176600000Y-98700000I700000J0D01*
G01*
X176600000Y-96700000D02*
G75*
G03X175900000Y-97400000I0J-700000D01*
G01*
X178000000Y-99200000D02*
X176600000Y-99200000D01*
X175900000Y-99900000D02*
X175900000Y-100500000D01*
X176600000Y-101200000D02*
X178000000Y-101200000D01*
X178700000Y-100500000D02*
X178700000Y-99900000D01*
X178700000Y-99900000D02*
G75*
G03X178000000Y-99200000I-700000J0D01*
G01*
X178000000Y-101200000D02*
G75*
G03X178700000Y-100500000I0J700000D01*
G01*
X175900000Y-100500000D02*
G75*
G03X176600000Y-101200000I700000J0D01*
G01*
X176600000Y-99200000D02*
G75*
G03X175900000Y-99900000I0J-700000D01*
G01*
D11*
X186152380Y-134666666D02*
X186866666Y-134666666D01*
X187009523Y-134619047D01*
X187104761Y-134523809D01*
X187152380Y-134380952D01*
X187152380Y-134285714D01*
X187152380Y-135142857D02*
X186152380Y-135142857D01*
X186152380Y-135523809D01*
X186200000Y-135619047D01*
X186247619Y-135666666D01*
X186342857Y-135714285D01*
X186485714Y-135714285D01*
X186580952Y-135666666D01*
X186628571Y-135619047D01*
X186676190Y-135523809D01*
X186676190Y-135142857D01*
X186152380Y-136571428D02*
X186152380Y-136380952D01*
X186200000Y-136285714D01*
X186247619Y-136238095D01*
X186390476Y-136142857D01*
X186580952Y-136095238D01*
X186961904Y-136095238D01*
X187057142Y-136142857D01*
X187104761Y-136190476D01*
X187152380Y-136285714D01*
X187152380Y-136476190D01*
X187104761Y-136571428D01*
X187057142Y-136619047D01*
X186961904Y-136666666D01*
X186723809Y-136666666D01*
X186628571Y-136619047D01*
X186580952Y-136571428D01*
X186533333Y-136476190D01*
X186533333Y-136285714D01*
X186580952Y-136190476D01*
X186628571Y-136142857D01*
X186723809Y-136095238D01*
X178452380Y-134666666D02*
X179166666Y-134666666D01*
X179309523Y-134619047D01*
X179404761Y-134523809D01*
X179452380Y-134380952D01*
X179452380Y-134285714D01*
X179452380Y-135142857D02*
X178452380Y-135142857D01*
X178452380Y-135523809D01*
X178500000Y-135619047D01*
X178547619Y-135666666D01*
X178642857Y-135714285D01*
X178785714Y-135714285D01*
X178880952Y-135666666D01*
X178928571Y-135619047D01*
X178976190Y-135523809D01*
X178976190Y-135142857D01*
X178452380Y-136619047D02*
X178452380Y-136142857D01*
X178928571Y-136095238D01*
X178880952Y-136142857D01*
X178833333Y-136238095D01*
X178833333Y-136476190D01*
X178880952Y-136571428D01*
X178928571Y-136619047D01*
X179023809Y-136666666D01*
X179261904Y-136666666D01*
X179357142Y-136619047D01*
X179404761Y-136571428D01*
X179452380Y-136476190D01*
X179452380Y-136238095D01*
X179404761Y-136142857D01*
X179357142Y-136095238D01*
X185152380Y-118566666D02*
X185866666Y-118566666D01*
X186009523Y-118519047D01*
X186104761Y-118423809D01*
X186152380Y-118280952D01*
X186152380Y-118185714D01*
X186152380Y-119042857D02*
X185152380Y-119042857D01*
X185152380Y-119423809D01*
X185200000Y-119519047D01*
X185247619Y-119566666D01*
X185342857Y-119614285D01*
X185485714Y-119614285D01*
X185580952Y-119566666D01*
X185628571Y-119519047D01*
X185676190Y-119423809D01*
X185676190Y-119042857D01*
X185580952Y-120185714D02*
X185533333Y-120090476D01*
X185485714Y-120042857D01*
X185390476Y-119995238D01*
X185342857Y-119995238D01*
X185247619Y-120042857D01*
X185200000Y-120090476D01*
X185152380Y-120185714D01*
X185152380Y-120376190D01*
X185200000Y-120471428D01*
X185247619Y-120519047D01*
X185342857Y-120566666D01*
X185390476Y-120566666D01*
X185485714Y-120519047D01*
X185533333Y-120471428D01*
X185580952Y-120376190D01*
X185580952Y-120185714D01*
X185628571Y-120090476D01*
X185676190Y-120042857D01*
X185771428Y-119995238D01*
X185961904Y-119995238D01*
X186057142Y-120042857D01*
X186104761Y-120090476D01*
X186152380Y-120185714D01*
X186152380Y-120376190D01*
X186104761Y-120471428D01*
X186057142Y-120519047D01*
X185961904Y-120566666D01*
X185771428Y-120566666D01*
X185676190Y-120519047D01*
X185628571Y-120471428D01*
X185580952Y-120376190D01*
X185252380Y-128566666D02*
X185966666Y-128566666D01*
X186109523Y-128519047D01*
X186204761Y-128423809D01*
X186252380Y-128280952D01*
X186252380Y-128185714D01*
X186252380Y-129042857D02*
X185252380Y-129042857D01*
X185252380Y-129423809D01*
X185300000Y-129519047D01*
X185347619Y-129566666D01*
X185442857Y-129614285D01*
X185585714Y-129614285D01*
X185680952Y-129566666D01*
X185728571Y-129519047D01*
X185776190Y-129423809D01*
X185776190Y-129042857D01*
X185252380Y-129947619D02*
X185252380Y-130614285D01*
X186252380Y-130185714D01*
X178533333Y-117152380D02*
X178533333Y-117866666D01*
X178580952Y-118009523D01*
X178676190Y-118104761D01*
X178819047Y-118152380D01*
X178914285Y-118152380D01*
X178057142Y-118152380D02*
X178057142Y-117152380D01*
X177676190Y-117152380D01*
X177580952Y-117200000D01*
X177533333Y-117247619D01*
X177485714Y-117342857D01*
X177485714Y-117485714D01*
X177533333Y-117580952D01*
X177580952Y-117628571D01*
X177676190Y-117676190D01*
X178057142Y-117676190D01*
X176628571Y-117485714D02*
X176628571Y-118152380D01*
X176866666Y-117104761D02*
X177104761Y-117819047D01*
X176485714Y-117819047D01*
X178633333Y-110552380D02*
X178633333Y-111266666D01*
X178680952Y-111409523D01*
X178776190Y-111504761D01*
X178919047Y-111552380D01*
X179014285Y-111552380D01*
X178157142Y-111552380D02*
X178157142Y-110552380D01*
X177776190Y-110552380D01*
X177680952Y-110600000D01*
X177633333Y-110647619D01*
X177585714Y-110742857D01*
X177585714Y-110885714D01*
X177633333Y-110980952D01*
X177680952Y-111028571D01*
X177776190Y-111076190D01*
X178157142Y-111076190D01*
X177252380Y-110552380D02*
X176633333Y-110552380D01*
X176966666Y-110933333D01*
X176823809Y-110933333D01*
X176728571Y-110980952D01*
X176680952Y-111028571D01*
X176633333Y-111123809D01*
X176633333Y-111361904D01*
X176680952Y-111457142D01*
X176728571Y-111504761D01*
X176823809Y-111552380D01*
X177109523Y-111552380D01*
X177204761Y-111504761D01*
X177252380Y-111457142D01*
X178133333Y-95352380D02*
X178133333Y-96066666D01*
X178180952Y-96209523D01*
X178276190Y-96304761D01*
X178419047Y-96352380D01*
X178514285Y-96352380D01*
X177657142Y-96352380D02*
X177657142Y-95352380D01*
X177276190Y-95352380D01*
X177180952Y-95400000D01*
X177133333Y-95447619D01*
X177085714Y-95542857D01*
X177085714Y-95685714D01*
X177133333Y-95780952D01*
X177180952Y-95828571D01*
X177276190Y-95876190D01*
X177657142Y-95876190D01*
X176704761Y-95447619D02*
X176657142Y-95400000D01*
X176561904Y-95352380D01*
X176323809Y-95352380D01*
X176228571Y-95400000D01*
X176180952Y-95447619D01*
X176133333Y-95542857D01*
X176133333Y-95638095D01*
X176180952Y-95780952D01*
X176752380Y-96352380D01*
X176133333Y-96352380D01*
X178233333Y-101652380D02*
X178233333Y-102366666D01*
X178280952Y-102509523D01*
X178376190Y-102604761D01*
X178519047Y-102652380D01*
X178614285Y-102652380D01*
X177757142Y-102652380D02*
X177757142Y-101652380D01*
X177376190Y-101652380D01*
X177280952Y-101700000D01*
X177233333Y-101747619D01*
X177185714Y-101842857D01*
X177185714Y-101985714D01*
X177233333Y-102080952D01*
X177280952Y-102128571D01*
X177376190Y-102176190D01*
X177757142Y-102176190D01*
X176233333Y-102652380D02*
X176804761Y-102652380D01*
X176519047Y-102652380D02*
X176519047Y-101652380D01*
X176614285Y-101795238D01*
X176709523Y-101890476D01*
X176804761Y-101938095D01*
M02*
