G04 #@! TF.GenerationSoftware,KiCad,Pcbnew,(5.1.2)-2*
G04 #@! TF.CreationDate,2019-12-07T23:42:41-08:00*
G04 #@! TF.ProjectId,Precharger,50726563-6861-4726-9765-722e6b696361,rev?*
G04 #@! TF.SameCoordinates,Original*
G04 #@! TF.FileFunction,Soldermask,Bot*
G04 #@! TF.FilePolarity,Negative*
%FSLAX46Y46*%
G04 Gerber Fmt 4.6, Leading zero omitted, Abs format (unit mm)*
G04 Created by KiCad (PCBNEW (5.1.2)-2) date 2019-12-07 23:42:41*
%MOMM*%
%LPD*%
G04 APERTURE LIST*
%ADD10C,0.100000*%
G04 APERTURE END LIST*
D10*
G36*
X102923241Y-136204760D02*
G01*
X103187305Y-136314139D01*
X103424958Y-136472934D01*
X103627066Y-136675042D01*
X103785861Y-136912695D01*
X103895240Y-137176759D01*
X103951000Y-137457088D01*
X103951000Y-137742912D01*
X103895240Y-138023241D01*
X103785861Y-138287305D01*
X103627066Y-138524958D01*
X103424958Y-138727066D01*
X103187305Y-138885861D01*
X102923241Y-138995240D01*
X102642912Y-139051000D01*
X102357088Y-139051000D01*
X102076759Y-138995240D01*
X101812695Y-138885861D01*
X101575042Y-138727066D01*
X101372934Y-138524958D01*
X101214139Y-138287305D01*
X101104760Y-138023241D01*
X101049000Y-137742912D01*
X101049000Y-137457088D01*
X101104760Y-137176759D01*
X101214139Y-136912695D01*
X101372934Y-136675042D01*
X101575042Y-136472934D01*
X101812695Y-136314139D01*
X102076759Y-136204760D01*
X102357088Y-136149000D01*
X102642912Y-136149000D01*
X102923241Y-136204760D01*
X102923241Y-136204760D01*
G37*
G36*
X119873241Y-135604760D02*
G01*
X120137305Y-135714139D01*
X120374958Y-135872934D01*
X120577066Y-136075042D01*
X120735861Y-136312695D01*
X120845240Y-136576759D01*
X120901000Y-136857088D01*
X120901000Y-137142912D01*
X120845240Y-137423241D01*
X120735861Y-137687305D01*
X120577066Y-137924958D01*
X120374958Y-138127066D01*
X120137305Y-138285861D01*
X119873241Y-138395240D01*
X119592912Y-138451000D01*
X119307088Y-138451000D01*
X119026759Y-138395240D01*
X118762695Y-138285861D01*
X118525042Y-138127066D01*
X118322934Y-137924958D01*
X118164139Y-137687305D01*
X118054760Y-137423241D01*
X117999000Y-137142912D01*
X117999000Y-136857088D01*
X118054760Y-136576759D01*
X118164139Y-136312695D01*
X118322934Y-136075042D01*
X118525042Y-135872934D01*
X118762695Y-135714139D01*
X119026759Y-135604760D01*
X119307088Y-135549000D01*
X119592912Y-135549000D01*
X119873241Y-135604760D01*
X119873241Y-135604760D01*
G37*
G36*
X185162199Y-134299954D02*
G01*
X185174450Y-134300556D01*
X185192869Y-134300556D01*
X185215149Y-134302750D01*
X185299233Y-134319476D01*
X185320660Y-134325976D01*
X185399858Y-134358780D01*
X185405303Y-134361691D01*
X185405309Y-134361693D01*
X185414169Y-134366429D01*
X185414173Y-134366432D01*
X185419614Y-134369340D01*
X185490899Y-134416971D01*
X185508204Y-134431172D01*
X185568828Y-134491796D01*
X185583029Y-134509101D01*
X185630660Y-134580386D01*
X185633568Y-134585827D01*
X185633571Y-134585831D01*
X185638307Y-134594691D01*
X185638309Y-134594697D01*
X185641220Y-134600142D01*
X185674024Y-134679340D01*
X185680524Y-134700767D01*
X185697250Y-134784851D01*
X185699444Y-134807131D01*
X185699444Y-134825550D01*
X185700046Y-134837801D01*
X185701852Y-134856139D01*
X185701852Y-135343860D01*
X185700263Y-135359999D01*
X185697348Y-135369608D01*
X185692610Y-135378472D01*
X185686237Y-135386237D01*
X185673794Y-135396448D01*
X185663425Y-135403378D01*
X185646098Y-135420705D01*
X185632485Y-135441080D01*
X185623109Y-135463720D01*
X185618329Y-135487753D01*
X185618330Y-135512257D01*
X185623112Y-135536290D01*
X185632490Y-135558929D01*
X185646105Y-135579302D01*
X185663432Y-135596629D01*
X185673802Y-135603558D01*
X185686237Y-135613763D01*
X185692610Y-135621528D01*
X185697348Y-135630392D01*
X185700263Y-135640001D01*
X185701852Y-135656140D01*
X185701852Y-136143862D01*
X185700046Y-136162199D01*
X185699444Y-136174450D01*
X185699444Y-136192869D01*
X185697250Y-136215149D01*
X185680524Y-136299233D01*
X185674024Y-136320660D01*
X185641220Y-136399858D01*
X185638309Y-136405303D01*
X185638307Y-136405309D01*
X185633571Y-136414169D01*
X185633568Y-136414173D01*
X185630660Y-136419614D01*
X185583029Y-136490899D01*
X185568828Y-136508204D01*
X185508204Y-136568828D01*
X185490899Y-136583029D01*
X185419614Y-136630660D01*
X185414173Y-136633568D01*
X185414169Y-136633571D01*
X185405309Y-136638307D01*
X185405303Y-136638309D01*
X185399858Y-136641220D01*
X185320660Y-136674024D01*
X185299233Y-136680524D01*
X185215149Y-136697250D01*
X185192869Y-136699444D01*
X185174450Y-136699444D01*
X185162199Y-136700046D01*
X185143862Y-136701852D01*
X184656138Y-136701852D01*
X184637801Y-136700046D01*
X184625550Y-136699444D01*
X184607131Y-136699444D01*
X184584851Y-136697250D01*
X184500767Y-136680524D01*
X184479340Y-136674024D01*
X184400142Y-136641220D01*
X184394697Y-136638309D01*
X184394691Y-136638307D01*
X184385831Y-136633571D01*
X184385827Y-136633568D01*
X184380386Y-136630660D01*
X184309101Y-136583029D01*
X184291796Y-136568828D01*
X184231172Y-136508204D01*
X184216971Y-136490899D01*
X184169340Y-136419614D01*
X184166432Y-136414173D01*
X184166429Y-136414169D01*
X184161693Y-136405309D01*
X184161691Y-136405303D01*
X184158780Y-136399858D01*
X184125976Y-136320660D01*
X184119476Y-136299233D01*
X184102750Y-136215149D01*
X184100556Y-136192869D01*
X184100556Y-136174450D01*
X184099954Y-136162199D01*
X184098148Y-136143862D01*
X184098148Y-135656140D01*
X184099737Y-135640001D01*
X184102652Y-135630392D01*
X184107390Y-135621528D01*
X184113763Y-135613763D01*
X184126206Y-135603552D01*
X184136575Y-135596622D01*
X184153902Y-135579295D01*
X184167515Y-135558920D01*
X184176891Y-135536280D01*
X184181671Y-135512247D01*
X184181670Y-135487743D01*
X184176888Y-135463710D01*
X184167510Y-135441071D01*
X184153895Y-135420698D01*
X184136568Y-135403371D01*
X184126198Y-135396442D01*
X184113763Y-135386237D01*
X184107390Y-135378472D01*
X184102652Y-135369608D01*
X184099737Y-135359999D01*
X184098148Y-135343860D01*
X184098148Y-134856139D01*
X184099954Y-134837801D01*
X184100556Y-134825550D01*
X184100556Y-134807131D01*
X184102750Y-134784851D01*
X184119476Y-134700767D01*
X184125976Y-134679340D01*
X184158780Y-134600142D01*
X184161691Y-134594697D01*
X184161693Y-134594691D01*
X184166429Y-134585831D01*
X184166432Y-134585827D01*
X184169340Y-134580386D01*
X184216971Y-134509101D01*
X184231172Y-134491796D01*
X184291796Y-134431172D01*
X184309101Y-134416971D01*
X184380386Y-134369340D01*
X184385827Y-134366432D01*
X184385831Y-134366429D01*
X184394691Y-134361693D01*
X184394697Y-134361691D01*
X184400142Y-134358780D01*
X184479340Y-134325976D01*
X184500767Y-134319476D01*
X184584851Y-134302750D01*
X184607131Y-134300556D01*
X184625550Y-134300556D01*
X184637801Y-134299954D01*
X184656139Y-134298148D01*
X185143861Y-134298148D01*
X185162199Y-134299954D01*
X185162199Y-134299954D01*
G37*
G36*
X177462199Y-134299954D02*
G01*
X177474450Y-134300556D01*
X177492869Y-134300556D01*
X177515149Y-134302750D01*
X177599233Y-134319476D01*
X177620660Y-134325976D01*
X177699858Y-134358780D01*
X177705303Y-134361691D01*
X177705309Y-134361693D01*
X177714169Y-134366429D01*
X177714173Y-134366432D01*
X177719614Y-134369340D01*
X177790899Y-134416971D01*
X177808204Y-134431172D01*
X177868828Y-134491796D01*
X177883029Y-134509101D01*
X177930660Y-134580386D01*
X177933568Y-134585827D01*
X177933571Y-134585831D01*
X177938307Y-134594691D01*
X177938309Y-134594697D01*
X177941220Y-134600142D01*
X177974024Y-134679340D01*
X177980524Y-134700767D01*
X177997250Y-134784851D01*
X177999444Y-134807131D01*
X177999444Y-134825550D01*
X178000046Y-134837801D01*
X178001852Y-134856139D01*
X178001852Y-135343860D01*
X178000263Y-135359999D01*
X177997348Y-135369608D01*
X177992610Y-135378472D01*
X177986237Y-135386237D01*
X177973794Y-135396448D01*
X177963425Y-135403378D01*
X177946098Y-135420705D01*
X177932485Y-135441080D01*
X177923109Y-135463720D01*
X177918329Y-135487753D01*
X177918330Y-135512257D01*
X177923112Y-135536290D01*
X177932490Y-135558929D01*
X177946105Y-135579302D01*
X177963432Y-135596629D01*
X177973802Y-135603558D01*
X177986237Y-135613763D01*
X177992610Y-135621528D01*
X177997348Y-135630392D01*
X178000263Y-135640001D01*
X178001852Y-135656140D01*
X178001852Y-136143862D01*
X178000046Y-136162199D01*
X177999444Y-136174450D01*
X177999444Y-136192869D01*
X177997250Y-136215149D01*
X177980524Y-136299233D01*
X177974024Y-136320660D01*
X177941220Y-136399858D01*
X177938309Y-136405303D01*
X177938307Y-136405309D01*
X177933571Y-136414169D01*
X177933568Y-136414173D01*
X177930660Y-136419614D01*
X177883029Y-136490899D01*
X177868828Y-136508204D01*
X177808204Y-136568828D01*
X177790899Y-136583029D01*
X177719614Y-136630660D01*
X177714173Y-136633568D01*
X177714169Y-136633571D01*
X177705309Y-136638307D01*
X177705303Y-136638309D01*
X177699858Y-136641220D01*
X177620660Y-136674024D01*
X177599233Y-136680524D01*
X177515149Y-136697250D01*
X177492869Y-136699444D01*
X177474450Y-136699444D01*
X177462199Y-136700046D01*
X177443862Y-136701852D01*
X176956138Y-136701852D01*
X176937801Y-136700046D01*
X176925550Y-136699444D01*
X176907131Y-136699444D01*
X176884851Y-136697250D01*
X176800767Y-136680524D01*
X176779340Y-136674024D01*
X176700142Y-136641220D01*
X176694697Y-136638309D01*
X176694691Y-136638307D01*
X176685831Y-136633571D01*
X176685827Y-136633568D01*
X176680386Y-136630660D01*
X176609101Y-136583029D01*
X176591796Y-136568828D01*
X176531172Y-136508204D01*
X176516971Y-136490899D01*
X176469340Y-136419614D01*
X176466432Y-136414173D01*
X176466429Y-136414169D01*
X176461693Y-136405309D01*
X176461691Y-136405303D01*
X176458780Y-136399858D01*
X176425976Y-136320660D01*
X176419476Y-136299233D01*
X176402750Y-136215149D01*
X176400556Y-136192869D01*
X176400556Y-136174450D01*
X176399954Y-136162199D01*
X176398148Y-136143862D01*
X176398148Y-135656140D01*
X176399737Y-135640001D01*
X176402652Y-135630392D01*
X176407390Y-135621528D01*
X176413763Y-135613763D01*
X176426206Y-135603552D01*
X176436575Y-135596622D01*
X176453902Y-135579295D01*
X176467515Y-135558920D01*
X176476891Y-135536280D01*
X176481671Y-135512247D01*
X176481670Y-135487743D01*
X176476888Y-135463710D01*
X176467510Y-135441071D01*
X176453895Y-135420698D01*
X176436568Y-135403371D01*
X176426198Y-135396442D01*
X176413763Y-135386237D01*
X176407390Y-135378472D01*
X176402652Y-135369608D01*
X176399737Y-135359999D01*
X176398148Y-135343860D01*
X176398148Y-134856139D01*
X176399954Y-134837801D01*
X176400556Y-134825550D01*
X176400556Y-134807131D01*
X176402750Y-134784851D01*
X176419476Y-134700767D01*
X176425976Y-134679340D01*
X176458780Y-134600142D01*
X176461691Y-134594697D01*
X176461693Y-134594691D01*
X176466429Y-134585831D01*
X176466432Y-134585827D01*
X176469340Y-134580386D01*
X176516971Y-134509101D01*
X176531172Y-134491796D01*
X176591796Y-134431172D01*
X176609101Y-134416971D01*
X176680386Y-134369340D01*
X176685827Y-134366432D01*
X176685831Y-134366429D01*
X176694691Y-134361693D01*
X176694697Y-134361691D01*
X176700142Y-134358780D01*
X176779340Y-134325976D01*
X176800767Y-134319476D01*
X176884851Y-134302750D01*
X176907131Y-134300556D01*
X176925550Y-134300556D01*
X176937801Y-134299954D01*
X176956139Y-134298148D01*
X177443861Y-134298148D01*
X177462199Y-134299954D01*
X177462199Y-134299954D01*
G37*
G36*
X167073241Y-133554760D02*
G01*
X167337305Y-133664139D01*
X167574958Y-133822934D01*
X167777066Y-134025042D01*
X167935861Y-134262695D01*
X168045240Y-134526759D01*
X168101000Y-134807088D01*
X168101000Y-135092912D01*
X168045240Y-135373241D01*
X167935861Y-135637305D01*
X167777066Y-135874958D01*
X167574958Y-136077066D01*
X167337305Y-136235861D01*
X167073241Y-136345240D01*
X166792912Y-136401000D01*
X166507088Y-136401000D01*
X166226759Y-136345240D01*
X165962695Y-136235861D01*
X165725042Y-136077066D01*
X165522934Y-135874958D01*
X165364139Y-135637305D01*
X165254760Y-135373241D01*
X165199000Y-135092912D01*
X165199000Y-134807088D01*
X165254760Y-134526759D01*
X165364139Y-134262695D01*
X165522934Y-134025042D01*
X165725042Y-133822934D01*
X165962695Y-133664139D01*
X166226759Y-133554760D01*
X166507088Y-133499000D01*
X166792912Y-133499000D01*
X167073241Y-133554760D01*
X167073241Y-133554760D01*
G37*
G36*
X158123241Y-133354760D02*
G01*
X158387305Y-133464139D01*
X158624958Y-133622934D01*
X158827066Y-133825042D01*
X158985861Y-134062695D01*
X159095240Y-134326759D01*
X159151000Y-134607088D01*
X159151000Y-134892912D01*
X159095240Y-135173241D01*
X158985861Y-135437305D01*
X158827066Y-135674958D01*
X158624958Y-135877066D01*
X158387305Y-136035861D01*
X158123241Y-136145240D01*
X157842912Y-136201000D01*
X157557088Y-136201000D01*
X157276759Y-136145240D01*
X157012695Y-136035861D01*
X156775042Y-135877066D01*
X156572934Y-135674958D01*
X156414139Y-135437305D01*
X156304760Y-135173241D01*
X156249000Y-134892912D01*
X156249000Y-134607088D01*
X156304760Y-134326759D01*
X156414139Y-134062695D01*
X156572934Y-133825042D01*
X156775042Y-133622934D01*
X157012695Y-133464139D01*
X157276759Y-133354760D01*
X157557088Y-133299000D01*
X157842912Y-133299000D01*
X158123241Y-133354760D01*
X158123241Y-133354760D01*
G37*
G36*
X147314903Y-133647075D02*
G01*
X147527362Y-133735078D01*
X147542571Y-133741378D01*
X147747466Y-133878285D01*
X147921715Y-134052534D01*
X148054488Y-134251242D01*
X148058623Y-134257431D01*
X148152925Y-134485097D01*
X148201000Y-134726786D01*
X148201000Y-134973214D01*
X148152925Y-135214903D01*
X148079317Y-135392610D01*
X148058622Y-135442571D01*
X147921715Y-135647466D01*
X147747466Y-135821715D01*
X147542571Y-135958622D01*
X147542570Y-135958623D01*
X147542569Y-135958623D01*
X147314903Y-136052925D01*
X147073214Y-136101000D01*
X146826786Y-136101000D01*
X146585097Y-136052925D01*
X146357431Y-135958623D01*
X146357430Y-135958623D01*
X146357429Y-135958622D01*
X146152534Y-135821715D01*
X145978285Y-135647466D01*
X145841378Y-135442571D01*
X145820684Y-135392610D01*
X145747075Y-135214903D01*
X145699000Y-134973214D01*
X145699000Y-134726786D01*
X145747075Y-134485097D01*
X145841377Y-134257431D01*
X145845512Y-134251242D01*
X145978285Y-134052534D01*
X146152534Y-133878285D01*
X146357429Y-133741378D01*
X146372639Y-133735078D01*
X146585097Y-133647075D01*
X146826786Y-133599000D01*
X147073214Y-133599000D01*
X147314903Y-133647075D01*
X147314903Y-133647075D01*
G37*
G36*
X141201000Y-136101000D02*
G01*
X138699000Y-136101000D01*
X138699000Y-133599000D01*
X141201000Y-133599000D01*
X141201000Y-136101000D01*
X141201000Y-136101000D01*
G37*
G36*
X150814903Y-133647075D02*
G01*
X151027362Y-133735078D01*
X151042571Y-133741378D01*
X151247466Y-133878285D01*
X151421715Y-134052534D01*
X151554488Y-134251242D01*
X151558623Y-134257431D01*
X151652925Y-134485097D01*
X151701000Y-134726786D01*
X151701000Y-134973214D01*
X151652925Y-135214903D01*
X151579317Y-135392610D01*
X151558622Y-135442571D01*
X151421715Y-135647466D01*
X151247466Y-135821715D01*
X151042571Y-135958622D01*
X151042570Y-135958623D01*
X151042569Y-135958623D01*
X150814903Y-136052925D01*
X150573214Y-136101000D01*
X150326786Y-136101000D01*
X150085097Y-136052925D01*
X149857431Y-135958623D01*
X149857430Y-135958623D01*
X149857429Y-135958622D01*
X149652534Y-135821715D01*
X149478285Y-135647466D01*
X149341378Y-135442571D01*
X149320684Y-135392610D01*
X149247075Y-135214903D01*
X149199000Y-134973214D01*
X149199000Y-134726786D01*
X149247075Y-134485097D01*
X149341377Y-134257431D01*
X149345512Y-134251242D01*
X149478285Y-134052534D01*
X149652534Y-133878285D01*
X149857429Y-133741378D01*
X149872639Y-133735078D01*
X150085097Y-133647075D01*
X150326786Y-133599000D01*
X150573214Y-133599000D01*
X150814903Y-133647075D01*
X150814903Y-133647075D01*
G37*
G36*
X143814903Y-133647075D02*
G01*
X144027362Y-133735078D01*
X144042571Y-133741378D01*
X144247466Y-133878285D01*
X144421715Y-134052534D01*
X144554488Y-134251242D01*
X144558623Y-134257431D01*
X144652925Y-134485097D01*
X144701000Y-134726786D01*
X144701000Y-134973214D01*
X144652925Y-135214903D01*
X144579317Y-135392610D01*
X144558622Y-135442571D01*
X144421715Y-135647466D01*
X144247466Y-135821715D01*
X144042571Y-135958622D01*
X144042570Y-135958623D01*
X144042569Y-135958623D01*
X143814903Y-136052925D01*
X143573214Y-136101000D01*
X143326786Y-136101000D01*
X143085097Y-136052925D01*
X142857431Y-135958623D01*
X142857430Y-135958623D01*
X142857429Y-135958622D01*
X142652534Y-135821715D01*
X142478285Y-135647466D01*
X142341378Y-135442571D01*
X142320684Y-135392610D01*
X142247075Y-135214903D01*
X142199000Y-134973214D01*
X142199000Y-134726786D01*
X142247075Y-134485097D01*
X142341377Y-134257431D01*
X142345512Y-134251242D01*
X142478285Y-134052534D01*
X142652534Y-133878285D01*
X142857429Y-133741378D01*
X142872639Y-133735078D01*
X143085097Y-133647075D01*
X143326786Y-133599000D01*
X143573214Y-133599000D01*
X143814903Y-133647075D01*
X143814903Y-133647075D01*
G37*
G36*
X196113241Y-132264760D02*
G01*
X196377305Y-132374139D01*
X196614958Y-132532934D01*
X196817066Y-132735042D01*
X196975861Y-132972695D01*
X197085240Y-133236759D01*
X197141000Y-133517088D01*
X197141000Y-133802912D01*
X197085240Y-134083241D01*
X196975861Y-134347305D01*
X196817066Y-134584958D01*
X196614958Y-134787066D01*
X196377305Y-134945861D01*
X196113241Y-135055240D01*
X195832912Y-135111000D01*
X195547088Y-135111000D01*
X195266759Y-135055240D01*
X195002695Y-134945861D01*
X194765042Y-134787066D01*
X194562934Y-134584958D01*
X194404139Y-134347305D01*
X194294760Y-134083241D01*
X194239000Y-133802912D01*
X194239000Y-133517088D01*
X194294760Y-133236759D01*
X194404139Y-132972695D01*
X194562934Y-132735042D01*
X194765042Y-132532934D01*
X195002695Y-132374139D01*
X195266759Y-132264760D01*
X195547088Y-132209000D01*
X195832912Y-132209000D01*
X196113241Y-132264760D01*
X196113241Y-132264760D01*
G37*
G36*
X110160721Y-133370174D02*
G01*
X110260995Y-133411709D01*
X110305812Y-133441655D01*
X110351242Y-133472010D01*
X110427990Y-133548758D01*
X110427991Y-133548760D01*
X110488291Y-133639005D01*
X110529826Y-133739279D01*
X110551000Y-133845730D01*
X110551000Y-133954270D01*
X110529826Y-134060721D01*
X110488291Y-134160995D01*
X110488290Y-134160996D01*
X110427990Y-134251242D01*
X110351242Y-134327990D01*
X110322335Y-134347305D01*
X110260995Y-134388291D01*
X110160721Y-134429826D01*
X110054270Y-134451000D01*
X109945730Y-134451000D01*
X109839279Y-134429826D01*
X109739005Y-134388291D01*
X109677665Y-134347305D01*
X109648758Y-134327990D01*
X109572010Y-134251242D01*
X109511710Y-134160996D01*
X109511709Y-134160995D01*
X109470174Y-134060721D01*
X109449000Y-133954270D01*
X109449000Y-133845730D01*
X109470174Y-133739279D01*
X109511709Y-133639005D01*
X109572009Y-133548760D01*
X109572010Y-133548758D01*
X109648758Y-133472010D01*
X109694188Y-133441655D01*
X109739005Y-133411709D01*
X109839279Y-133370174D01*
X109945730Y-133349000D01*
X110054270Y-133349000D01*
X110160721Y-133370174D01*
X110160721Y-133370174D01*
G37*
G36*
X173966823Y-132421313D02*
G01*
X174127242Y-132469976D01*
X174245028Y-132532934D01*
X174275078Y-132548996D01*
X174404659Y-132655341D01*
X174511004Y-132784922D01*
X174511005Y-132784924D01*
X174590024Y-132932758D01*
X174638687Y-133093177D01*
X174655117Y-133260000D01*
X174638687Y-133426823D01*
X174590024Y-133587242D01*
X174548921Y-133664140D01*
X174511004Y-133735078D01*
X174404659Y-133864659D01*
X174275078Y-133971004D01*
X174275076Y-133971005D01*
X174127242Y-134050024D01*
X173966823Y-134098687D01*
X173841804Y-134111000D01*
X173758196Y-134111000D01*
X173633177Y-134098687D01*
X173472758Y-134050024D01*
X173324924Y-133971005D01*
X173324922Y-133971004D01*
X173195341Y-133864659D01*
X173088996Y-133735078D01*
X173051079Y-133664140D01*
X173009976Y-133587242D01*
X172961313Y-133426823D01*
X172944883Y-133260000D01*
X172961313Y-133093177D01*
X173009976Y-132932758D01*
X173088995Y-132784924D01*
X173088996Y-132784922D01*
X173195341Y-132655341D01*
X173324922Y-132548996D01*
X173354972Y-132532934D01*
X173472758Y-132469976D01*
X173633177Y-132421313D01*
X173758196Y-132409000D01*
X173841804Y-132409000D01*
X173966823Y-132421313D01*
X173966823Y-132421313D01*
G37*
G36*
X189206823Y-132421313D02*
G01*
X189367242Y-132469976D01*
X189485028Y-132532934D01*
X189515078Y-132548996D01*
X189644659Y-132655341D01*
X189751004Y-132784922D01*
X189751005Y-132784924D01*
X189830024Y-132932758D01*
X189878687Y-133093177D01*
X189895117Y-133260000D01*
X189878687Y-133426823D01*
X189830024Y-133587242D01*
X189788921Y-133664140D01*
X189751004Y-133735078D01*
X189644659Y-133864659D01*
X189515078Y-133971004D01*
X189515076Y-133971005D01*
X189367242Y-134050024D01*
X189206823Y-134098687D01*
X189081804Y-134111000D01*
X188998196Y-134111000D01*
X188873177Y-134098687D01*
X188712758Y-134050024D01*
X188564924Y-133971005D01*
X188564922Y-133971004D01*
X188435341Y-133864659D01*
X188328996Y-133735078D01*
X188291079Y-133664140D01*
X188249976Y-133587242D01*
X188201313Y-133426823D01*
X188184883Y-133260000D01*
X188201313Y-133093177D01*
X188249976Y-132932758D01*
X188328995Y-132784924D01*
X188328996Y-132784922D01*
X188435341Y-132655341D01*
X188564922Y-132548996D01*
X188594972Y-132532934D01*
X188712758Y-132469976D01*
X188873177Y-132421313D01*
X188998196Y-132409000D01*
X189081804Y-132409000D01*
X189206823Y-132421313D01*
X189206823Y-132421313D01*
G37*
G36*
X129376000Y-133776000D02*
G01*
X127024000Y-133776000D01*
X127024000Y-127424000D01*
X129376000Y-127424000D01*
X129376000Y-133776000D01*
X129376000Y-133776000D01*
G37*
G36*
X173966823Y-129881313D02*
G01*
X174127242Y-129929976D01*
X174259906Y-130000886D01*
X174275078Y-130008996D01*
X174404659Y-130115341D01*
X174511004Y-130244922D01*
X174511005Y-130244924D01*
X174590024Y-130392758D01*
X174638687Y-130553177D01*
X174655117Y-130720000D01*
X174638687Y-130886823D01*
X174590024Y-131047242D01*
X174519114Y-131179906D01*
X174511004Y-131195078D01*
X174404659Y-131324659D01*
X174275078Y-131431004D01*
X174275076Y-131431005D01*
X174127242Y-131510024D01*
X173966823Y-131558687D01*
X173841804Y-131571000D01*
X173758196Y-131571000D01*
X173633177Y-131558687D01*
X173472758Y-131510024D01*
X173324924Y-131431005D01*
X173324922Y-131431004D01*
X173195341Y-131324659D01*
X173088996Y-131195078D01*
X173080886Y-131179906D01*
X173009976Y-131047242D01*
X172961313Y-130886823D01*
X172944883Y-130720000D01*
X172961313Y-130553177D01*
X173009976Y-130392758D01*
X173088995Y-130244924D01*
X173088996Y-130244922D01*
X173195341Y-130115341D01*
X173324922Y-130008996D01*
X173340094Y-130000886D01*
X173472758Y-129929976D01*
X173633177Y-129881313D01*
X173758196Y-129869000D01*
X173841804Y-129869000D01*
X173966823Y-129881313D01*
X173966823Y-129881313D01*
G37*
G36*
X189206823Y-129881313D02*
G01*
X189367242Y-129929976D01*
X189499906Y-130000886D01*
X189515078Y-130008996D01*
X189644659Y-130115341D01*
X189751004Y-130244922D01*
X189751005Y-130244924D01*
X189830024Y-130392758D01*
X189878687Y-130553177D01*
X189895117Y-130720000D01*
X189878687Y-130886823D01*
X189830024Y-131047242D01*
X189759114Y-131179906D01*
X189751004Y-131195078D01*
X189644659Y-131324659D01*
X189515078Y-131431004D01*
X189515076Y-131431005D01*
X189367242Y-131510024D01*
X189206823Y-131558687D01*
X189081804Y-131571000D01*
X188998196Y-131571000D01*
X188873177Y-131558687D01*
X188712758Y-131510024D01*
X188564924Y-131431005D01*
X188564922Y-131431004D01*
X188435341Y-131324659D01*
X188328996Y-131195078D01*
X188320886Y-131179906D01*
X188249976Y-131047242D01*
X188201313Y-130886823D01*
X188184883Y-130720000D01*
X188201313Y-130553177D01*
X188249976Y-130392758D01*
X188328995Y-130244924D01*
X188328996Y-130244922D01*
X188435341Y-130115341D01*
X188564922Y-130008996D01*
X188580094Y-130000886D01*
X188712758Y-129929976D01*
X188873177Y-129881313D01*
X188998196Y-129869000D01*
X189081804Y-129869000D01*
X189206823Y-129881313D01*
X189206823Y-129881313D01*
G37*
G36*
X189206823Y-127341313D02*
G01*
X189367242Y-127389976D01*
X189430896Y-127424000D01*
X189515078Y-127468996D01*
X189644659Y-127575341D01*
X189751004Y-127704922D01*
X189751005Y-127704924D01*
X189830024Y-127852758D01*
X189878687Y-128013177D01*
X189895117Y-128180000D01*
X189878687Y-128346823D01*
X189830024Y-128507242D01*
X189759114Y-128639906D01*
X189751004Y-128655078D01*
X189644659Y-128784659D01*
X189515078Y-128891004D01*
X189515076Y-128891005D01*
X189367242Y-128970024D01*
X189206823Y-129018687D01*
X189081804Y-129031000D01*
X188998196Y-129031000D01*
X188873177Y-129018687D01*
X188712758Y-128970024D01*
X188564924Y-128891005D01*
X188564922Y-128891004D01*
X188435341Y-128784659D01*
X188328996Y-128655078D01*
X188320886Y-128639906D01*
X188249976Y-128507242D01*
X188201313Y-128346823D01*
X188184883Y-128180000D01*
X188201313Y-128013177D01*
X188249976Y-127852758D01*
X188328995Y-127704924D01*
X188328996Y-127704922D01*
X188435341Y-127575341D01*
X188564922Y-127468996D01*
X188649104Y-127424000D01*
X188712758Y-127389976D01*
X188873177Y-127341313D01*
X188998196Y-127329000D01*
X189081804Y-127329000D01*
X189206823Y-127341313D01*
X189206823Y-127341313D01*
G37*
G36*
X173966823Y-127341313D02*
G01*
X174127242Y-127389976D01*
X174190896Y-127424000D01*
X174275078Y-127468996D01*
X174404659Y-127575341D01*
X174511004Y-127704922D01*
X174511005Y-127704924D01*
X174590024Y-127852758D01*
X174638687Y-128013177D01*
X174655117Y-128180000D01*
X174638687Y-128346823D01*
X174590024Y-128507242D01*
X174519114Y-128639906D01*
X174511004Y-128655078D01*
X174404659Y-128784659D01*
X174275078Y-128891004D01*
X174275076Y-128891005D01*
X174127242Y-128970024D01*
X173966823Y-129018687D01*
X173841804Y-129031000D01*
X173758196Y-129031000D01*
X173633177Y-129018687D01*
X173472758Y-128970024D01*
X173324924Y-128891005D01*
X173324922Y-128891004D01*
X173195341Y-128784659D01*
X173088996Y-128655078D01*
X173080886Y-128639906D01*
X173009976Y-128507242D01*
X172961313Y-128346823D01*
X172944883Y-128180000D01*
X172961313Y-128013177D01*
X173009976Y-127852758D01*
X173088995Y-127704924D01*
X173088996Y-127704922D01*
X173195341Y-127575341D01*
X173324922Y-127468996D01*
X173409104Y-127424000D01*
X173472758Y-127389976D01*
X173633177Y-127341313D01*
X173758196Y-127329000D01*
X173841804Y-127329000D01*
X173966823Y-127341313D01*
X173966823Y-127341313D01*
G37*
G36*
X196223241Y-124604760D02*
G01*
X196487305Y-124714139D01*
X196724958Y-124872934D01*
X196927066Y-125075042D01*
X197085861Y-125312695D01*
X197195240Y-125576759D01*
X197251000Y-125857088D01*
X197251000Y-126142912D01*
X197195240Y-126423241D01*
X197085861Y-126687305D01*
X196927066Y-126924958D01*
X196724958Y-127127066D01*
X196487305Y-127285861D01*
X196223241Y-127395240D01*
X195942912Y-127451000D01*
X195657088Y-127451000D01*
X195376759Y-127395240D01*
X195112695Y-127285861D01*
X194875042Y-127127066D01*
X194672934Y-126924958D01*
X194514139Y-126687305D01*
X194404760Y-126423241D01*
X194349000Y-126142912D01*
X194349000Y-125857088D01*
X194404760Y-125576759D01*
X194514139Y-125312695D01*
X194672934Y-125075042D01*
X194875042Y-124872934D01*
X195112695Y-124714139D01*
X195376759Y-124604760D01*
X195657088Y-124549000D01*
X195942912Y-124549000D01*
X196223241Y-124604760D01*
X196223241Y-124604760D01*
G37*
G36*
X185962199Y-124999954D02*
G01*
X185974450Y-125000556D01*
X185992869Y-125000556D01*
X186015149Y-125002750D01*
X186099233Y-125019476D01*
X186120660Y-125025976D01*
X186199858Y-125058780D01*
X186205303Y-125061691D01*
X186205309Y-125061693D01*
X186214169Y-125066429D01*
X186214173Y-125066432D01*
X186219614Y-125069340D01*
X186290899Y-125116971D01*
X186308204Y-125131172D01*
X186368828Y-125191796D01*
X186383029Y-125209101D01*
X186430660Y-125280386D01*
X186433568Y-125285827D01*
X186433571Y-125285831D01*
X186438307Y-125294691D01*
X186438309Y-125294697D01*
X186441220Y-125300142D01*
X186474024Y-125379340D01*
X186480524Y-125400767D01*
X186497250Y-125484851D01*
X186499444Y-125507131D01*
X186499444Y-125525550D01*
X186500046Y-125537801D01*
X186501852Y-125556139D01*
X186501852Y-126043860D01*
X186500263Y-126059999D01*
X186497348Y-126069608D01*
X186492610Y-126078472D01*
X186486237Y-126086237D01*
X186473794Y-126096448D01*
X186463425Y-126103378D01*
X186446098Y-126120705D01*
X186432485Y-126141080D01*
X186423109Y-126163720D01*
X186418329Y-126187753D01*
X186418330Y-126212257D01*
X186423112Y-126236290D01*
X186432490Y-126258929D01*
X186446105Y-126279302D01*
X186463432Y-126296629D01*
X186473802Y-126303558D01*
X186486237Y-126313763D01*
X186492610Y-126321528D01*
X186497348Y-126330392D01*
X186500263Y-126340001D01*
X186501852Y-126356140D01*
X186501852Y-126843862D01*
X186500046Y-126862199D01*
X186499444Y-126874450D01*
X186499444Y-126892869D01*
X186497250Y-126915149D01*
X186480524Y-126999233D01*
X186474024Y-127020660D01*
X186441220Y-127099858D01*
X186438309Y-127105303D01*
X186438307Y-127105309D01*
X186433571Y-127114169D01*
X186433568Y-127114173D01*
X186430660Y-127119614D01*
X186383029Y-127190899D01*
X186368828Y-127208204D01*
X186308204Y-127268828D01*
X186290899Y-127283029D01*
X186219614Y-127330660D01*
X186214173Y-127333568D01*
X186214169Y-127333571D01*
X186205309Y-127338307D01*
X186205303Y-127338309D01*
X186199858Y-127341220D01*
X186120660Y-127374024D01*
X186099233Y-127380524D01*
X186015149Y-127397250D01*
X185992869Y-127399444D01*
X185974450Y-127399444D01*
X185962199Y-127400046D01*
X185943862Y-127401852D01*
X185456138Y-127401852D01*
X185437801Y-127400046D01*
X185425550Y-127399444D01*
X185407131Y-127399444D01*
X185384851Y-127397250D01*
X185300767Y-127380524D01*
X185279340Y-127374024D01*
X185200142Y-127341220D01*
X185194697Y-127338309D01*
X185194691Y-127338307D01*
X185185831Y-127333571D01*
X185185827Y-127333568D01*
X185180386Y-127330660D01*
X185109101Y-127283029D01*
X185091796Y-127268828D01*
X185031172Y-127208204D01*
X185016971Y-127190899D01*
X184969340Y-127119614D01*
X184966432Y-127114173D01*
X184966429Y-127114169D01*
X184961693Y-127105309D01*
X184961691Y-127105303D01*
X184958780Y-127099858D01*
X184925976Y-127020660D01*
X184919476Y-126999233D01*
X184902750Y-126915149D01*
X184900556Y-126892869D01*
X184900556Y-126874450D01*
X184899954Y-126862199D01*
X184898148Y-126843862D01*
X184898148Y-126356140D01*
X184899737Y-126340001D01*
X184902652Y-126330392D01*
X184907390Y-126321528D01*
X184913763Y-126313763D01*
X184926206Y-126303552D01*
X184936575Y-126296622D01*
X184953902Y-126279295D01*
X184967515Y-126258920D01*
X184976891Y-126236280D01*
X184981671Y-126212247D01*
X184981670Y-126187743D01*
X184976888Y-126163710D01*
X184967510Y-126141071D01*
X184953895Y-126120698D01*
X184936568Y-126103371D01*
X184926198Y-126096442D01*
X184913763Y-126086237D01*
X184907390Y-126078472D01*
X184902652Y-126069608D01*
X184899737Y-126059999D01*
X184898148Y-126043860D01*
X184898148Y-125556139D01*
X184899954Y-125537801D01*
X184900556Y-125525550D01*
X184900556Y-125507131D01*
X184902750Y-125484851D01*
X184919476Y-125400767D01*
X184925976Y-125379340D01*
X184958780Y-125300142D01*
X184961691Y-125294697D01*
X184961693Y-125294691D01*
X184966429Y-125285831D01*
X184966432Y-125285827D01*
X184969340Y-125280386D01*
X185016971Y-125209101D01*
X185031172Y-125191796D01*
X185091796Y-125131172D01*
X185109101Y-125116971D01*
X185180386Y-125069340D01*
X185185827Y-125066432D01*
X185185831Y-125066429D01*
X185194691Y-125061693D01*
X185194697Y-125061691D01*
X185200142Y-125058780D01*
X185279340Y-125025976D01*
X185300767Y-125019476D01*
X185384851Y-125002750D01*
X185407131Y-125000556D01*
X185425550Y-125000556D01*
X185437801Y-124999954D01*
X185456139Y-124998148D01*
X185943861Y-124998148D01*
X185962199Y-124999954D01*
X185962199Y-124999954D01*
G37*
G36*
X173966823Y-124801313D02*
G01*
X174127242Y-124849976D01*
X174259906Y-124920886D01*
X174275078Y-124928996D01*
X174404659Y-125035341D01*
X174511004Y-125164922D01*
X174511005Y-125164924D01*
X174590024Y-125312758D01*
X174638687Y-125473177D01*
X174655117Y-125640000D01*
X174638687Y-125806823D01*
X174590024Y-125967242D01*
X174530571Y-126078471D01*
X174511004Y-126115078D01*
X174404659Y-126244659D01*
X174275078Y-126351004D01*
X174275076Y-126351005D01*
X174127242Y-126430024D01*
X173966823Y-126478687D01*
X173841804Y-126491000D01*
X173758196Y-126491000D01*
X173633177Y-126478687D01*
X173472758Y-126430024D01*
X173324924Y-126351005D01*
X173324922Y-126351004D01*
X173195341Y-126244659D01*
X173088996Y-126115078D01*
X173069429Y-126078471D01*
X173009976Y-125967242D01*
X172961313Y-125806823D01*
X172944883Y-125640000D01*
X172961313Y-125473177D01*
X173009976Y-125312758D01*
X173088995Y-125164924D01*
X173088996Y-125164922D01*
X173195341Y-125035341D01*
X173324922Y-124928996D01*
X173340094Y-124920886D01*
X173472758Y-124849976D01*
X173633177Y-124801313D01*
X173758196Y-124789000D01*
X173841804Y-124789000D01*
X173966823Y-124801313D01*
X173966823Y-124801313D01*
G37*
G36*
X189206823Y-124801313D02*
G01*
X189367242Y-124849976D01*
X189499906Y-124920886D01*
X189515078Y-124928996D01*
X189644659Y-125035341D01*
X189751004Y-125164922D01*
X189751005Y-125164924D01*
X189830024Y-125312758D01*
X189878687Y-125473177D01*
X189895117Y-125640000D01*
X189878687Y-125806823D01*
X189830024Y-125967242D01*
X189770571Y-126078471D01*
X189751004Y-126115078D01*
X189644659Y-126244659D01*
X189515078Y-126351004D01*
X189515076Y-126351005D01*
X189367242Y-126430024D01*
X189206823Y-126478687D01*
X189081804Y-126491000D01*
X188998196Y-126491000D01*
X188873177Y-126478687D01*
X188712758Y-126430024D01*
X188564924Y-126351005D01*
X188564922Y-126351004D01*
X188435341Y-126244659D01*
X188328996Y-126115078D01*
X188309429Y-126078471D01*
X188249976Y-125967242D01*
X188201313Y-125806823D01*
X188184883Y-125640000D01*
X188201313Y-125473177D01*
X188249976Y-125312758D01*
X188328995Y-125164924D01*
X188328996Y-125164922D01*
X188435341Y-125035341D01*
X188564922Y-124928996D01*
X188580094Y-124920886D01*
X188712758Y-124849976D01*
X188873177Y-124801313D01*
X188998196Y-124789000D01*
X189081804Y-124789000D01*
X189206823Y-124801313D01*
X189206823Y-124801313D01*
G37*
G36*
X129376000Y-125876000D02*
G01*
X127024000Y-125876000D01*
X127024000Y-119524000D01*
X129376000Y-119524000D01*
X129376000Y-125876000D01*
X129376000Y-125876000D01*
G37*
G36*
X173966823Y-122261313D02*
G01*
X174127242Y-122309976D01*
X174238811Y-122369611D01*
X174275078Y-122388996D01*
X174404659Y-122495341D01*
X174511004Y-122624922D01*
X174511005Y-122624924D01*
X174590024Y-122772758D01*
X174638687Y-122933177D01*
X174655117Y-123100000D01*
X174638687Y-123266823D01*
X174590024Y-123427242D01*
X174549298Y-123503434D01*
X174511004Y-123575078D01*
X174404659Y-123704659D01*
X174275078Y-123811004D01*
X174275076Y-123811005D01*
X174127242Y-123890024D01*
X173966823Y-123938687D01*
X173841804Y-123951000D01*
X173758196Y-123951000D01*
X173633177Y-123938687D01*
X173472758Y-123890024D01*
X173324924Y-123811005D01*
X173324922Y-123811004D01*
X173195341Y-123704659D01*
X173088996Y-123575078D01*
X173050702Y-123503434D01*
X173009976Y-123427242D01*
X172961313Y-123266823D01*
X172944883Y-123100000D01*
X172961313Y-122933177D01*
X173009976Y-122772758D01*
X173088995Y-122624924D01*
X173088996Y-122624922D01*
X173195341Y-122495341D01*
X173324922Y-122388996D01*
X173361189Y-122369611D01*
X173472758Y-122309976D01*
X173633177Y-122261313D01*
X173758196Y-122249000D01*
X173841804Y-122249000D01*
X173966823Y-122261313D01*
X173966823Y-122261313D01*
G37*
G36*
X189206823Y-122261313D02*
G01*
X189367242Y-122309976D01*
X189478811Y-122369611D01*
X189515078Y-122388996D01*
X189644659Y-122495341D01*
X189751004Y-122624922D01*
X189751005Y-122624924D01*
X189830024Y-122772758D01*
X189878687Y-122933177D01*
X189895117Y-123100000D01*
X189878687Y-123266823D01*
X189830024Y-123427242D01*
X189789298Y-123503434D01*
X189751004Y-123575078D01*
X189644659Y-123704659D01*
X189515078Y-123811004D01*
X189515076Y-123811005D01*
X189367242Y-123890024D01*
X189206823Y-123938687D01*
X189081804Y-123951000D01*
X188998196Y-123951000D01*
X188873177Y-123938687D01*
X188712758Y-123890024D01*
X188564924Y-123811005D01*
X188564922Y-123811004D01*
X188435341Y-123704659D01*
X188328996Y-123575078D01*
X188290702Y-123503434D01*
X188249976Y-123427242D01*
X188201313Y-123266823D01*
X188184883Y-123100000D01*
X188201313Y-122933177D01*
X188249976Y-122772758D01*
X188328995Y-122624924D01*
X188328996Y-122624922D01*
X188435341Y-122495341D01*
X188564922Y-122388996D01*
X188601189Y-122369611D01*
X188712758Y-122309976D01*
X188873177Y-122261313D01*
X188998196Y-122249000D01*
X189081804Y-122249000D01*
X189206823Y-122261313D01*
X189206823Y-122261313D01*
G37*
G36*
X185962199Y-121299954D02*
G01*
X185974450Y-121300556D01*
X185992869Y-121300556D01*
X186015149Y-121302750D01*
X186099233Y-121319476D01*
X186120660Y-121325976D01*
X186199858Y-121358780D01*
X186205303Y-121361691D01*
X186205309Y-121361693D01*
X186214169Y-121366429D01*
X186214173Y-121366432D01*
X186219614Y-121369340D01*
X186290899Y-121416971D01*
X186308204Y-121431172D01*
X186368828Y-121491796D01*
X186383029Y-121509101D01*
X186430660Y-121580386D01*
X186433568Y-121585827D01*
X186433571Y-121585831D01*
X186438307Y-121594691D01*
X186438309Y-121594697D01*
X186441220Y-121600142D01*
X186474024Y-121679340D01*
X186480524Y-121700767D01*
X186497250Y-121784851D01*
X186499444Y-121807131D01*
X186499444Y-121825550D01*
X186500046Y-121837801D01*
X186501852Y-121856139D01*
X186501852Y-122343860D01*
X186500263Y-122359999D01*
X186497348Y-122369608D01*
X186492610Y-122378472D01*
X186486237Y-122386237D01*
X186473794Y-122396448D01*
X186463425Y-122403378D01*
X186446098Y-122420705D01*
X186432485Y-122441080D01*
X186423109Y-122463720D01*
X186418329Y-122487753D01*
X186418330Y-122512257D01*
X186423112Y-122536290D01*
X186432490Y-122558929D01*
X186446105Y-122579302D01*
X186463432Y-122596629D01*
X186473802Y-122603558D01*
X186486237Y-122613763D01*
X186492610Y-122621528D01*
X186497348Y-122630392D01*
X186500263Y-122640001D01*
X186501852Y-122656140D01*
X186501852Y-123143862D01*
X186500046Y-123162199D01*
X186499444Y-123174450D01*
X186499444Y-123192869D01*
X186497250Y-123215149D01*
X186480524Y-123299233D01*
X186474024Y-123320660D01*
X186441220Y-123399858D01*
X186438309Y-123405303D01*
X186438307Y-123405309D01*
X186433571Y-123414169D01*
X186433568Y-123414173D01*
X186430660Y-123419614D01*
X186383029Y-123490899D01*
X186368828Y-123508204D01*
X186308204Y-123568828D01*
X186290899Y-123583029D01*
X186219614Y-123630660D01*
X186214173Y-123633568D01*
X186214169Y-123633571D01*
X186205309Y-123638307D01*
X186205303Y-123638309D01*
X186199858Y-123641220D01*
X186120660Y-123674024D01*
X186099233Y-123680524D01*
X186015149Y-123697250D01*
X185992869Y-123699444D01*
X185974450Y-123699444D01*
X185962199Y-123700046D01*
X185943862Y-123701852D01*
X185456138Y-123701852D01*
X185437801Y-123700046D01*
X185425550Y-123699444D01*
X185407131Y-123699444D01*
X185384851Y-123697250D01*
X185300767Y-123680524D01*
X185279340Y-123674024D01*
X185200142Y-123641220D01*
X185194697Y-123638309D01*
X185194691Y-123638307D01*
X185185831Y-123633571D01*
X185185827Y-123633568D01*
X185180386Y-123630660D01*
X185109101Y-123583029D01*
X185091796Y-123568828D01*
X185031172Y-123508204D01*
X185016971Y-123490899D01*
X184969340Y-123419614D01*
X184966432Y-123414173D01*
X184966429Y-123414169D01*
X184961693Y-123405309D01*
X184961691Y-123405303D01*
X184958780Y-123399858D01*
X184925976Y-123320660D01*
X184919476Y-123299233D01*
X184902750Y-123215149D01*
X184900556Y-123192869D01*
X184900556Y-123174450D01*
X184899954Y-123162199D01*
X184898148Y-123143862D01*
X184898148Y-122656140D01*
X184899737Y-122640001D01*
X184902652Y-122630392D01*
X184907390Y-122621528D01*
X184913763Y-122613763D01*
X184926206Y-122603552D01*
X184936575Y-122596622D01*
X184953902Y-122579295D01*
X184967515Y-122558920D01*
X184976891Y-122536280D01*
X184981671Y-122512247D01*
X184981670Y-122487743D01*
X184976888Y-122463710D01*
X184967510Y-122441071D01*
X184953895Y-122420698D01*
X184936568Y-122403371D01*
X184926198Y-122396442D01*
X184913763Y-122386237D01*
X184907390Y-122378472D01*
X184902652Y-122369608D01*
X184899737Y-122359999D01*
X184898148Y-122343860D01*
X184898148Y-121856139D01*
X184899954Y-121837801D01*
X184900556Y-121825550D01*
X184900556Y-121807131D01*
X184902750Y-121784851D01*
X184919476Y-121700767D01*
X184925976Y-121679340D01*
X184958780Y-121600142D01*
X184961691Y-121594697D01*
X184961693Y-121594691D01*
X184966429Y-121585831D01*
X184966432Y-121585827D01*
X184969340Y-121580386D01*
X185016971Y-121509101D01*
X185031172Y-121491796D01*
X185091796Y-121431172D01*
X185109101Y-121416971D01*
X185180386Y-121369340D01*
X185185827Y-121366432D01*
X185185831Y-121366429D01*
X185194691Y-121361693D01*
X185194697Y-121361691D01*
X185200142Y-121358780D01*
X185279340Y-121325976D01*
X185300767Y-121319476D01*
X185384851Y-121302750D01*
X185407131Y-121300556D01*
X185425550Y-121300556D01*
X185437801Y-121299954D01*
X185456139Y-121298148D01*
X185943861Y-121298148D01*
X185962199Y-121299954D01*
X185962199Y-121299954D01*
G37*
G36*
X189206823Y-119721313D02*
G01*
X189367242Y-119769976D01*
X189475778Y-119827990D01*
X189515078Y-119848996D01*
X189644659Y-119955341D01*
X189751004Y-120084922D01*
X189751005Y-120084924D01*
X189830024Y-120232758D01*
X189878687Y-120393177D01*
X189895117Y-120560000D01*
X189878687Y-120726823D01*
X189830024Y-120887242D01*
X189759114Y-121019906D01*
X189751004Y-121035078D01*
X189644659Y-121164659D01*
X189515078Y-121271004D01*
X189515076Y-121271005D01*
X189367242Y-121350024D01*
X189206823Y-121398687D01*
X189081804Y-121411000D01*
X188998196Y-121411000D01*
X188873177Y-121398687D01*
X188712758Y-121350024D01*
X188564924Y-121271005D01*
X188564922Y-121271004D01*
X188435341Y-121164659D01*
X188328996Y-121035078D01*
X188320886Y-121019906D01*
X188249976Y-120887242D01*
X188201313Y-120726823D01*
X188184883Y-120560000D01*
X188201313Y-120393177D01*
X188249976Y-120232758D01*
X188328995Y-120084924D01*
X188328996Y-120084922D01*
X188435341Y-119955341D01*
X188564922Y-119848996D01*
X188604222Y-119827990D01*
X188712758Y-119769976D01*
X188873177Y-119721313D01*
X188998196Y-119709000D01*
X189081804Y-119709000D01*
X189206823Y-119721313D01*
X189206823Y-119721313D01*
G37*
G36*
X173966823Y-119721313D02*
G01*
X174127242Y-119769976D01*
X174235778Y-119827990D01*
X174275078Y-119848996D01*
X174404659Y-119955341D01*
X174511004Y-120084922D01*
X174511005Y-120084924D01*
X174590024Y-120232758D01*
X174638687Y-120393177D01*
X174655117Y-120560000D01*
X174638687Y-120726823D01*
X174590024Y-120887242D01*
X174519114Y-121019906D01*
X174511004Y-121035078D01*
X174404659Y-121164659D01*
X174275078Y-121271004D01*
X174275076Y-121271005D01*
X174127242Y-121350024D01*
X173966823Y-121398687D01*
X173841804Y-121411000D01*
X173758196Y-121411000D01*
X173633177Y-121398687D01*
X173472758Y-121350024D01*
X173324924Y-121271005D01*
X173324922Y-121271004D01*
X173195341Y-121164659D01*
X173088996Y-121035078D01*
X173080886Y-121019906D01*
X173009976Y-120887242D01*
X172961313Y-120726823D01*
X172944883Y-120560000D01*
X172961313Y-120393177D01*
X173009976Y-120232758D01*
X173088995Y-120084924D01*
X173088996Y-120084922D01*
X173195341Y-119955341D01*
X173324922Y-119848996D01*
X173364222Y-119827990D01*
X173472758Y-119769976D01*
X173633177Y-119721313D01*
X173758196Y-119709000D01*
X173841804Y-119709000D01*
X173966823Y-119721313D01*
X173966823Y-119721313D01*
G37*
G36*
X196123241Y-117604760D02*
G01*
X196387305Y-117714139D01*
X196624958Y-117872934D01*
X196827066Y-118075042D01*
X196985861Y-118312695D01*
X197095240Y-118576759D01*
X197151000Y-118857088D01*
X197151000Y-119142912D01*
X197095240Y-119423241D01*
X196985861Y-119687305D01*
X196827066Y-119924958D01*
X196624958Y-120127066D01*
X196387305Y-120285861D01*
X196123241Y-120395240D01*
X195842912Y-120451000D01*
X195557088Y-120451000D01*
X195276759Y-120395240D01*
X195012695Y-120285861D01*
X194775042Y-120127066D01*
X194572934Y-119924958D01*
X194414139Y-119687305D01*
X194304760Y-119423241D01*
X194249000Y-119142912D01*
X194249000Y-118857088D01*
X194304760Y-118576759D01*
X194414139Y-118312695D01*
X194572934Y-118075042D01*
X194775042Y-117872934D01*
X195012695Y-117714139D01*
X195276759Y-117604760D01*
X195557088Y-117549000D01*
X195842912Y-117549000D01*
X196123241Y-117604760D01*
X196123241Y-117604760D01*
G37*
G36*
X110160721Y-118870174D02*
G01*
X110260995Y-118911709D01*
X110260996Y-118911710D01*
X110351242Y-118972010D01*
X110427990Y-119048758D01*
X110427991Y-119048760D01*
X110488291Y-119139005D01*
X110529826Y-119239279D01*
X110551000Y-119345730D01*
X110551000Y-119454270D01*
X110529826Y-119560721D01*
X110488291Y-119660995D01*
X110488290Y-119660996D01*
X110427990Y-119751242D01*
X110351242Y-119827990D01*
X110319804Y-119848996D01*
X110260995Y-119888291D01*
X110160721Y-119929826D01*
X110054270Y-119951000D01*
X109945730Y-119951000D01*
X109839279Y-119929826D01*
X109739005Y-119888291D01*
X109680196Y-119848996D01*
X109648758Y-119827990D01*
X109572010Y-119751242D01*
X109511710Y-119660996D01*
X109511709Y-119660995D01*
X109470174Y-119560721D01*
X109449000Y-119454270D01*
X109449000Y-119345730D01*
X109470174Y-119239279D01*
X109511709Y-119139005D01*
X109572009Y-119048760D01*
X109572010Y-119048758D01*
X109648758Y-118972010D01*
X109739004Y-118911710D01*
X109739005Y-118911709D01*
X109839279Y-118870174D01*
X109945730Y-118849000D01*
X110054270Y-118849000D01*
X110160721Y-118870174D01*
X110160721Y-118870174D01*
G37*
G36*
X173966823Y-117181313D02*
G01*
X174127242Y-117229976D01*
X174259906Y-117300886D01*
X174275078Y-117308996D01*
X174404659Y-117415341D01*
X174511004Y-117544922D01*
X174511005Y-117544924D01*
X174590024Y-117692758D01*
X174638687Y-117853177D01*
X174655117Y-118020000D01*
X174638687Y-118186823D01*
X174590024Y-118347242D01*
X174519114Y-118479906D01*
X174511004Y-118495078D01*
X174404659Y-118624659D01*
X174275078Y-118731004D01*
X174275076Y-118731005D01*
X174127242Y-118810024D01*
X173966823Y-118858687D01*
X173841804Y-118871000D01*
X173758196Y-118871000D01*
X173633177Y-118858687D01*
X173472758Y-118810024D01*
X173324924Y-118731005D01*
X173324922Y-118731004D01*
X173195341Y-118624659D01*
X173088996Y-118495078D01*
X173080886Y-118479906D01*
X173009976Y-118347242D01*
X172961313Y-118186823D01*
X172944883Y-118020000D01*
X172961313Y-117853177D01*
X173009976Y-117692758D01*
X173088995Y-117544924D01*
X173088996Y-117544922D01*
X173195341Y-117415341D01*
X173324922Y-117308996D01*
X173340094Y-117300886D01*
X173472758Y-117229976D01*
X173633177Y-117181313D01*
X173758196Y-117169000D01*
X173841804Y-117169000D01*
X173966823Y-117181313D01*
X173966823Y-117181313D01*
G37*
G36*
X189206823Y-117181313D02*
G01*
X189367242Y-117229976D01*
X189499906Y-117300886D01*
X189515078Y-117308996D01*
X189644659Y-117415341D01*
X189751004Y-117544922D01*
X189751005Y-117544924D01*
X189830024Y-117692758D01*
X189878687Y-117853177D01*
X189895117Y-118020000D01*
X189878687Y-118186823D01*
X189830024Y-118347242D01*
X189759114Y-118479906D01*
X189751004Y-118495078D01*
X189644659Y-118624659D01*
X189515078Y-118731004D01*
X189515076Y-118731005D01*
X189367242Y-118810024D01*
X189206823Y-118858687D01*
X189081804Y-118871000D01*
X188998196Y-118871000D01*
X188873177Y-118858687D01*
X188712758Y-118810024D01*
X188564924Y-118731005D01*
X188564922Y-118731004D01*
X188435341Y-118624659D01*
X188328996Y-118495078D01*
X188320886Y-118479906D01*
X188249976Y-118347242D01*
X188201313Y-118186823D01*
X188184883Y-118020000D01*
X188201313Y-117853177D01*
X188249976Y-117692758D01*
X188328995Y-117544924D01*
X188328996Y-117544922D01*
X188435341Y-117415341D01*
X188564922Y-117308996D01*
X188580094Y-117300886D01*
X188712758Y-117229976D01*
X188873177Y-117181313D01*
X188998196Y-117169000D01*
X189081804Y-117169000D01*
X189206823Y-117181313D01*
X189206823Y-117181313D01*
G37*
G36*
X173966823Y-114641313D02*
G01*
X174127242Y-114689976D01*
X174220834Y-114740002D01*
X174275078Y-114768996D01*
X174404659Y-114875341D01*
X174511004Y-115004922D01*
X174511005Y-115004924D01*
X174590024Y-115152758D01*
X174638687Y-115313177D01*
X174655117Y-115480000D01*
X174638687Y-115646823D01*
X174638686Y-115646825D01*
X174592522Y-115799009D01*
X174590024Y-115807242D01*
X174540854Y-115899233D01*
X174511004Y-115955078D01*
X174404659Y-116084659D01*
X174275078Y-116191004D01*
X174275076Y-116191005D01*
X174127242Y-116270024D01*
X173966823Y-116318687D01*
X173841804Y-116331000D01*
X173758196Y-116331000D01*
X173633177Y-116318687D01*
X173472758Y-116270024D01*
X173324924Y-116191005D01*
X173324922Y-116191004D01*
X173195341Y-116084659D01*
X173088996Y-115955078D01*
X173059146Y-115899233D01*
X173009976Y-115807242D01*
X173007479Y-115799009D01*
X172961314Y-115646825D01*
X172961313Y-115646823D01*
X172944883Y-115480000D01*
X172961313Y-115313177D01*
X173009976Y-115152758D01*
X173088995Y-115004924D01*
X173088996Y-115004922D01*
X173195341Y-114875341D01*
X173324922Y-114768996D01*
X173379166Y-114740002D01*
X173472758Y-114689976D01*
X173633177Y-114641313D01*
X173758196Y-114629000D01*
X173841804Y-114629000D01*
X173966823Y-114641313D01*
X173966823Y-114641313D01*
G37*
G36*
X189206823Y-114641313D02*
G01*
X189367242Y-114689976D01*
X189460834Y-114740002D01*
X189515078Y-114768996D01*
X189644659Y-114875341D01*
X189751004Y-115004922D01*
X189751005Y-115004924D01*
X189830024Y-115152758D01*
X189878687Y-115313177D01*
X189895117Y-115480000D01*
X189878687Y-115646823D01*
X189878686Y-115646825D01*
X189832522Y-115799009D01*
X189830024Y-115807242D01*
X189780854Y-115899233D01*
X189751004Y-115955078D01*
X189644659Y-116084659D01*
X189515078Y-116191004D01*
X189515076Y-116191005D01*
X189367242Y-116270024D01*
X189206823Y-116318687D01*
X189081804Y-116331000D01*
X188998196Y-116331000D01*
X188873177Y-116318687D01*
X188712758Y-116270024D01*
X188564924Y-116191005D01*
X188564922Y-116191004D01*
X188435341Y-116084659D01*
X188328996Y-115955078D01*
X188299146Y-115899233D01*
X188249976Y-115807242D01*
X188247479Y-115799009D01*
X188201314Y-115646825D01*
X188201313Y-115646823D01*
X188184883Y-115480000D01*
X188201313Y-115313177D01*
X188249976Y-115152758D01*
X188328995Y-115004924D01*
X188328996Y-115004922D01*
X188435341Y-114875341D01*
X188564922Y-114768996D01*
X188619166Y-114740002D01*
X188712758Y-114689976D01*
X188873177Y-114641313D01*
X188998196Y-114629000D01*
X189081804Y-114629000D01*
X189206823Y-114641313D01*
X189206823Y-114641313D01*
G37*
G36*
X177659999Y-114699737D02*
G01*
X177669608Y-114702652D01*
X177678472Y-114707390D01*
X177686237Y-114713763D01*
X177696448Y-114726206D01*
X177703378Y-114736575D01*
X177720705Y-114753902D01*
X177741080Y-114767515D01*
X177763720Y-114776891D01*
X177787753Y-114781671D01*
X177812257Y-114781670D01*
X177836290Y-114776888D01*
X177858929Y-114767510D01*
X177879302Y-114753895D01*
X177896629Y-114736568D01*
X177903558Y-114726198D01*
X177913763Y-114713763D01*
X177921528Y-114707390D01*
X177930392Y-114702652D01*
X177940001Y-114699737D01*
X177956140Y-114698148D01*
X178443861Y-114698148D01*
X178462199Y-114699954D01*
X178474450Y-114700556D01*
X178492869Y-114700556D01*
X178515149Y-114702750D01*
X178599233Y-114719476D01*
X178620660Y-114725976D01*
X178699858Y-114758780D01*
X178705303Y-114761691D01*
X178705309Y-114761693D01*
X178714169Y-114766429D01*
X178714173Y-114766432D01*
X178719614Y-114769340D01*
X178790899Y-114816971D01*
X178808204Y-114831172D01*
X178868828Y-114891796D01*
X178883029Y-114909101D01*
X178930660Y-114980386D01*
X178933568Y-114985827D01*
X178933571Y-114985831D01*
X178938307Y-114994691D01*
X178938309Y-114994697D01*
X178941220Y-115000142D01*
X178974024Y-115079340D01*
X178980524Y-115100767D01*
X178997250Y-115184851D01*
X178999444Y-115207131D01*
X178999444Y-115225550D01*
X179000046Y-115237801D01*
X179001852Y-115256139D01*
X179001852Y-115743862D01*
X179000046Y-115762199D01*
X178999444Y-115774450D01*
X178999444Y-115792869D01*
X178997250Y-115815149D01*
X178980524Y-115899233D01*
X178974024Y-115920660D01*
X178941220Y-115999858D01*
X178938309Y-116005303D01*
X178938307Y-116005309D01*
X178933571Y-116014169D01*
X178933568Y-116014173D01*
X178930660Y-116019614D01*
X178883029Y-116090899D01*
X178868828Y-116108204D01*
X178808204Y-116168828D01*
X178790899Y-116183029D01*
X178719614Y-116230660D01*
X178714173Y-116233568D01*
X178714169Y-116233571D01*
X178705309Y-116238307D01*
X178705303Y-116238309D01*
X178699858Y-116241220D01*
X178620660Y-116274024D01*
X178599233Y-116280524D01*
X178515149Y-116297250D01*
X178492869Y-116299444D01*
X178474450Y-116299444D01*
X178462199Y-116300046D01*
X178443862Y-116301852D01*
X177956140Y-116301852D01*
X177940001Y-116300263D01*
X177930392Y-116297348D01*
X177921528Y-116292610D01*
X177913763Y-116286237D01*
X177903552Y-116273794D01*
X177896622Y-116263425D01*
X177879295Y-116246098D01*
X177858920Y-116232485D01*
X177836280Y-116223109D01*
X177812247Y-116218329D01*
X177787743Y-116218330D01*
X177763710Y-116223112D01*
X177741071Y-116232490D01*
X177720698Y-116246105D01*
X177703371Y-116263432D01*
X177696442Y-116273802D01*
X177686237Y-116286237D01*
X177678472Y-116292610D01*
X177669608Y-116297348D01*
X177659999Y-116300263D01*
X177643860Y-116301852D01*
X177156138Y-116301852D01*
X177137801Y-116300046D01*
X177125550Y-116299444D01*
X177107131Y-116299444D01*
X177084851Y-116297250D01*
X177000767Y-116280524D01*
X176979340Y-116274024D01*
X176900142Y-116241220D01*
X176894697Y-116238309D01*
X176894691Y-116238307D01*
X176885831Y-116233571D01*
X176885827Y-116233568D01*
X176880386Y-116230660D01*
X176809101Y-116183029D01*
X176791796Y-116168828D01*
X176731172Y-116108204D01*
X176716971Y-116090899D01*
X176669340Y-116019614D01*
X176666432Y-116014173D01*
X176666429Y-116014169D01*
X176661693Y-116005309D01*
X176661691Y-116005303D01*
X176658780Y-115999858D01*
X176625976Y-115920660D01*
X176619476Y-115899233D01*
X176602750Y-115815149D01*
X176600556Y-115792869D01*
X176600556Y-115774450D01*
X176599954Y-115762199D01*
X176598148Y-115743862D01*
X176598148Y-115256139D01*
X176599954Y-115237801D01*
X176600556Y-115225550D01*
X176600556Y-115207131D01*
X176602750Y-115184851D01*
X176619476Y-115100767D01*
X176625976Y-115079340D01*
X176658780Y-115000142D01*
X176661691Y-114994697D01*
X176661693Y-114994691D01*
X176666429Y-114985831D01*
X176666432Y-114985827D01*
X176669340Y-114980386D01*
X176716971Y-114909101D01*
X176731172Y-114891796D01*
X176791796Y-114831172D01*
X176809101Y-114816971D01*
X176880386Y-114769340D01*
X176885827Y-114766432D01*
X176885831Y-114766429D01*
X176894691Y-114761693D01*
X176894697Y-114761691D01*
X176900142Y-114758780D01*
X176979340Y-114725976D01*
X177000767Y-114719476D01*
X177084851Y-114702750D01*
X177107131Y-114700556D01*
X177125550Y-114700556D01*
X177137801Y-114699954D01*
X177156139Y-114698148D01*
X177643860Y-114698148D01*
X177659999Y-114699737D01*
X177659999Y-114699737D01*
G37*
G36*
X173966823Y-112101313D02*
G01*
X174127242Y-112149976D01*
X174252581Y-112216971D01*
X174275078Y-112228996D01*
X174404659Y-112335341D01*
X174511004Y-112464922D01*
X174511005Y-112464924D01*
X174590024Y-112612758D01*
X174638687Y-112773177D01*
X174655117Y-112940000D01*
X174638687Y-113106823D01*
X174590024Y-113267242D01*
X174561471Y-113320660D01*
X174511004Y-113415078D01*
X174404659Y-113544659D01*
X174275078Y-113651004D01*
X174275076Y-113651005D01*
X174127242Y-113730024D01*
X173966823Y-113778687D01*
X173841804Y-113791000D01*
X173758196Y-113791000D01*
X173633177Y-113778687D01*
X173472758Y-113730024D01*
X173324924Y-113651005D01*
X173324922Y-113651004D01*
X173195341Y-113544659D01*
X173088996Y-113415078D01*
X173038529Y-113320660D01*
X173009976Y-113267242D01*
X172961313Y-113106823D01*
X172944883Y-112940000D01*
X172961313Y-112773177D01*
X173009976Y-112612758D01*
X173088995Y-112464924D01*
X173088996Y-112464922D01*
X173195341Y-112335341D01*
X173324922Y-112228996D01*
X173347419Y-112216971D01*
X173472758Y-112149976D01*
X173633177Y-112101313D01*
X173758196Y-112089000D01*
X173841804Y-112089000D01*
X173966823Y-112101313D01*
X173966823Y-112101313D01*
G37*
G36*
X189206823Y-112101313D02*
G01*
X189367242Y-112149976D01*
X189492581Y-112216971D01*
X189515078Y-112228996D01*
X189644659Y-112335341D01*
X189751004Y-112464922D01*
X189751005Y-112464924D01*
X189830024Y-112612758D01*
X189878687Y-112773177D01*
X189895117Y-112940000D01*
X189878687Y-113106823D01*
X189830024Y-113267242D01*
X189801471Y-113320660D01*
X189751004Y-113415078D01*
X189644659Y-113544659D01*
X189515078Y-113651004D01*
X189515076Y-113651005D01*
X189367242Y-113730024D01*
X189206823Y-113778687D01*
X189081804Y-113791000D01*
X188998196Y-113791000D01*
X188873177Y-113778687D01*
X188712758Y-113730024D01*
X188564924Y-113651005D01*
X188564922Y-113651004D01*
X188435341Y-113544659D01*
X188328996Y-113415078D01*
X188278529Y-113320660D01*
X188249976Y-113267242D01*
X188201313Y-113106823D01*
X188184883Y-112940000D01*
X188201313Y-112773177D01*
X188249976Y-112612758D01*
X188328995Y-112464924D01*
X188328996Y-112464922D01*
X188435341Y-112335341D01*
X188564922Y-112228996D01*
X188587419Y-112216971D01*
X188712758Y-112149976D01*
X188873177Y-112101313D01*
X188998196Y-112089000D01*
X189081804Y-112089000D01*
X189206823Y-112101313D01*
X189206823Y-112101313D01*
G37*
G36*
X177659999Y-112099737D02*
G01*
X177669608Y-112102652D01*
X177678472Y-112107390D01*
X177686237Y-112113763D01*
X177696448Y-112126206D01*
X177703378Y-112136575D01*
X177720705Y-112153902D01*
X177741080Y-112167515D01*
X177763720Y-112176891D01*
X177787753Y-112181671D01*
X177812257Y-112181670D01*
X177836290Y-112176888D01*
X177858929Y-112167510D01*
X177879302Y-112153895D01*
X177896629Y-112136568D01*
X177903558Y-112126198D01*
X177913763Y-112113763D01*
X177921528Y-112107390D01*
X177930392Y-112102652D01*
X177940001Y-112099737D01*
X177956140Y-112098148D01*
X178443861Y-112098148D01*
X178462199Y-112099954D01*
X178474450Y-112100556D01*
X178492869Y-112100556D01*
X178515149Y-112102750D01*
X178599233Y-112119476D01*
X178620660Y-112125976D01*
X178699858Y-112158780D01*
X178705303Y-112161691D01*
X178705309Y-112161693D01*
X178714169Y-112166429D01*
X178714173Y-112166432D01*
X178719614Y-112169340D01*
X178790899Y-112216971D01*
X178808204Y-112231172D01*
X178868828Y-112291796D01*
X178883029Y-112309101D01*
X178930660Y-112380386D01*
X178933568Y-112385827D01*
X178933571Y-112385831D01*
X178938307Y-112394691D01*
X178938309Y-112394697D01*
X178941220Y-112400142D01*
X178974024Y-112479340D01*
X178980524Y-112500767D01*
X178997250Y-112584851D01*
X178999444Y-112607131D01*
X178999444Y-112625550D01*
X179000046Y-112637801D01*
X179001852Y-112656139D01*
X179001852Y-113143862D01*
X179000046Y-113162199D01*
X178999444Y-113174450D01*
X178999444Y-113192869D01*
X178997250Y-113215149D01*
X178980524Y-113299233D01*
X178974024Y-113320660D01*
X178941220Y-113399858D01*
X178938309Y-113405303D01*
X178938307Y-113405309D01*
X178933571Y-113414169D01*
X178933568Y-113414173D01*
X178930660Y-113419614D01*
X178883029Y-113490899D01*
X178868828Y-113508204D01*
X178808204Y-113568828D01*
X178790899Y-113583029D01*
X178719614Y-113630660D01*
X178714173Y-113633568D01*
X178714169Y-113633571D01*
X178705309Y-113638307D01*
X178705303Y-113638309D01*
X178699858Y-113641220D01*
X178620660Y-113674024D01*
X178599233Y-113680524D01*
X178515149Y-113697250D01*
X178492869Y-113699444D01*
X178474450Y-113699444D01*
X178462199Y-113700046D01*
X178443862Y-113701852D01*
X177956140Y-113701852D01*
X177940001Y-113700263D01*
X177930392Y-113697348D01*
X177921528Y-113692610D01*
X177913763Y-113686237D01*
X177903552Y-113673794D01*
X177896622Y-113663425D01*
X177879295Y-113646098D01*
X177858920Y-113632485D01*
X177836280Y-113623109D01*
X177812247Y-113618329D01*
X177787743Y-113618330D01*
X177763710Y-113623112D01*
X177741071Y-113632490D01*
X177720698Y-113646105D01*
X177703371Y-113663432D01*
X177696442Y-113673802D01*
X177686237Y-113686237D01*
X177678472Y-113692610D01*
X177669608Y-113697348D01*
X177659999Y-113700263D01*
X177643860Y-113701852D01*
X177156138Y-113701852D01*
X177137801Y-113700046D01*
X177125550Y-113699444D01*
X177107131Y-113699444D01*
X177084851Y-113697250D01*
X177000767Y-113680524D01*
X176979340Y-113674024D01*
X176900142Y-113641220D01*
X176894697Y-113638309D01*
X176894691Y-113638307D01*
X176885831Y-113633571D01*
X176885827Y-113633568D01*
X176880386Y-113630660D01*
X176809101Y-113583029D01*
X176791796Y-113568828D01*
X176731172Y-113508204D01*
X176716971Y-113490899D01*
X176669340Y-113419614D01*
X176666432Y-113414173D01*
X176666429Y-113414169D01*
X176661693Y-113405309D01*
X176661691Y-113405303D01*
X176658780Y-113399858D01*
X176625976Y-113320660D01*
X176619476Y-113299233D01*
X176602750Y-113215149D01*
X176600556Y-113192869D01*
X176600556Y-113174450D01*
X176599954Y-113162199D01*
X176598148Y-113143862D01*
X176598148Y-112656139D01*
X176599954Y-112637801D01*
X176600556Y-112625550D01*
X176600556Y-112607131D01*
X176602750Y-112584851D01*
X176619476Y-112500767D01*
X176625976Y-112479340D01*
X176658780Y-112400142D01*
X176661691Y-112394697D01*
X176661693Y-112394691D01*
X176666429Y-112385831D01*
X176666432Y-112385827D01*
X176669340Y-112380386D01*
X176716971Y-112309101D01*
X176731172Y-112291796D01*
X176791796Y-112231172D01*
X176809101Y-112216971D01*
X176880386Y-112169340D01*
X176885827Y-112166432D01*
X176885831Y-112166429D01*
X176894691Y-112161693D01*
X176894697Y-112161691D01*
X176900142Y-112158780D01*
X176979340Y-112125976D01*
X177000767Y-112119476D01*
X177084851Y-112102750D01*
X177107131Y-112100556D01*
X177125550Y-112100556D01*
X177137801Y-112099954D01*
X177156139Y-112098148D01*
X177643860Y-112098148D01*
X177659999Y-112099737D01*
X177659999Y-112099737D01*
G37*
G36*
X104776669Y-110007686D02*
G01*
X104953058Y-110025059D01*
X105292548Y-110128042D01*
X105292550Y-110128043D01*
X105605422Y-110295277D01*
X105605424Y-110295278D01*
X105605423Y-110295278D01*
X105879661Y-110520339D01*
X106104722Y-110794577D01*
X106271958Y-111107452D01*
X106374941Y-111446942D01*
X106409714Y-111800000D01*
X106374941Y-112153058D01*
X106271958Y-112492548D01*
X106271957Y-112492550D01*
X106104723Y-112805422D01*
X105879661Y-113079661D01*
X105605422Y-113304723D01*
X105292550Y-113471957D01*
X105292548Y-113471958D01*
X104953058Y-113574941D01*
X104776669Y-113592314D01*
X104688476Y-113601000D01*
X104511524Y-113601000D01*
X104423331Y-113592314D01*
X104246942Y-113574941D01*
X103907452Y-113471958D01*
X103907450Y-113471957D01*
X103594578Y-113304723D01*
X103320339Y-113079661D01*
X103095277Y-112805422D01*
X102928043Y-112492550D01*
X102928042Y-112492548D01*
X102825059Y-112153058D01*
X102790286Y-111800000D01*
X102825059Y-111446942D01*
X102928042Y-111107452D01*
X103095278Y-110794577D01*
X103320339Y-110520339D01*
X103594577Y-110295278D01*
X103594576Y-110295278D01*
X103594578Y-110295277D01*
X103907450Y-110128043D01*
X103907452Y-110128042D01*
X104246942Y-110025059D01*
X104423331Y-110007686D01*
X104511524Y-109999000D01*
X104688476Y-109999000D01*
X104776669Y-110007686D01*
X104776669Y-110007686D01*
G37*
G36*
X156951000Y-113351000D02*
G01*
X153849000Y-113351000D01*
X153849000Y-110249000D01*
X156951000Y-110249000D01*
X156951000Y-113351000D01*
X156951000Y-113351000D01*
G37*
G36*
X173966823Y-109561313D02*
G01*
X174127242Y-109609976D01*
X174259906Y-109680886D01*
X174275078Y-109688996D01*
X174404659Y-109795341D01*
X174511004Y-109924922D01*
X174511005Y-109924924D01*
X174590024Y-110072758D01*
X174638687Y-110233177D01*
X174655117Y-110400000D01*
X174638687Y-110566823D01*
X174590024Y-110727242D01*
X174554032Y-110794578D01*
X174511004Y-110875078D01*
X174404659Y-111004659D01*
X174275078Y-111111004D01*
X174275076Y-111111005D01*
X174127242Y-111190024D01*
X173966823Y-111238687D01*
X173841804Y-111251000D01*
X173758196Y-111251000D01*
X173633177Y-111238687D01*
X173472758Y-111190024D01*
X173324924Y-111111005D01*
X173324922Y-111111004D01*
X173195341Y-111004659D01*
X173088996Y-110875078D01*
X173045968Y-110794578D01*
X173009976Y-110727242D01*
X172961313Y-110566823D01*
X172944883Y-110400000D01*
X172961313Y-110233177D01*
X173009976Y-110072758D01*
X173088995Y-109924924D01*
X173088996Y-109924922D01*
X173195341Y-109795341D01*
X173324922Y-109688996D01*
X173340094Y-109680886D01*
X173472758Y-109609976D01*
X173633177Y-109561313D01*
X173758196Y-109549000D01*
X173841804Y-109549000D01*
X173966823Y-109561313D01*
X173966823Y-109561313D01*
G37*
G36*
X189206823Y-109561313D02*
G01*
X189367242Y-109609976D01*
X189499906Y-109680886D01*
X189515078Y-109688996D01*
X189644659Y-109795341D01*
X189751004Y-109924922D01*
X189751005Y-109924924D01*
X189830024Y-110072758D01*
X189878687Y-110233177D01*
X189895117Y-110400000D01*
X189878687Y-110566823D01*
X189830024Y-110727242D01*
X189794032Y-110794578D01*
X189751004Y-110875078D01*
X189644659Y-111004659D01*
X189515078Y-111111004D01*
X189515076Y-111111005D01*
X189367242Y-111190024D01*
X189206823Y-111238687D01*
X189081804Y-111251000D01*
X188998196Y-111251000D01*
X188873177Y-111238687D01*
X188712758Y-111190024D01*
X188564924Y-111111005D01*
X188564922Y-111111004D01*
X188435341Y-111004659D01*
X188328996Y-110875078D01*
X188285968Y-110794578D01*
X188249976Y-110727242D01*
X188201313Y-110566823D01*
X188184883Y-110400000D01*
X188201313Y-110233177D01*
X188249976Y-110072758D01*
X188328995Y-109924924D01*
X188328996Y-109924922D01*
X188435341Y-109795341D01*
X188564922Y-109688996D01*
X188580094Y-109680886D01*
X188712758Y-109609976D01*
X188873177Y-109561313D01*
X188998196Y-109549000D01*
X189081804Y-109549000D01*
X189206823Y-109561313D01*
X189206823Y-109561313D01*
G37*
G36*
X104752143Y-106446481D02*
G01*
X104904049Y-106461442D01*
X105196414Y-106550130D01*
X105196416Y-106550131D01*
X105465858Y-106694150D01*
X105702029Y-106887971D01*
X105895850Y-107124142D01*
X106035239Y-107384922D01*
X106039870Y-107393586D01*
X106128558Y-107685951D01*
X106158504Y-107990000D01*
X106128558Y-108294049D01*
X106044544Y-108571005D01*
X106039869Y-108586416D01*
X105895850Y-108855858D01*
X105702029Y-109092029D01*
X105465858Y-109285850D01*
X105196416Y-109429869D01*
X105196414Y-109429870D01*
X104904049Y-109518558D01*
X104752143Y-109533519D01*
X104676191Y-109541000D01*
X104523809Y-109541000D01*
X104447857Y-109533519D01*
X104295951Y-109518558D01*
X104003586Y-109429870D01*
X104003584Y-109429869D01*
X103734142Y-109285850D01*
X103497971Y-109092029D01*
X103304150Y-108855858D01*
X103160131Y-108586416D01*
X103155456Y-108571005D01*
X103071442Y-108294049D01*
X103041496Y-107990000D01*
X103071442Y-107685951D01*
X103160130Y-107393586D01*
X103164761Y-107384922D01*
X103304150Y-107124142D01*
X103497971Y-106887971D01*
X103734142Y-106694150D01*
X104003584Y-106550131D01*
X104003586Y-106550130D01*
X104295951Y-106461442D01*
X104447857Y-106446481D01*
X104523809Y-106439000D01*
X104676191Y-106439000D01*
X104752143Y-106446481D01*
X104752143Y-106446481D01*
G37*
G36*
X173966823Y-107021313D02*
G01*
X174127242Y-107069976D01*
X174228579Y-107124142D01*
X174275078Y-107148996D01*
X174404659Y-107255341D01*
X174511004Y-107384922D01*
X174511005Y-107384924D01*
X174590024Y-107532758D01*
X174638687Y-107693177D01*
X174655117Y-107860000D01*
X174638687Y-108026823D01*
X174590024Y-108187242D01*
X174532935Y-108294047D01*
X174511004Y-108335078D01*
X174404659Y-108464659D01*
X174275078Y-108571004D01*
X174275076Y-108571005D01*
X174127242Y-108650024D01*
X173966823Y-108698687D01*
X173841804Y-108711000D01*
X173758196Y-108711000D01*
X173633177Y-108698687D01*
X173472758Y-108650024D01*
X173324924Y-108571005D01*
X173324922Y-108571004D01*
X173195341Y-108464659D01*
X173088996Y-108335078D01*
X173067065Y-108294047D01*
X173009976Y-108187242D01*
X172961313Y-108026823D01*
X172944883Y-107860000D01*
X172961313Y-107693177D01*
X173009976Y-107532758D01*
X173088995Y-107384924D01*
X173088996Y-107384922D01*
X173195341Y-107255341D01*
X173324922Y-107148996D01*
X173371421Y-107124142D01*
X173472758Y-107069976D01*
X173633177Y-107021313D01*
X173758196Y-107009000D01*
X173841804Y-107009000D01*
X173966823Y-107021313D01*
X173966823Y-107021313D01*
G37*
G36*
X189206823Y-107021313D02*
G01*
X189367242Y-107069976D01*
X189468579Y-107124142D01*
X189515078Y-107148996D01*
X189644659Y-107255341D01*
X189751004Y-107384922D01*
X189751005Y-107384924D01*
X189830024Y-107532758D01*
X189878687Y-107693177D01*
X189895117Y-107860000D01*
X189878687Y-108026823D01*
X189830024Y-108187242D01*
X189772935Y-108294047D01*
X189751004Y-108335078D01*
X189644659Y-108464659D01*
X189515078Y-108571004D01*
X189515076Y-108571005D01*
X189367242Y-108650024D01*
X189206823Y-108698687D01*
X189081804Y-108711000D01*
X188998196Y-108711000D01*
X188873177Y-108698687D01*
X188712758Y-108650024D01*
X188564924Y-108571005D01*
X188564922Y-108571004D01*
X188435341Y-108464659D01*
X188328996Y-108335078D01*
X188307065Y-108294047D01*
X188249976Y-108187242D01*
X188201313Y-108026823D01*
X188184883Y-107860000D01*
X188201313Y-107693177D01*
X188249976Y-107532758D01*
X188328995Y-107384924D01*
X188328996Y-107384922D01*
X188435341Y-107255341D01*
X188564922Y-107148996D01*
X188611421Y-107124142D01*
X188712758Y-107069976D01*
X188873177Y-107021313D01*
X188998196Y-107009000D01*
X189081804Y-107009000D01*
X189206823Y-107021313D01*
X189206823Y-107021313D01*
G37*
G36*
X189206823Y-104481313D02*
G01*
X189367242Y-104529976D01*
X189499906Y-104600886D01*
X189515078Y-104608996D01*
X189644659Y-104715341D01*
X189751004Y-104844922D01*
X189751005Y-104844924D01*
X189830024Y-104992758D01*
X189878687Y-105153177D01*
X189895117Y-105320000D01*
X189878687Y-105486823D01*
X189830024Y-105647242D01*
X189797250Y-105708558D01*
X189751004Y-105795078D01*
X189644659Y-105924659D01*
X189515078Y-106031004D01*
X189515076Y-106031005D01*
X189367242Y-106110024D01*
X189206823Y-106158687D01*
X189081804Y-106171000D01*
X188998196Y-106171000D01*
X188873177Y-106158687D01*
X188712758Y-106110024D01*
X188564924Y-106031005D01*
X188564922Y-106031004D01*
X188435341Y-105924659D01*
X188328996Y-105795078D01*
X188282750Y-105708558D01*
X188249976Y-105647242D01*
X188201313Y-105486823D01*
X188184883Y-105320000D01*
X188201313Y-105153177D01*
X188249976Y-104992758D01*
X188328995Y-104844924D01*
X188328996Y-104844922D01*
X188435341Y-104715341D01*
X188564922Y-104608996D01*
X188580094Y-104600886D01*
X188712758Y-104529976D01*
X188873177Y-104481313D01*
X188998196Y-104469000D01*
X189081804Y-104469000D01*
X189206823Y-104481313D01*
X189206823Y-104481313D01*
G37*
G36*
X173966823Y-104481313D02*
G01*
X174127242Y-104529976D01*
X174259906Y-104600886D01*
X174275078Y-104608996D01*
X174404659Y-104715341D01*
X174511004Y-104844922D01*
X174511005Y-104844924D01*
X174590024Y-104992758D01*
X174638687Y-105153177D01*
X174655117Y-105320000D01*
X174638687Y-105486823D01*
X174590024Y-105647242D01*
X174557250Y-105708558D01*
X174511004Y-105795078D01*
X174404659Y-105924659D01*
X174275078Y-106031004D01*
X174275076Y-106031005D01*
X174127242Y-106110024D01*
X173966823Y-106158687D01*
X173841804Y-106171000D01*
X173758196Y-106171000D01*
X173633177Y-106158687D01*
X173472758Y-106110024D01*
X173324924Y-106031005D01*
X173324922Y-106031004D01*
X173195341Y-105924659D01*
X173088996Y-105795078D01*
X173042750Y-105708558D01*
X173009976Y-105647242D01*
X172961313Y-105486823D01*
X172944883Y-105320000D01*
X172961313Y-105153177D01*
X173009976Y-104992758D01*
X173088995Y-104844924D01*
X173088996Y-104844922D01*
X173195341Y-104715341D01*
X173324922Y-104608996D01*
X173340094Y-104600886D01*
X173472758Y-104529976D01*
X173633177Y-104481313D01*
X173758196Y-104469000D01*
X173841804Y-104469000D01*
X173966823Y-104481313D01*
X173966823Y-104481313D01*
G37*
G36*
X104752143Y-102636481D02*
G01*
X104904049Y-102651442D01*
X105196414Y-102740130D01*
X105196416Y-102740131D01*
X105465858Y-102884150D01*
X105702029Y-103077971D01*
X105895850Y-103314142D01*
X106039869Y-103583584D01*
X106039870Y-103583586D01*
X106128558Y-103875951D01*
X106158504Y-104180000D01*
X106128558Y-104484049D01*
X106058396Y-104715341D01*
X106039869Y-104776416D01*
X105895850Y-105045858D01*
X105702029Y-105282029D01*
X105465858Y-105475850D01*
X105196416Y-105619869D01*
X105196414Y-105619870D01*
X104904049Y-105708558D01*
X104752143Y-105723519D01*
X104676191Y-105731000D01*
X104523809Y-105731000D01*
X104447857Y-105723519D01*
X104295951Y-105708558D01*
X104003586Y-105619870D01*
X104003584Y-105619869D01*
X103734142Y-105475850D01*
X103497971Y-105282029D01*
X103304150Y-105045858D01*
X103160131Y-104776416D01*
X103141604Y-104715341D01*
X103071442Y-104484049D01*
X103041496Y-104180000D01*
X103071442Y-103875951D01*
X103160130Y-103583586D01*
X103160131Y-103583584D01*
X103304150Y-103314142D01*
X103497971Y-103077971D01*
X103734142Y-102884150D01*
X104003584Y-102740131D01*
X104003586Y-102740130D01*
X104295951Y-102651442D01*
X104447857Y-102636481D01*
X104523809Y-102629000D01*
X104676191Y-102629000D01*
X104752143Y-102636481D01*
X104752143Y-102636481D01*
G37*
G36*
X155552143Y-102636481D02*
G01*
X155704049Y-102651442D01*
X155996414Y-102740130D01*
X155996416Y-102740131D01*
X156265858Y-102884150D01*
X156502029Y-103077971D01*
X156695850Y-103314142D01*
X156839869Y-103583584D01*
X156839870Y-103583586D01*
X156928558Y-103875951D01*
X156958504Y-104180000D01*
X156928558Y-104484049D01*
X156858396Y-104715341D01*
X156839869Y-104776416D01*
X156695850Y-105045858D01*
X156502029Y-105282029D01*
X156265858Y-105475850D01*
X155996416Y-105619869D01*
X155996414Y-105619870D01*
X155704049Y-105708558D01*
X155552143Y-105723519D01*
X155476191Y-105731000D01*
X155323809Y-105731000D01*
X155247857Y-105723519D01*
X155095951Y-105708558D01*
X154803586Y-105619870D01*
X154803584Y-105619869D01*
X154534142Y-105475850D01*
X154297971Y-105282029D01*
X154104150Y-105045858D01*
X153960131Y-104776416D01*
X153941604Y-104715341D01*
X153871442Y-104484049D01*
X153841496Y-104180000D01*
X153871442Y-103875951D01*
X153960130Y-103583586D01*
X153960131Y-103583584D01*
X154104150Y-103314142D01*
X154297971Y-103077971D01*
X154534142Y-102884150D01*
X154803584Y-102740131D01*
X154803586Y-102740130D01*
X155095951Y-102651442D01*
X155247857Y-102636481D01*
X155323809Y-102629000D01*
X155476191Y-102629000D01*
X155552143Y-102636481D01*
X155552143Y-102636481D01*
G37*
G36*
X189206823Y-101941313D02*
G01*
X189367242Y-101989976D01*
X189499906Y-102060886D01*
X189515078Y-102068996D01*
X189644659Y-102175341D01*
X189751004Y-102304922D01*
X189751005Y-102304924D01*
X189830024Y-102452758D01*
X189878687Y-102613177D01*
X189895117Y-102780000D01*
X189878687Y-102946823D01*
X189830024Y-103107242D01*
X189759114Y-103239906D01*
X189751004Y-103255078D01*
X189644659Y-103384659D01*
X189515078Y-103491004D01*
X189515076Y-103491005D01*
X189367242Y-103570024D01*
X189206823Y-103618687D01*
X189081804Y-103631000D01*
X188998196Y-103631000D01*
X188873177Y-103618687D01*
X188712758Y-103570024D01*
X188564924Y-103491005D01*
X188564922Y-103491004D01*
X188435341Y-103384659D01*
X188328996Y-103255078D01*
X188320886Y-103239906D01*
X188249976Y-103107242D01*
X188201313Y-102946823D01*
X188184883Y-102780000D01*
X188201313Y-102613177D01*
X188249976Y-102452758D01*
X188328995Y-102304924D01*
X188328996Y-102304922D01*
X188435341Y-102175341D01*
X188564922Y-102068996D01*
X188580094Y-102060886D01*
X188712758Y-101989976D01*
X188873177Y-101941313D01*
X188998196Y-101929000D01*
X189081804Y-101929000D01*
X189206823Y-101941313D01*
X189206823Y-101941313D01*
G37*
G36*
X173966823Y-101941313D02*
G01*
X174127242Y-101989976D01*
X174259906Y-102060886D01*
X174275078Y-102068996D01*
X174404659Y-102175341D01*
X174511004Y-102304922D01*
X174511005Y-102304924D01*
X174590024Y-102452758D01*
X174638687Y-102613177D01*
X174655117Y-102780000D01*
X174638687Y-102946823D01*
X174590024Y-103107242D01*
X174519114Y-103239906D01*
X174511004Y-103255078D01*
X174404659Y-103384659D01*
X174275078Y-103491004D01*
X174275076Y-103491005D01*
X174127242Y-103570024D01*
X173966823Y-103618687D01*
X173841804Y-103631000D01*
X173758196Y-103631000D01*
X173633177Y-103618687D01*
X173472758Y-103570024D01*
X173324924Y-103491005D01*
X173324922Y-103491004D01*
X173195341Y-103384659D01*
X173088996Y-103255078D01*
X173080886Y-103239906D01*
X173009976Y-103107242D01*
X172961313Y-102946823D01*
X172944883Y-102780000D01*
X172961313Y-102613177D01*
X173009976Y-102452758D01*
X173088995Y-102304924D01*
X173088996Y-102304922D01*
X173195341Y-102175341D01*
X173324922Y-102068996D01*
X173340094Y-102060886D01*
X173472758Y-101989976D01*
X173633177Y-101941313D01*
X173758196Y-101929000D01*
X173841804Y-101929000D01*
X173966823Y-101941313D01*
X173966823Y-101941313D01*
G37*
G36*
X104752143Y-98826481D02*
G01*
X104904049Y-98841442D01*
X105196414Y-98930130D01*
X105196416Y-98930131D01*
X105465858Y-99074150D01*
X105702029Y-99267971D01*
X105895850Y-99504142D01*
X106035239Y-99764922D01*
X106039870Y-99773586D01*
X106128558Y-100065951D01*
X106158504Y-100370000D01*
X106128558Y-100674049D01*
X106039870Y-100966414D01*
X106039869Y-100966416D01*
X105895850Y-101235858D01*
X105702029Y-101472029D01*
X105465858Y-101665850D01*
X105196416Y-101809869D01*
X105196414Y-101809870D01*
X104904049Y-101898558D01*
X104752143Y-101913519D01*
X104676191Y-101921000D01*
X104523809Y-101921000D01*
X104447857Y-101913519D01*
X104295951Y-101898558D01*
X104003586Y-101809870D01*
X104003584Y-101809869D01*
X103734142Y-101665850D01*
X103497971Y-101472029D01*
X103304150Y-101235858D01*
X103160131Y-100966416D01*
X103160130Y-100966414D01*
X103071442Y-100674049D01*
X103041496Y-100370000D01*
X103071442Y-100065951D01*
X103160130Y-99773586D01*
X103164761Y-99764922D01*
X103304150Y-99504142D01*
X103497971Y-99267971D01*
X103734142Y-99074150D01*
X104003584Y-98930131D01*
X104003586Y-98930130D01*
X104295951Y-98841442D01*
X104447857Y-98826481D01*
X104523809Y-98819000D01*
X104676191Y-98819000D01*
X104752143Y-98826481D01*
X104752143Y-98826481D01*
G37*
G36*
X173966823Y-99401313D02*
G01*
X174127242Y-99449976D01*
X174228579Y-99504142D01*
X174275078Y-99528996D01*
X174404659Y-99635341D01*
X174511004Y-99764922D01*
X174511005Y-99764924D01*
X174590024Y-99912758D01*
X174638687Y-100073177D01*
X174655117Y-100240000D01*
X174638687Y-100406823D01*
X174590024Y-100567242D01*
X174561471Y-100620660D01*
X174511004Y-100715078D01*
X174404659Y-100844659D01*
X174275078Y-100951004D01*
X174275076Y-100951005D01*
X174127242Y-101030024D01*
X173966823Y-101078687D01*
X173841804Y-101091000D01*
X173758196Y-101091000D01*
X173633177Y-101078687D01*
X173472758Y-101030024D01*
X173324924Y-100951005D01*
X173324922Y-100951004D01*
X173195341Y-100844659D01*
X173088996Y-100715078D01*
X173038529Y-100620660D01*
X173009976Y-100567242D01*
X172961313Y-100406823D01*
X172944883Y-100240000D01*
X172961313Y-100073177D01*
X173009976Y-99912758D01*
X173088995Y-99764924D01*
X173088996Y-99764922D01*
X173195341Y-99635341D01*
X173324922Y-99528996D01*
X173371421Y-99504142D01*
X173472758Y-99449976D01*
X173633177Y-99401313D01*
X173758196Y-99389000D01*
X173841804Y-99389000D01*
X173966823Y-99401313D01*
X173966823Y-99401313D01*
G37*
G36*
X189206823Y-99401313D02*
G01*
X189367242Y-99449976D01*
X189468579Y-99504142D01*
X189515078Y-99528996D01*
X189644659Y-99635341D01*
X189751004Y-99764922D01*
X189751005Y-99764924D01*
X189830024Y-99912758D01*
X189878687Y-100073177D01*
X189895117Y-100240000D01*
X189878687Y-100406823D01*
X189830024Y-100567242D01*
X189801471Y-100620660D01*
X189751004Y-100715078D01*
X189644659Y-100844659D01*
X189515078Y-100951004D01*
X189515076Y-100951005D01*
X189367242Y-101030024D01*
X189206823Y-101078687D01*
X189081804Y-101091000D01*
X188998196Y-101091000D01*
X188873177Y-101078687D01*
X188712758Y-101030024D01*
X188564924Y-100951005D01*
X188564922Y-100951004D01*
X188435341Y-100844659D01*
X188328996Y-100715078D01*
X188278529Y-100620660D01*
X188249976Y-100567242D01*
X188201313Y-100406823D01*
X188184883Y-100240000D01*
X188201313Y-100073177D01*
X188249976Y-99912758D01*
X188328995Y-99764924D01*
X188328996Y-99764922D01*
X188435341Y-99635341D01*
X188564922Y-99528996D01*
X188611421Y-99504142D01*
X188712758Y-99449976D01*
X188873177Y-99401313D01*
X188998196Y-99389000D01*
X189081804Y-99389000D01*
X189206823Y-99401313D01*
X189206823Y-99401313D01*
G37*
G36*
X177159999Y-99399737D02*
G01*
X177169608Y-99402652D01*
X177178472Y-99407390D01*
X177186237Y-99413763D01*
X177196448Y-99426206D01*
X177203378Y-99436575D01*
X177220705Y-99453902D01*
X177241080Y-99467515D01*
X177263720Y-99476891D01*
X177287753Y-99481671D01*
X177312257Y-99481670D01*
X177336290Y-99476888D01*
X177358929Y-99467510D01*
X177379302Y-99453895D01*
X177396629Y-99436568D01*
X177403558Y-99426198D01*
X177413763Y-99413763D01*
X177421528Y-99407390D01*
X177430392Y-99402652D01*
X177440001Y-99399737D01*
X177456140Y-99398148D01*
X177943861Y-99398148D01*
X177962199Y-99399954D01*
X177974450Y-99400556D01*
X177992869Y-99400556D01*
X178015149Y-99402750D01*
X178099233Y-99419476D01*
X178120660Y-99425976D01*
X178199858Y-99458780D01*
X178205303Y-99461691D01*
X178205309Y-99461693D01*
X178214169Y-99466429D01*
X178214173Y-99466432D01*
X178219614Y-99469340D01*
X178290899Y-99516971D01*
X178308204Y-99531172D01*
X178368828Y-99591796D01*
X178383029Y-99609101D01*
X178430660Y-99680386D01*
X178433568Y-99685827D01*
X178433571Y-99685831D01*
X178438307Y-99694691D01*
X178438309Y-99694697D01*
X178441220Y-99700142D01*
X178474024Y-99779340D01*
X178480524Y-99800767D01*
X178497250Y-99884851D01*
X178499444Y-99907131D01*
X178499444Y-99925550D01*
X178500046Y-99937801D01*
X178501852Y-99956139D01*
X178501852Y-100443862D01*
X178500046Y-100462199D01*
X178499444Y-100474450D01*
X178499444Y-100492869D01*
X178497250Y-100515149D01*
X178480524Y-100599233D01*
X178474024Y-100620660D01*
X178441220Y-100699858D01*
X178438309Y-100705303D01*
X178438307Y-100705309D01*
X178433571Y-100714169D01*
X178433568Y-100714173D01*
X178430660Y-100719614D01*
X178383029Y-100790899D01*
X178368828Y-100808204D01*
X178308204Y-100868828D01*
X178290899Y-100883029D01*
X178219614Y-100930660D01*
X178214173Y-100933568D01*
X178214169Y-100933571D01*
X178205309Y-100938307D01*
X178205303Y-100938309D01*
X178199858Y-100941220D01*
X178120660Y-100974024D01*
X178099233Y-100980524D01*
X178015149Y-100997250D01*
X177992869Y-100999444D01*
X177974450Y-100999444D01*
X177962199Y-101000046D01*
X177943862Y-101001852D01*
X177456140Y-101001852D01*
X177440001Y-101000263D01*
X177430392Y-100997348D01*
X177421528Y-100992610D01*
X177413763Y-100986237D01*
X177403552Y-100973794D01*
X177396622Y-100963425D01*
X177379295Y-100946098D01*
X177358920Y-100932485D01*
X177336280Y-100923109D01*
X177312247Y-100918329D01*
X177287743Y-100918330D01*
X177263710Y-100923112D01*
X177241071Y-100932490D01*
X177220698Y-100946105D01*
X177203371Y-100963432D01*
X177196442Y-100973802D01*
X177186237Y-100986237D01*
X177178472Y-100992610D01*
X177169608Y-100997348D01*
X177159999Y-101000263D01*
X177143860Y-101001852D01*
X176656138Y-101001852D01*
X176637801Y-101000046D01*
X176625550Y-100999444D01*
X176607131Y-100999444D01*
X176584851Y-100997250D01*
X176500767Y-100980524D01*
X176479340Y-100974024D01*
X176400142Y-100941220D01*
X176394697Y-100938309D01*
X176394691Y-100938307D01*
X176385831Y-100933571D01*
X176385827Y-100933568D01*
X176380386Y-100930660D01*
X176309101Y-100883029D01*
X176291796Y-100868828D01*
X176231172Y-100808204D01*
X176216971Y-100790899D01*
X176169340Y-100719614D01*
X176166432Y-100714173D01*
X176166429Y-100714169D01*
X176161693Y-100705309D01*
X176161691Y-100705303D01*
X176158780Y-100699858D01*
X176125976Y-100620660D01*
X176119476Y-100599233D01*
X176102750Y-100515149D01*
X176100556Y-100492869D01*
X176100556Y-100474450D01*
X176099954Y-100462199D01*
X176098148Y-100443862D01*
X176098148Y-99956139D01*
X176099954Y-99937801D01*
X176100556Y-99925550D01*
X176100556Y-99907131D01*
X176102750Y-99884851D01*
X176119476Y-99800767D01*
X176125976Y-99779340D01*
X176158780Y-99700142D01*
X176161691Y-99694697D01*
X176161693Y-99694691D01*
X176166429Y-99685831D01*
X176166432Y-99685827D01*
X176169340Y-99680386D01*
X176216971Y-99609101D01*
X176231172Y-99591796D01*
X176291796Y-99531172D01*
X176309101Y-99516971D01*
X176380386Y-99469340D01*
X176385827Y-99466432D01*
X176385831Y-99466429D01*
X176394691Y-99461693D01*
X176394697Y-99461691D01*
X176400142Y-99458780D01*
X176479340Y-99425976D01*
X176500767Y-99419476D01*
X176584851Y-99402750D01*
X176607131Y-99400556D01*
X176625550Y-99400556D01*
X176637801Y-99399954D01*
X176656139Y-99398148D01*
X177143860Y-99398148D01*
X177159999Y-99399737D01*
X177159999Y-99399737D01*
G37*
G36*
X194373241Y-96454760D02*
G01*
X194637305Y-96564139D01*
X194874958Y-96722934D01*
X195077066Y-96925042D01*
X195235861Y-97162695D01*
X195345240Y-97426759D01*
X195401000Y-97707088D01*
X195401000Y-97992912D01*
X195345240Y-98273241D01*
X195235861Y-98537305D01*
X195077066Y-98774958D01*
X194874958Y-98977066D01*
X194637305Y-99135861D01*
X194373241Y-99245240D01*
X194092912Y-99301000D01*
X193807088Y-99301000D01*
X193526759Y-99245240D01*
X193262695Y-99135861D01*
X193025042Y-98977066D01*
X192822934Y-98774958D01*
X192664139Y-98537305D01*
X192554760Y-98273241D01*
X192499000Y-97992912D01*
X192499000Y-97707088D01*
X192554760Y-97426759D01*
X192664139Y-97162695D01*
X192822934Y-96925042D01*
X193025042Y-96722934D01*
X193262695Y-96564139D01*
X193526759Y-96454760D01*
X193807088Y-96399000D01*
X194092912Y-96399000D01*
X194373241Y-96454760D01*
X194373241Y-96454760D01*
G37*
G36*
X174651000Y-98551000D02*
G01*
X172949000Y-98551000D01*
X172949000Y-96849000D01*
X174651000Y-96849000D01*
X174651000Y-98551000D01*
X174651000Y-98551000D01*
G37*
G36*
X189206823Y-96861313D02*
G01*
X189367242Y-96909976D01*
X189472858Y-96966429D01*
X189515078Y-96988996D01*
X189644659Y-97095341D01*
X189751004Y-97224922D01*
X189751005Y-97224924D01*
X189830024Y-97372758D01*
X189878687Y-97533177D01*
X189895117Y-97700000D01*
X189878687Y-97866823D01*
X189830024Y-98027242D01*
X189785254Y-98111000D01*
X189751004Y-98175078D01*
X189644659Y-98304659D01*
X189515078Y-98411004D01*
X189515076Y-98411005D01*
X189367242Y-98490024D01*
X189206823Y-98538687D01*
X189081804Y-98551000D01*
X188998196Y-98551000D01*
X188873177Y-98538687D01*
X188712758Y-98490024D01*
X188564924Y-98411005D01*
X188564922Y-98411004D01*
X188435341Y-98304659D01*
X188328996Y-98175078D01*
X188294746Y-98111000D01*
X188249976Y-98027242D01*
X188201313Y-97866823D01*
X188184883Y-97700000D01*
X188201313Y-97533177D01*
X188249976Y-97372758D01*
X188328995Y-97224924D01*
X188328996Y-97224922D01*
X188435341Y-97095341D01*
X188564922Y-96988996D01*
X188607142Y-96966429D01*
X188712758Y-96909976D01*
X188873177Y-96861313D01*
X188998196Y-96849000D01*
X189081804Y-96849000D01*
X189206823Y-96861313D01*
X189206823Y-96861313D01*
G37*
G36*
X177159999Y-96899737D02*
G01*
X177169608Y-96902652D01*
X177178472Y-96907390D01*
X177186237Y-96913763D01*
X177196448Y-96926206D01*
X177203378Y-96936575D01*
X177220705Y-96953902D01*
X177241080Y-96967515D01*
X177263720Y-96976891D01*
X177287753Y-96981671D01*
X177312257Y-96981670D01*
X177336290Y-96976888D01*
X177358929Y-96967510D01*
X177379302Y-96953895D01*
X177396629Y-96936568D01*
X177403558Y-96926198D01*
X177413763Y-96913763D01*
X177421528Y-96907390D01*
X177430392Y-96902652D01*
X177440001Y-96899737D01*
X177456140Y-96898148D01*
X177943861Y-96898148D01*
X177962199Y-96899954D01*
X177974450Y-96900556D01*
X177992869Y-96900556D01*
X178015149Y-96902750D01*
X178099233Y-96919476D01*
X178120660Y-96925976D01*
X178199858Y-96958780D01*
X178205303Y-96961691D01*
X178205309Y-96961693D01*
X178214169Y-96966429D01*
X178214173Y-96966432D01*
X178219614Y-96969340D01*
X178290899Y-97016971D01*
X178308204Y-97031172D01*
X178368828Y-97091796D01*
X178383029Y-97109101D01*
X178430660Y-97180386D01*
X178433568Y-97185827D01*
X178433571Y-97185831D01*
X178438307Y-97194691D01*
X178438309Y-97194697D01*
X178441220Y-97200142D01*
X178474024Y-97279340D01*
X178480524Y-97300767D01*
X178497250Y-97384851D01*
X178499444Y-97407131D01*
X178499444Y-97425550D01*
X178500046Y-97437801D01*
X178501852Y-97456139D01*
X178501852Y-97943862D01*
X178500046Y-97962199D01*
X178499444Y-97974450D01*
X178499444Y-97992869D01*
X178497250Y-98015149D01*
X178480524Y-98099233D01*
X178474024Y-98120660D01*
X178441220Y-98199858D01*
X178438309Y-98205303D01*
X178438307Y-98205309D01*
X178433571Y-98214169D01*
X178433568Y-98214173D01*
X178430660Y-98219614D01*
X178383029Y-98290899D01*
X178368828Y-98308204D01*
X178308204Y-98368828D01*
X178290899Y-98383029D01*
X178219614Y-98430660D01*
X178214173Y-98433568D01*
X178214169Y-98433571D01*
X178205309Y-98438307D01*
X178205303Y-98438309D01*
X178199858Y-98441220D01*
X178120660Y-98474024D01*
X178099233Y-98480524D01*
X178015149Y-98497250D01*
X177992869Y-98499444D01*
X177974450Y-98499444D01*
X177962199Y-98500046D01*
X177943862Y-98501852D01*
X177456140Y-98501852D01*
X177440001Y-98500263D01*
X177430392Y-98497348D01*
X177421528Y-98492610D01*
X177413763Y-98486237D01*
X177403552Y-98473794D01*
X177396622Y-98463425D01*
X177379295Y-98446098D01*
X177358920Y-98432485D01*
X177336280Y-98423109D01*
X177312247Y-98418329D01*
X177287743Y-98418330D01*
X177263710Y-98423112D01*
X177241071Y-98432490D01*
X177220698Y-98446105D01*
X177203371Y-98463432D01*
X177196442Y-98473802D01*
X177186237Y-98486237D01*
X177178472Y-98492610D01*
X177169608Y-98497348D01*
X177159999Y-98500263D01*
X177143860Y-98501852D01*
X176656138Y-98501852D01*
X176637801Y-98500046D01*
X176625550Y-98499444D01*
X176607131Y-98499444D01*
X176584851Y-98497250D01*
X176500767Y-98480524D01*
X176479340Y-98474024D01*
X176400142Y-98441220D01*
X176394697Y-98438309D01*
X176394691Y-98438307D01*
X176385831Y-98433571D01*
X176385827Y-98433568D01*
X176380386Y-98430660D01*
X176309101Y-98383029D01*
X176291796Y-98368828D01*
X176231172Y-98308204D01*
X176216971Y-98290899D01*
X176169340Y-98219614D01*
X176166432Y-98214173D01*
X176166429Y-98214169D01*
X176161693Y-98205309D01*
X176161691Y-98205303D01*
X176158780Y-98199858D01*
X176125976Y-98120660D01*
X176119476Y-98099233D01*
X176102750Y-98015149D01*
X176100556Y-97992869D01*
X176100556Y-97974450D01*
X176099954Y-97962199D01*
X176098148Y-97943862D01*
X176098148Y-97456139D01*
X176099954Y-97437801D01*
X176100556Y-97425550D01*
X176100556Y-97407131D01*
X176102750Y-97384851D01*
X176119476Y-97300767D01*
X176125976Y-97279340D01*
X176158780Y-97200142D01*
X176161691Y-97194697D01*
X176161693Y-97194691D01*
X176166429Y-97185831D01*
X176166432Y-97185827D01*
X176169340Y-97180386D01*
X176216971Y-97109101D01*
X176231172Y-97091796D01*
X176291796Y-97031172D01*
X176309101Y-97016971D01*
X176380386Y-96969340D01*
X176385827Y-96966432D01*
X176385831Y-96966429D01*
X176394691Y-96961693D01*
X176394697Y-96961691D01*
X176400142Y-96958780D01*
X176479340Y-96925976D01*
X176500767Y-96919476D01*
X176584851Y-96902750D01*
X176607131Y-96900556D01*
X176625550Y-96900556D01*
X176637801Y-96899954D01*
X176656139Y-96898148D01*
X177143860Y-96898148D01*
X177159999Y-96899737D01*
X177159999Y-96899737D01*
G37*
G36*
X104776669Y-94767686D02*
G01*
X104953058Y-94785059D01*
X105292548Y-94888042D01*
X105292550Y-94888043D01*
X105605422Y-95055277D01*
X105879661Y-95280339D01*
X106104723Y-95554578D01*
X106271957Y-95867450D01*
X106271958Y-95867452D01*
X106374941Y-96206942D01*
X106409714Y-96560000D01*
X106374941Y-96913058D01*
X106271958Y-97252548D01*
X106271957Y-97252550D01*
X106104723Y-97565422D01*
X105879661Y-97839661D01*
X105605422Y-98064723D01*
X105352603Y-98199858D01*
X105292548Y-98231958D01*
X104953058Y-98334941D01*
X104776669Y-98352314D01*
X104688476Y-98361000D01*
X104511524Y-98361000D01*
X104423331Y-98352314D01*
X104246942Y-98334941D01*
X103907452Y-98231958D01*
X103847397Y-98199858D01*
X103594578Y-98064723D01*
X103320339Y-97839661D01*
X103095277Y-97565422D01*
X102928043Y-97252550D01*
X102928042Y-97252548D01*
X102825059Y-96913058D01*
X102790286Y-96560000D01*
X102825059Y-96206942D01*
X102928042Y-95867452D01*
X102928043Y-95867450D01*
X103095277Y-95554578D01*
X103320339Y-95280339D01*
X103594578Y-95055277D01*
X103907450Y-94888043D01*
X103907452Y-94888042D01*
X104246942Y-94785059D01*
X104423331Y-94767686D01*
X104511524Y-94759000D01*
X104688476Y-94759000D01*
X104776669Y-94767686D01*
X104776669Y-94767686D01*
G37*
G36*
X155552143Y-95016481D02*
G01*
X155704049Y-95031442D01*
X155996414Y-95120130D01*
X155996416Y-95120131D01*
X156265858Y-95264150D01*
X156502029Y-95457971D01*
X156695850Y-95694142D01*
X156839869Y-95963584D01*
X156839870Y-95963586D01*
X156928558Y-96255951D01*
X156958504Y-96560000D01*
X156928558Y-96864049D01*
X156854222Y-97109101D01*
X156839869Y-97156416D01*
X156695850Y-97425858D01*
X156502029Y-97662029D01*
X156265858Y-97855850D01*
X155998025Y-97999009D01*
X155996414Y-97999870D01*
X155704049Y-98088558D01*
X155595663Y-98099233D01*
X155476191Y-98111000D01*
X155323809Y-98111000D01*
X155204337Y-98099233D01*
X155095951Y-98088558D01*
X154803586Y-97999870D01*
X154801975Y-97999009D01*
X154534142Y-97855850D01*
X154297971Y-97662029D01*
X154104150Y-97425858D01*
X153960131Y-97156416D01*
X153945778Y-97109101D01*
X153871442Y-96864049D01*
X153841496Y-96560000D01*
X153871442Y-96255951D01*
X153960130Y-95963586D01*
X153960131Y-95963584D01*
X154104150Y-95694142D01*
X154297971Y-95457971D01*
X154534142Y-95264150D01*
X154803584Y-95120131D01*
X154803586Y-95120130D01*
X155095951Y-95031442D01*
X155247857Y-95016481D01*
X155323809Y-95009000D01*
X155476191Y-95009000D01*
X155552143Y-95016481D01*
X155552143Y-95016481D01*
G37*
G36*
X154002585Y-86178802D02*
G01*
X154152410Y-86208604D01*
X154434674Y-86325521D01*
X154688705Y-86495259D01*
X154904741Y-86711295D01*
X155074479Y-86965326D01*
X155191396Y-87247590D01*
X155251000Y-87547240D01*
X155251000Y-87852760D01*
X155191396Y-88152410D01*
X155074479Y-88434674D01*
X154904741Y-88688705D01*
X154688705Y-88904741D01*
X154434674Y-89074479D01*
X154152410Y-89191396D01*
X154002585Y-89221198D01*
X153852761Y-89251000D01*
X153547239Y-89251000D01*
X153397415Y-89221198D01*
X153247590Y-89191396D01*
X152965326Y-89074479D01*
X152711295Y-88904741D01*
X152495259Y-88688705D01*
X152325521Y-88434674D01*
X152208604Y-88152410D01*
X152149000Y-87852760D01*
X152149000Y-87547240D01*
X152208604Y-87247590D01*
X152325521Y-86965326D01*
X152495259Y-86711295D01*
X152711295Y-86495259D01*
X152965326Y-86325521D01*
X153247590Y-86208604D01*
X153397415Y-86178802D01*
X153547239Y-86149000D01*
X153852761Y-86149000D01*
X154002585Y-86178802D01*
X154002585Y-86178802D01*
G37*
G36*
X139002585Y-86178802D02*
G01*
X139152410Y-86208604D01*
X139434674Y-86325521D01*
X139688705Y-86495259D01*
X139904741Y-86711295D01*
X140074479Y-86965326D01*
X140191396Y-87247590D01*
X140251000Y-87547240D01*
X140251000Y-87852760D01*
X140191396Y-88152410D01*
X140074479Y-88434674D01*
X139904741Y-88688705D01*
X139688705Y-88904741D01*
X139434674Y-89074479D01*
X139152410Y-89191396D01*
X139002585Y-89221198D01*
X138852761Y-89251000D01*
X138547239Y-89251000D01*
X138397415Y-89221198D01*
X138247590Y-89191396D01*
X137965326Y-89074479D01*
X137711295Y-88904741D01*
X137495259Y-88688705D01*
X137325521Y-88434674D01*
X137208604Y-88152410D01*
X137149000Y-87852760D01*
X137149000Y-87547240D01*
X137208604Y-87247590D01*
X137325521Y-86965326D01*
X137495259Y-86711295D01*
X137711295Y-86495259D01*
X137965326Y-86325521D01*
X138247590Y-86208604D01*
X138397415Y-86178802D01*
X138547239Y-86149000D01*
X138852761Y-86149000D01*
X139002585Y-86178802D01*
X139002585Y-86178802D01*
G37*
G36*
X166406564Y-84989389D02*
G01*
X166597833Y-85068615D01*
X166597835Y-85068616D01*
X166769973Y-85183635D01*
X166916365Y-85330027D01*
X167031385Y-85502167D01*
X167110611Y-85693436D01*
X167151000Y-85896484D01*
X167151000Y-86103516D01*
X167110611Y-86306564D01*
X167032451Y-86495259D01*
X167031384Y-86497835D01*
X166916365Y-86669973D01*
X166769973Y-86816365D01*
X166597835Y-86931384D01*
X166597834Y-86931385D01*
X166597833Y-86931385D01*
X166406564Y-87010611D01*
X166203516Y-87051000D01*
X165996484Y-87051000D01*
X165793436Y-87010611D01*
X165602167Y-86931385D01*
X165602166Y-86931385D01*
X165602165Y-86931384D01*
X165430027Y-86816365D01*
X165283635Y-86669973D01*
X165168616Y-86497835D01*
X165167549Y-86495259D01*
X165089389Y-86306564D01*
X165049000Y-86103516D01*
X165049000Y-85896484D01*
X165089389Y-85693436D01*
X165168615Y-85502167D01*
X165283635Y-85330027D01*
X165430027Y-85183635D01*
X165602165Y-85068616D01*
X165602167Y-85068615D01*
X165793436Y-84989389D01*
X165996484Y-84949000D01*
X166203516Y-84949000D01*
X166406564Y-84989389D01*
X166406564Y-84989389D01*
G37*
G36*
X162151000Y-87051000D02*
G01*
X160049000Y-87051000D01*
X160049000Y-84949000D01*
X162151000Y-84949000D01*
X162151000Y-87051000D01*
X162151000Y-87051000D01*
G37*
G36*
X154002585Y-81178802D02*
G01*
X154152410Y-81208604D01*
X154434674Y-81325521D01*
X154688705Y-81495259D01*
X154904741Y-81711295D01*
X155074479Y-81965326D01*
X155191396Y-82247590D01*
X155251000Y-82547240D01*
X155251000Y-82852760D01*
X155191396Y-83152410D01*
X155074479Y-83434674D01*
X154904741Y-83688705D01*
X154688705Y-83904741D01*
X154434674Y-84074479D01*
X154152410Y-84191396D01*
X154002585Y-84221198D01*
X153852761Y-84251000D01*
X153547239Y-84251000D01*
X153397415Y-84221198D01*
X153247590Y-84191396D01*
X152965326Y-84074479D01*
X152711295Y-83904741D01*
X152495259Y-83688705D01*
X152325521Y-83434674D01*
X152208604Y-83152410D01*
X152149000Y-82852760D01*
X152149000Y-82547240D01*
X152208604Y-82247590D01*
X152325521Y-81965326D01*
X152495259Y-81711295D01*
X152711295Y-81495259D01*
X152965326Y-81325521D01*
X153247590Y-81208604D01*
X153397415Y-81178802D01*
X153547239Y-81149000D01*
X153852761Y-81149000D01*
X154002585Y-81178802D01*
X154002585Y-81178802D01*
G37*
G36*
X139002585Y-81178802D02*
G01*
X139152410Y-81208604D01*
X139434674Y-81325521D01*
X139688705Y-81495259D01*
X139904741Y-81711295D01*
X140074479Y-81965326D01*
X140191396Y-82247590D01*
X140251000Y-82547240D01*
X140251000Y-82852760D01*
X140191396Y-83152410D01*
X140074479Y-83434674D01*
X139904741Y-83688705D01*
X139688705Y-83904741D01*
X139434674Y-84074479D01*
X139152410Y-84191396D01*
X139002585Y-84221198D01*
X138852761Y-84251000D01*
X138547239Y-84251000D01*
X138397415Y-84221198D01*
X138247590Y-84191396D01*
X137965326Y-84074479D01*
X137711295Y-83904741D01*
X137495259Y-83688705D01*
X137325521Y-83434674D01*
X137208604Y-83152410D01*
X137149000Y-82852760D01*
X137149000Y-82547240D01*
X137208604Y-82247590D01*
X137325521Y-81965326D01*
X137495259Y-81711295D01*
X137711295Y-81495259D01*
X137965326Y-81325521D01*
X138247590Y-81208604D01*
X138397415Y-81178802D01*
X138547239Y-81149000D01*
X138852761Y-81149000D01*
X139002585Y-81178802D01*
X139002585Y-81178802D01*
G37*
G36*
X174378571Y-69182863D02*
G01*
X174457023Y-69190590D01*
X174557682Y-69221125D01*
X174608013Y-69236392D01*
X174747165Y-69310771D01*
X174869133Y-69410867D01*
X174969229Y-69532835D01*
X175043608Y-69671987D01*
X175043608Y-69671988D01*
X175089410Y-69822977D01*
X175104875Y-69980000D01*
X175089410Y-70137023D01*
X175058875Y-70237682D01*
X175043608Y-70288013D01*
X174969229Y-70427165D01*
X174869133Y-70549133D01*
X174747165Y-70649229D01*
X174608013Y-70723608D01*
X174557682Y-70738875D01*
X174457023Y-70769410D01*
X174378571Y-70777137D01*
X174339346Y-70781000D01*
X173460654Y-70781000D01*
X173421429Y-70777137D01*
X173342977Y-70769410D01*
X173242318Y-70738875D01*
X173191987Y-70723608D01*
X173052835Y-70649229D01*
X172930867Y-70549133D01*
X172830771Y-70427165D01*
X172756392Y-70288013D01*
X172741125Y-70237682D01*
X172710590Y-70137023D01*
X172695125Y-69980000D01*
X172710590Y-69822977D01*
X172756392Y-69671988D01*
X172756392Y-69671987D01*
X172830771Y-69532835D01*
X172930867Y-69410867D01*
X173052835Y-69310771D01*
X173191987Y-69236392D01*
X173242318Y-69221125D01*
X173342977Y-69190590D01*
X173421429Y-69182863D01*
X173460654Y-69179000D01*
X174339346Y-69179000D01*
X174378571Y-69182863D01*
X174378571Y-69182863D01*
G37*
G36*
X144476000Y-69176000D02*
G01*
X138124000Y-69176000D01*
X138124000Y-66824000D01*
X144476000Y-66824000D01*
X144476000Y-69176000D01*
X144476000Y-69176000D01*
G37*
G36*
X152376000Y-69176000D02*
G01*
X146024000Y-69176000D01*
X146024000Y-66824000D01*
X152376000Y-66824000D01*
X152376000Y-69176000D01*
X152376000Y-69176000D01*
G37*
G36*
X124476000Y-69176000D02*
G01*
X118124000Y-69176000D01*
X118124000Y-66824000D01*
X124476000Y-66824000D01*
X124476000Y-69176000D01*
X124476000Y-69176000D01*
G37*
G36*
X116576000Y-69176000D02*
G01*
X110224000Y-69176000D01*
X110224000Y-66824000D01*
X116576000Y-66824000D01*
X116576000Y-69176000D01*
X116576000Y-69176000D01*
G37*
G36*
X174378571Y-66642863D02*
G01*
X174457023Y-66650590D01*
X174557682Y-66681125D01*
X174608013Y-66696392D01*
X174747165Y-66770771D01*
X174869133Y-66870867D01*
X174969229Y-66992835D01*
X175043608Y-67131987D01*
X175043608Y-67131988D01*
X175089410Y-67282977D01*
X175104875Y-67440000D01*
X175089410Y-67597023D01*
X175058875Y-67697682D01*
X175043608Y-67748013D01*
X174969229Y-67887165D01*
X174869133Y-68009133D01*
X174747165Y-68109229D01*
X174608013Y-68183608D01*
X174557682Y-68198875D01*
X174457023Y-68229410D01*
X174378571Y-68237137D01*
X174339346Y-68241000D01*
X173460654Y-68241000D01*
X173421429Y-68237137D01*
X173342977Y-68229410D01*
X173242318Y-68198875D01*
X173191987Y-68183608D01*
X173052835Y-68109229D01*
X172930867Y-68009133D01*
X172830771Y-67887165D01*
X172756392Y-67748013D01*
X172741125Y-67697682D01*
X172710590Y-67597023D01*
X172695125Y-67440000D01*
X172710590Y-67282977D01*
X172756392Y-67131988D01*
X172756392Y-67131987D01*
X172830771Y-66992835D01*
X172930867Y-66870867D01*
X173052835Y-66770771D01*
X173191987Y-66696392D01*
X173242318Y-66681125D01*
X173342977Y-66650590D01*
X173421429Y-66642863D01*
X173460654Y-66639000D01*
X174339346Y-66639000D01*
X174378571Y-66642863D01*
X174378571Y-66642863D01*
G37*
G36*
X195000098Y-65440362D02*
G01*
X195124941Y-65492074D01*
X195124943Y-65492075D01*
X195237299Y-65567149D01*
X195332851Y-65662701D01*
X195407926Y-65775059D01*
X195459638Y-65899902D01*
X195486000Y-66032434D01*
X195486000Y-66167566D01*
X195459638Y-66300098D01*
X195407926Y-66424941D01*
X195407925Y-66424943D01*
X195332851Y-66537299D01*
X195237299Y-66632851D01*
X195124943Y-66707925D01*
X195124942Y-66707926D01*
X195124941Y-66707926D01*
X195000098Y-66759638D01*
X194867566Y-66786000D01*
X194732434Y-66786000D01*
X194599902Y-66759638D01*
X194475059Y-66707926D01*
X194475058Y-66707926D01*
X194475057Y-66707925D01*
X194362701Y-66632851D01*
X194267149Y-66537299D01*
X194192075Y-66424943D01*
X194192074Y-66424941D01*
X194140362Y-66300098D01*
X194114000Y-66167566D01*
X194114000Y-66032434D01*
X194140362Y-65899902D01*
X194192074Y-65775059D01*
X194267149Y-65662701D01*
X194362701Y-65567149D01*
X194475057Y-65492075D01*
X194475059Y-65492074D01*
X194599902Y-65440362D01*
X194732434Y-65414000D01*
X194867566Y-65414000D01*
X195000098Y-65440362D01*
X195000098Y-65440362D01*
G37*
G36*
X175101000Y-65701000D02*
G01*
X172699000Y-65701000D01*
X172699000Y-64099000D01*
X175101000Y-64099000D01*
X175101000Y-65701000D01*
X175101000Y-65701000D01*
G37*
G36*
X189900098Y-63840362D02*
G01*
X190024941Y-63892074D01*
X190024943Y-63892075D01*
X190137299Y-63967149D01*
X190232851Y-64062701D01*
X190307926Y-64175059D01*
X190359638Y-64299902D01*
X190386000Y-64432434D01*
X190386000Y-64567566D01*
X190359638Y-64700098D01*
X190307926Y-64824941D01*
X190307925Y-64824943D01*
X190232851Y-64937299D01*
X190137299Y-65032851D01*
X190024943Y-65107925D01*
X190024942Y-65107926D01*
X190024941Y-65107926D01*
X189900098Y-65159638D01*
X189767566Y-65186000D01*
X189632434Y-65186000D01*
X189499902Y-65159638D01*
X189375059Y-65107926D01*
X189375058Y-65107926D01*
X189375057Y-65107925D01*
X189262701Y-65032851D01*
X189167149Y-64937299D01*
X189092075Y-64824943D01*
X189092074Y-64824941D01*
X189040362Y-64700098D01*
X189014000Y-64567566D01*
X189014000Y-64432434D01*
X189040362Y-64299902D01*
X189092074Y-64175059D01*
X189167149Y-64062701D01*
X189262701Y-63967149D01*
X189375057Y-63892075D01*
X189375059Y-63892074D01*
X189499902Y-63840362D01*
X189632434Y-63814000D01*
X189767566Y-63814000D01*
X189900098Y-63840362D01*
X189900098Y-63840362D01*
G37*
G36*
X164864903Y-54997075D02*
G01*
X164965236Y-55038634D01*
X165092571Y-55091378D01*
X165297466Y-55228285D01*
X165471715Y-55402534D01*
X165608622Y-55607429D01*
X165702925Y-55835097D01*
X165751000Y-56076787D01*
X165751000Y-56323213D01*
X165702925Y-56564903D01*
X165608622Y-56792571D01*
X165471715Y-56997466D01*
X165297466Y-57171715D01*
X165092571Y-57308622D01*
X165092570Y-57308623D01*
X165092569Y-57308623D01*
X164864903Y-57402925D01*
X164623214Y-57451000D01*
X164376786Y-57451000D01*
X164135097Y-57402925D01*
X163907431Y-57308623D01*
X163907430Y-57308623D01*
X163907429Y-57308622D01*
X163702534Y-57171715D01*
X163528285Y-56997466D01*
X163391378Y-56792571D01*
X163297075Y-56564903D01*
X163249000Y-56323213D01*
X163249000Y-56076787D01*
X163297075Y-55835097D01*
X163391378Y-55607429D01*
X163528285Y-55402534D01*
X163702534Y-55228285D01*
X163907429Y-55091378D01*
X164034765Y-55038634D01*
X164135097Y-54997075D01*
X164376786Y-54949000D01*
X164623214Y-54949000D01*
X164864903Y-54997075D01*
X164864903Y-54997075D01*
G37*
G36*
X195225239Y-54967101D02*
G01*
X195461053Y-55038634D01*
X195678381Y-55154799D01*
X195868871Y-55311129D01*
X196025201Y-55501619D01*
X196141366Y-55718947D01*
X196212899Y-55954761D01*
X196237053Y-56200000D01*
X196212899Y-56445239D01*
X196141366Y-56681053D01*
X196025201Y-56898381D01*
X195868871Y-57088871D01*
X195678381Y-57245201D01*
X195461053Y-57361366D01*
X195225239Y-57432899D01*
X195041457Y-57451000D01*
X194918543Y-57451000D01*
X194734761Y-57432899D01*
X194498947Y-57361366D01*
X194281619Y-57245201D01*
X194091129Y-57088871D01*
X193934799Y-56898381D01*
X193818634Y-56681053D01*
X193747101Y-56445239D01*
X193722947Y-56200000D01*
X193747101Y-55954761D01*
X193818634Y-55718947D01*
X193934799Y-55501619D01*
X194091129Y-55311129D01*
X194281619Y-55154799D01*
X194498947Y-55038634D01*
X194734761Y-54967101D01*
X194918543Y-54949000D01*
X195041457Y-54949000D01*
X195225239Y-54967101D01*
X195225239Y-54967101D01*
G37*
G36*
X138160721Y-49270174D02*
G01*
X138260995Y-49311709D01*
X138260996Y-49311710D01*
X138351242Y-49372010D01*
X138427990Y-49448758D01*
X138427991Y-49448760D01*
X138488291Y-49539005D01*
X138529826Y-49639279D01*
X138551000Y-49745730D01*
X138551000Y-49854270D01*
X138529826Y-49960721D01*
X138488291Y-50060995D01*
X138488290Y-50060996D01*
X138427990Y-50151242D01*
X138351242Y-50227990D01*
X138305812Y-50258345D01*
X138260995Y-50288291D01*
X138160721Y-50329826D01*
X138054270Y-50351000D01*
X137945730Y-50351000D01*
X137839279Y-50329826D01*
X137739005Y-50288291D01*
X137694188Y-50258345D01*
X137648758Y-50227990D01*
X137572010Y-50151242D01*
X137511710Y-50060996D01*
X137511709Y-50060995D01*
X137470174Y-49960721D01*
X137449000Y-49854270D01*
X137449000Y-49745730D01*
X137470174Y-49639279D01*
X137511709Y-49539005D01*
X137572009Y-49448760D01*
X137572010Y-49448758D01*
X137648758Y-49372010D01*
X137739004Y-49311710D01*
X137739005Y-49311709D01*
X137839279Y-49270174D01*
X137945730Y-49249000D01*
X138054270Y-49249000D01*
X138160721Y-49270174D01*
X138160721Y-49270174D01*
G37*
G36*
X124810721Y-49270174D02*
G01*
X124910995Y-49311709D01*
X124910996Y-49311710D01*
X125001242Y-49372010D01*
X125077990Y-49448758D01*
X125077991Y-49448760D01*
X125138291Y-49539005D01*
X125179826Y-49639279D01*
X125201000Y-49745730D01*
X125201000Y-49854270D01*
X125179826Y-49960721D01*
X125138291Y-50060995D01*
X125138290Y-50060996D01*
X125077990Y-50151242D01*
X125001242Y-50227990D01*
X124955812Y-50258345D01*
X124910995Y-50288291D01*
X124810721Y-50329826D01*
X124704270Y-50351000D01*
X124595730Y-50351000D01*
X124489279Y-50329826D01*
X124389005Y-50288291D01*
X124344188Y-50258345D01*
X124298758Y-50227990D01*
X124222010Y-50151242D01*
X124161710Y-50060996D01*
X124161709Y-50060995D01*
X124120174Y-49960721D01*
X124099000Y-49854270D01*
X124099000Y-49745730D01*
X124120174Y-49639279D01*
X124161709Y-49539005D01*
X124222009Y-49448760D01*
X124222010Y-49448758D01*
X124298758Y-49372010D01*
X124389004Y-49311710D01*
X124389005Y-49311709D01*
X124489279Y-49270174D01*
X124595730Y-49249000D01*
X124704270Y-49249000D01*
X124810721Y-49270174D01*
X124810721Y-49270174D01*
G37*
G36*
X110310721Y-49270174D02*
G01*
X110410995Y-49311709D01*
X110410996Y-49311710D01*
X110501242Y-49372010D01*
X110577990Y-49448758D01*
X110577991Y-49448760D01*
X110638291Y-49539005D01*
X110679826Y-49639279D01*
X110701000Y-49745730D01*
X110701000Y-49854270D01*
X110679826Y-49960721D01*
X110638291Y-50060995D01*
X110638290Y-50060996D01*
X110577990Y-50151242D01*
X110501242Y-50227990D01*
X110455812Y-50258345D01*
X110410995Y-50288291D01*
X110310721Y-50329826D01*
X110204270Y-50351000D01*
X110095730Y-50351000D01*
X109989279Y-50329826D01*
X109889005Y-50288291D01*
X109844188Y-50258345D01*
X109798758Y-50227990D01*
X109722010Y-50151242D01*
X109661710Y-50060996D01*
X109661709Y-50060995D01*
X109620174Y-49960721D01*
X109599000Y-49854270D01*
X109599000Y-49745730D01*
X109620174Y-49639279D01*
X109661709Y-49539005D01*
X109722009Y-49448760D01*
X109722010Y-49448758D01*
X109798758Y-49372010D01*
X109889004Y-49311710D01*
X109889005Y-49311709D01*
X109989279Y-49270174D01*
X110095730Y-49249000D01*
X110204270Y-49249000D01*
X110310721Y-49270174D01*
X110310721Y-49270174D01*
G37*
G36*
X152660721Y-49270174D02*
G01*
X152760995Y-49311709D01*
X152760996Y-49311710D01*
X152851242Y-49372010D01*
X152927990Y-49448758D01*
X152927991Y-49448760D01*
X152988291Y-49539005D01*
X153029826Y-49639279D01*
X153051000Y-49745730D01*
X153051000Y-49854270D01*
X153029826Y-49960721D01*
X152988291Y-50060995D01*
X152988290Y-50060996D01*
X152927990Y-50151242D01*
X152851242Y-50227990D01*
X152805812Y-50258345D01*
X152760995Y-50288291D01*
X152660721Y-50329826D01*
X152554270Y-50351000D01*
X152445730Y-50351000D01*
X152339279Y-50329826D01*
X152239005Y-50288291D01*
X152194188Y-50258345D01*
X152148758Y-50227990D01*
X152072010Y-50151242D01*
X152011710Y-50060996D01*
X152011709Y-50060995D01*
X151970174Y-49960721D01*
X151949000Y-49854270D01*
X151949000Y-49745730D01*
X151970174Y-49639279D01*
X152011709Y-49539005D01*
X152072009Y-49448760D01*
X152072010Y-49448758D01*
X152148758Y-49372010D01*
X152239004Y-49311710D01*
X152239005Y-49311709D01*
X152339279Y-49270174D01*
X152445730Y-49249000D01*
X152554270Y-49249000D01*
X152660721Y-49270174D01*
X152660721Y-49270174D01*
G37*
G36*
X195225239Y-45167101D02*
G01*
X195461053Y-45238634D01*
X195678381Y-45354799D01*
X195868871Y-45511129D01*
X196025201Y-45701619D01*
X196141366Y-45918947D01*
X196212899Y-46154761D01*
X196237053Y-46400000D01*
X196212899Y-46645239D01*
X196141366Y-46881053D01*
X196025201Y-47098381D01*
X195868871Y-47288871D01*
X195678381Y-47445201D01*
X195461053Y-47561366D01*
X195225239Y-47632899D01*
X195041457Y-47651000D01*
X194918543Y-47651000D01*
X194734761Y-47632899D01*
X194498947Y-47561366D01*
X194281619Y-47445201D01*
X194091129Y-47288871D01*
X193934799Y-47098381D01*
X193818634Y-46881053D01*
X193747101Y-46645239D01*
X193722947Y-46400000D01*
X193747101Y-46154761D01*
X193818634Y-45918947D01*
X193934799Y-45701619D01*
X194091129Y-45511129D01*
X194281619Y-45354799D01*
X194498947Y-45238634D01*
X194734761Y-45167101D01*
X194918543Y-45149000D01*
X195041457Y-45149000D01*
X195225239Y-45167101D01*
X195225239Y-45167101D01*
G37*
G36*
X164864903Y-45197075D02*
G01*
X164965236Y-45238634D01*
X165092571Y-45291378D01*
X165297466Y-45428285D01*
X165471715Y-45602534D01*
X165608622Y-45807429D01*
X165702925Y-46035097D01*
X165751000Y-46276787D01*
X165751000Y-46523213D01*
X165702925Y-46764903D01*
X165608622Y-46992571D01*
X165471715Y-47197466D01*
X165297466Y-47371715D01*
X165092571Y-47508622D01*
X165092570Y-47508623D01*
X165092569Y-47508623D01*
X164864903Y-47602925D01*
X164623214Y-47651000D01*
X164376786Y-47651000D01*
X164135097Y-47602925D01*
X163907431Y-47508623D01*
X163907430Y-47508623D01*
X163907429Y-47508622D01*
X163702534Y-47371715D01*
X163528285Y-47197466D01*
X163391378Y-46992571D01*
X163297075Y-46764903D01*
X163249000Y-46523213D01*
X163249000Y-46276787D01*
X163297075Y-46035097D01*
X163391378Y-45807429D01*
X163528285Y-45602534D01*
X163702534Y-45428285D01*
X163907429Y-45291378D01*
X164034765Y-45238634D01*
X164135097Y-45197075D01*
X164376786Y-45149000D01*
X164623214Y-45149000D01*
X164864903Y-45197075D01*
X164864903Y-45197075D01*
G37*
M02*
