G04 #@! TF.GenerationSoftware,KiCad,Pcbnew,(5.1.2)-2*
G04 #@! TF.CreationDate,2019-12-07T23:42:41-08:00*
G04 #@! TF.ProjectId,Precharger,50726563-6861-4726-9765-722e6b696361,rev?*
G04 #@! TF.SameCoordinates,Original*
G04 #@! TF.FileFunction,Copper,L2,Bot*
G04 #@! TF.FilePolarity,Positive*
%FSLAX46Y46*%
G04 Gerber Fmt 4.6, Leading zero omitted, Abs format (unit mm)*
G04 Created by KiCad (PCBNEW (5.1.2)-2) date 2019-12-07 23:42:41*
%MOMM*%
%LPD*%
G04 APERTURE LIST*
%ADD10C,0.100000*%
%ADD11C,2.800000*%
%ADD12R,6.250000X2.250000*%
%ADD13O,3.000000X3.000000*%
%ADD14O,3.500000X3.500000*%
%ADD15R,3.000000X3.000000*%
%ADD16R,2.250000X6.250000*%
%ADD17C,3.000000*%
%ADD18C,2.000000*%
%ADD19R,2.000000X2.000000*%
%ADD20C,0.500000*%
%ADD21C,2.400000*%
%ADD22R,2.400000X2.400000*%
%ADD23O,2.300000X1.500000*%
%ADD24R,2.300000X1.500000*%
%ADD25O,2.400000X2.400000*%
%ADD26C,1.270000*%
%ADD27O,1.600000X1.600000*%
%ADD28R,1.600000X1.600000*%
%ADD29C,1.000000*%
%ADD30C,0.300000*%
%ADD31C,0.500000*%
%ADD32C,0.254000*%
G04 APERTURE END LIST*
D10*
G36*
X185500000Y-135750000D02*
G01*
X185500000Y-135250000D01*
X185100000Y-135250000D01*
X185100000Y-135750000D01*
X185500000Y-135750000D01*
G37*
G36*
X184700000Y-135750000D02*
G01*
X184700000Y-135250000D01*
X184300000Y-135250000D01*
X184300000Y-135750000D01*
X184700000Y-135750000D01*
G37*
G36*
X177800000Y-135750000D02*
G01*
X177800000Y-135250000D01*
X177400000Y-135250000D01*
X177400000Y-135750000D01*
X177800000Y-135750000D01*
G37*
G36*
X177000000Y-135750000D02*
G01*
X177000000Y-135250000D01*
X176600000Y-135250000D01*
X176600000Y-135750000D01*
X177000000Y-135750000D01*
G37*
G36*
X186300000Y-122750000D02*
G01*
X186300000Y-122250000D01*
X185900000Y-122250000D01*
X185900000Y-122750000D01*
X186300000Y-122750000D01*
G37*
G36*
X185500000Y-122750000D02*
G01*
X185500000Y-122250000D01*
X185100000Y-122250000D01*
X185100000Y-122750000D01*
X185500000Y-122750000D01*
G37*
G36*
X185100000Y-125950000D02*
G01*
X185100000Y-126450000D01*
X185500000Y-126450000D01*
X185500000Y-125950000D01*
X185100000Y-125950000D01*
G37*
G36*
X185900000Y-125950000D02*
G01*
X185900000Y-126450000D01*
X186300000Y-126450000D01*
X186300000Y-125950000D01*
X185900000Y-125950000D01*
G37*
G36*
X178050000Y-114900000D02*
G01*
X177550000Y-114900000D01*
X177550000Y-115300000D01*
X178050000Y-115300000D01*
X178050000Y-114900000D01*
G37*
G36*
X178050000Y-115700000D02*
G01*
X177550000Y-115700000D01*
X177550000Y-116100000D01*
X178050000Y-116100000D01*
X178050000Y-115700000D01*
G37*
G36*
X178050000Y-112300000D02*
G01*
X177550000Y-112300000D01*
X177550000Y-112700000D01*
X178050000Y-112700000D01*
X178050000Y-112300000D01*
G37*
G36*
X178050000Y-113100000D02*
G01*
X177550000Y-113100000D01*
X177550000Y-113500000D01*
X178050000Y-113500000D01*
X178050000Y-113100000D01*
G37*
D11*
X195700000Y-119000000D03*
X195800000Y-126000000D03*
D12*
X113400000Y-68000000D03*
X121300000Y-68000000D03*
D11*
X102500000Y-137600000D03*
X119450000Y-137000000D03*
D13*
X104600000Y-100370000D03*
X104600000Y-104180000D03*
X104600000Y-107990000D03*
D14*
X104600000Y-96560000D03*
X104600000Y-111800000D03*
D13*
X155400000Y-96560000D03*
X155400000Y-104180000D03*
D15*
X155400000Y-111800000D03*
D16*
X128200000Y-130600000D03*
X128200000Y-122700000D03*
D17*
X138700000Y-82700000D03*
X153700000Y-82700000D03*
X138700000Y-87700000D03*
X153700000Y-87700000D03*
D18*
X166100000Y-86000000D03*
D19*
X161100000Y-86000000D03*
D11*
X166650000Y-134950000D03*
X157700000Y-134750000D03*
D20*
X184900000Y-136150000D03*
D10*
G36*
X185650000Y-135650000D02*
G01*
X185650000Y-136150000D01*
X185649398Y-136150000D01*
X185649398Y-136174534D01*
X185644588Y-136223365D01*
X185635016Y-136271490D01*
X185620772Y-136318445D01*
X185601995Y-136363778D01*
X185578864Y-136407051D01*
X185551604Y-136447850D01*
X185520476Y-136485779D01*
X185485779Y-136520476D01*
X185447850Y-136551604D01*
X185407051Y-136578864D01*
X185363778Y-136601995D01*
X185318445Y-136620772D01*
X185271490Y-136635016D01*
X185223365Y-136644588D01*
X185174534Y-136649398D01*
X185150000Y-136649398D01*
X185150000Y-136650000D01*
X184650000Y-136650000D01*
X184650000Y-136649398D01*
X184625466Y-136649398D01*
X184576635Y-136644588D01*
X184528510Y-136635016D01*
X184481555Y-136620772D01*
X184436222Y-136601995D01*
X184392949Y-136578864D01*
X184352150Y-136551604D01*
X184314221Y-136520476D01*
X184279524Y-136485779D01*
X184248396Y-136447850D01*
X184221136Y-136407051D01*
X184198005Y-136363778D01*
X184179228Y-136318445D01*
X184164984Y-136271490D01*
X184155412Y-136223365D01*
X184150602Y-136174534D01*
X184150602Y-136150000D01*
X184150000Y-136150000D01*
X184150000Y-135650000D01*
X185650000Y-135650000D01*
X185650000Y-135650000D01*
G37*
D20*
X184900000Y-134850000D03*
D10*
G36*
X184150602Y-134850000D02*
G01*
X184150602Y-134825466D01*
X184155412Y-134776635D01*
X184164984Y-134728510D01*
X184179228Y-134681555D01*
X184198005Y-134636222D01*
X184221136Y-134592949D01*
X184248396Y-134552150D01*
X184279524Y-134514221D01*
X184314221Y-134479524D01*
X184352150Y-134448396D01*
X184392949Y-134421136D01*
X184436222Y-134398005D01*
X184481555Y-134379228D01*
X184528510Y-134364984D01*
X184576635Y-134355412D01*
X184625466Y-134350602D01*
X184650000Y-134350602D01*
X184650000Y-134350000D01*
X185150000Y-134350000D01*
X185150000Y-134350602D01*
X185174534Y-134350602D01*
X185223365Y-134355412D01*
X185271490Y-134364984D01*
X185318445Y-134379228D01*
X185363778Y-134398005D01*
X185407051Y-134421136D01*
X185447850Y-134448396D01*
X185485779Y-134479524D01*
X185520476Y-134514221D01*
X185551604Y-134552150D01*
X185578864Y-134592949D01*
X185601995Y-134636222D01*
X185620772Y-134681555D01*
X185635016Y-134728510D01*
X185644588Y-134776635D01*
X185649398Y-134825466D01*
X185649398Y-134850000D01*
X185650000Y-134850000D01*
X185650000Y-135350000D01*
X184150000Y-135350000D01*
X184150000Y-134850000D01*
X184150602Y-134850000D01*
X184150602Y-134850000D01*
G37*
D20*
X177200000Y-136150000D03*
D10*
G36*
X177950000Y-135650000D02*
G01*
X177950000Y-136150000D01*
X177949398Y-136150000D01*
X177949398Y-136174534D01*
X177944588Y-136223365D01*
X177935016Y-136271490D01*
X177920772Y-136318445D01*
X177901995Y-136363778D01*
X177878864Y-136407051D01*
X177851604Y-136447850D01*
X177820476Y-136485779D01*
X177785779Y-136520476D01*
X177747850Y-136551604D01*
X177707051Y-136578864D01*
X177663778Y-136601995D01*
X177618445Y-136620772D01*
X177571490Y-136635016D01*
X177523365Y-136644588D01*
X177474534Y-136649398D01*
X177450000Y-136649398D01*
X177450000Y-136650000D01*
X176950000Y-136650000D01*
X176950000Y-136649398D01*
X176925466Y-136649398D01*
X176876635Y-136644588D01*
X176828510Y-136635016D01*
X176781555Y-136620772D01*
X176736222Y-136601995D01*
X176692949Y-136578864D01*
X176652150Y-136551604D01*
X176614221Y-136520476D01*
X176579524Y-136485779D01*
X176548396Y-136447850D01*
X176521136Y-136407051D01*
X176498005Y-136363778D01*
X176479228Y-136318445D01*
X176464984Y-136271490D01*
X176455412Y-136223365D01*
X176450602Y-136174534D01*
X176450602Y-136150000D01*
X176450000Y-136150000D01*
X176450000Y-135650000D01*
X177950000Y-135650000D01*
X177950000Y-135650000D01*
G37*
D20*
X177200000Y-134850000D03*
D10*
G36*
X176450602Y-134850000D02*
G01*
X176450602Y-134825466D01*
X176455412Y-134776635D01*
X176464984Y-134728510D01*
X176479228Y-134681555D01*
X176498005Y-134636222D01*
X176521136Y-134592949D01*
X176548396Y-134552150D01*
X176579524Y-134514221D01*
X176614221Y-134479524D01*
X176652150Y-134448396D01*
X176692949Y-134421136D01*
X176736222Y-134398005D01*
X176781555Y-134379228D01*
X176828510Y-134364984D01*
X176876635Y-134355412D01*
X176925466Y-134350602D01*
X176950000Y-134350602D01*
X176950000Y-134350000D01*
X177450000Y-134350000D01*
X177450000Y-134350602D01*
X177474534Y-134350602D01*
X177523365Y-134355412D01*
X177571490Y-134364984D01*
X177618445Y-134379228D01*
X177663778Y-134398005D01*
X177707051Y-134421136D01*
X177747850Y-134448396D01*
X177785779Y-134479524D01*
X177820476Y-134514221D01*
X177851604Y-134552150D01*
X177878864Y-134592949D01*
X177901995Y-134636222D01*
X177920772Y-134681555D01*
X177935016Y-134728510D01*
X177944588Y-134776635D01*
X177949398Y-134825466D01*
X177949398Y-134850000D01*
X177950000Y-134850000D01*
X177950000Y-135350000D01*
X176450000Y-135350000D01*
X176450000Y-134850000D01*
X176450602Y-134850000D01*
X176450602Y-134850000D01*
G37*
D21*
X150450000Y-134850000D03*
X146950000Y-134850000D03*
X143450000Y-134850000D03*
D22*
X139950000Y-134850000D03*
D12*
X141300000Y-68000000D03*
X149200000Y-68000000D03*
D23*
X173900000Y-69980000D03*
X173900000Y-67440000D03*
D24*
X173900000Y-64900000D03*
D11*
X195690000Y-133660000D03*
X193950000Y-97850000D03*
D25*
X194980000Y-56200000D03*
D21*
X164500000Y-56200000D03*
D25*
X194980000Y-46400000D03*
D21*
X164500000Y-46400000D03*
D20*
X185700000Y-123150000D03*
D10*
G36*
X186450000Y-122650000D02*
G01*
X186450000Y-123150000D01*
X186449398Y-123150000D01*
X186449398Y-123174534D01*
X186444588Y-123223365D01*
X186435016Y-123271490D01*
X186420772Y-123318445D01*
X186401995Y-123363778D01*
X186378864Y-123407051D01*
X186351604Y-123447850D01*
X186320476Y-123485779D01*
X186285779Y-123520476D01*
X186247850Y-123551604D01*
X186207051Y-123578864D01*
X186163778Y-123601995D01*
X186118445Y-123620772D01*
X186071490Y-123635016D01*
X186023365Y-123644588D01*
X185974534Y-123649398D01*
X185950000Y-123649398D01*
X185950000Y-123650000D01*
X185450000Y-123650000D01*
X185450000Y-123649398D01*
X185425466Y-123649398D01*
X185376635Y-123644588D01*
X185328510Y-123635016D01*
X185281555Y-123620772D01*
X185236222Y-123601995D01*
X185192949Y-123578864D01*
X185152150Y-123551604D01*
X185114221Y-123520476D01*
X185079524Y-123485779D01*
X185048396Y-123447850D01*
X185021136Y-123407051D01*
X184998005Y-123363778D01*
X184979228Y-123318445D01*
X184964984Y-123271490D01*
X184955412Y-123223365D01*
X184950602Y-123174534D01*
X184950602Y-123150000D01*
X184950000Y-123150000D01*
X184950000Y-122650000D01*
X186450000Y-122650000D01*
X186450000Y-122650000D01*
G37*
D20*
X185700000Y-121850000D03*
D10*
G36*
X184950602Y-121850000D02*
G01*
X184950602Y-121825466D01*
X184955412Y-121776635D01*
X184964984Y-121728510D01*
X184979228Y-121681555D01*
X184998005Y-121636222D01*
X185021136Y-121592949D01*
X185048396Y-121552150D01*
X185079524Y-121514221D01*
X185114221Y-121479524D01*
X185152150Y-121448396D01*
X185192949Y-121421136D01*
X185236222Y-121398005D01*
X185281555Y-121379228D01*
X185328510Y-121364984D01*
X185376635Y-121355412D01*
X185425466Y-121350602D01*
X185450000Y-121350602D01*
X185450000Y-121350000D01*
X185950000Y-121350000D01*
X185950000Y-121350602D01*
X185974534Y-121350602D01*
X186023365Y-121355412D01*
X186071490Y-121364984D01*
X186118445Y-121379228D01*
X186163778Y-121398005D01*
X186207051Y-121421136D01*
X186247850Y-121448396D01*
X186285779Y-121479524D01*
X186320476Y-121514221D01*
X186351604Y-121552150D01*
X186378864Y-121592949D01*
X186401995Y-121636222D01*
X186420772Y-121681555D01*
X186435016Y-121728510D01*
X186444588Y-121776635D01*
X186449398Y-121825466D01*
X186449398Y-121850000D01*
X186450000Y-121850000D01*
X186450000Y-122350000D01*
X184950000Y-122350000D01*
X184950000Y-121850000D01*
X184950602Y-121850000D01*
X184950602Y-121850000D01*
G37*
D20*
X185700000Y-125550000D03*
D10*
G36*
X184950000Y-126050000D02*
G01*
X184950000Y-125550000D01*
X184950602Y-125550000D01*
X184950602Y-125525466D01*
X184955412Y-125476635D01*
X184964984Y-125428510D01*
X184979228Y-125381555D01*
X184998005Y-125336222D01*
X185021136Y-125292949D01*
X185048396Y-125252150D01*
X185079524Y-125214221D01*
X185114221Y-125179524D01*
X185152150Y-125148396D01*
X185192949Y-125121136D01*
X185236222Y-125098005D01*
X185281555Y-125079228D01*
X185328510Y-125064984D01*
X185376635Y-125055412D01*
X185425466Y-125050602D01*
X185450000Y-125050602D01*
X185450000Y-125050000D01*
X185950000Y-125050000D01*
X185950000Y-125050602D01*
X185974534Y-125050602D01*
X186023365Y-125055412D01*
X186071490Y-125064984D01*
X186118445Y-125079228D01*
X186163778Y-125098005D01*
X186207051Y-125121136D01*
X186247850Y-125148396D01*
X186285779Y-125179524D01*
X186320476Y-125214221D01*
X186351604Y-125252150D01*
X186378864Y-125292949D01*
X186401995Y-125336222D01*
X186420772Y-125381555D01*
X186435016Y-125428510D01*
X186444588Y-125476635D01*
X186449398Y-125525466D01*
X186449398Y-125550000D01*
X186450000Y-125550000D01*
X186450000Y-126050000D01*
X184950000Y-126050000D01*
X184950000Y-126050000D01*
G37*
D20*
X185700000Y-126850000D03*
D10*
G36*
X186449398Y-126850000D02*
G01*
X186449398Y-126874534D01*
X186444588Y-126923365D01*
X186435016Y-126971490D01*
X186420772Y-127018445D01*
X186401995Y-127063778D01*
X186378864Y-127107051D01*
X186351604Y-127147850D01*
X186320476Y-127185779D01*
X186285779Y-127220476D01*
X186247850Y-127251604D01*
X186207051Y-127278864D01*
X186163778Y-127301995D01*
X186118445Y-127320772D01*
X186071490Y-127335016D01*
X186023365Y-127344588D01*
X185974534Y-127349398D01*
X185950000Y-127349398D01*
X185950000Y-127350000D01*
X185450000Y-127350000D01*
X185450000Y-127349398D01*
X185425466Y-127349398D01*
X185376635Y-127344588D01*
X185328510Y-127335016D01*
X185281555Y-127320772D01*
X185236222Y-127301995D01*
X185192949Y-127278864D01*
X185152150Y-127251604D01*
X185114221Y-127220476D01*
X185079524Y-127185779D01*
X185048396Y-127147850D01*
X185021136Y-127107051D01*
X184998005Y-127063778D01*
X184979228Y-127018445D01*
X184964984Y-126971490D01*
X184955412Y-126923365D01*
X184950602Y-126874534D01*
X184950602Y-126850000D01*
X184950000Y-126850000D01*
X184950000Y-126350000D01*
X186450000Y-126350000D01*
X186450000Y-126850000D01*
X186449398Y-126850000D01*
X186449398Y-126850000D01*
G37*
D20*
X178450000Y-115500000D03*
D10*
G36*
X177950000Y-114750000D02*
G01*
X178450000Y-114750000D01*
X178450000Y-114750602D01*
X178474534Y-114750602D01*
X178523365Y-114755412D01*
X178571490Y-114764984D01*
X178618445Y-114779228D01*
X178663778Y-114798005D01*
X178707051Y-114821136D01*
X178747850Y-114848396D01*
X178785779Y-114879524D01*
X178820476Y-114914221D01*
X178851604Y-114952150D01*
X178878864Y-114992949D01*
X178901995Y-115036222D01*
X178920772Y-115081555D01*
X178935016Y-115128510D01*
X178944588Y-115176635D01*
X178949398Y-115225466D01*
X178949398Y-115250000D01*
X178950000Y-115250000D01*
X178950000Y-115750000D01*
X178949398Y-115750000D01*
X178949398Y-115774534D01*
X178944588Y-115823365D01*
X178935016Y-115871490D01*
X178920772Y-115918445D01*
X178901995Y-115963778D01*
X178878864Y-116007051D01*
X178851604Y-116047850D01*
X178820476Y-116085779D01*
X178785779Y-116120476D01*
X178747850Y-116151604D01*
X178707051Y-116178864D01*
X178663778Y-116201995D01*
X178618445Y-116220772D01*
X178571490Y-116235016D01*
X178523365Y-116244588D01*
X178474534Y-116249398D01*
X178450000Y-116249398D01*
X178450000Y-116250000D01*
X177950000Y-116250000D01*
X177950000Y-114750000D01*
X177950000Y-114750000D01*
G37*
D20*
X177150000Y-115500000D03*
D10*
G36*
X177150000Y-116249398D02*
G01*
X177125466Y-116249398D01*
X177076635Y-116244588D01*
X177028510Y-116235016D01*
X176981555Y-116220772D01*
X176936222Y-116201995D01*
X176892949Y-116178864D01*
X176852150Y-116151604D01*
X176814221Y-116120476D01*
X176779524Y-116085779D01*
X176748396Y-116047850D01*
X176721136Y-116007051D01*
X176698005Y-115963778D01*
X176679228Y-115918445D01*
X176664984Y-115871490D01*
X176655412Y-115823365D01*
X176650602Y-115774534D01*
X176650602Y-115750000D01*
X176650000Y-115750000D01*
X176650000Y-115250000D01*
X176650602Y-115250000D01*
X176650602Y-115225466D01*
X176655412Y-115176635D01*
X176664984Y-115128510D01*
X176679228Y-115081555D01*
X176698005Y-115036222D01*
X176721136Y-114992949D01*
X176748396Y-114952150D01*
X176779524Y-114914221D01*
X176814221Y-114879524D01*
X176852150Y-114848396D01*
X176892949Y-114821136D01*
X176936222Y-114798005D01*
X176981555Y-114779228D01*
X177028510Y-114764984D01*
X177076635Y-114755412D01*
X177125466Y-114750602D01*
X177150000Y-114750602D01*
X177150000Y-114750000D01*
X177650000Y-114750000D01*
X177650000Y-116250000D01*
X177150000Y-116250000D01*
X177150000Y-116249398D01*
X177150000Y-116249398D01*
G37*
D20*
X178450000Y-112900000D03*
D10*
G36*
X177950000Y-112150000D02*
G01*
X178450000Y-112150000D01*
X178450000Y-112150602D01*
X178474534Y-112150602D01*
X178523365Y-112155412D01*
X178571490Y-112164984D01*
X178618445Y-112179228D01*
X178663778Y-112198005D01*
X178707051Y-112221136D01*
X178747850Y-112248396D01*
X178785779Y-112279524D01*
X178820476Y-112314221D01*
X178851604Y-112352150D01*
X178878864Y-112392949D01*
X178901995Y-112436222D01*
X178920772Y-112481555D01*
X178935016Y-112528510D01*
X178944588Y-112576635D01*
X178949398Y-112625466D01*
X178949398Y-112650000D01*
X178950000Y-112650000D01*
X178950000Y-113150000D01*
X178949398Y-113150000D01*
X178949398Y-113174534D01*
X178944588Y-113223365D01*
X178935016Y-113271490D01*
X178920772Y-113318445D01*
X178901995Y-113363778D01*
X178878864Y-113407051D01*
X178851604Y-113447850D01*
X178820476Y-113485779D01*
X178785779Y-113520476D01*
X178747850Y-113551604D01*
X178707051Y-113578864D01*
X178663778Y-113601995D01*
X178618445Y-113620772D01*
X178571490Y-113635016D01*
X178523365Y-113644588D01*
X178474534Y-113649398D01*
X178450000Y-113649398D01*
X178450000Y-113650000D01*
X177950000Y-113650000D01*
X177950000Y-112150000D01*
X177950000Y-112150000D01*
G37*
D20*
X177150000Y-112900000D03*
D10*
G36*
X177150000Y-113649398D02*
G01*
X177125466Y-113649398D01*
X177076635Y-113644588D01*
X177028510Y-113635016D01*
X176981555Y-113620772D01*
X176936222Y-113601995D01*
X176892949Y-113578864D01*
X176852150Y-113551604D01*
X176814221Y-113520476D01*
X176779524Y-113485779D01*
X176748396Y-113447850D01*
X176721136Y-113407051D01*
X176698005Y-113363778D01*
X176679228Y-113318445D01*
X176664984Y-113271490D01*
X176655412Y-113223365D01*
X176650602Y-113174534D01*
X176650602Y-113150000D01*
X176650000Y-113150000D01*
X176650000Y-112650000D01*
X176650602Y-112650000D01*
X176650602Y-112625466D01*
X176655412Y-112576635D01*
X176664984Y-112528510D01*
X176679228Y-112481555D01*
X176698005Y-112436222D01*
X176721136Y-112392949D01*
X176748396Y-112352150D01*
X176779524Y-112314221D01*
X176814221Y-112279524D01*
X176852150Y-112248396D01*
X176892949Y-112221136D01*
X176936222Y-112198005D01*
X176981555Y-112179228D01*
X177028510Y-112164984D01*
X177076635Y-112155412D01*
X177125466Y-112150602D01*
X177150000Y-112150602D01*
X177150000Y-112150000D01*
X177650000Y-112150000D01*
X177650000Y-113650000D01*
X177150000Y-113650000D01*
X177150000Y-113649398D01*
X177150000Y-113649398D01*
G37*
D20*
X176650000Y-97700000D03*
D10*
G36*
X176650000Y-98449398D02*
G01*
X176625466Y-98449398D01*
X176576635Y-98444588D01*
X176528510Y-98435016D01*
X176481555Y-98420772D01*
X176436222Y-98401995D01*
X176392949Y-98378864D01*
X176352150Y-98351604D01*
X176314221Y-98320476D01*
X176279524Y-98285779D01*
X176248396Y-98247850D01*
X176221136Y-98207051D01*
X176198005Y-98163778D01*
X176179228Y-98118445D01*
X176164984Y-98071490D01*
X176155412Y-98023365D01*
X176150602Y-97974534D01*
X176150602Y-97950000D01*
X176150000Y-97950000D01*
X176150000Y-97450000D01*
X176150602Y-97450000D01*
X176150602Y-97425466D01*
X176155412Y-97376635D01*
X176164984Y-97328510D01*
X176179228Y-97281555D01*
X176198005Y-97236222D01*
X176221136Y-97192949D01*
X176248396Y-97152150D01*
X176279524Y-97114221D01*
X176314221Y-97079524D01*
X176352150Y-97048396D01*
X176392949Y-97021136D01*
X176436222Y-96998005D01*
X176481555Y-96979228D01*
X176528510Y-96964984D01*
X176576635Y-96955412D01*
X176625466Y-96950602D01*
X176650000Y-96950602D01*
X176650000Y-96950000D01*
X177150000Y-96950000D01*
X177150000Y-98450000D01*
X176650000Y-98450000D01*
X176650000Y-98449398D01*
X176650000Y-98449398D01*
G37*
D20*
X177950000Y-97700000D03*
D10*
G36*
X177450000Y-96950000D02*
G01*
X177950000Y-96950000D01*
X177950000Y-96950602D01*
X177974534Y-96950602D01*
X178023365Y-96955412D01*
X178071490Y-96964984D01*
X178118445Y-96979228D01*
X178163778Y-96998005D01*
X178207051Y-97021136D01*
X178247850Y-97048396D01*
X178285779Y-97079524D01*
X178320476Y-97114221D01*
X178351604Y-97152150D01*
X178378864Y-97192949D01*
X178401995Y-97236222D01*
X178420772Y-97281555D01*
X178435016Y-97328510D01*
X178444588Y-97376635D01*
X178449398Y-97425466D01*
X178449398Y-97450000D01*
X178450000Y-97450000D01*
X178450000Y-97950000D01*
X178449398Y-97950000D01*
X178449398Y-97974534D01*
X178444588Y-98023365D01*
X178435016Y-98071490D01*
X178420772Y-98118445D01*
X178401995Y-98163778D01*
X178378864Y-98207051D01*
X178351604Y-98247850D01*
X178320476Y-98285779D01*
X178285779Y-98320476D01*
X178247850Y-98351604D01*
X178207051Y-98378864D01*
X178163778Y-98401995D01*
X178118445Y-98420772D01*
X178071490Y-98435016D01*
X178023365Y-98444588D01*
X177974534Y-98449398D01*
X177950000Y-98449398D01*
X177950000Y-98450000D01*
X177450000Y-98450000D01*
X177450000Y-96950000D01*
X177450000Y-96950000D01*
G37*
D20*
X176650000Y-100200000D03*
D10*
G36*
X176650000Y-100949398D02*
G01*
X176625466Y-100949398D01*
X176576635Y-100944588D01*
X176528510Y-100935016D01*
X176481555Y-100920772D01*
X176436222Y-100901995D01*
X176392949Y-100878864D01*
X176352150Y-100851604D01*
X176314221Y-100820476D01*
X176279524Y-100785779D01*
X176248396Y-100747850D01*
X176221136Y-100707051D01*
X176198005Y-100663778D01*
X176179228Y-100618445D01*
X176164984Y-100571490D01*
X176155412Y-100523365D01*
X176150602Y-100474534D01*
X176150602Y-100450000D01*
X176150000Y-100450000D01*
X176150000Y-99950000D01*
X176150602Y-99950000D01*
X176150602Y-99925466D01*
X176155412Y-99876635D01*
X176164984Y-99828510D01*
X176179228Y-99781555D01*
X176198005Y-99736222D01*
X176221136Y-99692949D01*
X176248396Y-99652150D01*
X176279524Y-99614221D01*
X176314221Y-99579524D01*
X176352150Y-99548396D01*
X176392949Y-99521136D01*
X176436222Y-99498005D01*
X176481555Y-99479228D01*
X176528510Y-99464984D01*
X176576635Y-99455412D01*
X176625466Y-99450602D01*
X176650000Y-99450602D01*
X176650000Y-99450000D01*
X177150000Y-99450000D01*
X177150000Y-100950000D01*
X176650000Y-100950000D01*
X176650000Y-100949398D01*
X176650000Y-100949398D01*
G37*
D20*
X177950000Y-100200000D03*
D10*
G36*
X177450000Y-99450000D02*
G01*
X177950000Y-99450000D01*
X177950000Y-99450602D01*
X177974534Y-99450602D01*
X178023365Y-99455412D01*
X178071490Y-99464984D01*
X178118445Y-99479228D01*
X178163778Y-99498005D01*
X178207051Y-99521136D01*
X178247850Y-99548396D01*
X178285779Y-99579524D01*
X178320476Y-99614221D01*
X178351604Y-99652150D01*
X178378864Y-99692949D01*
X178401995Y-99736222D01*
X178420772Y-99781555D01*
X178435016Y-99828510D01*
X178444588Y-99876635D01*
X178449398Y-99925466D01*
X178449398Y-99950000D01*
X178450000Y-99950000D01*
X178450000Y-100450000D01*
X178449398Y-100450000D01*
X178449398Y-100474534D01*
X178444588Y-100523365D01*
X178435016Y-100571490D01*
X178420772Y-100618445D01*
X178401995Y-100663778D01*
X178378864Y-100707051D01*
X178351604Y-100747850D01*
X178320476Y-100785779D01*
X178285779Y-100820476D01*
X178247850Y-100851604D01*
X178207051Y-100878864D01*
X178163778Y-100901995D01*
X178118445Y-100920772D01*
X178071490Y-100935016D01*
X178023365Y-100944588D01*
X177974534Y-100949398D01*
X177950000Y-100949398D01*
X177950000Y-100950000D01*
X177450000Y-100950000D01*
X177450000Y-99450000D01*
X177450000Y-99450000D01*
G37*
D26*
X189700000Y-64500000D03*
X194800000Y-66100000D03*
D27*
X189040000Y-133260000D03*
X173800000Y-133260000D03*
X189040000Y-97700000D03*
X173800000Y-130720000D03*
X189040000Y-100240000D03*
X173800000Y-128180000D03*
X189040000Y-102780000D03*
X173800000Y-125640000D03*
X189040000Y-105320000D03*
X173800000Y-123100000D03*
X189040000Y-107860000D03*
X173800000Y-120560000D03*
X189040000Y-110400000D03*
X173800000Y-118020000D03*
X189040000Y-112940000D03*
X173800000Y-115480000D03*
X189040000Y-115480000D03*
X173800000Y-112940000D03*
X189040000Y-118020000D03*
X173800000Y-110400000D03*
X189040000Y-120560000D03*
X173800000Y-107860000D03*
X189040000Y-123100000D03*
X173800000Y-105320000D03*
X189040000Y-125640000D03*
X173800000Y-102780000D03*
X189040000Y-128180000D03*
X173800000Y-100240000D03*
X189040000Y-130720000D03*
D28*
X173800000Y-97700000D03*
D29*
X154475000Y-133225000D03*
X119400000Y-89950000D03*
X181400000Y-80350000D03*
X181400000Y-83700000D03*
X154600000Y-76300000D03*
X184850000Y-69100000D03*
X180250000Y-71250000D03*
X166800000Y-105300000D03*
X197200000Y-105300000D03*
X154450000Y-120800000D03*
X157950000Y-128000000D03*
X193850000Y-83050000D03*
X180800000Y-73700000D03*
X178450000Y-109350000D03*
X177900000Y-118950000D03*
X121200000Y-89750000D03*
X190000000Y-87350000D03*
X190000000Y-90400000D03*
D30*
X186490000Y-133260000D02*
X184900000Y-134850000D01*
X189040000Y-133260000D02*
X186490000Y-133260000D01*
X175610000Y-133260000D02*
X177200000Y-134850000D01*
X173800000Y-133260000D02*
X175610000Y-133260000D01*
X154475000Y-132282120D02*
X154475000Y-133225000D01*
X119400000Y-89950000D02*
X119400000Y-97207120D01*
X119400000Y-97207120D02*
X154475000Y-132282120D01*
D31*
X181400000Y-80350000D02*
X181400000Y-83700000D01*
D30*
X173820000Y-115500000D02*
X173800000Y-115480000D01*
X177150000Y-115500000D02*
X173820000Y-115500000D01*
X173840000Y-112900000D02*
X173800000Y-112940000D01*
X177150000Y-112900000D02*
X173840000Y-112900000D01*
X188990000Y-123150000D02*
X189040000Y-123100000D01*
X185700000Y-123150000D02*
X188990000Y-123150000D01*
X188950000Y-125550000D02*
X189040000Y-125640000D01*
X185700000Y-125550000D02*
X188950000Y-125550000D01*
X173840000Y-100200000D02*
X173800000Y-100240000D01*
X176650000Y-100200000D02*
X173840000Y-100200000D01*
X176650000Y-97700000D02*
X173800000Y-97700000D01*
X178450000Y-100700000D02*
X177950000Y-100200000D01*
X178450000Y-112900000D02*
X178450000Y-109350000D01*
X178450000Y-109350000D02*
X178450000Y-100700000D01*
X177950000Y-97700000D02*
X179500000Y-99250000D01*
X179500000Y-114450000D02*
X178450000Y-115500000D01*
X179500000Y-99250000D02*
X179500000Y-114450000D01*
X178450000Y-118400000D02*
X178450000Y-115500000D01*
X177900000Y-118950000D02*
X178450000Y-118400000D01*
X167850000Y-136150000D02*
X166650000Y-134950000D01*
X177200000Y-136150000D02*
X167850000Y-136150000D01*
X156300001Y-133350001D02*
X156250001Y-133350001D01*
X157700000Y-134750000D02*
X156300001Y-133350001D01*
X156250001Y-133350001D02*
X121200000Y-98300000D01*
X121200000Y-98300000D02*
X121200000Y-89750000D01*
X160350000Y-137400000D02*
X157700000Y-134750000D01*
X184450000Y-137400000D02*
X160350000Y-137400000D01*
X184900000Y-136150000D02*
X184900000Y-136950000D01*
X184900000Y-136950000D02*
X184450000Y-137400000D01*
X194950000Y-126850000D02*
X195800000Y-126000000D01*
X185700000Y-126850000D02*
X194950000Y-126850000D01*
X190000000Y-87350000D02*
X190000000Y-90400000D01*
X185700000Y-121250000D02*
X187600000Y-119350000D01*
X185700000Y-121850000D02*
X185700000Y-121250000D01*
X193720102Y-119000000D02*
X195700000Y-119000000D01*
X193370102Y-119350000D02*
X193720102Y-119000000D01*
X187600000Y-119350000D02*
X193370102Y-119350000D01*
D32*
G36*
X199017183Y-40197821D02*
G01*
X199181411Y-40247053D01*
X199332841Y-40327456D01*
X199465625Y-40435926D01*
X199574626Y-40568269D01*
X199655639Y-40719376D01*
X199705535Y-40883414D01*
X199723000Y-41060286D01*
X199723000Y-138743766D01*
X199705624Y-138920189D01*
X199655978Y-139083850D01*
X199575362Y-139234672D01*
X199466870Y-139366870D01*
X199334672Y-139475362D01*
X199183850Y-139555978D01*
X199020189Y-139605624D01*
X198843766Y-139623000D01*
X102760758Y-139623000D01*
X103093587Y-139556796D01*
X103463934Y-139403393D01*
X103797237Y-139180687D01*
X104080687Y-138897237D01*
X104303393Y-138563934D01*
X104456796Y-138193587D01*
X104535000Y-137800430D01*
X104535000Y-137399570D01*
X104456796Y-137006413D01*
X104371119Y-136799570D01*
X117415000Y-136799570D01*
X117415000Y-137200430D01*
X117493204Y-137593587D01*
X117646607Y-137963934D01*
X117869313Y-138297237D01*
X118152763Y-138580687D01*
X118486066Y-138803393D01*
X118856413Y-138956796D01*
X119249570Y-139035000D01*
X119650430Y-139035000D01*
X120043587Y-138956796D01*
X120413934Y-138803393D01*
X120747237Y-138580687D01*
X121030687Y-138297237D01*
X121253393Y-137963934D01*
X121406796Y-137593587D01*
X121485000Y-137200430D01*
X121485000Y-136799570D01*
X121406796Y-136406413D01*
X121253393Y-136036066D01*
X121030687Y-135702763D01*
X120747237Y-135419313D01*
X120413934Y-135196607D01*
X120043587Y-135043204D01*
X119650430Y-134965000D01*
X119249570Y-134965000D01*
X118856413Y-135043204D01*
X118486066Y-135196607D01*
X118152763Y-135419313D01*
X117869313Y-135702763D01*
X117646607Y-136036066D01*
X117493204Y-136406413D01*
X117415000Y-136799570D01*
X104371119Y-136799570D01*
X104303393Y-136636066D01*
X104080687Y-136302763D01*
X103797237Y-136019313D01*
X103463934Y-135796607D01*
X103093587Y-135643204D01*
X102700430Y-135565000D01*
X102299570Y-135565000D01*
X101906413Y-135643204D01*
X101536066Y-135796607D01*
X101202763Y-136019313D01*
X100919313Y-136302763D01*
X100696607Y-136636066D01*
X100543204Y-137006413D01*
X100465000Y-137399570D01*
X100465000Y-137800430D01*
X100543204Y-138193587D01*
X100696607Y-138563934D01*
X100919313Y-138897237D01*
X101202763Y-139180687D01*
X101536066Y-139403393D01*
X101906413Y-139556796D01*
X102239242Y-139623000D01*
X101159787Y-139623000D01*
X100982958Y-139605544D01*
X100818974Y-139555682D01*
X100667903Y-139474720D01*
X100535577Y-139365781D01*
X100427106Y-139233072D01*
X100346675Y-139081716D01*
X100297390Y-138917552D01*
X100280558Y-138740666D01*
X100298013Y-133788212D01*
X108865000Y-133788212D01*
X108865000Y-134011788D01*
X108908617Y-134231067D01*
X108994176Y-134437624D01*
X109118388Y-134623520D01*
X109276480Y-134781612D01*
X109462376Y-134905824D01*
X109668933Y-134991383D01*
X109888212Y-135035000D01*
X110111788Y-135035000D01*
X110331067Y-134991383D01*
X110537624Y-134905824D01*
X110723520Y-134781612D01*
X110881612Y-134623520D01*
X111005824Y-134437624D01*
X111091383Y-134231067D01*
X111135000Y-134011788D01*
X111135000Y-133788212D01*
X111091383Y-133568933D01*
X111005824Y-133362376D01*
X110881612Y-133176480D01*
X110723520Y-133018388D01*
X110537624Y-132894176D01*
X110331067Y-132808617D01*
X110111788Y-132765000D01*
X109888212Y-132765000D01*
X109668933Y-132808617D01*
X109462376Y-132894176D01*
X109276480Y-133018388D01*
X109118388Y-133176480D01*
X108994176Y-133362376D01*
X108908617Y-133568933D01*
X108865000Y-133788212D01*
X100298013Y-133788212D01*
X100320265Y-127475000D01*
X126436928Y-127475000D01*
X126436928Y-133725000D01*
X126449188Y-133849482D01*
X126485498Y-133969180D01*
X126544463Y-134079494D01*
X126623815Y-134176185D01*
X126720506Y-134255537D01*
X126830820Y-134314502D01*
X126950518Y-134350812D01*
X127075000Y-134363072D01*
X129325000Y-134363072D01*
X129449482Y-134350812D01*
X129569180Y-134314502D01*
X129679494Y-134255537D01*
X129776185Y-134176185D01*
X129855537Y-134079494D01*
X129914502Y-133969180D01*
X129950812Y-133849482D01*
X129963072Y-133725000D01*
X129963072Y-132200000D01*
X138023000Y-132200000D01*
X138023000Y-137150000D01*
X138025440Y-137174776D01*
X138032667Y-137198601D01*
X138044403Y-137220557D01*
X138060197Y-137239803D01*
X138079443Y-137255597D01*
X138101399Y-137267333D01*
X138125224Y-137274560D01*
X138150000Y-137277000D01*
X152200000Y-137277000D01*
X152224776Y-137274560D01*
X152248601Y-137267333D01*
X152270557Y-137255597D01*
X152289803Y-137239803D01*
X152305597Y-137220557D01*
X152317333Y-137198601D01*
X152324560Y-137174776D01*
X152327000Y-137150000D01*
X152327000Y-132200000D01*
X152324560Y-132175224D01*
X152317333Y-132151399D01*
X152305597Y-132129443D01*
X152289803Y-132110197D01*
X152270557Y-132094403D01*
X152248601Y-132082667D01*
X152224776Y-132075440D01*
X152200000Y-132073000D01*
X138150000Y-132073000D01*
X138125224Y-132075440D01*
X138101399Y-132082667D01*
X138079443Y-132094403D01*
X138060197Y-132110197D01*
X138044403Y-132129443D01*
X138032667Y-132151399D01*
X138025440Y-132175224D01*
X138023000Y-132200000D01*
X129963072Y-132200000D01*
X129963072Y-127475000D01*
X129950812Y-127350518D01*
X129914502Y-127230820D01*
X129855537Y-127120506D01*
X129776185Y-127023815D01*
X129679494Y-126944463D01*
X129569180Y-126885498D01*
X129449482Y-126849188D01*
X129325000Y-126836928D01*
X127075000Y-126836928D01*
X126950518Y-126849188D01*
X126830820Y-126885498D01*
X126720506Y-126944463D01*
X126623815Y-127023815D01*
X126544463Y-127120506D01*
X126485498Y-127230820D01*
X126449188Y-127350518D01*
X126436928Y-127475000D01*
X100320265Y-127475000D01*
X100349121Y-119288212D01*
X108865000Y-119288212D01*
X108865000Y-119511788D01*
X108908617Y-119731067D01*
X108994176Y-119937624D01*
X109118388Y-120123520D01*
X109276480Y-120281612D01*
X109462376Y-120405824D01*
X109668933Y-120491383D01*
X109888212Y-120535000D01*
X110111788Y-120535000D01*
X110331067Y-120491383D01*
X110537624Y-120405824D01*
X110723520Y-120281612D01*
X110881612Y-120123520D01*
X111005824Y-119937624D01*
X111091383Y-119731067D01*
X111122426Y-119575000D01*
X126436928Y-119575000D01*
X126436928Y-125825000D01*
X126449188Y-125949482D01*
X126485498Y-126069180D01*
X126544463Y-126179494D01*
X126623815Y-126276185D01*
X126720506Y-126355537D01*
X126830820Y-126414502D01*
X126950518Y-126450812D01*
X127075000Y-126463072D01*
X129325000Y-126463072D01*
X129449482Y-126450812D01*
X129569180Y-126414502D01*
X129679494Y-126355537D01*
X129776185Y-126276185D01*
X129855537Y-126179494D01*
X129914502Y-126069180D01*
X129950812Y-125949482D01*
X129963072Y-125825000D01*
X129963072Y-119575000D01*
X129950812Y-119450518D01*
X129914502Y-119330820D01*
X129855537Y-119220506D01*
X129776185Y-119123815D01*
X129679494Y-119044463D01*
X129569180Y-118985498D01*
X129449482Y-118949188D01*
X129325000Y-118936928D01*
X127075000Y-118936928D01*
X126950518Y-118949188D01*
X126830820Y-118985498D01*
X126720506Y-119044463D01*
X126623815Y-119123815D01*
X126544463Y-119220506D01*
X126485498Y-119330820D01*
X126449188Y-119450518D01*
X126436928Y-119575000D01*
X111122426Y-119575000D01*
X111135000Y-119511788D01*
X111135000Y-119288212D01*
X111091383Y-119068933D01*
X111005824Y-118862376D01*
X110881612Y-118676480D01*
X110723520Y-118518388D01*
X110537624Y-118394176D01*
X110331067Y-118308617D01*
X110111788Y-118265000D01*
X109888212Y-118265000D01*
X109668933Y-118308617D01*
X109462376Y-118394176D01*
X109276480Y-118518388D01*
X109118388Y-118676480D01*
X108994176Y-118862376D01*
X108908617Y-119068933D01*
X108865000Y-119288212D01*
X100349121Y-119288212D01*
X100429231Y-96560000D01*
X102203461Y-96560000D01*
X102249510Y-97027542D01*
X102385887Y-97477116D01*
X102607351Y-97891446D01*
X102905391Y-98254609D01*
X103268554Y-98552649D01*
X103377846Y-98611067D01*
X103083023Y-98853023D01*
X102816223Y-99178119D01*
X102617974Y-99549018D01*
X102495892Y-99951467D01*
X102454670Y-100370000D01*
X102495892Y-100788533D01*
X102617974Y-101190982D01*
X102816223Y-101561881D01*
X103083023Y-101886977D01*
X103408119Y-102153777D01*
X103634912Y-102275000D01*
X103408119Y-102396223D01*
X103083023Y-102663023D01*
X102816223Y-102988119D01*
X102617974Y-103359018D01*
X102495892Y-103761467D01*
X102454670Y-104180000D01*
X102495892Y-104598533D01*
X102617974Y-105000982D01*
X102816223Y-105371881D01*
X103083023Y-105696977D01*
X103408119Y-105963777D01*
X103634912Y-106085000D01*
X103408119Y-106206223D01*
X103083023Y-106473023D01*
X102816223Y-106798119D01*
X102617974Y-107169018D01*
X102495892Y-107571467D01*
X102454670Y-107990000D01*
X102495892Y-108408533D01*
X102617974Y-108810982D01*
X102816223Y-109181881D01*
X103083023Y-109506977D01*
X103377846Y-109748933D01*
X103268554Y-109807351D01*
X102905391Y-110105391D01*
X102607351Y-110468554D01*
X102385887Y-110882884D01*
X102249510Y-111332458D01*
X102203461Y-111800000D01*
X102249510Y-112267542D01*
X102385887Y-112717116D01*
X102607351Y-113131446D01*
X102905391Y-113494609D01*
X103268554Y-113792649D01*
X103682884Y-114014113D01*
X104132458Y-114150490D01*
X104482843Y-114185000D01*
X104717157Y-114185000D01*
X105067542Y-114150490D01*
X105517116Y-114014113D01*
X105931446Y-113792649D01*
X106294609Y-113494609D01*
X106592649Y-113131446D01*
X106814113Y-112717116D01*
X106950490Y-112267542D01*
X106996539Y-111800000D01*
X106950490Y-111332458D01*
X106814113Y-110882884D01*
X106592649Y-110468554D01*
X106294609Y-110105391D01*
X105931446Y-109807351D01*
X105822154Y-109748933D01*
X106116977Y-109506977D01*
X106383777Y-109181881D01*
X106582026Y-108810982D01*
X106704108Y-108408533D01*
X106745330Y-107990000D01*
X106704108Y-107571467D01*
X106582026Y-107169018D01*
X106383777Y-106798119D01*
X106116977Y-106473023D01*
X105791881Y-106206223D01*
X105565088Y-106085000D01*
X105791881Y-105963777D01*
X106116977Y-105696977D01*
X106383777Y-105371881D01*
X106582026Y-105000982D01*
X106704108Y-104598533D01*
X106745330Y-104180000D01*
X106704108Y-103761467D01*
X106582026Y-103359018D01*
X106383777Y-102988119D01*
X106116977Y-102663023D01*
X105791881Y-102396223D01*
X105565088Y-102275000D01*
X105791881Y-102153777D01*
X106116977Y-101886977D01*
X106383777Y-101561881D01*
X106582026Y-101190982D01*
X106704108Y-100788533D01*
X106745330Y-100370000D01*
X106704108Y-99951467D01*
X106582026Y-99549018D01*
X106383777Y-99178119D01*
X106116977Y-98853023D01*
X105822154Y-98611067D01*
X105931446Y-98552649D01*
X106294609Y-98254609D01*
X106592649Y-97891446D01*
X106814113Y-97477116D01*
X106950490Y-97027542D01*
X106996539Y-96560000D01*
X106950490Y-96092458D01*
X106814113Y-95642884D01*
X106592649Y-95228554D01*
X106294609Y-94865391D01*
X105931446Y-94567351D01*
X105517116Y-94345887D01*
X105067542Y-94209510D01*
X104717157Y-94175000D01*
X104482843Y-94175000D01*
X104132458Y-94209510D01*
X103682884Y-94345887D01*
X103268554Y-94567351D01*
X102905391Y-94865391D01*
X102607351Y-95228554D01*
X102385887Y-95642884D01*
X102249510Y-96092458D01*
X102203461Y-96560000D01*
X100429231Y-96560000D01*
X100452922Y-89838212D01*
X118265000Y-89838212D01*
X118265000Y-90061788D01*
X118308617Y-90281067D01*
X118394176Y-90487624D01*
X118518388Y-90673520D01*
X118615000Y-90770132D01*
X118615001Y-97168557D01*
X118611203Y-97207120D01*
X118626359Y-97361006D01*
X118671246Y-97508979D01*
X118671247Y-97508980D01*
X118744139Y-97645353D01*
X118784690Y-97694764D01*
X118817655Y-97734932D01*
X118817659Y-97734936D01*
X118842237Y-97764884D01*
X118872185Y-97789462D01*
X153589709Y-132506986D01*
X153469176Y-132687376D01*
X153383617Y-132893933D01*
X153340000Y-133113212D01*
X153340000Y-133336788D01*
X153383617Y-133556067D01*
X153469176Y-133762624D01*
X153593388Y-133948520D01*
X153751480Y-134106612D01*
X153937376Y-134230824D01*
X154143933Y-134316383D01*
X154363212Y-134360000D01*
X154586788Y-134360000D01*
X154806067Y-134316383D01*
X155012624Y-134230824D01*
X155198520Y-134106612D01*
X155356612Y-133948520D01*
X155480824Y-133762624D01*
X155501808Y-133711965D01*
X155667654Y-133877811D01*
X155692237Y-133907765D01*
X155807138Y-134002063D01*
X155743204Y-134156413D01*
X155665000Y-134549570D01*
X155665000Y-134950430D01*
X155743204Y-135343587D01*
X155896607Y-135713934D01*
X156119313Y-136047237D01*
X156402763Y-136330687D01*
X156736066Y-136553393D01*
X157106413Y-136706796D01*
X157499570Y-136785000D01*
X157900430Y-136785000D01*
X158293587Y-136706796D01*
X158472521Y-136632679D01*
X159767658Y-137927816D01*
X159792236Y-137957764D01*
X159822184Y-137982342D01*
X159822187Y-137982345D01*
X159851559Y-138006450D01*
X159911767Y-138055862D01*
X160048140Y-138128754D01*
X160196113Y-138173642D01*
X160271026Y-138181020D01*
X160311439Y-138185000D01*
X160311444Y-138185000D01*
X160350000Y-138188797D01*
X160388555Y-138185000D01*
X184411447Y-138185000D01*
X184450000Y-138188797D01*
X184488553Y-138185000D01*
X184488561Y-138185000D01*
X184603887Y-138173641D01*
X184751860Y-138128754D01*
X184888233Y-138055862D01*
X185007764Y-137957764D01*
X185032347Y-137927810D01*
X185427810Y-137532347D01*
X185457764Y-137507764D01*
X185555862Y-137388233D01*
X185628754Y-137251860D01*
X185638250Y-137220557D01*
X185654386Y-137167362D01*
X185740192Y-137121498D01*
X185821691Y-137067042D01*
X185918382Y-136987690D01*
X185987690Y-136918382D01*
X186067042Y-136821691D01*
X186121498Y-136740192D01*
X186180464Y-136629875D01*
X186217973Y-136539319D01*
X186254282Y-136419623D01*
X186273404Y-136323490D01*
X186285664Y-136199009D01*
X186285664Y-136174450D01*
X186288072Y-136150000D01*
X186288072Y-135650000D01*
X186275812Y-135525518D01*
X186268071Y-135500000D01*
X186275812Y-135474482D01*
X186288072Y-135350000D01*
X186288072Y-134850000D01*
X186285664Y-134825550D01*
X186285664Y-134800991D01*
X186273404Y-134676510D01*
X186258512Y-134601645D01*
X186815157Y-134045000D01*
X187832462Y-134045000D01*
X187841068Y-134061101D01*
X188020392Y-134279608D01*
X188238899Y-134458932D01*
X188488192Y-134592182D01*
X188758691Y-134674236D01*
X188969508Y-134695000D01*
X189110492Y-134695000D01*
X189321309Y-134674236D01*
X189591808Y-134592182D01*
X189841101Y-134458932D01*
X190059608Y-134279608D01*
X190238932Y-134061101D01*
X190372182Y-133811808D01*
X190454236Y-133541309D01*
X190462286Y-133459570D01*
X193655000Y-133459570D01*
X193655000Y-133860430D01*
X193733204Y-134253587D01*
X193886607Y-134623934D01*
X194109313Y-134957237D01*
X194392763Y-135240687D01*
X194726066Y-135463393D01*
X195096413Y-135616796D01*
X195489570Y-135695000D01*
X195890430Y-135695000D01*
X196283587Y-135616796D01*
X196653934Y-135463393D01*
X196987237Y-135240687D01*
X197270687Y-134957237D01*
X197493393Y-134623934D01*
X197646796Y-134253587D01*
X197725000Y-133860430D01*
X197725000Y-133459570D01*
X197646796Y-133066413D01*
X197493393Y-132696066D01*
X197270687Y-132362763D01*
X196987237Y-132079313D01*
X196653934Y-131856607D01*
X196283587Y-131703204D01*
X195890430Y-131625000D01*
X195489570Y-131625000D01*
X195096413Y-131703204D01*
X194726066Y-131856607D01*
X194392763Y-132079313D01*
X194109313Y-132362763D01*
X193886607Y-132696066D01*
X193733204Y-133066413D01*
X193655000Y-133459570D01*
X190462286Y-133459570D01*
X190481943Y-133260000D01*
X190454236Y-132978691D01*
X190372182Y-132708192D01*
X190238932Y-132458899D01*
X190059608Y-132240392D01*
X189841101Y-132061068D01*
X189708142Y-131990000D01*
X189841101Y-131918932D01*
X190059608Y-131739608D01*
X190238932Y-131521101D01*
X190372182Y-131271808D01*
X190454236Y-131001309D01*
X190481943Y-130720000D01*
X190454236Y-130438691D01*
X190372182Y-130168192D01*
X190238932Y-129918899D01*
X190059608Y-129700392D01*
X189841101Y-129521068D01*
X189708142Y-129450000D01*
X189841101Y-129378932D01*
X190059608Y-129199608D01*
X190238932Y-128981101D01*
X190372182Y-128731808D01*
X190454236Y-128461309D01*
X190481943Y-128180000D01*
X190454236Y-127898691D01*
X190374247Y-127635000D01*
X194584048Y-127635000D01*
X194836066Y-127803393D01*
X195206413Y-127956796D01*
X195599570Y-128035000D01*
X196000430Y-128035000D01*
X196393587Y-127956796D01*
X196763934Y-127803393D01*
X197097237Y-127580687D01*
X197380687Y-127297237D01*
X197603393Y-126963934D01*
X197756796Y-126593587D01*
X197835000Y-126200430D01*
X197835000Y-125799570D01*
X197756796Y-125406413D01*
X197603393Y-125036066D01*
X197380687Y-124702763D01*
X197097237Y-124419313D01*
X196763934Y-124196607D01*
X196393587Y-124043204D01*
X196000430Y-123965000D01*
X195599570Y-123965000D01*
X195206413Y-124043204D01*
X194836066Y-124196607D01*
X194502763Y-124419313D01*
X194219313Y-124702763D01*
X193996607Y-125036066D01*
X193843204Y-125406413D01*
X193765000Y-125799570D01*
X193765000Y-126065000D01*
X190410648Y-126065000D01*
X190454236Y-125921309D01*
X190481943Y-125640000D01*
X190454236Y-125358691D01*
X190372182Y-125088192D01*
X190238932Y-124838899D01*
X190059608Y-124620392D01*
X189841101Y-124441068D01*
X189708142Y-124370000D01*
X189841101Y-124298932D01*
X190059608Y-124119608D01*
X190238932Y-123901101D01*
X190372182Y-123651808D01*
X190454236Y-123381309D01*
X190481943Y-123100000D01*
X190454236Y-122818691D01*
X190372182Y-122548192D01*
X190238932Y-122298899D01*
X190059608Y-122080392D01*
X189841101Y-121901068D01*
X189708142Y-121830000D01*
X189841101Y-121758932D01*
X190059608Y-121579608D01*
X190238932Y-121361101D01*
X190372182Y-121111808D01*
X190454236Y-120841309D01*
X190481943Y-120560000D01*
X190454236Y-120278691D01*
X190410648Y-120135000D01*
X193331549Y-120135000D01*
X193370102Y-120138797D01*
X193408655Y-120135000D01*
X193408663Y-120135000D01*
X193523989Y-120123641D01*
X193671962Y-120078754D01*
X193808335Y-120005862D01*
X193887174Y-119941160D01*
X193896607Y-119963934D01*
X194119313Y-120297237D01*
X194402763Y-120580687D01*
X194736066Y-120803393D01*
X195106413Y-120956796D01*
X195499570Y-121035000D01*
X195900430Y-121035000D01*
X196293587Y-120956796D01*
X196663934Y-120803393D01*
X196997237Y-120580687D01*
X197280687Y-120297237D01*
X197503393Y-119963934D01*
X197656796Y-119593587D01*
X197735000Y-119200430D01*
X197735000Y-118799570D01*
X197656796Y-118406413D01*
X197503393Y-118036066D01*
X197280687Y-117702763D01*
X196997237Y-117419313D01*
X196663934Y-117196607D01*
X196293587Y-117043204D01*
X195900430Y-116965000D01*
X195499570Y-116965000D01*
X195106413Y-117043204D01*
X194736066Y-117196607D01*
X194402763Y-117419313D01*
X194119313Y-117702763D01*
X193896607Y-118036066D01*
X193822490Y-118215000D01*
X193758658Y-118215000D01*
X193720102Y-118211203D01*
X193681546Y-118215000D01*
X193681541Y-118215000D01*
X193641128Y-118218980D01*
X193566215Y-118226358D01*
X193438832Y-118265000D01*
X193418242Y-118271246D01*
X193281869Y-118344138D01*
X193162338Y-118442236D01*
X193137751Y-118472195D01*
X193044946Y-118565000D01*
X190374247Y-118565000D01*
X190454236Y-118301309D01*
X190481943Y-118020000D01*
X190454236Y-117738691D01*
X190372182Y-117468192D01*
X190238932Y-117218899D01*
X190059608Y-117000392D01*
X189841101Y-116821068D01*
X189708142Y-116750000D01*
X189841101Y-116678932D01*
X190059608Y-116499608D01*
X190238932Y-116281101D01*
X190372182Y-116031808D01*
X190454236Y-115761309D01*
X190481943Y-115480000D01*
X190454236Y-115198691D01*
X190372182Y-114928192D01*
X190238932Y-114678899D01*
X190059608Y-114460392D01*
X189841101Y-114281068D01*
X189708142Y-114210000D01*
X189841101Y-114138932D01*
X190059608Y-113959608D01*
X190238932Y-113741101D01*
X190372182Y-113491808D01*
X190454236Y-113221309D01*
X190481943Y-112940000D01*
X190454236Y-112658691D01*
X190372182Y-112388192D01*
X190238932Y-112138899D01*
X190059608Y-111920392D01*
X189841101Y-111741068D01*
X189708142Y-111670000D01*
X189841101Y-111598932D01*
X190059608Y-111419608D01*
X190238932Y-111201101D01*
X190372182Y-110951808D01*
X190454236Y-110681309D01*
X190481943Y-110400000D01*
X190454236Y-110118691D01*
X190372182Y-109848192D01*
X190238932Y-109598899D01*
X190059608Y-109380392D01*
X189841101Y-109201068D01*
X189708142Y-109130000D01*
X189841101Y-109058932D01*
X190059608Y-108879608D01*
X190238932Y-108661101D01*
X190372182Y-108411808D01*
X190454236Y-108141309D01*
X190481943Y-107860000D01*
X190454236Y-107578691D01*
X190372182Y-107308192D01*
X190238932Y-107058899D01*
X190059608Y-106840392D01*
X189841101Y-106661068D01*
X189708142Y-106590000D01*
X189841101Y-106518932D01*
X190059608Y-106339608D01*
X190238932Y-106121101D01*
X190372182Y-105871808D01*
X190454236Y-105601309D01*
X190481943Y-105320000D01*
X190454236Y-105038691D01*
X190372182Y-104768192D01*
X190238932Y-104518899D01*
X190059608Y-104300392D01*
X189841101Y-104121068D01*
X189708142Y-104050000D01*
X189841101Y-103978932D01*
X190059608Y-103799608D01*
X190238932Y-103581101D01*
X190372182Y-103331808D01*
X190454236Y-103061309D01*
X190481943Y-102780000D01*
X190454236Y-102498691D01*
X190372182Y-102228192D01*
X190238932Y-101978899D01*
X190059608Y-101760392D01*
X189841101Y-101581068D01*
X189703318Y-101507421D01*
X189895131Y-101392385D01*
X190103519Y-101203414D01*
X190271037Y-100977420D01*
X190391246Y-100723087D01*
X190431904Y-100589039D01*
X190309915Y-100367000D01*
X189167000Y-100367000D01*
X189167000Y-100387000D01*
X188913000Y-100387000D01*
X188913000Y-100367000D01*
X187770085Y-100367000D01*
X187648096Y-100589039D01*
X187688754Y-100723087D01*
X187808963Y-100977420D01*
X187976481Y-101203414D01*
X188184869Y-101392385D01*
X188376682Y-101507421D01*
X188238899Y-101581068D01*
X188020392Y-101760392D01*
X187841068Y-101978899D01*
X187707818Y-102228192D01*
X187625764Y-102498691D01*
X187598057Y-102780000D01*
X187625764Y-103061309D01*
X187707818Y-103331808D01*
X187841068Y-103581101D01*
X188020392Y-103799608D01*
X188238899Y-103978932D01*
X188371858Y-104050000D01*
X188238899Y-104121068D01*
X188020392Y-104300392D01*
X187841068Y-104518899D01*
X187707818Y-104768192D01*
X187625764Y-105038691D01*
X187598057Y-105320000D01*
X187625764Y-105601309D01*
X187707818Y-105871808D01*
X187841068Y-106121101D01*
X188020392Y-106339608D01*
X188238899Y-106518932D01*
X188371858Y-106590000D01*
X188238899Y-106661068D01*
X188020392Y-106840392D01*
X187841068Y-107058899D01*
X187707818Y-107308192D01*
X187625764Y-107578691D01*
X187598057Y-107860000D01*
X187625764Y-108141309D01*
X187707818Y-108411808D01*
X187841068Y-108661101D01*
X188020392Y-108879608D01*
X188238899Y-109058932D01*
X188371858Y-109130000D01*
X188238899Y-109201068D01*
X188020392Y-109380392D01*
X187841068Y-109598899D01*
X187707818Y-109848192D01*
X187625764Y-110118691D01*
X187598057Y-110400000D01*
X187625764Y-110681309D01*
X187707818Y-110951808D01*
X187841068Y-111201101D01*
X188020392Y-111419608D01*
X188238899Y-111598932D01*
X188371858Y-111670000D01*
X188238899Y-111741068D01*
X188020392Y-111920392D01*
X187841068Y-112138899D01*
X187707818Y-112388192D01*
X187625764Y-112658691D01*
X187598057Y-112940000D01*
X187625764Y-113221309D01*
X187707818Y-113491808D01*
X187841068Y-113741101D01*
X188020392Y-113959608D01*
X188238899Y-114138932D01*
X188371858Y-114210000D01*
X188238899Y-114281068D01*
X188020392Y-114460392D01*
X187841068Y-114678899D01*
X187707818Y-114928192D01*
X187625764Y-115198691D01*
X187598057Y-115480000D01*
X187625764Y-115761309D01*
X187707818Y-116031808D01*
X187841068Y-116281101D01*
X188020392Y-116499608D01*
X188238899Y-116678932D01*
X188371858Y-116750000D01*
X188238899Y-116821068D01*
X188020392Y-117000392D01*
X187841068Y-117218899D01*
X187707818Y-117468192D01*
X187625764Y-117738691D01*
X187598057Y-118020000D01*
X187625764Y-118301309D01*
X187705753Y-118565000D01*
X187638556Y-118565000D01*
X187600000Y-118561203D01*
X187561444Y-118565000D01*
X187561439Y-118565000D01*
X187521026Y-118568980D01*
X187446113Y-118576358D01*
X187305765Y-118618933D01*
X187298140Y-118621246D01*
X187161767Y-118694138D01*
X187042236Y-118792236D01*
X187017655Y-118822188D01*
X185172185Y-120667658D01*
X185142237Y-120692236D01*
X185117659Y-120722184D01*
X185117655Y-120722188D01*
X185098345Y-120745718D01*
X185071153Y-120778850D01*
X185060681Y-120782027D01*
X184970125Y-120819536D01*
X184859808Y-120878502D01*
X184778309Y-120932958D01*
X184681618Y-121012310D01*
X184612310Y-121081618D01*
X184532958Y-121178309D01*
X184478502Y-121259808D01*
X184419536Y-121370125D01*
X184382027Y-121460681D01*
X184345718Y-121580377D01*
X184326596Y-121676510D01*
X184314336Y-121800991D01*
X184314336Y-121825550D01*
X184311928Y-121850000D01*
X184311928Y-122350000D01*
X184324188Y-122474482D01*
X184331929Y-122500000D01*
X184324188Y-122525518D01*
X184311928Y-122650000D01*
X184311928Y-123150000D01*
X184314336Y-123174450D01*
X184314336Y-123199009D01*
X184326596Y-123323490D01*
X184345718Y-123419623D01*
X184382027Y-123539319D01*
X184419536Y-123629875D01*
X184478502Y-123740192D01*
X184532958Y-123821691D01*
X184612310Y-123918382D01*
X184681618Y-123987690D01*
X184778309Y-124067042D01*
X184859808Y-124121498D01*
X184970125Y-124180464D01*
X185060681Y-124217973D01*
X185180377Y-124254282D01*
X185276510Y-124273404D01*
X185400991Y-124285664D01*
X185425550Y-124285664D01*
X185450000Y-124288072D01*
X185950000Y-124288072D01*
X185974450Y-124285664D01*
X185999009Y-124285664D01*
X186123490Y-124273404D01*
X186219623Y-124254282D01*
X186339319Y-124217973D01*
X186429875Y-124180464D01*
X186540192Y-124121498D01*
X186621691Y-124067042D01*
X186718382Y-123987690D01*
X186771072Y-123935000D01*
X187868888Y-123935000D01*
X188020392Y-124119608D01*
X188238899Y-124298932D01*
X188371858Y-124370000D01*
X188238899Y-124441068D01*
X188020392Y-124620392D01*
X187901715Y-124765000D01*
X186771072Y-124765000D01*
X186718382Y-124712310D01*
X186621691Y-124632958D01*
X186540192Y-124578502D01*
X186429875Y-124519536D01*
X186339319Y-124482027D01*
X186219623Y-124445718D01*
X186123490Y-124426596D01*
X185999009Y-124414336D01*
X185974450Y-124414336D01*
X185950000Y-124411928D01*
X185450000Y-124411928D01*
X185425550Y-124414336D01*
X185400991Y-124414336D01*
X185276510Y-124426596D01*
X185180377Y-124445718D01*
X185060681Y-124482027D01*
X184970125Y-124519536D01*
X184859808Y-124578502D01*
X184778309Y-124632958D01*
X184681618Y-124712310D01*
X184612310Y-124781618D01*
X184532958Y-124878309D01*
X184478502Y-124959808D01*
X184419536Y-125070125D01*
X184382027Y-125160681D01*
X184345718Y-125280377D01*
X184326596Y-125376510D01*
X184314336Y-125500991D01*
X184314336Y-125525550D01*
X184311928Y-125550000D01*
X184311928Y-126050000D01*
X184324188Y-126174482D01*
X184331929Y-126200000D01*
X184324188Y-126225518D01*
X184311928Y-126350000D01*
X184311928Y-126850000D01*
X184314336Y-126874450D01*
X184314336Y-126899009D01*
X184326596Y-127023490D01*
X184345718Y-127119623D01*
X184382027Y-127239319D01*
X184419536Y-127329875D01*
X184478502Y-127440192D01*
X184532958Y-127521691D01*
X184612310Y-127618382D01*
X184681618Y-127687690D01*
X184778309Y-127767042D01*
X184859808Y-127821498D01*
X184970125Y-127880464D01*
X185060681Y-127917973D01*
X185180377Y-127954282D01*
X185276510Y-127973404D01*
X185400991Y-127985664D01*
X185425550Y-127985664D01*
X185450000Y-127988072D01*
X185950000Y-127988072D01*
X185974450Y-127985664D01*
X185999009Y-127985664D01*
X186123490Y-127973404D01*
X186219623Y-127954282D01*
X186339319Y-127917973D01*
X186429875Y-127880464D01*
X186540192Y-127821498D01*
X186621691Y-127767042D01*
X186718382Y-127687690D01*
X186771072Y-127635000D01*
X187705753Y-127635000D01*
X187625764Y-127898691D01*
X187598057Y-128180000D01*
X187625764Y-128461309D01*
X187707818Y-128731808D01*
X187841068Y-128981101D01*
X188020392Y-129199608D01*
X188238899Y-129378932D01*
X188371858Y-129450000D01*
X188238899Y-129521068D01*
X188020392Y-129700392D01*
X187841068Y-129918899D01*
X187707818Y-130168192D01*
X187625764Y-130438691D01*
X187598057Y-130720000D01*
X187625764Y-131001309D01*
X187707818Y-131271808D01*
X187841068Y-131521101D01*
X188020392Y-131739608D01*
X188238899Y-131918932D01*
X188371858Y-131990000D01*
X188238899Y-132061068D01*
X188020392Y-132240392D01*
X187841068Y-132458899D01*
X187832462Y-132475000D01*
X186528556Y-132475000D01*
X186490000Y-132471203D01*
X186451444Y-132475000D01*
X186451439Y-132475000D01*
X186411026Y-132478980D01*
X186336113Y-132486358D01*
X186188140Y-132531246D01*
X186051767Y-132604138D01*
X185932236Y-132702236D01*
X185907653Y-132732190D01*
X184927915Y-133711928D01*
X184650000Y-133711928D01*
X184625550Y-133714336D01*
X184600991Y-133714336D01*
X184476510Y-133726596D01*
X184380377Y-133745718D01*
X184260681Y-133782027D01*
X184170125Y-133819536D01*
X184059808Y-133878502D01*
X183978309Y-133932958D01*
X183881618Y-134012310D01*
X183812310Y-134081618D01*
X183732958Y-134178309D01*
X183678502Y-134259808D01*
X183619536Y-134370125D01*
X183582027Y-134460681D01*
X183545718Y-134580377D01*
X183526596Y-134676510D01*
X183514336Y-134800991D01*
X183514336Y-134825550D01*
X183511928Y-134850000D01*
X183511928Y-135350000D01*
X183524188Y-135474482D01*
X183531929Y-135500000D01*
X183524188Y-135525518D01*
X183511928Y-135650000D01*
X183511928Y-136150000D01*
X183514336Y-136174450D01*
X183514336Y-136199009D01*
X183526596Y-136323490D01*
X183545718Y-136419623D01*
X183582027Y-136539319D01*
X183613375Y-136615000D01*
X178486625Y-136615000D01*
X178517973Y-136539319D01*
X178554282Y-136419623D01*
X178573404Y-136323490D01*
X178585664Y-136199009D01*
X178585664Y-136174450D01*
X178588072Y-136150000D01*
X178588072Y-135650000D01*
X178575812Y-135525518D01*
X178568071Y-135500000D01*
X178575812Y-135474482D01*
X178588072Y-135350000D01*
X178588072Y-134850000D01*
X178585664Y-134825550D01*
X178585664Y-134800991D01*
X178573404Y-134676510D01*
X178554282Y-134580377D01*
X178517973Y-134460681D01*
X178480464Y-134370125D01*
X178421498Y-134259808D01*
X178367042Y-134178309D01*
X178287690Y-134081618D01*
X178218382Y-134012310D01*
X178121691Y-133932958D01*
X178040192Y-133878502D01*
X177929875Y-133819536D01*
X177839319Y-133782027D01*
X177719623Y-133745718D01*
X177623490Y-133726596D01*
X177499009Y-133714336D01*
X177474450Y-133714336D01*
X177450000Y-133711928D01*
X177172085Y-133711928D01*
X176192347Y-132732190D01*
X176167764Y-132702236D01*
X176048233Y-132604138D01*
X175911860Y-132531246D01*
X175763887Y-132486359D01*
X175648561Y-132475000D01*
X175648553Y-132475000D01*
X175610000Y-132471203D01*
X175571447Y-132475000D01*
X175007538Y-132475000D01*
X174998932Y-132458899D01*
X174819608Y-132240392D01*
X174601101Y-132061068D01*
X174468142Y-131990000D01*
X174601101Y-131918932D01*
X174819608Y-131739608D01*
X174998932Y-131521101D01*
X175132182Y-131271808D01*
X175214236Y-131001309D01*
X175241943Y-130720000D01*
X175214236Y-130438691D01*
X175132182Y-130168192D01*
X174998932Y-129918899D01*
X174819608Y-129700392D01*
X174601101Y-129521068D01*
X174468142Y-129450000D01*
X174601101Y-129378932D01*
X174819608Y-129199608D01*
X174998932Y-128981101D01*
X175132182Y-128731808D01*
X175214236Y-128461309D01*
X175241943Y-128180000D01*
X175214236Y-127898691D01*
X175132182Y-127628192D01*
X174998932Y-127378899D01*
X174819608Y-127160392D01*
X174601101Y-126981068D01*
X174468142Y-126910000D01*
X174601101Y-126838932D01*
X174819608Y-126659608D01*
X174998932Y-126441101D01*
X175132182Y-126191808D01*
X175214236Y-125921309D01*
X175241943Y-125640000D01*
X175214236Y-125358691D01*
X175132182Y-125088192D01*
X174998932Y-124838899D01*
X174819608Y-124620392D01*
X174601101Y-124441068D01*
X174468142Y-124370000D01*
X174601101Y-124298932D01*
X174819608Y-124119608D01*
X174998932Y-123901101D01*
X175132182Y-123651808D01*
X175214236Y-123381309D01*
X175241943Y-123100000D01*
X175214236Y-122818691D01*
X175132182Y-122548192D01*
X174998932Y-122298899D01*
X174819608Y-122080392D01*
X174601101Y-121901068D01*
X174468142Y-121830000D01*
X174601101Y-121758932D01*
X174819608Y-121579608D01*
X174998932Y-121361101D01*
X175132182Y-121111808D01*
X175214236Y-120841309D01*
X175241943Y-120560000D01*
X175214236Y-120278691D01*
X175132182Y-120008192D01*
X174998932Y-119758899D01*
X174819608Y-119540392D01*
X174601101Y-119361068D01*
X174468142Y-119290000D01*
X174601101Y-119218932D01*
X174819608Y-119039608D01*
X174998932Y-118821101D01*
X175132182Y-118571808D01*
X175214236Y-118301309D01*
X175241943Y-118020000D01*
X175214236Y-117738691D01*
X175132182Y-117468192D01*
X174998932Y-117218899D01*
X174819608Y-117000392D01*
X174601101Y-116821068D01*
X174468142Y-116750000D01*
X174601101Y-116678932D01*
X174819608Y-116499608D01*
X174995732Y-116285000D01*
X176149001Y-116285000D01*
X176178502Y-116340192D01*
X176232958Y-116421691D01*
X176312310Y-116518382D01*
X176381618Y-116587690D01*
X176478309Y-116667042D01*
X176559808Y-116721498D01*
X176670125Y-116780464D01*
X176760681Y-116817973D01*
X176880377Y-116854282D01*
X176976510Y-116873404D01*
X177100991Y-116885664D01*
X177125550Y-116885664D01*
X177150000Y-116888072D01*
X177650000Y-116888072D01*
X177665001Y-116886595D01*
X177665000Y-117839508D01*
X177568933Y-117858617D01*
X177362376Y-117944176D01*
X177176480Y-118068388D01*
X177018388Y-118226480D01*
X176894176Y-118412376D01*
X176808617Y-118618933D01*
X176765000Y-118838212D01*
X176765000Y-119061788D01*
X176808617Y-119281067D01*
X176894176Y-119487624D01*
X177018388Y-119673520D01*
X177176480Y-119831612D01*
X177362376Y-119955824D01*
X177568933Y-120041383D01*
X177788212Y-120085000D01*
X178011788Y-120085000D01*
X178231067Y-120041383D01*
X178437624Y-119955824D01*
X178623520Y-119831612D01*
X178781612Y-119673520D01*
X178905824Y-119487624D01*
X178991383Y-119281067D01*
X179035000Y-119061788D01*
X179035000Y-118924577D01*
X179045513Y-118911768D01*
X179056450Y-118898441D01*
X179105862Y-118838233D01*
X179178754Y-118701860D01*
X179220270Y-118565000D01*
X179223641Y-118553888D01*
X179227789Y-118511768D01*
X179235000Y-118438561D01*
X179235000Y-118438554D01*
X179238797Y-118400001D01*
X179235000Y-118361448D01*
X179235000Y-116571072D01*
X179287690Y-116518382D01*
X179367042Y-116421691D01*
X179421498Y-116340192D01*
X179480464Y-116229875D01*
X179517973Y-116139319D01*
X179554282Y-116019623D01*
X179573404Y-115923490D01*
X179585664Y-115799009D01*
X179585664Y-115774450D01*
X179588072Y-115750000D01*
X179588072Y-115472086D01*
X180027815Y-115032343D01*
X180057764Y-115007764D01*
X180155862Y-114888233D01*
X180228754Y-114751860D01*
X180273641Y-114603887D01*
X180285000Y-114488561D01*
X180285000Y-114488554D01*
X180288797Y-114450001D01*
X180285000Y-114411448D01*
X180285000Y-99288552D01*
X180288797Y-99249999D01*
X180285000Y-99211446D01*
X180285000Y-99211439D01*
X180273641Y-99096113D01*
X180228754Y-98948140D01*
X180155862Y-98811767D01*
X180100394Y-98744180D01*
X180082345Y-98722187D01*
X180082342Y-98722184D01*
X180057764Y-98692236D01*
X180027817Y-98667659D01*
X179088072Y-97727915D01*
X179088072Y-97700000D01*
X187598057Y-97700000D01*
X187625764Y-97981309D01*
X187707818Y-98251808D01*
X187841068Y-98501101D01*
X188020392Y-98719608D01*
X188238899Y-98898932D01*
X188376682Y-98972579D01*
X188184869Y-99087615D01*
X187976481Y-99276586D01*
X187808963Y-99502580D01*
X187688754Y-99756913D01*
X187648096Y-99890961D01*
X187770085Y-100113000D01*
X188913000Y-100113000D01*
X188913000Y-100093000D01*
X189167000Y-100093000D01*
X189167000Y-100113000D01*
X190309915Y-100113000D01*
X190431904Y-99890961D01*
X190391246Y-99756913D01*
X190271037Y-99502580D01*
X190103519Y-99276586D01*
X189895131Y-99087615D01*
X189703318Y-98972579D01*
X189841101Y-98898932D01*
X190059608Y-98719608D01*
X190238932Y-98501101D01*
X190372182Y-98251808D01*
X190454236Y-97981309D01*
X190481943Y-97700000D01*
X190476976Y-97649570D01*
X191915000Y-97649570D01*
X191915000Y-98050430D01*
X191993204Y-98443587D01*
X192146607Y-98813934D01*
X192369313Y-99147237D01*
X192652763Y-99430687D01*
X192986066Y-99653393D01*
X193356413Y-99806796D01*
X193749570Y-99885000D01*
X194150430Y-99885000D01*
X194543587Y-99806796D01*
X194913934Y-99653393D01*
X195247237Y-99430687D01*
X195530687Y-99147237D01*
X195753393Y-98813934D01*
X195906796Y-98443587D01*
X195985000Y-98050430D01*
X195985000Y-97649570D01*
X195906796Y-97256413D01*
X195753393Y-96886066D01*
X195530687Y-96552763D01*
X195247237Y-96269313D01*
X194913934Y-96046607D01*
X194543587Y-95893204D01*
X194150430Y-95815000D01*
X193749570Y-95815000D01*
X193356413Y-95893204D01*
X192986066Y-96046607D01*
X192652763Y-96269313D01*
X192369313Y-96552763D01*
X192146607Y-96886066D01*
X191993204Y-97256413D01*
X191915000Y-97649570D01*
X190476976Y-97649570D01*
X190454236Y-97418691D01*
X190372182Y-97148192D01*
X190238932Y-96898899D01*
X190059608Y-96680392D01*
X189841101Y-96501068D01*
X189591808Y-96367818D01*
X189321309Y-96285764D01*
X189110492Y-96265000D01*
X188969508Y-96265000D01*
X188758691Y-96285764D01*
X188488192Y-96367818D01*
X188238899Y-96501068D01*
X188020392Y-96680392D01*
X187841068Y-96898899D01*
X187707818Y-97148192D01*
X187625764Y-97418691D01*
X187598057Y-97700000D01*
X179088072Y-97700000D01*
X179088072Y-97450000D01*
X179085664Y-97425550D01*
X179085664Y-97400991D01*
X179073404Y-97276510D01*
X179054282Y-97180377D01*
X179017973Y-97060681D01*
X178980464Y-96970125D01*
X178921498Y-96859808D01*
X178867042Y-96778309D01*
X178787690Y-96681618D01*
X178718382Y-96612310D01*
X178621691Y-96532958D01*
X178540192Y-96478502D01*
X178429875Y-96419536D01*
X178339319Y-96382027D01*
X178219623Y-96345718D01*
X178123490Y-96326596D01*
X177999009Y-96314336D01*
X177974450Y-96314336D01*
X177950000Y-96311928D01*
X177450000Y-96311928D01*
X177325518Y-96324188D01*
X177300000Y-96331929D01*
X177274482Y-96324188D01*
X177150000Y-96311928D01*
X176650000Y-96311928D01*
X176625550Y-96314336D01*
X176600991Y-96314336D01*
X176476510Y-96326596D01*
X176380377Y-96345718D01*
X176260681Y-96382027D01*
X176170125Y-96419536D01*
X176059808Y-96478502D01*
X175978309Y-96532958D01*
X175881618Y-96612310D01*
X175812310Y-96681618D01*
X175732958Y-96778309D01*
X175678502Y-96859808D01*
X175649001Y-96915000D01*
X175238072Y-96915000D01*
X175238072Y-96900000D01*
X175225812Y-96775518D01*
X175189502Y-96655820D01*
X175130537Y-96545506D01*
X175051185Y-96448815D01*
X174954494Y-96369463D01*
X174844180Y-96310498D01*
X174724482Y-96274188D01*
X174600000Y-96261928D01*
X173000000Y-96261928D01*
X172875518Y-96274188D01*
X172755820Y-96310498D01*
X172645506Y-96369463D01*
X172548815Y-96448815D01*
X172469463Y-96545506D01*
X172410498Y-96655820D01*
X172374188Y-96775518D01*
X172361928Y-96900000D01*
X172361928Y-98500000D01*
X172374188Y-98624482D01*
X172410498Y-98744180D01*
X172469463Y-98854494D01*
X172548815Y-98951185D01*
X172645506Y-99030537D01*
X172755820Y-99089502D01*
X172875518Y-99125812D01*
X172893482Y-99127581D01*
X172780392Y-99220392D01*
X172601068Y-99438899D01*
X172467818Y-99688192D01*
X172385764Y-99958691D01*
X172358057Y-100240000D01*
X172385764Y-100521309D01*
X172467818Y-100791808D01*
X172601068Y-101041101D01*
X172780392Y-101259608D01*
X172998899Y-101438932D01*
X173131858Y-101510000D01*
X172998899Y-101581068D01*
X172780392Y-101760392D01*
X172601068Y-101978899D01*
X172467818Y-102228192D01*
X172385764Y-102498691D01*
X172358057Y-102780000D01*
X172385764Y-103061309D01*
X172467818Y-103331808D01*
X172601068Y-103581101D01*
X172780392Y-103799608D01*
X172998899Y-103978932D01*
X173136682Y-104052579D01*
X172944869Y-104167615D01*
X172736481Y-104356586D01*
X172568963Y-104582580D01*
X172448754Y-104836913D01*
X172408096Y-104970961D01*
X172530085Y-105193000D01*
X173673000Y-105193000D01*
X173673000Y-105173000D01*
X173927000Y-105173000D01*
X173927000Y-105193000D01*
X175069915Y-105193000D01*
X175191904Y-104970961D01*
X175151246Y-104836913D01*
X175031037Y-104582580D01*
X174863519Y-104356586D01*
X174655131Y-104167615D01*
X174463318Y-104052579D01*
X174601101Y-103978932D01*
X174819608Y-103799608D01*
X174998932Y-103581101D01*
X175132182Y-103331808D01*
X175214236Y-103061309D01*
X175241943Y-102780000D01*
X175214236Y-102498691D01*
X175132182Y-102228192D01*
X174998932Y-101978899D01*
X174819608Y-101760392D01*
X174601101Y-101581068D01*
X174468142Y-101510000D01*
X174601101Y-101438932D01*
X174819608Y-101259608D01*
X174998932Y-101041101D01*
X175028919Y-100985000D01*
X175649001Y-100985000D01*
X175678502Y-101040192D01*
X175732958Y-101121691D01*
X175812310Y-101218382D01*
X175881618Y-101287690D01*
X175978309Y-101367042D01*
X176059808Y-101421498D01*
X176170125Y-101480464D01*
X176260681Y-101517973D01*
X176380377Y-101554282D01*
X176476510Y-101573404D01*
X176600991Y-101585664D01*
X176625550Y-101585664D01*
X176650000Y-101588072D01*
X177150000Y-101588072D01*
X177274482Y-101575812D01*
X177300000Y-101568071D01*
X177325518Y-101575812D01*
X177450000Y-101588072D01*
X177665001Y-101588072D01*
X177665000Y-108529868D01*
X177568388Y-108626480D01*
X177444176Y-108812376D01*
X177358617Y-109018933D01*
X177315000Y-109238212D01*
X177315000Y-109461788D01*
X177358617Y-109681067D01*
X177444176Y-109887624D01*
X177568388Y-110073520D01*
X177665001Y-110170133D01*
X177665000Y-111513405D01*
X177650000Y-111511928D01*
X177150000Y-111511928D01*
X177125550Y-111514336D01*
X177100991Y-111514336D01*
X176976510Y-111526596D01*
X176880377Y-111545718D01*
X176760681Y-111582027D01*
X176670125Y-111619536D01*
X176559808Y-111678502D01*
X176478309Y-111732958D01*
X176381618Y-111812310D01*
X176312310Y-111881618D01*
X176232958Y-111978309D01*
X176178502Y-112059808D01*
X176149001Y-112115000D01*
X174979319Y-112115000D01*
X174819608Y-111920392D01*
X174601101Y-111741068D01*
X174468142Y-111670000D01*
X174601101Y-111598932D01*
X174819608Y-111419608D01*
X174998932Y-111201101D01*
X175132182Y-110951808D01*
X175214236Y-110681309D01*
X175241943Y-110400000D01*
X175214236Y-110118691D01*
X175132182Y-109848192D01*
X174998932Y-109598899D01*
X174819608Y-109380392D01*
X174601101Y-109201068D01*
X174468142Y-109130000D01*
X174601101Y-109058932D01*
X174819608Y-108879608D01*
X174998932Y-108661101D01*
X175132182Y-108411808D01*
X175214236Y-108141309D01*
X175241943Y-107860000D01*
X175214236Y-107578691D01*
X175132182Y-107308192D01*
X174998932Y-107058899D01*
X174819608Y-106840392D01*
X174601101Y-106661068D01*
X174463318Y-106587421D01*
X174655131Y-106472385D01*
X174863519Y-106283414D01*
X175031037Y-106057420D01*
X175151246Y-105803087D01*
X175191904Y-105669039D01*
X175069915Y-105447000D01*
X173927000Y-105447000D01*
X173927000Y-105467000D01*
X173673000Y-105467000D01*
X173673000Y-105447000D01*
X172530085Y-105447000D01*
X172408096Y-105669039D01*
X172448754Y-105803087D01*
X172568963Y-106057420D01*
X172736481Y-106283414D01*
X172944869Y-106472385D01*
X173136682Y-106587421D01*
X172998899Y-106661068D01*
X172780392Y-106840392D01*
X172601068Y-107058899D01*
X172467818Y-107308192D01*
X172385764Y-107578691D01*
X172358057Y-107860000D01*
X172385764Y-108141309D01*
X172467818Y-108411808D01*
X172601068Y-108661101D01*
X172780392Y-108879608D01*
X172998899Y-109058932D01*
X173131858Y-109130000D01*
X172998899Y-109201068D01*
X172780392Y-109380392D01*
X172601068Y-109598899D01*
X172467818Y-109848192D01*
X172385764Y-110118691D01*
X172358057Y-110400000D01*
X172385764Y-110681309D01*
X172467818Y-110951808D01*
X172601068Y-111201101D01*
X172780392Y-111419608D01*
X172998899Y-111598932D01*
X173131858Y-111670000D01*
X172998899Y-111741068D01*
X172780392Y-111920392D01*
X172601068Y-112138899D01*
X172467818Y-112388192D01*
X172385764Y-112658691D01*
X172358057Y-112940000D01*
X172385764Y-113221309D01*
X172467818Y-113491808D01*
X172601068Y-113741101D01*
X172780392Y-113959608D01*
X172998899Y-114138932D01*
X173131858Y-114210000D01*
X172998899Y-114281068D01*
X172780392Y-114460392D01*
X172601068Y-114678899D01*
X172467818Y-114928192D01*
X172385764Y-115198691D01*
X172358057Y-115480000D01*
X172385764Y-115761309D01*
X172467818Y-116031808D01*
X172601068Y-116281101D01*
X172780392Y-116499608D01*
X172998899Y-116678932D01*
X173131858Y-116750000D01*
X172998899Y-116821068D01*
X172780392Y-117000392D01*
X172601068Y-117218899D01*
X172467818Y-117468192D01*
X172385764Y-117738691D01*
X172358057Y-118020000D01*
X172385764Y-118301309D01*
X172467818Y-118571808D01*
X172601068Y-118821101D01*
X172780392Y-119039608D01*
X172998899Y-119218932D01*
X173131858Y-119290000D01*
X172998899Y-119361068D01*
X172780392Y-119540392D01*
X172601068Y-119758899D01*
X172467818Y-120008192D01*
X172385764Y-120278691D01*
X172358057Y-120560000D01*
X172385764Y-120841309D01*
X172467818Y-121111808D01*
X172601068Y-121361101D01*
X172780392Y-121579608D01*
X172998899Y-121758932D01*
X173131858Y-121830000D01*
X172998899Y-121901068D01*
X172780392Y-122080392D01*
X172601068Y-122298899D01*
X172467818Y-122548192D01*
X172385764Y-122818691D01*
X172358057Y-123100000D01*
X172385764Y-123381309D01*
X172467818Y-123651808D01*
X172601068Y-123901101D01*
X172780392Y-124119608D01*
X172998899Y-124298932D01*
X173131858Y-124370000D01*
X172998899Y-124441068D01*
X172780392Y-124620392D01*
X172601068Y-124838899D01*
X172467818Y-125088192D01*
X172385764Y-125358691D01*
X172358057Y-125640000D01*
X172385764Y-125921309D01*
X172467818Y-126191808D01*
X172601068Y-126441101D01*
X172780392Y-126659608D01*
X172998899Y-126838932D01*
X173131858Y-126910000D01*
X172998899Y-126981068D01*
X172780392Y-127160392D01*
X172601068Y-127378899D01*
X172467818Y-127628192D01*
X172385764Y-127898691D01*
X172358057Y-128180000D01*
X172385764Y-128461309D01*
X172467818Y-128731808D01*
X172601068Y-128981101D01*
X172780392Y-129199608D01*
X172998899Y-129378932D01*
X173131858Y-129450000D01*
X172998899Y-129521068D01*
X172780392Y-129700392D01*
X172601068Y-129918899D01*
X172467818Y-130168192D01*
X172385764Y-130438691D01*
X172358057Y-130720000D01*
X172385764Y-131001309D01*
X172467818Y-131271808D01*
X172601068Y-131521101D01*
X172780392Y-131739608D01*
X172998899Y-131918932D01*
X173131858Y-131990000D01*
X172998899Y-132061068D01*
X172780392Y-132240392D01*
X172601068Y-132458899D01*
X172467818Y-132708192D01*
X172385764Y-132978691D01*
X172358057Y-133260000D01*
X172385764Y-133541309D01*
X172467818Y-133811808D01*
X172601068Y-134061101D01*
X172780392Y-134279608D01*
X172998899Y-134458932D01*
X173248192Y-134592182D01*
X173518691Y-134674236D01*
X173729508Y-134695000D01*
X173870492Y-134695000D01*
X174081309Y-134674236D01*
X174351808Y-134592182D01*
X174601101Y-134458932D01*
X174819608Y-134279608D01*
X174998932Y-134061101D01*
X175007538Y-134045000D01*
X175284843Y-134045000D01*
X175841488Y-134601645D01*
X175826596Y-134676510D01*
X175814336Y-134800991D01*
X175814336Y-134825550D01*
X175811928Y-134850000D01*
X175811928Y-135350000D01*
X175813405Y-135365000D01*
X168642319Y-135365000D01*
X168685000Y-135150430D01*
X168685000Y-134749570D01*
X168606796Y-134356413D01*
X168453393Y-133986066D01*
X168230687Y-133652763D01*
X167947237Y-133369313D01*
X167613934Y-133146607D01*
X167243587Y-132993204D01*
X166850430Y-132915000D01*
X166449570Y-132915000D01*
X166056413Y-132993204D01*
X165686066Y-133146607D01*
X165352763Y-133369313D01*
X165069313Y-133652763D01*
X164846607Y-133986066D01*
X164693204Y-134356413D01*
X164615000Y-134749570D01*
X164615000Y-135150430D01*
X164693204Y-135543587D01*
X164846607Y-135913934D01*
X165069313Y-136247237D01*
X165352763Y-136530687D01*
X165478946Y-136615000D01*
X160675158Y-136615000D01*
X159582679Y-135522521D01*
X159656796Y-135343587D01*
X159735000Y-134950430D01*
X159735000Y-134549570D01*
X159656796Y-134156413D01*
X159503393Y-133786066D01*
X159280687Y-133452763D01*
X158997237Y-133169313D01*
X158663934Y-132946607D01*
X158293587Y-132793204D01*
X157900430Y-132715000D01*
X157499570Y-132715000D01*
X157106413Y-132793204D01*
X156927478Y-132867321D01*
X156882346Y-132822189D01*
X156857765Y-132792237D01*
X156738234Y-132694139D01*
X156665327Y-132655170D01*
X134310157Y-110300000D01*
X153261928Y-110300000D01*
X153261928Y-113300000D01*
X153274188Y-113424482D01*
X153310498Y-113544180D01*
X153369463Y-113654494D01*
X153448815Y-113751185D01*
X153545506Y-113830537D01*
X153655820Y-113889502D01*
X153775518Y-113925812D01*
X153900000Y-113938072D01*
X156900000Y-113938072D01*
X157024482Y-113925812D01*
X157144180Y-113889502D01*
X157254494Y-113830537D01*
X157351185Y-113751185D01*
X157430537Y-113654494D01*
X157489502Y-113544180D01*
X157525812Y-113424482D01*
X157538072Y-113300000D01*
X157538072Y-110300000D01*
X157525812Y-110175518D01*
X157489502Y-110055820D01*
X157430537Y-109945506D01*
X157351185Y-109848815D01*
X157254494Y-109769463D01*
X157144180Y-109710498D01*
X157024482Y-109674188D01*
X156900000Y-109661928D01*
X153900000Y-109661928D01*
X153775518Y-109674188D01*
X153655820Y-109710498D01*
X153545506Y-109769463D01*
X153448815Y-109848815D01*
X153369463Y-109945506D01*
X153310498Y-110055820D01*
X153274188Y-110175518D01*
X153261928Y-110300000D01*
X134310157Y-110300000D01*
X128190157Y-104180000D01*
X153254670Y-104180000D01*
X153295892Y-104598533D01*
X153417974Y-105000982D01*
X153616223Y-105371881D01*
X153883023Y-105696977D01*
X154208119Y-105963777D01*
X154579018Y-106162026D01*
X154981467Y-106284108D01*
X155295118Y-106315000D01*
X155504882Y-106315000D01*
X155818533Y-106284108D01*
X156220982Y-106162026D01*
X156591881Y-105963777D01*
X156916977Y-105696977D01*
X157183777Y-105371881D01*
X157382026Y-105000982D01*
X157504108Y-104598533D01*
X157545330Y-104180000D01*
X157504108Y-103761467D01*
X157382026Y-103359018D01*
X157183777Y-102988119D01*
X156916977Y-102663023D01*
X156591881Y-102396223D01*
X156220982Y-102197974D01*
X155818533Y-102075892D01*
X155504882Y-102045000D01*
X155295118Y-102045000D01*
X154981467Y-102075892D01*
X154579018Y-102197974D01*
X154208119Y-102396223D01*
X153883023Y-102663023D01*
X153616223Y-102988119D01*
X153417974Y-103359018D01*
X153295892Y-103761467D01*
X153254670Y-104180000D01*
X128190157Y-104180000D01*
X121985000Y-97974843D01*
X121985000Y-97018833D01*
X153314887Y-97018833D01*
X153411375Y-97336923D01*
X153601156Y-97709956D01*
X153860066Y-98038797D01*
X154178154Y-98310809D01*
X154543197Y-98515538D01*
X154941167Y-98645117D01*
X155273000Y-98532473D01*
X155273000Y-96687000D01*
X155527000Y-96687000D01*
X155527000Y-98532473D01*
X155858833Y-98645117D01*
X156256803Y-98515538D01*
X156621846Y-98310809D01*
X156939934Y-98038797D01*
X157198844Y-97709956D01*
X157388625Y-97336923D01*
X157485113Y-97018833D01*
X157372165Y-96687000D01*
X155527000Y-96687000D01*
X155273000Y-96687000D01*
X153427835Y-96687000D01*
X153314887Y-97018833D01*
X121985000Y-97018833D01*
X121985000Y-96101167D01*
X153314887Y-96101167D01*
X153427835Y-96433000D01*
X155273000Y-96433000D01*
X155273000Y-94587527D01*
X155527000Y-94587527D01*
X155527000Y-96433000D01*
X157372165Y-96433000D01*
X157485113Y-96101167D01*
X157388625Y-95783077D01*
X157198844Y-95410044D01*
X156939934Y-95081203D01*
X156621846Y-94809191D01*
X156256803Y-94604462D01*
X155858833Y-94474883D01*
X155527000Y-94587527D01*
X155273000Y-94587527D01*
X154941167Y-94474883D01*
X154543197Y-94604462D01*
X154178154Y-94809191D01*
X153860066Y-95081203D01*
X153601156Y-95410044D01*
X153411375Y-95783077D01*
X153314887Y-96101167D01*
X121985000Y-96101167D01*
X121985000Y-90570132D01*
X122081612Y-90473520D01*
X122205824Y-90287624D01*
X122291383Y-90081067D01*
X122335000Y-89861788D01*
X122335000Y-89638212D01*
X122291383Y-89418933D01*
X122205824Y-89212376D01*
X122081612Y-89026480D01*
X121923520Y-88868388D01*
X121737624Y-88744176D01*
X121531067Y-88658617D01*
X121311788Y-88615000D01*
X121088212Y-88615000D01*
X120868933Y-88658617D01*
X120662376Y-88744176D01*
X120476480Y-88868388D01*
X120318388Y-89026480D01*
X120223549Y-89168417D01*
X120123520Y-89068388D01*
X119937624Y-88944176D01*
X119731067Y-88858617D01*
X119511788Y-88815000D01*
X119288212Y-88815000D01*
X119068933Y-88858617D01*
X118862376Y-88944176D01*
X118676480Y-89068388D01*
X118518388Y-89226480D01*
X118394176Y-89412376D01*
X118308617Y-89618933D01*
X118265000Y-89838212D01*
X100452922Y-89838212D01*
X100461283Y-87465886D01*
X136323000Y-87465886D01*
X136323000Y-87934114D01*
X136414347Y-88393345D01*
X136593530Y-88825932D01*
X136853664Y-89215249D01*
X137184751Y-89546336D01*
X137574068Y-89806470D01*
X138006655Y-89985653D01*
X138465886Y-90077000D01*
X138934114Y-90077000D01*
X139393345Y-89985653D01*
X139825932Y-89806470D01*
X140215249Y-89546336D01*
X140546336Y-89215249D01*
X140806470Y-88825932D01*
X140985653Y-88393345D01*
X141077000Y-87934114D01*
X141077000Y-87489721D01*
X151565000Y-87489721D01*
X151565000Y-87910279D01*
X151647047Y-88322756D01*
X151807988Y-88711302D01*
X152041637Y-89060983D01*
X152339017Y-89358363D01*
X152688698Y-89592012D01*
X153077244Y-89752953D01*
X153489721Y-89835000D01*
X153910279Y-89835000D01*
X154322756Y-89752953D01*
X154711302Y-89592012D01*
X155060983Y-89358363D01*
X155358363Y-89060983D01*
X155592012Y-88711302D01*
X155752953Y-88322756D01*
X155835000Y-87910279D01*
X155835000Y-87489721D01*
X155752953Y-87077244D01*
X155592012Y-86688698D01*
X155358363Y-86339017D01*
X155060983Y-86041637D01*
X154711302Y-85807988D01*
X154322756Y-85647047D01*
X153910279Y-85565000D01*
X153489721Y-85565000D01*
X153077244Y-85647047D01*
X152688698Y-85807988D01*
X152339017Y-86041637D01*
X152041637Y-86339017D01*
X151807988Y-86688698D01*
X151647047Y-87077244D01*
X151565000Y-87489721D01*
X141077000Y-87489721D01*
X141077000Y-87465886D01*
X140985653Y-87006655D01*
X140806470Y-86574068D01*
X140546336Y-86184751D01*
X140215249Y-85853664D01*
X139825932Y-85593530D01*
X139393345Y-85414347D01*
X138934114Y-85323000D01*
X138465886Y-85323000D01*
X138006655Y-85414347D01*
X137574068Y-85593530D01*
X137184751Y-85853664D01*
X136853664Y-86184751D01*
X136593530Y-86574068D01*
X136414347Y-87006655D01*
X136323000Y-87465886D01*
X100461283Y-87465886D01*
X100478906Y-82465886D01*
X136323000Y-82465886D01*
X136323000Y-82934114D01*
X136414347Y-83393345D01*
X136593530Y-83825932D01*
X136853664Y-84215249D01*
X137184751Y-84546336D01*
X137574068Y-84806470D01*
X138006655Y-84985653D01*
X138465886Y-85077000D01*
X138934114Y-85077000D01*
X139321217Y-85000000D01*
X159461928Y-85000000D01*
X159461928Y-87000000D01*
X159474188Y-87124482D01*
X159510498Y-87244180D01*
X159569463Y-87354494D01*
X159648815Y-87451185D01*
X159745506Y-87530537D01*
X159855820Y-87589502D01*
X159975518Y-87625812D01*
X160100000Y-87638072D01*
X162100000Y-87638072D01*
X162224482Y-87625812D01*
X162344180Y-87589502D01*
X162454494Y-87530537D01*
X162551185Y-87451185D01*
X162630537Y-87354494D01*
X162689502Y-87244180D01*
X162722496Y-87135413D01*
X165144192Y-87135413D01*
X165239956Y-87399814D01*
X165529571Y-87540704D01*
X165841108Y-87622384D01*
X166162595Y-87641718D01*
X166481675Y-87597961D01*
X166786088Y-87492795D01*
X166960044Y-87399814D01*
X167018574Y-87238212D01*
X188865000Y-87238212D01*
X188865000Y-87461788D01*
X188908617Y-87681067D01*
X188994176Y-87887624D01*
X189118388Y-88073520D01*
X189215000Y-88170132D01*
X189215001Y-89579867D01*
X189118388Y-89676480D01*
X188994176Y-89862376D01*
X188908617Y-90068933D01*
X188865000Y-90288212D01*
X188865000Y-90511788D01*
X188908617Y-90731067D01*
X188994176Y-90937624D01*
X189118388Y-91123520D01*
X189276480Y-91281612D01*
X189462376Y-91405824D01*
X189668933Y-91491383D01*
X189888212Y-91535000D01*
X190111788Y-91535000D01*
X190331067Y-91491383D01*
X190537624Y-91405824D01*
X190723520Y-91281612D01*
X190881612Y-91123520D01*
X191005824Y-90937624D01*
X191091383Y-90731067D01*
X191135000Y-90511788D01*
X191135000Y-90288212D01*
X191091383Y-90068933D01*
X191005824Y-89862376D01*
X190881612Y-89676480D01*
X190785000Y-89579868D01*
X190785000Y-88170132D01*
X190881612Y-88073520D01*
X191005824Y-87887624D01*
X191091383Y-87681067D01*
X191135000Y-87461788D01*
X191135000Y-87238212D01*
X191091383Y-87018933D01*
X191005824Y-86812376D01*
X190881612Y-86626480D01*
X190723520Y-86468388D01*
X190537624Y-86344176D01*
X190331067Y-86258617D01*
X190111788Y-86215000D01*
X189888212Y-86215000D01*
X189668933Y-86258617D01*
X189462376Y-86344176D01*
X189276480Y-86468388D01*
X189118388Y-86626480D01*
X188994176Y-86812376D01*
X188908617Y-87018933D01*
X188865000Y-87238212D01*
X167018574Y-87238212D01*
X167055808Y-87135413D01*
X166100000Y-86179605D01*
X165144192Y-87135413D01*
X162722496Y-87135413D01*
X162725812Y-87124482D01*
X162738072Y-87000000D01*
X162738072Y-86062595D01*
X164458282Y-86062595D01*
X164502039Y-86381675D01*
X164607205Y-86686088D01*
X164700186Y-86860044D01*
X164964587Y-86955808D01*
X165920395Y-86000000D01*
X166279605Y-86000000D01*
X167235413Y-86955808D01*
X167499814Y-86860044D01*
X167640704Y-86570429D01*
X167722384Y-86258892D01*
X167741718Y-85937405D01*
X167697961Y-85618325D01*
X167592795Y-85313912D01*
X167499814Y-85139956D01*
X167235413Y-85044192D01*
X166279605Y-86000000D01*
X165920395Y-86000000D01*
X164964587Y-85044192D01*
X164700186Y-85139956D01*
X164559296Y-85429571D01*
X164477616Y-85741108D01*
X164458282Y-86062595D01*
X162738072Y-86062595D01*
X162738072Y-85000000D01*
X162725812Y-84875518D01*
X162722497Y-84864587D01*
X165144192Y-84864587D01*
X166100000Y-85820395D01*
X167055808Y-84864587D01*
X166960044Y-84600186D01*
X166670429Y-84459296D01*
X166358892Y-84377616D01*
X166037405Y-84358282D01*
X165718325Y-84402039D01*
X165413912Y-84507205D01*
X165239956Y-84600186D01*
X165144192Y-84864587D01*
X162722497Y-84864587D01*
X162689502Y-84755820D01*
X162630537Y-84645506D01*
X162551185Y-84548815D01*
X162454494Y-84469463D01*
X162344180Y-84410498D01*
X162224482Y-84374188D01*
X162100000Y-84361928D01*
X160100000Y-84361928D01*
X159975518Y-84374188D01*
X159855820Y-84410498D01*
X159745506Y-84469463D01*
X159648815Y-84548815D01*
X159569463Y-84645506D01*
X159510498Y-84755820D01*
X159474188Y-84875518D01*
X159461928Y-85000000D01*
X139321217Y-85000000D01*
X139393345Y-84985653D01*
X139825932Y-84806470D01*
X140215249Y-84546336D01*
X140546336Y-84215249D01*
X140806470Y-83825932D01*
X140985653Y-83393345D01*
X141077000Y-82934114D01*
X141077000Y-82489721D01*
X151565000Y-82489721D01*
X151565000Y-82910279D01*
X151647047Y-83322756D01*
X151807988Y-83711302D01*
X152041637Y-84060983D01*
X152339017Y-84358363D01*
X152688698Y-84592012D01*
X153077244Y-84752953D01*
X153489721Y-84835000D01*
X153910279Y-84835000D01*
X154322756Y-84752953D01*
X154711302Y-84592012D01*
X155060983Y-84358363D01*
X155358363Y-84060983D01*
X155592012Y-83711302D01*
X155752953Y-83322756D01*
X155835000Y-82910279D01*
X155835000Y-82489721D01*
X155752953Y-82077244D01*
X155592012Y-81688698D01*
X155358363Y-81339017D01*
X155060983Y-81041637D01*
X154711302Y-80807988D01*
X154322756Y-80647047D01*
X153910279Y-80565000D01*
X153489721Y-80565000D01*
X153077244Y-80647047D01*
X152688698Y-80807988D01*
X152339017Y-81041637D01*
X152041637Y-81339017D01*
X151807988Y-81688698D01*
X151647047Y-82077244D01*
X151565000Y-82489721D01*
X141077000Y-82489721D01*
X141077000Y-82465886D01*
X140985653Y-82006655D01*
X140806470Y-81574068D01*
X140546336Y-81184751D01*
X140215249Y-80853664D01*
X139825932Y-80593530D01*
X139393345Y-80414347D01*
X138934114Y-80323000D01*
X138465886Y-80323000D01*
X138006655Y-80414347D01*
X137574068Y-80593530D01*
X137184751Y-80853664D01*
X136853664Y-81184751D01*
X136593530Y-81574068D01*
X136414347Y-82006655D01*
X136323000Y-82465886D01*
X100478906Y-82465886D01*
X100486757Y-80238212D01*
X180265000Y-80238212D01*
X180265000Y-80461788D01*
X180308617Y-80681067D01*
X180394176Y-80887624D01*
X180515000Y-81068450D01*
X180515001Y-82981549D01*
X180394176Y-83162376D01*
X180308617Y-83368933D01*
X180265000Y-83588212D01*
X180265000Y-83811788D01*
X180308617Y-84031067D01*
X180394176Y-84237624D01*
X180518388Y-84423520D01*
X180676480Y-84581612D01*
X180862376Y-84705824D01*
X181068933Y-84791383D01*
X181288212Y-84835000D01*
X181511788Y-84835000D01*
X181731067Y-84791383D01*
X181937624Y-84705824D01*
X182123520Y-84581612D01*
X182281612Y-84423520D01*
X182405824Y-84237624D01*
X182491383Y-84031067D01*
X182535000Y-83811788D01*
X182535000Y-83588212D01*
X182491383Y-83368933D01*
X182405824Y-83162376D01*
X182285000Y-82981550D01*
X182285000Y-81068450D01*
X182405824Y-80887624D01*
X182491383Y-80681067D01*
X182535000Y-80461788D01*
X182535000Y-80238212D01*
X182491383Y-80018933D01*
X182405824Y-79812376D01*
X182281612Y-79626480D01*
X182123520Y-79468388D01*
X181937624Y-79344176D01*
X181731067Y-79258617D01*
X181511788Y-79215000D01*
X181288212Y-79215000D01*
X181068933Y-79258617D01*
X180862376Y-79344176D01*
X180676480Y-79468388D01*
X180518388Y-79626480D01*
X180394176Y-79812376D01*
X180308617Y-80018933D01*
X180265000Y-80238212D01*
X100486757Y-80238212D01*
X100533860Y-66875000D01*
X109393757Y-66875000D01*
X109393757Y-69125000D01*
X109410690Y-69296922D01*
X109460838Y-69462237D01*
X109542273Y-69614592D01*
X109651867Y-69748133D01*
X109785408Y-69857727D01*
X109937763Y-69939162D01*
X110103078Y-69989310D01*
X110275000Y-70006243D01*
X116525000Y-70006243D01*
X116696922Y-69989310D01*
X116862237Y-69939162D01*
X117014592Y-69857727D01*
X117148133Y-69748133D01*
X117257727Y-69614592D01*
X117339162Y-69462237D01*
X117389310Y-69296922D01*
X117406243Y-69125000D01*
X117536928Y-69125000D01*
X117549188Y-69249482D01*
X117585498Y-69369180D01*
X117644463Y-69479494D01*
X117723815Y-69576185D01*
X117820506Y-69655537D01*
X117930820Y-69714502D01*
X118050518Y-69750812D01*
X118175000Y-69763072D01*
X121014250Y-69760000D01*
X121173000Y-69601250D01*
X121173000Y-68127000D01*
X121427000Y-68127000D01*
X121427000Y-69601250D01*
X121585750Y-69760000D01*
X124425000Y-69763072D01*
X124549482Y-69750812D01*
X124669180Y-69714502D01*
X124779494Y-69655537D01*
X124876185Y-69576185D01*
X124955537Y-69479494D01*
X125014502Y-69369180D01*
X125050812Y-69249482D01*
X125063072Y-69125000D01*
X125060000Y-68285750D01*
X124901250Y-68127000D01*
X121427000Y-68127000D01*
X121173000Y-68127000D01*
X117698750Y-68127000D01*
X117540000Y-68285750D01*
X117536928Y-69125000D01*
X117406243Y-69125000D01*
X117406243Y-66875000D01*
X117536928Y-66875000D01*
X117540000Y-67714250D01*
X117698750Y-67873000D01*
X121173000Y-67873000D01*
X121173000Y-66398750D01*
X121427000Y-66398750D01*
X121427000Y-67873000D01*
X124901250Y-67873000D01*
X125060000Y-67714250D01*
X125063072Y-66875000D01*
X137293757Y-66875000D01*
X137293757Y-69125000D01*
X137310690Y-69296922D01*
X137360838Y-69462237D01*
X137442273Y-69614592D01*
X137551867Y-69748133D01*
X137685408Y-69857727D01*
X137837763Y-69939162D01*
X138003078Y-69989310D01*
X138175000Y-70006243D01*
X144425000Y-70006243D01*
X144596922Y-69989310D01*
X144627612Y-69980000D01*
X172108299Y-69980000D01*
X172135040Y-70251507D01*
X172214236Y-70512581D01*
X172342843Y-70753188D01*
X172515919Y-70964081D01*
X172726812Y-71137157D01*
X172967419Y-71265764D01*
X173228493Y-71344960D01*
X173431963Y-71365000D01*
X174368037Y-71365000D01*
X174571507Y-71344960D01*
X174832581Y-71265764D01*
X175073188Y-71137157D01*
X175284081Y-70964081D01*
X175457157Y-70753188D01*
X175585764Y-70512581D01*
X175664960Y-70251507D01*
X175691701Y-69980000D01*
X175664960Y-69708493D01*
X175585764Y-69447419D01*
X175457157Y-69206812D01*
X175284081Y-68995919D01*
X175073188Y-68822843D01*
X174857422Y-68707514D01*
X174947349Y-68670972D01*
X175175061Y-68521028D01*
X175369145Y-68329540D01*
X175522142Y-68103868D01*
X175628173Y-67852684D01*
X175642318Y-67781185D01*
X175519656Y-67567000D01*
X174027000Y-67567000D01*
X174027000Y-67587000D01*
X173773000Y-67587000D01*
X173773000Y-67567000D01*
X172280344Y-67567000D01*
X172157682Y-67781185D01*
X172171827Y-67852684D01*
X172277858Y-68103868D01*
X172430855Y-68329540D01*
X172624939Y-68521028D01*
X172852651Y-68670972D01*
X172942578Y-68707514D01*
X172726812Y-68822843D01*
X172515919Y-68995919D01*
X172342843Y-69206812D01*
X172214236Y-69447419D01*
X172135040Y-69708493D01*
X172108299Y-69980000D01*
X144627612Y-69980000D01*
X144762237Y-69939162D01*
X144914592Y-69857727D01*
X145048133Y-69748133D01*
X145157727Y-69614592D01*
X145239162Y-69462237D01*
X145289310Y-69296922D01*
X145306243Y-69125000D01*
X145436928Y-69125000D01*
X145449188Y-69249482D01*
X145485498Y-69369180D01*
X145544463Y-69479494D01*
X145623815Y-69576185D01*
X145720506Y-69655537D01*
X145830820Y-69714502D01*
X145950518Y-69750812D01*
X146075000Y-69763072D01*
X148914250Y-69760000D01*
X149073000Y-69601250D01*
X149073000Y-68127000D01*
X149327000Y-68127000D01*
X149327000Y-69601250D01*
X149485750Y-69760000D01*
X152325000Y-69763072D01*
X152449482Y-69750812D01*
X152569180Y-69714502D01*
X152679494Y-69655537D01*
X152776185Y-69576185D01*
X152855537Y-69479494D01*
X152914502Y-69369180D01*
X152950812Y-69249482D01*
X152963072Y-69125000D01*
X152960000Y-68285750D01*
X152801250Y-68127000D01*
X149327000Y-68127000D01*
X149073000Y-68127000D01*
X145598750Y-68127000D01*
X145440000Y-68285750D01*
X145436928Y-69125000D01*
X145306243Y-69125000D01*
X145306243Y-66875000D01*
X145436928Y-66875000D01*
X145440000Y-67714250D01*
X145598750Y-67873000D01*
X149073000Y-67873000D01*
X149073000Y-66398750D01*
X149327000Y-66398750D01*
X149327000Y-67873000D01*
X152801250Y-67873000D01*
X152960000Y-67714250D01*
X152963072Y-66875000D01*
X152950812Y-66750518D01*
X152914502Y-66630820D01*
X152855537Y-66520506D01*
X152776185Y-66423815D01*
X152679494Y-66344463D01*
X152569180Y-66285498D01*
X152449482Y-66249188D01*
X152325000Y-66236928D01*
X149485750Y-66240000D01*
X149327000Y-66398750D01*
X149073000Y-66398750D01*
X148914250Y-66240000D01*
X146075000Y-66236928D01*
X145950518Y-66249188D01*
X145830820Y-66285498D01*
X145720506Y-66344463D01*
X145623815Y-66423815D01*
X145544463Y-66520506D01*
X145485498Y-66630820D01*
X145449188Y-66750518D01*
X145436928Y-66875000D01*
X145306243Y-66875000D01*
X145289310Y-66703078D01*
X145239162Y-66537763D01*
X145157727Y-66385408D01*
X145048133Y-66251867D01*
X144914592Y-66142273D01*
X144762237Y-66060838D01*
X144596922Y-66010690D01*
X144425000Y-65993757D01*
X138175000Y-65993757D01*
X138003078Y-66010690D01*
X137837763Y-66060838D01*
X137685408Y-66142273D01*
X137551867Y-66251867D01*
X137442273Y-66385408D01*
X137360838Y-66537763D01*
X137310690Y-66703078D01*
X137293757Y-66875000D01*
X125063072Y-66875000D01*
X125050812Y-66750518D01*
X125014502Y-66630820D01*
X124955537Y-66520506D01*
X124876185Y-66423815D01*
X124779494Y-66344463D01*
X124669180Y-66285498D01*
X124549482Y-66249188D01*
X124425000Y-66236928D01*
X121585750Y-66240000D01*
X121427000Y-66398750D01*
X121173000Y-66398750D01*
X121014250Y-66240000D01*
X118175000Y-66236928D01*
X118050518Y-66249188D01*
X117930820Y-66285498D01*
X117820506Y-66344463D01*
X117723815Y-66423815D01*
X117644463Y-66520506D01*
X117585498Y-66630820D01*
X117549188Y-66750518D01*
X117536928Y-66875000D01*
X117406243Y-66875000D01*
X117389310Y-66703078D01*
X117339162Y-66537763D01*
X117257727Y-66385408D01*
X117148133Y-66251867D01*
X117014592Y-66142273D01*
X116862237Y-66060838D01*
X116696922Y-66010690D01*
X116525000Y-65993757D01*
X110275000Y-65993757D01*
X110103078Y-66010690D01*
X109937763Y-66060838D01*
X109785408Y-66142273D01*
X109651867Y-66251867D01*
X109542273Y-66385408D01*
X109460838Y-66537763D01*
X109410690Y-66703078D01*
X109393757Y-66875000D01*
X100533860Y-66875000D01*
X100543464Y-64150000D01*
X171868757Y-64150000D01*
X171868757Y-65650000D01*
X171885690Y-65821922D01*
X171935838Y-65987237D01*
X172017273Y-66139592D01*
X172126867Y-66273133D01*
X172260408Y-66382727D01*
X172412763Y-66464162D01*
X172493500Y-66488653D01*
X172430855Y-66550460D01*
X172277858Y-66776132D01*
X172171827Y-67027316D01*
X172157682Y-67098815D01*
X172280344Y-67313000D01*
X173773000Y-67313000D01*
X173773000Y-67293000D01*
X174027000Y-67293000D01*
X174027000Y-67313000D01*
X175519656Y-67313000D01*
X175642318Y-67098815D01*
X175628173Y-67027316D01*
X175522142Y-66776132D01*
X175369145Y-66550460D01*
X175306500Y-66488653D01*
X175387237Y-66464162D01*
X175539592Y-66382727D01*
X175673133Y-66273133D01*
X175782727Y-66139592D01*
X175864162Y-65987237D01*
X175914310Y-65821922D01*
X175931243Y-65650000D01*
X175931243Y-64351081D01*
X188188000Y-64351081D01*
X188188000Y-64648919D01*
X188246105Y-64941034D01*
X188360083Y-65216201D01*
X188525553Y-65463844D01*
X188736156Y-65674447D01*
X188983799Y-65839917D01*
X189258966Y-65953895D01*
X189551081Y-66012000D01*
X189848919Y-66012000D01*
X190141034Y-65953895D01*
X190147827Y-65951081D01*
X193288000Y-65951081D01*
X193288000Y-66248919D01*
X193346105Y-66541034D01*
X193460083Y-66816201D01*
X193625553Y-67063844D01*
X193836156Y-67274447D01*
X194083799Y-67439917D01*
X194358966Y-67553895D01*
X194651081Y-67612000D01*
X194948919Y-67612000D01*
X195241034Y-67553895D01*
X195516201Y-67439917D01*
X195763844Y-67274447D01*
X195974447Y-67063844D01*
X196139917Y-66816201D01*
X196253895Y-66541034D01*
X196312000Y-66248919D01*
X196312000Y-65951081D01*
X196253895Y-65658966D01*
X196139917Y-65383799D01*
X195974447Y-65136156D01*
X195763844Y-64925553D01*
X195516201Y-64760083D01*
X195241034Y-64646105D01*
X194948919Y-64588000D01*
X194651081Y-64588000D01*
X194358966Y-64646105D01*
X194083799Y-64760083D01*
X193836156Y-64925553D01*
X193625553Y-65136156D01*
X193460083Y-65383799D01*
X193346105Y-65658966D01*
X193288000Y-65951081D01*
X190147827Y-65951081D01*
X190416201Y-65839917D01*
X190663844Y-65674447D01*
X190874447Y-65463844D01*
X191039917Y-65216201D01*
X191153895Y-64941034D01*
X191212000Y-64648919D01*
X191212000Y-64351081D01*
X191153895Y-64058966D01*
X191039917Y-63783799D01*
X190874447Y-63536156D01*
X190663844Y-63325553D01*
X190416201Y-63160083D01*
X190141034Y-63046105D01*
X189848919Y-62988000D01*
X189551081Y-62988000D01*
X189258966Y-63046105D01*
X188983799Y-63160083D01*
X188736156Y-63325553D01*
X188525553Y-63536156D01*
X188360083Y-63783799D01*
X188246105Y-64058966D01*
X188188000Y-64351081D01*
X175931243Y-64351081D01*
X175931243Y-64150000D01*
X175914310Y-63978078D01*
X175864162Y-63812763D01*
X175782727Y-63660408D01*
X175673133Y-63526867D01*
X175539592Y-63417273D01*
X175387237Y-63335838D01*
X175221922Y-63285690D01*
X175050000Y-63268757D01*
X172750000Y-63268757D01*
X172578078Y-63285690D01*
X172412763Y-63335838D01*
X172260408Y-63417273D01*
X172126867Y-63526867D01*
X172017273Y-63660408D01*
X171935838Y-63812763D01*
X171885690Y-63978078D01*
X171868757Y-64150000D01*
X100543464Y-64150000D01*
X100572207Y-55995433D01*
X162423000Y-55995433D01*
X162423000Y-56404567D01*
X162502818Y-56805839D01*
X162659386Y-57183829D01*
X162886689Y-57524011D01*
X163175989Y-57813311D01*
X163516171Y-58040614D01*
X163894161Y-58197182D01*
X164295433Y-58277000D01*
X164704567Y-58277000D01*
X165105839Y-58197182D01*
X165483829Y-58040614D01*
X165824011Y-57813311D01*
X166113311Y-57524011D01*
X166340614Y-57183829D01*
X166497182Y-56805839D01*
X166577000Y-56404567D01*
X166577000Y-56200000D01*
X192892951Y-56200000D01*
X192933053Y-56607163D01*
X193051818Y-56998679D01*
X193244682Y-57359502D01*
X193504233Y-57675767D01*
X193820498Y-57935318D01*
X194181321Y-58128182D01*
X194572837Y-58246947D01*
X194877971Y-58277000D01*
X195082029Y-58277000D01*
X195387163Y-58246947D01*
X195778679Y-58128182D01*
X196139502Y-57935318D01*
X196455767Y-57675767D01*
X196715318Y-57359502D01*
X196908182Y-56998679D01*
X197026947Y-56607163D01*
X197067049Y-56200000D01*
X197026947Y-55792837D01*
X196908182Y-55401321D01*
X196715318Y-55040498D01*
X196455767Y-54724233D01*
X196139502Y-54464682D01*
X195778679Y-54271818D01*
X195387163Y-54153053D01*
X195082029Y-54123000D01*
X194877971Y-54123000D01*
X194572837Y-54153053D01*
X194181321Y-54271818D01*
X193820498Y-54464682D01*
X193504233Y-54724233D01*
X193244682Y-55040498D01*
X193051818Y-55401321D01*
X192933053Y-55792837D01*
X192892951Y-56200000D01*
X166577000Y-56200000D01*
X166577000Y-55995433D01*
X166497182Y-55594161D01*
X166340614Y-55216171D01*
X166113311Y-54875989D01*
X165824011Y-54586689D01*
X165483829Y-54359386D01*
X165105839Y-54202818D01*
X164704567Y-54123000D01*
X164295433Y-54123000D01*
X163894161Y-54202818D01*
X163516171Y-54359386D01*
X163175989Y-54586689D01*
X162886689Y-54875989D01*
X162659386Y-55216171D01*
X162502818Y-55594161D01*
X162423000Y-55995433D01*
X100572207Y-55995433D01*
X100594438Y-49688212D01*
X109015000Y-49688212D01*
X109015000Y-49911788D01*
X109058617Y-50131067D01*
X109144176Y-50337624D01*
X109268388Y-50523520D01*
X109426480Y-50681612D01*
X109612376Y-50805824D01*
X109818933Y-50891383D01*
X110038212Y-50935000D01*
X110261788Y-50935000D01*
X110481067Y-50891383D01*
X110687624Y-50805824D01*
X110873520Y-50681612D01*
X111031612Y-50523520D01*
X111155824Y-50337624D01*
X111241383Y-50131067D01*
X111285000Y-49911788D01*
X111285000Y-49688212D01*
X123515000Y-49688212D01*
X123515000Y-49911788D01*
X123558617Y-50131067D01*
X123644176Y-50337624D01*
X123768388Y-50523520D01*
X123926480Y-50681612D01*
X124112376Y-50805824D01*
X124318933Y-50891383D01*
X124538212Y-50935000D01*
X124761788Y-50935000D01*
X124981067Y-50891383D01*
X125187624Y-50805824D01*
X125373520Y-50681612D01*
X125531612Y-50523520D01*
X125655824Y-50337624D01*
X125741383Y-50131067D01*
X125785000Y-49911788D01*
X125785000Y-49688212D01*
X136865000Y-49688212D01*
X136865000Y-49911788D01*
X136908617Y-50131067D01*
X136994176Y-50337624D01*
X137118388Y-50523520D01*
X137276480Y-50681612D01*
X137462376Y-50805824D01*
X137668933Y-50891383D01*
X137888212Y-50935000D01*
X138111788Y-50935000D01*
X138331067Y-50891383D01*
X138537624Y-50805824D01*
X138723520Y-50681612D01*
X138881612Y-50523520D01*
X139005824Y-50337624D01*
X139091383Y-50131067D01*
X139135000Y-49911788D01*
X139135000Y-49688212D01*
X151365000Y-49688212D01*
X151365000Y-49911788D01*
X151408617Y-50131067D01*
X151494176Y-50337624D01*
X151618388Y-50523520D01*
X151776480Y-50681612D01*
X151962376Y-50805824D01*
X152168933Y-50891383D01*
X152388212Y-50935000D01*
X152611788Y-50935000D01*
X152831067Y-50891383D01*
X153037624Y-50805824D01*
X153223520Y-50681612D01*
X153381612Y-50523520D01*
X153505824Y-50337624D01*
X153591383Y-50131067D01*
X153635000Y-49911788D01*
X153635000Y-49688212D01*
X153591383Y-49468933D01*
X153505824Y-49262376D01*
X153381612Y-49076480D01*
X153223520Y-48918388D01*
X153037624Y-48794176D01*
X152831067Y-48708617D01*
X152611788Y-48665000D01*
X152388212Y-48665000D01*
X152168933Y-48708617D01*
X151962376Y-48794176D01*
X151776480Y-48918388D01*
X151618388Y-49076480D01*
X151494176Y-49262376D01*
X151408617Y-49468933D01*
X151365000Y-49688212D01*
X139135000Y-49688212D01*
X139091383Y-49468933D01*
X139005824Y-49262376D01*
X138881612Y-49076480D01*
X138723520Y-48918388D01*
X138537624Y-48794176D01*
X138331067Y-48708617D01*
X138111788Y-48665000D01*
X137888212Y-48665000D01*
X137668933Y-48708617D01*
X137462376Y-48794176D01*
X137276480Y-48918388D01*
X137118388Y-49076480D01*
X136994176Y-49262376D01*
X136908617Y-49468933D01*
X136865000Y-49688212D01*
X125785000Y-49688212D01*
X125741383Y-49468933D01*
X125655824Y-49262376D01*
X125531612Y-49076480D01*
X125373520Y-48918388D01*
X125187624Y-48794176D01*
X124981067Y-48708617D01*
X124761788Y-48665000D01*
X124538212Y-48665000D01*
X124318933Y-48708617D01*
X124112376Y-48794176D01*
X123926480Y-48918388D01*
X123768388Y-49076480D01*
X123644176Y-49262376D01*
X123558617Y-49468933D01*
X123515000Y-49688212D01*
X111285000Y-49688212D01*
X111241383Y-49468933D01*
X111155824Y-49262376D01*
X111031612Y-49076480D01*
X110873520Y-48918388D01*
X110687624Y-48794176D01*
X110481067Y-48708617D01*
X110261788Y-48665000D01*
X110038212Y-48665000D01*
X109818933Y-48708617D01*
X109612376Y-48794176D01*
X109426480Y-48918388D01*
X109268388Y-49076480D01*
X109144176Y-49262376D01*
X109058617Y-49468933D01*
X109015000Y-49688212D01*
X100594438Y-49688212D01*
X100606749Y-46195433D01*
X162423000Y-46195433D01*
X162423000Y-46604567D01*
X162502818Y-47005839D01*
X162659386Y-47383829D01*
X162886689Y-47724011D01*
X163175989Y-48013311D01*
X163516171Y-48240614D01*
X163894161Y-48397182D01*
X164295433Y-48477000D01*
X164704567Y-48477000D01*
X165105839Y-48397182D01*
X165483829Y-48240614D01*
X165824011Y-48013311D01*
X166113311Y-47724011D01*
X166340614Y-47383829D01*
X166497182Y-47005839D01*
X166577000Y-46604567D01*
X166577000Y-46400000D01*
X192892951Y-46400000D01*
X192933053Y-46807163D01*
X193051818Y-47198679D01*
X193244682Y-47559502D01*
X193504233Y-47875767D01*
X193820498Y-48135318D01*
X194181321Y-48328182D01*
X194572837Y-48446947D01*
X194877971Y-48477000D01*
X195082029Y-48477000D01*
X195387163Y-48446947D01*
X195778679Y-48328182D01*
X196139502Y-48135318D01*
X196455767Y-47875767D01*
X196715318Y-47559502D01*
X196908182Y-47198679D01*
X197026947Y-46807163D01*
X197067049Y-46400000D01*
X197026947Y-45992837D01*
X196908182Y-45601321D01*
X196715318Y-45240498D01*
X196455767Y-44924233D01*
X196139502Y-44664682D01*
X195778679Y-44471818D01*
X195387163Y-44353053D01*
X195082029Y-44323000D01*
X194877971Y-44323000D01*
X194572837Y-44353053D01*
X194181321Y-44471818D01*
X193820498Y-44664682D01*
X193504233Y-44924233D01*
X193244682Y-45240498D01*
X193051818Y-45601321D01*
X192933053Y-45992837D01*
X192892951Y-46400000D01*
X166577000Y-46400000D01*
X166577000Y-46195433D01*
X166497182Y-45794161D01*
X166340614Y-45416171D01*
X166113311Y-45075989D01*
X165824011Y-44786689D01*
X165483829Y-44559386D01*
X165105839Y-44402818D01*
X164704567Y-44323000D01*
X164295433Y-44323000D01*
X163894161Y-44402818D01*
X163516171Y-44559386D01*
X163175989Y-44786689D01*
X162886689Y-45075989D01*
X162659386Y-45416171D01*
X162502818Y-45794161D01*
X162423000Y-46195433D01*
X100606749Y-46195433D01*
X100623479Y-41449131D01*
X100641309Y-41273591D01*
X100691058Y-41110828D01*
X100771465Y-40960819D01*
X100879467Y-40829278D01*
X101010956Y-40721209D01*
X101160922Y-40640728D01*
X101323666Y-40590896D01*
X101499187Y-40572978D01*
X198840226Y-40181066D01*
X199017183Y-40197821D01*
X199017183Y-40197821D01*
G37*
X199017183Y-40197821D02*
X199181411Y-40247053D01*
X199332841Y-40327456D01*
X199465625Y-40435926D01*
X199574626Y-40568269D01*
X199655639Y-40719376D01*
X199705535Y-40883414D01*
X199723000Y-41060286D01*
X199723000Y-138743766D01*
X199705624Y-138920189D01*
X199655978Y-139083850D01*
X199575362Y-139234672D01*
X199466870Y-139366870D01*
X199334672Y-139475362D01*
X199183850Y-139555978D01*
X199020189Y-139605624D01*
X198843766Y-139623000D01*
X102760758Y-139623000D01*
X103093587Y-139556796D01*
X103463934Y-139403393D01*
X103797237Y-139180687D01*
X104080687Y-138897237D01*
X104303393Y-138563934D01*
X104456796Y-138193587D01*
X104535000Y-137800430D01*
X104535000Y-137399570D01*
X104456796Y-137006413D01*
X104371119Y-136799570D01*
X117415000Y-136799570D01*
X117415000Y-137200430D01*
X117493204Y-137593587D01*
X117646607Y-137963934D01*
X117869313Y-138297237D01*
X118152763Y-138580687D01*
X118486066Y-138803393D01*
X118856413Y-138956796D01*
X119249570Y-139035000D01*
X119650430Y-139035000D01*
X120043587Y-138956796D01*
X120413934Y-138803393D01*
X120747237Y-138580687D01*
X121030687Y-138297237D01*
X121253393Y-137963934D01*
X121406796Y-137593587D01*
X121485000Y-137200430D01*
X121485000Y-136799570D01*
X121406796Y-136406413D01*
X121253393Y-136036066D01*
X121030687Y-135702763D01*
X120747237Y-135419313D01*
X120413934Y-135196607D01*
X120043587Y-135043204D01*
X119650430Y-134965000D01*
X119249570Y-134965000D01*
X118856413Y-135043204D01*
X118486066Y-135196607D01*
X118152763Y-135419313D01*
X117869313Y-135702763D01*
X117646607Y-136036066D01*
X117493204Y-136406413D01*
X117415000Y-136799570D01*
X104371119Y-136799570D01*
X104303393Y-136636066D01*
X104080687Y-136302763D01*
X103797237Y-136019313D01*
X103463934Y-135796607D01*
X103093587Y-135643204D01*
X102700430Y-135565000D01*
X102299570Y-135565000D01*
X101906413Y-135643204D01*
X101536066Y-135796607D01*
X101202763Y-136019313D01*
X100919313Y-136302763D01*
X100696607Y-136636066D01*
X100543204Y-137006413D01*
X100465000Y-137399570D01*
X100465000Y-137800430D01*
X100543204Y-138193587D01*
X100696607Y-138563934D01*
X100919313Y-138897237D01*
X101202763Y-139180687D01*
X101536066Y-139403393D01*
X101906413Y-139556796D01*
X102239242Y-139623000D01*
X101159787Y-139623000D01*
X100982958Y-139605544D01*
X100818974Y-139555682D01*
X100667903Y-139474720D01*
X100535577Y-139365781D01*
X100427106Y-139233072D01*
X100346675Y-139081716D01*
X100297390Y-138917552D01*
X100280558Y-138740666D01*
X100298013Y-133788212D01*
X108865000Y-133788212D01*
X108865000Y-134011788D01*
X108908617Y-134231067D01*
X108994176Y-134437624D01*
X109118388Y-134623520D01*
X109276480Y-134781612D01*
X109462376Y-134905824D01*
X109668933Y-134991383D01*
X109888212Y-135035000D01*
X110111788Y-135035000D01*
X110331067Y-134991383D01*
X110537624Y-134905824D01*
X110723520Y-134781612D01*
X110881612Y-134623520D01*
X111005824Y-134437624D01*
X111091383Y-134231067D01*
X111135000Y-134011788D01*
X111135000Y-133788212D01*
X111091383Y-133568933D01*
X111005824Y-133362376D01*
X110881612Y-133176480D01*
X110723520Y-133018388D01*
X110537624Y-132894176D01*
X110331067Y-132808617D01*
X110111788Y-132765000D01*
X109888212Y-132765000D01*
X109668933Y-132808617D01*
X109462376Y-132894176D01*
X109276480Y-133018388D01*
X109118388Y-133176480D01*
X108994176Y-133362376D01*
X108908617Y-133568933D01*
X108865000Y-133788212D01*
X100298013Y-133788212D01*
X100320265Y-127475000D01*
X126436928Y-127475000D01*
X126436928Y-133725000D01*
X126449188Y-133849482D01*
X126485498Y-133969180D01*
X126544463Y-134079494D01*
X126623815Y-134176185D01*
X126720506Y-134255537D01*
X126830820Y-134314502D01*
X126950518Y-134350812D01*
X127075000Y-134363072D01*
X129325000Y-134363072D01*
X129449482Y-134350812D01*
X129569180Y-134314502D01*
X129679494Y-134255537D01*
X129776185Y-134176185D01*
X129855537Y-134079494D01*
X129914502Y-133969180D01*
X129950812Y-133849482D01*
X129963072Y-133725000D01*
X129963072Y-132200000D01*
X138023000Y-132200000D01*
X138023000Y-137150000D01*
X138025440Y-137174776D01*
X138032667Y-137198601D01*
X138044403Y-137220557D01*
X138060197Y-137239803D01*
X138079443Y-137255597D01*
X138101399Y-137267333D01*
X138125224Y-137274560D01*
X138150000Y-137277000D01*
X152200000Y-137277000D01*
X152224776Y-137274560D01*
X152248601Y-137267333D01*
X152270557Y-137255597D01*
X152289803Y-137239803D01*
X152305597Y-137220557D01*
X152317333Y-137198601D01*
X152324560Y-137174776D01*
X152327000Y-137150000D01*
X152327000Y-132200000D01*
X152324560Y-132175224D01*
X152317333Y-132151399D01*
X152305597Y-132129443D01*
X152289803Y-132110197D01*
X152270557Y-132094403D01*
X152248601Y-132082667D01*
X152224776Y-132075440D01*
X152200000Y-132073000D01*
X138150000Y-132073000D01*
X138125224Y-132075440D01*
X138101399Y-132082667D01*
X138079443Y-132094403D01*
X138060197Y-132110197D01*
X138044403Y-132129443D01*
X138032667Y-132151399D01*
X138025440Y-132175224D01*
X138023000Y-132200000D01*
X129963072Y-132200000D01*
X129963072Y-127475000D01*
X129950812Y-127350518D01*
X129914502Y-127230820D01*
X129855537Y-127120506D01*
X129776185Y-127023815D01*
X129679494Y-126944463D01*
X129569180Y-126885498D01*
X129449482Y-126849188D01*
X129325000Y-126836928D01*
X127075000Y-126836928D01*
X126950518Y-126849188D01*
X126830820Y-126885498D01*
X126720506Y-126944463D01*
X126623815Y-127023815D01*
X126544463Y-127120506D01*
X126485498Y-127230820D01*
X126449188Y-127350518D01*
X126436928Y-127475000D01*
X100320265Y-127475000D01*
X100349121Y-119288212D01*
X108865000Y-119288212D01*
X108865000Y-119511788D01*
X108908617Y-119731067D01*
X108994176Y-119937624D01*
X109118388Y-120123520D01*
X109276480Y-120281612D01*
X109462376Y-120405824D01*
X109668933Y-120491383D01*
X109888212Y-120535000D01*
X110111788Y-120535000D01*
X110331067Y-120491383D01*
X110537624Y-120405824D01*
X110723520Y-120281612D01*
X110881612Y-120123520D01*
X111005824Y-119937624D01*
X111091383Y-119731067D01*
X111122426Y-119575000D01*
X126436928Y-119575000D01*
X126436928Y-125825000D01*
X126449188Y-125949482D01*
X126485498Y-126069180D01*
X126544463Y-126179494D01*
X126623815Y-126276185D01*
X126720506Y-126355537D01*
X126830820Y-126414502D01*
X126950518Y-126450812D01*
X127075000Y-126463072D01*
X129325000Y-126463072D01*
X129449482Y-126450812D01*
X129569180Y-126414502D01*
X129679494Y-126355537D01*
X129776185Y-126276185D01*
X129855537Y-126179494D01*
X129914502Y-126069180D01*
X129950812Y-125949482D01*
X129963072Y-125825000D01*
X129963072Y-119575000D01*
X129950812Y-119450518D01*
X129914502Y-119330820D01*
X129855537Y-119220506D01*
X129776185Y-119123815D01*
X129679494Y-119044463D01*
X129569180Y-118985498D01*
X129449482Y-118949188D01*
X129325000Y-118936928D01*
X127075000Y-118936928D01*
X126950518Y-118949188D01*
X126830820Y-118985498D01*
X126720506Y-119044463D01*
X126623815Y-119123815D01*
X126544463Y-119220506D01*
X126485498Y-119330820D01*
X126449188Y-119450518D01*
X126436928Y-119575000D01*
X111122426Y-119575000D01*
X111135000Y-119511788D01*
X111135000Y-119288212D01*
X111091383Y-119068933D01*
X111005824Y-118862376D01*
X110881612Y-118676480D01*
X110723520Y-118518388D01*
X110537624Y-118394176D01*
X110331067Y-118308617D01*
X110111788Y-118265000D01*
X109888212Y-118265000D01*
X109668933Y-118308617D01*
X109462376Y-118394176D01*
X109276480Y-118518388D01*
X109118388Y-118676480D01*
X108994176Y-118862376D01*
X108908617Y-119068933D01*
X108865000Y-119288212D01*
X100349121Y-119288212D01*
X100429231Y-96560000D01*
X102203461Y-96560000D01*
X102249510Y-97027542D01*
X102385887Y-97477116D01*
X102607351Y-97891446D01*
X102905391Y-98254609D01*
X103268554Y-98552649D01*
X103377846Y-98611067D01*
X103083023Y-98853023D01*
X102816223Y-99178119D01*
X102617974Y-99549018D01*
X102495892Y-99951467D01*
X102454670Y-100370000D01*
X102495892Y-100788533D01*
X102617974Y-101190982D01*
X102816223Y-101561881D01*
X103083023Y-101886977D01*
X103408119Y-102153777D01*
X103634912Y-102275000D01*
X103408119Y-102396223D01*
X103083023Y-102663023D01*
X102816223Y-102988119D01*
X102617974Y-103359018D01*
X102495892Y-103761467D01*
X102454670Y-104180000D01*
X102495892Y-104598533D01*
X102617974Y-105000982D01*
X102816223Y-105371881D01*
X103083023Y-105696977D01*
X103408119Y-105963777D01*
X103634912Y-106085000D01*
X103408119Y-106206223D01*
X103083023Y-106473023D01*
X102816223Y-106798119D01*
X102617974Y-107169018D01*
X102495892Y-107571467D01*
X102454670Y-107990000D01*
X102495892Y-108408533D01*
X102617974Y-108810982D01*
X102816223Y-109181881D01*
X103083023Y-109506977D01*
X103377846Y-109748933D01*
X103268554Y-109807351D01*
X102905391Y-110105391D01*
X102607351Y-110468554D01*
X102385887Y-110882884D01*
X102249510Y-111332458D01*
X102203461Y-111800000D01*
X102249510Y-112267542D01*
X102385887Y-112717116D01*
X102607351Y-113131446D01*
X102905391Y-113494609D01*
X103268554Y-113792649D01*
X103682884Y-114014113D01*
X104132458Y-114150490D01*
X104482843Y-114185000D01*
X104717157Y-114185000D01*
X105067542Y-114150490D01*
X105517116Y-114014113D01*
X105931446Y-113792649D01*
X106294609Y-113494609D01*
X106592649Y-113131446D01*
X106814113Y-112717116D01*
X106950490Y-112267542D01*
X106996539Y-111800000D01*
X106950490Y-111332458D01*
X106814113Y-110882884D01*
X106592649Y-110468554D01*
X106294609Y-110105391D01*
X105931446Y-109807351D01*
X105822154Y-109748933D01*
X106116977Y-109506977D01*
X106383777Y-109181881D01*
X106582026Y-108810982D01*
X106704108Y-108408533D01*
X106745330Y-107990000D01*
X106704108Y-107571467D01*
X106582026Y-107169018D01*
X106383777Y-106798119D01*
X106116977Y-106473023D01*
X105791881Y-106206223D01*
X105565088Y-106085000D01*
X105791881Y-105963777D01*
X106116977Y-105696977D01*
X106383777Y-105371881D01*
X106582026Y-105000982D01*
X106704108Y-104598533D01*
X106745330Y-104180000D01*
X106704108Y-103761467D01*
X106582026Y-103359018D01*
X106383777Y-102988119D01*
X106116977Y-102663023D01*
X105791881Y-102396223D01*
X105565088Y-102275000D01*
X105791881Y-102153777D01*
X106116977Y-101886977D01*
X106383777Y-101561881D01*
X106582026Y-101190982D01*
X106704108Y-100788533D01*
X106745330Y-100370000D01*
X106704108Y-99951467D01*
X106582026Y-99549018D01*
X106383777Y-99178119D01*
X106116977Y-98853023D01*
X105822154Y-98611067D01*
X105931446Y-98552649D01*
X106294609Y-98254609D01*
X106592649Y-97891446D01*
X106814113Y-97477116D01*
X106950490Y-97027542D01*
X106996539Y-96560000D01*
X106950490Y-96092458D01*
X106814113Y-95642884D01*
X106592649Y-95228554D01*
X106294609Y-94865391D01*
X105931446Y-94567351D01*
X105517116Y-94345887D01*
X105067542Y-94209510D01*
X104717157Y-94175000D01*
X104482843Y-94175000D01*
X104132458Y-94209510D01*
X103682884Y-94345887D01*
X103268554Y-94567351D01*
X102905391Y-94865391D01*
X102607351Y-95228554D01*
X102385887Y-95642884D01*
X102249510Y-96092458D01*
X102203461Y-96560000D01*
X100429231Y-96560000D01*
X100452922Y-89838212D01*
X118265000Y-89838212D01*
X118265000Y-90061788D01*
X118308617Y-90281067D01*
X118394176Y-90487624D01*
X118518388Y-90673520D01*
X118615000Y-90770132D01*
X118615001Y-97168557D01*
X118611203Y-97207120D01*
X118626359Y-97361006D01*
X118671246Y-97508979D01*
X118671247Y-97508980D01*
X118744139Y-97645353D01*
X118784690Y-97694764D01*
X118817655Y-97734932D01*
X118817659Y-97734936D01*
X118842237Y-97764884D01*
X118872185Y-97789462D01*
X153589709Y-132506986D01*
X153469176Y-132687376D01*
X153383617Y-132893933D01*
X153340000Y-133113212D01*
X153340000Y-133336788D01*
X153383617Y-133556067D01*
X153469176Y-133762624D01*
X153593388Y-133948520D01*
X153751480Y-134106612D01*
X153937376Y-134230824D01*
X154143933Y-134316383D01*
X154363212Y-134360000D01*
X154586788Y-134360000D01*
X154806067Y-134316383D01*
X155012624Y-134230824D01*
X155198520Y-134106612D01*
X155356612Y-133948520D01*
X155480824Y-133762624D01*
X155501808Y-133711965D01*
X155667654Y-133877811D01*
X155692237Y-133907765D01*
X155807138Y-134002063D01*
X155743204Y-134156413D01*
X155665000Y-134549570D01*
X155665000Y-134950430D01*
X155743204Y-135343587D01*
X155896607Y-135713934D01*
X156119313Y-136047237D01*
X156402763Y-136330687D01*
X156736066Y-136553393D01*
X157106413Y-136706796D01*
X157499570Y-136785000D01*
X157900430Y-136785000D01*
X158293587Y-136706796D01*
X158472521Y-136632679D01*
X159767658Y-137927816D01*
X159792236Y-137957764D01*
X159822184Y-137982342D01*
X159822187Y-137982345D01*
X159851559Y-138006450D01*
X159911767Y-138055862D01*
X160048140Y-138128754D01*
X160196113Y-138173642D01*
X160271026Y-138181020D01*
X160311439Y-138185000D01*
X160311444Y-138185000D01*
X160350000Y-138188797D01*
X160388555Y-138185000D01*
X184411447Y-138185000D01*
X184450000Y-138188797D01*
X184488553Y-138185000D01*
X184488561Y-138185000D01*
X184603887Y-138173641D01*
X184751860Y-138128754D01*
X184888233Y-138055862D01*
X185007764Y-137957764D01*
X185032347Y-137927810D01*
X185427810Y-137532347D01*
X185457764Y-137507764D01*
X185555862Y-137388233D01*
X185628754Y-137251860D01*
X185638250Y-137220557D01*
X185654386Y-137167362D01*
X185740192Y-137121498D01*
X185821691Y-137067042D01*
X185918382Y-136987690D01*
X185987690Y-136918382D01*
X186067042Y-136821691D01*
X186121498Y-136740192D01*
X186180464Y-136629875D01*
X186217973Y-136539319D01*
X186254282Y-136419623D01*
X186273404Y-136323490D01*
X186285664Y-136199009D01*
X186285664Y-136174450D01*
X186288072Y-136150000D01*
X186288072Y-135650000D01*
X186275812Y-135525518D01*
X186268071Y-135500000D01*
X186275812Y-135474482D01*
X186288072Y-135350000D01*
X186288072Y-134850000D01*
X186285664Y-134825550D01*
X186285664Y-134800991D01*
X186273404Y-134676510D01*
X186258512Y-134601645D01*
X186815157Y-134045000D01*
X187832462Y-134045000D01*
X187841068Y-134061101D01*
X188020392Y-134279608D01*
X188238899Y-134458932D01*
X188488192Y-134592182D01*
X188758691Y-134674236D01*
X188969508Y-134695000D01*
X189110492Y-134695000D01*
X189321309Y-134674236D01*
X189591808Y-134592182D01*
X189841101Y-134458932D01*
X190059608Y-134279608D01*
X190238932Y-134061101D01*
X190372182Y-133811808D01*
X190454236Y-133541309D01*
X190462286Y-133459570D01*
X193655000Y-133459570D01*
X193655000Y-133860430D01*
X193733204Y-134253587D01*
X193886607Y-134623934D01*
X194109313Y-134957237D01*
X194392763Y-135240687D01*
X194726066Y-135463393D01*
X195096413Y-135616796D01*
X195489570Y-135695000D01*
X195890430Y-135695000D01*
X196283587Y-135616796D01*
X196653934Y-135463393D01*
X196987237Y-135240687D01*
X197270687Y-134957237D01*
X197493393Y-134623934D01*
X197646796Y-134253587D01*
X197725000Y-133860430D01*
X197725000Y-133459570D01*
X197646796Y-133066413D01*
X197493393Y-132696066D01*
X197270687Y-132362763D01*
X196987237Y-132079313D01*
X196653934Y-131856607D01*
X196283587Y-131703204D01*
X195890430Y-131625000D01*
X195489570Y-131625000D01*
X195096413Y-131703204D01*
X194726066Y-131856607D01*
X194392763Y-132079313D01*
X194109313Y-132362763D01*
X193886607Y-132696066D01*
X193733204Y-133066413D01*
X193655000Y-133459570D01*
X190462286Y-133459570D01*
X190481943Y-133260000D01*
X190454236Y-132978691D01*
X190372182Y-132708192D01*
X190238932Y-132458899D01*
X190059608Y-132240392D01*
X189841101Y-132061068D01*
X189708142Y-131990000D01*
X189841101Y-131918932D01*
X190059608Y-131739608D01*
X190238932Y-131521101D01*
X190372182Y-131271808D01*
X190454236Y-131001309D01*
X190481943Y-130720000D01*
X190454236Y-130438691D01*
X190372182Y-130168192D01*
X190238932Y-129918899D01*
X190059608Y-129700392D01*
X189841101Y-129521068D01*
X189708142Y-129450000D01*
X189841101Y-129378932D01*
X190059608Y-129199608D01*
X190238932Y-128981101D01*
X190372182Y-128731808D01*
X190454236Y-128461309D01*
X190481943Y-128180000D01*
X190454236Y-127898691D01*
X190374247Y-127635000D01*
X194584048Y-127635000D01*
X194836066Y-127803393D01*
X195206413Y-127956796D01*
X195599570Y-128035000D01*
X196000430Y-128035000D01*
X196393587Y-127956796D01*
X196763934Y-127803393D01*
X197097237Y-127580687D01*
X197380687Y-127297237D01*
X197603393Y-126963934D01*
X197756796Y-126593587D01*
X197835000Y-126200430D01*
X197835000Y-125799570D01*
X197756796Y-125406413D01*
X197603393Y-125036066D01*
X197380687Y-124702763D01*
X197097237Y-124419313D01*
X196763934Y-124196607D01*
X196393587Y-124043204D01*
X196000430Y-123965000D01*
X195599570Y-123965000D01*
X195206413Y-124043204D01*
X194836066Y-124196607D01*
X194502763Y-124419313D01*
X194219313Y-124702763D01*
X193996607Y-125036066D01*
X193843204Y-125406413D01*
X193765000Y-125799570D01*
X193765000Y-126065000D01*
X190410648Y-126065000D01*
X190454236Y-125921309D01*
X190481943Y-125640000D01*
X190454236Y-125358691D01*
X190372182Y-125088192D01*
X190238932Y-124838899D01*
X190059608Y-124620392D01*
X189841101Y-124441068D01*
X189708142Y-124370000D01*
X189841101Y-124298932D01*
X190059608Y-124119608D01*
X190238932Y-123901101D01*
X190372182Y-123651808D01*
X190454236Y-123381309D01*
X190481943Y-123100000D01*
X190454236Y-122818691D01*
X190372182Y-122548192D01*
X190238932Y-122298899D01*
X190059608Y-122080392D01*
X189841101Y-121901068D01*
X189708142Y-121830000D01*
X189841101Y-121758932D01*
X190059608Y-121579608D01*
X190238932Y-121361101D01*
X190372182Y-121111808D01*
X190454236Y-120841309D01*
X190481943Y-120560000D01*
X190454236Y-120278691D01*
X190410648Y-120135000D01*
X193331549Y-120135000D01*
X193370102Y-120138797D01*
X193408655Y-120135000D01*
X193408663Y-120135000D01*
X193523989Y-120123641D01*
X193671962Y-120078754D01*
X193808335Y-120005862D01*
X193887174Y-119941160D01*
X193896607Y-119963934D01*
X194119313Y-120297237D01*
X194402763Y-120580687D01*
X194736066Y-120803393D01*
X195106413Y-120956796D01*
X195499570Y-121035000D01*
X195900430Y-121035000D01*
X196293587Y-120956796D01*
X196663934Y-120803393D01*
X196997237Y-120580687D01*
X197280687Y-120297237D01*
X197503393Y-119963934D01*
X197656796Y-119593587D01*
X197735000Y-119200430D01*
X197735000Y-118799570D01*
X197656796Y-118406413D01*
X197503393Y-118036066D01*
X197280687Y-117702763D01*
X196997237Y-117419313D01*
X196663934Y-117196607D01*
X196293587Y-117043204D01*
X195900430Y-116965000D01*
X195499570Y-116965000D01*
X195106413Y-117043204D01*
X194736066Y-117196607D01*
X194402763Y-117419313D01*
X194119313Y-117702763D01*
X193896607Y-118036066D01*
X193822490Y-118215000D01*
X193758658Y-118215000D01*
X193720102Y-118211203D01*
X193681546Y-118215000D01*
X193681541Y-118215000D01*
X193641128Y-118218980D01*
X193566215Y-118226358D01*
X193438832Y-118265000D01*
X193418242Y-118271246D01*
X193281869Y-118344138D01*
X193162338Y-118442236D01*
X193137751Y-118472195D01*
X193044946Y-118565000D01*
X190374247Y-118565000D01*
X190454236Y-118301309D01*
X190481943Y-118020000D01*
X190454236Y-117738691D01*
X190372182Y-117468192D01*
X190238932Y-117218899D01*
X190059608Y-117000392D01*
X189841101Y-116821068D01*
X189708142Y-116750000D01*
X189841101Y-116678932D01*
X190059608Y-116499608D01*
X190238932Y-116281101D01*
X190372182Y-116031808D01*
X190454236Y-115761309D01*
X190481943Y-115480000D01*
X190454236Y-115198691D01*
X190372182Y-114928192D01*
X190238932Y-114678899D01*
X190059608Y-114460392D01*
X189841101Y-114281068D01*
X189708142Y-114210000D01*
X189841101Y-114138932D01*
X190059608Y-113959608D01*
X190238932Y-113741101D01*
X190372182Y-113491808D01*
X190454236Y-113221309D01*
X190481943Y-112940000D01*
X190454236Y-112658691D01*
X190372182Y-112388192D01*
X190238932Y-112138899D01*
X190059608Y-111920392D01*
X189841101Y-111741068D01*
X189708142Y-111670000D01*
X189841101Y-111598932D01*
X190059608Y-111419608D01*
X190238932Y-111201101D01*
X190372182Y-110951808D01*
X190454236Y-110681309D01*
X190481943Y-110400000D01*
X190454236Y-110118691D01*
X190372182Y-109848192D01*
X190238932Y-109598899D01*
X190059608Y-109380392D01*
X189841101Y-109201068D01*
X189708142Y-109130000D01*
X189841101Y-109058932D01*
X190059608Y-108879608D01*
X190238932Y-108661101D01*
X190372182Y-108411808D01*
X190454236Y-108141309D01*
X190481943Y-107860000D01*
X190454236Y-107578691D01*
X190372182Y-107308192D01*
X190238932Y-107058899D01*
X190059608Y-106840392D01*
X189841101Y-106661068D01*
X189708142Y-106590000D01*
X189841101Y-106518932D01*
X190059608Y-106339608D01*
X190238932Y-106121101D01*
X190372182Y-105871808D01*
X190454236Y-105601309D01*
X190481943Y-105320000D01*
X190454236Y-105038691D01*
X190372182Y-104768192D01*
X190238932Y-104518899D01*
X190059608Y-104300392D01*
X189841101Y-104121068D01*
X189708142Y-104050000D01*
X189841101Y-103978932D01*
X190059608Y-103799608D01*
X190238932Y-103581101D01*
X190372182Y-103331808D01*
X190454236Y-103061309D01*
X190481943Y-102780000D01*
X190454236Y-102498691D01*
X190372182Y-102228192D01*
X190238932Y-101978899D01*
X190059608Y-101760392D01*
X189841101Y-101581068D01*
X189703318Y-101507421D01*
X189895131Y-101392385D01*
X190103519Y-101203414D01*
X190271037Y-100977420D01*
X190391246Y-100723087D01*
X190431904Y-100589039D01*
X190309915Y-100367000D01*
X189167000Y-100367000D01*
X189167000Y-100387000D01*
X188913000Y-100387000D01*
X188913000Y-100367000D01*
X187770085Y-100367000D01*
X187648096Y-100589039D01*
X187688754Y-100723087D01*
X187808963Y-100977420D01*
X187976481Y-101203414D01*
X188184869Y-101392385D01*
X188376682Y-101507421D01*
X188238899Y-101581068D01*
X188020392Y-101760392D01*
X187841068Y-101978899D01*
X187707818Y-102228192D01*
X187625764Y-102498691D01*
X187598057Y-102780000D01*
X187625764Y-103061309D01*
X187707818Y-103331808D01*
X187841068Y-103581101D01*
X188020392Y-103799608D01*
X188238899Y-103978932D01*
X188371858Y-104050000D01*
X188238899Y-104121068D01*
X188020392Y-104300392D01*
X187841068Y-104518899D01*
X187707818Y-104768192D01*
X187625764Y-105038691D01*
X187598057Y-105320000D01*
X187625764Y-105601309D01*
X187707818Y-105871808D01*
X187841068Y-106121101D01*
X188020392Y-106339608D01*
X188238899Y-106518932D01*
X188371858Y-106590000D01*
X188238899Y-106661068D01*
X188020392Y-106840392D01*
X187841068Y-107058899D01*
X187707818Y-107308192D01*
X187625764Y-107578691D01*
X187598057Y-107860000D01*
X187625764Y-108141309D01*
X187707818Y-108411808D01*
X187841068Y-108661101D01*
X188020392Y-108879608D01*
X188238899Y-109058932D01*
X188371858Y-109130000D01*
X188238899Y-109201068D01*
X188020392Y-109380392D01*
X187841068Y-109598899D01*
X187707818Y-109848192D01*
X187625764Y-110118691D01*
X187598057Y-110400000D01*
X187625764Y-110681309D01*
X187707818Y-110951808D01*
X187841068Y-111201101D01*
X188020392Y-111419608D01*
X188238899Y-111598932D01*
X188371858Y-111670000D01*
X188238899Y-111741068D01*
X188020392Y-111920392D01*
X187841068Y-112138899D01*
X187707818Y-112388192D01*
X187625764Y-112658691D01*
X187598057Y-112940000D01*
X187625764Y-113221309D01*
X187707818Y-113491808D01*
X187841068Y-113741101D01*
X188020392Y-113959608D01*
X188238899Y-114138932D01*
X188371858Y-114210000D01*
X188238899Y-114281068D01*
X188020392Y-114460392D01*
X187841068Y-114678899D01*
X187707818Y-114928192D01*
X187625764Y-115198691D01*
X187598057Y-115480000D01*
X187625764Y-115761309D01*
X187707818Y-116031808D01*
X187841068Y-116281101D01*
X188020392Y-116499608D01*
X188238899Y-116678932D01*
X188371858Y-116750000D01*
X188238899Y-116821068D01*
X188020392Y-117000392D01*
X187841068Y-117218899D01*
X187707818Y-117468192D01*
X187625764Y-117738691D01*
X187598057Y-118020000D01*
X187625764Y-118301309D01*
X187705753Y-118565000D01*
X187638556Y-118565000D01*
X187600000Y-118561203D01*
X187561444Y-118565000D01*
X187561439Y-118565000D01*
X187521026Y-118568980D01*
X187446113Y-118576358D01*
X187305765Y-118618933D01*
X187298140Y-118621246D01*
X187161767Y-118694138D01*
X187042236Y-118792236D01*
X187017655Y-118822188D01*
X185172185Y-120667658D01*
X185142237Y-120692236D01*
X185117659Y-120722184D01*
X185117655Y-120722188D01*
X185098345Y-120745718D01*
X185071153Y-120778850D01*
X185060681Y-120782027D01*
X184970125Y-120819536D01*
X184859808Y-120878502D01*
X184778309Y-120932958D01*
X184681618Y-121012310D01*
X184612310Y-121081618D01*
X184532958Y-121178309D01*
X184478502Y-121259808D01*
X184419536Y-121370125D01*
X184382027Y-121460681D01*
X184345718Y-121580377D01*
X184326596Y-121676510D01*
X184314336Y-121800991D01*
X184314336Y-121825550D01*
X184311928Y-121850000D01*
X184311928Y-122350000D01*
X184324188Y-122474482D01*
X184331929Y-122500000D01*
X184324188Y-122525518D01*
X184311928Y-122650000D01*
X184311928Y-123150000D01*
X184314336Y-123174450D01*
X184314336Y-123199009D01*
X184326596Y-123323490D01*
X184345718Y-123419623D01*
X184382027Y-123539319D01*
X184419536Y-123629875D01*
X184478502Y-123740192D01*
X184532958Y-123821691D01*
X184612310Y-123918382D01*
X184681618Y-123987690D01*
X184778309Y-124067042D01*
X184859808Y-124121498D01*
X184970125Y-124180464D01*
X185060681Y-124217973D01*
X185180377Y-124254282D01*
X185276510Y-124273404D01*
X185400991Y-124285664D01*
X185425550Y-124285664D01*
X185450000Y-124288072D01*
X185950000Y-124288072D01*
X185974450Y-124285664D01*
X185999009Y-124285664D01*
X186123490Y-124273404D01*
X186219623Y-124254282D01*
X186339319Y-124217973D01*
X186429875Y-124180464D01*
X186540192Y-124121498D01*
X186621691Y-124067042D01*
X186718382Y-123987690D01*
X186771072Y-123935000D01*
X187868888Y-123935000D01*
X188020392Y-124119608D01*
X188238899Y-124298932D01*
X188371858Y-124370000D01*
X188238899Y-124441068D01*
X188020392Y-124620392D01*
X187901715Y-124765000D01*
X186771072Y-124765000D01*
X186718382Y-124712310D01*
X186621691Y-124632958D01*
X186540192Y-124578502D01*
X186429875Y-124519536D01*
X186339319Y-124482027D01*
X186219623Y-124445718D01*
X186123490Y-124426596D01*
X185999009Y-124414336D01*
X185974450Y-124414336D01*
X185950000Y-124411928D01*
X185450000Y-124411928D01*
X185425550Y-124414336D01*
X185400991Y-124414336D01*
X185276510Y-124426596D01*
X185180377Y-124445718D01*
X185060681Y-124482027D01*
X184970125Y-124519536D01*
X184859808Y-124578502D01*
X184778309Y-124632958D01*
X184681618Y-124712310D01*
X184612310Y-124781618D01*
X184532958Y-124878309D01*
X184478502Y-124959808D01*
X184419536Y-125070125D01*
X184382027Y-125160681D01*
X184345718Y-125280377D01*
X184326596Y-125376510D01*
X184314336Y-125500991D01*
X184314336Y-125525550D01*
X184311928Y-125550000D01*
X184311928Y-126050000D01*
X184324188Y-126174482D01*
X184331929Y-126200000D01*
X184324188Y-126225518D01*
X184311928Y-126350000D01*
X184311928Y-126850000D01*
X184314336Y-126874450D01*
X184314336Y-126899009D01*
X184326596Y-127023490D01*
X184345718Y-127119623D01*
X184382027Y-127239319D01*
X184419536Y-127329875D01*
X184478502Y-127440192D01*
X184532958Y-127521691D01*
X184612310Y-127618382D01*
X184681618Y-127687690D01*
X184778309Y-127767042D01*
X184859808Y-127821498D01*
X184970125Y-127880464D01*
X185060681Y-127917973D01*
X185180377Y-127954282D01*
X185276510Y-127973404D01*
X185400991Y-127985664D01*
X185425550Y-127985664D01*
X185450000Y-127988072D01*
X185950000Y-127988072D01*
X185974450Y-127985664D01*
X185999009Y-127985664D01*
X186123490Y-127973404D01*
X186219623Y-127954282D01*
X186339319Y-127917973D01*
X186429875Y-127880464D01*
X186540192Y-127821498D01*
X186621691Y-127767042D01*
X186718382Y-127687690D01*
X186771072Y-127635000D01*
X187705753Y-127635000D01*
X187625764Y-127898691D01*
X187598057Y-128180000D01*
X187625764Y-128461309D01*
X187707818Y-128731808D01*
X187841068Y-128981101D01*
X188020392Y-129199608D01*
X188238899Y-129378932D01*
X188371858Y-129450000D01*
X188238899Y-129521068D01*
X188020392Y-129700392D01*
X187841068Y-129918899D01*
X187707818Y-130168192D01*
X187625764Y-130438691D01*
X187598057Y-130720000D01*
X187625764Y-131001309D01*
X187707818Y-131271808D01*
X187841068Y-131521101D01*
X188020392Y-131739608D01*
X188238899Y-131918932D01*
X188371858Y-131990000D01*
X188238899Y-132061068D01*
X188020392Y-132240392D01*
X187841068Y-132458899D01*
X187832462Y-132475000D01*
X186528556Y-132475000D01*
X186490000Y-132471203D01*
X186451444Y-132475000D01*
X186451439Y-132475000D01*
X186411026Y-132478980D01*
X186336113Y-132486358D01*
X186188140Y-132531246D01*
X186051767Y-132604138D01*
X185932236Y-132702236D01*
X185907653Y-132732190D01*
X184927915Y-133711928D01*
X184650000Y-133711928D01*
X184625550Y-133714336D01*
X184600991Y-133714336D01*
X184476510Y-133726596D01*
X184380377Y-133745718D01*
X184260681Y-133782027D01*
X184170125Y-133819536D01*
X184059808Y-133878502D01*
X183978309Y-133932958D01*
X183881618Y-134012310D01*
X183812310Y-134081618D01*
X183732958Y-134178309D01*
X183678502Y-134259808D01*
X183619536Y-134370125D01*
X183582027Y-134460681D01*
X183545718Y-134580377D01*
X183526596Y-134676510D01*
X183514336Y-134800991D01*
X183514336Y-134825550D01*
X183511928Y-134850000D01*
X183511928Y-135350000D01*
X183524188Y-135474482D01*
X183531929Y-135500000D01*
X183524188Y-135525518D01*
X183511928Y-135650000D01*
X183511928Y-136150000D01*
X183514336Y-136174450D01*
X183514336Y-136199009D01*
X183526596Y-136323490D01*
X183545718Y-136419623D01*
X183582027Y-136539319D01*
X183613375Y-136615000D01*
X178486625Y-136615000D01*
X178517973Y-136539319D01*
X178554282Y-136419623D01*
X178573404Y-136323490D01*
X178585664Y-136199009D01*
X178585664Y-136174450D01*
X178588072Y-136150000D01*
X178588072Y-135650000D01*
X178575812Y-135525518D01*
X178568071Y-135500000D01*
X178575812Y-135474482D01*
X178588072Y-135350000D01*
X178588072Y-134850000D01*
X178585664Y-134825550D01*
X178585664Y-134800991D01*
X178573404Y-134676510D01*
X178554282Y-134580377D01*
X178517973Y-134460681D01*
X178480464Y-134370125D01*
X178421498Y-134259808D01*
X178367042Y-134178309D01*
X178287690Y-134081618D01*
X178218382Y-134012310D01*
X178121691Y-133932958D01*
X178040192Y-133878502D01*
X177929875Y-133819536D01*
X177839319Y-133782027D01*
X177719623Y-133745718D01*
X177623490Y-133726596D01*
X177499009Y-133714336D01*
X177474450Y-133714336D01*
X177450000Y-133711928D01*
X177172085Y-133711928D01*
X176192347Y-132732190D01*
X176167764Y-132702236D01*
X176048233Y-132604138D01*
X175911860Y-132531246D01*
X175763887Y-132486359D01*
X175648561Y-132475000D01*
X175648553Y-132475000D01*
X175610000Y-132471203D01*
X175571447Y-132475000D01*
X175007538Y-132475000D01*
X174998932Y-132458899D01*
X174819608Y-132240392D01*
X174601101Y-132061068D01*
X174468142Y-131990000D01*
X174601101Y-131918932D01*
X174819608Y-131739608D01*
X174998932Y-131521101D01*
X175132182Y-131271808D01*
X175214236Y-131001309D01*
X175241943Y-130720000D01*
X175214236Y-130438691D01*
X175132182Y-130168192D01*
X174998932Y-129918899D01*
X174819608Y-129700392D01*
X174601101Y-129521068D01*
X174468142Y-129450000D01*
X174601101Y-129378932D01*
X174819608Y-129199608D01*
X174998932Y-128981101D01*
X175132182Y-128731808D01*
X175214236Y-128461309D01*
X175241943Y-128180000D01*
X175214236Y-127898691D01*
X175132182Y-127628192D01*
X174998932Y-127378899D01*
X174819608Y-127160392D01*
X174601101Y-126981068D01*
X174468142Y-126910000D01*
X174601101Y-126838932D01*
X174819608Y-126659608D01*
X174998932Y-126441101D01*
X175132182Y-126191808D01*
X175214236Y-125921309D01*
X175241943Y-125640000D01*
X175214236Y-125358691D01*
X175132182Y-125088192D01*
X174998932Y-124838899D01*
X174819608Y-124620392D01*
X174601101Y-124441068D01*
X174468142Y-124370000D01*
X174601101Y-124298932D01*
X174819608Y-124119608D01*
X174998932Y-123901101D01*
X175132182Y-123651808D01*
X175214236Y-123381309D01*
X175241943Y-123100000D01*
X175214236Y-122818691D01*
X175132182Y-122548192D01*
X174998932Y-122298899D01*
X174819608Y-122080392D01*
X174601101Y-121901068D01*
X174468142Y-121830000D01*
X174601101Y-121758932D01*
X174819608Y-121579608D01*
X174998932Y-121361101D01*
X175132182Y-121111808D01*
X175214236Y-120841309D01*
X175241943Y-120560000D01*
X175214236Y-120278691D01*
X175132182Y-120008192D01*
X174998932Y-119758899D01*
X174819608Y-119540392D01*
X174601101Y-119361068D01*
X174468142Y-119290000D01*
X174601101Y-119218932D01*
X174819608Y-119039608D01*
X174998932Y-118821101D01*
X175132182Y-118571808D01*
X175214236Y-118301309D01*
X175241943Y-118020000D01*
X175214236Y-117738691D01*
X175132182Y-117468192D01*
X174998932Y-117218899D01*
X174819608Y-117000392D01*
X174601101Y-116821068D01*
X174468142Y-116750000D01*
X174601101Y-116678932D01*
X174819608Y-116499608D01*
X174995732Y-116285000D01*
X176149001Y-116285000D01*
X176178502Y-116340192D01*
X176232958Y-116421691D01*
X176312310Y-116518382D01*
X176381618Y-116587690D01*
X176478309Y-116667042D01*
X176559808Y-116721498D01*
X176670125Y-116780464D01*
X176760681Y-116817973D01*
X176880377Y-116854282D01*
X176976510Y-116873404D01*
X177100991Y-116885664D01*
X177125550Y-116885664D01*
X177150000Y-116888072D01*
X177650000Y-116888072D01*
X177665001Y-116886595D01*
X177665000Y-117839508D01*
X177568933Y-117858617D01*
X177362376Y-117944176D01*
X177176480Y-118068388D01*
X177018388Y-118226480D01*
X176894176Y-118412376D01*
X176808617Y-118618933D01*
X176765000Y-118838212D01*
X176765000Y-119061788D01*
X176808617Y-119281067D01*
X176894176Y-119487624D01*
X177018388Y-119673520D01*
X177176480Y-119831612D01*
X177362376Y-119955824D01*
X177568933Y-120041383D01*
X177788212Y-120085000D01*
X178011788Y-120085000D01*
X178231067Y-120041383D01*
X178437624Y-119955824D01*
X178623520Y-119831612D01*
X178781612Y-119673520D01*
X178905824Y-119487624D01*
X178991383Y-119281067D01*
X179035000Y-119061788D01*
X179035000Y-118924577D01*
X179045513Y-118911768D01*
X179056450Y-118898441D01*
X179105862Y-118838233D01*
X179178754Y-118701860D01*
X179220270Y-118565000D01*
X179223641Y-118553888D01*
X179227789Y-118511768D01*
X179235000Y-118438561D01*
X179235000Y-118438554D01*
X179238797Y-118400001D01*
X179235000Y-118361448D01*
X179235000Y-116571072D01*
X179287690Y-116518382D01*
X179367042Y-116421691D01*
X179421498Y-116340192D01*
X179480464Y-116229875D01*
X179517973Y-116139319D01*
X179554282Y-116019623D01*
X179573404Y-115923490D01*
X179585664Y-115799009D01*
X179585664Y-115774450D01*
X179588072Y-115750000D01*
X179588072Y-115472086D01*
X180027815Y-115032343D01*
X180057764Y-115007764D01*
X180155862Y-114888233D01*
X180228754Y-114751860D01*
X180273641Y-114603887D01*
X180285000Y-114488561D01*
X180285000Y-114488554D01*
X180288797Y-114450001D01*
X180285000Y-114411448D01*
X180285000Y-99288552D01*
X180288797Y-99249999D01*
X180285000Y-99211446D01*
X180285000Y-99211439D01*
X180273641Y-99096113D01*
X180228754Y-98948140D01*
X180155862Y-98811767D01*
X180100394Y-98744180D01*
X180082345Y-98722187D01*
X180082342Y-98722184D01*
X180057764Y-98692236D01*
X180027817Y-98667659D01*
X179088072Y-97727915D01*
X179088072Y-97700000D01*
X187598057Y-97700000D01*
X187625764Y-97981309D01*
X187707818Y-98251808D01*
X187841068Y-98501101D01*
X188020392Y-98719608D01*
X188238899Y-98898932D01*
X188376682Y-98972579D01*
X188184869Y-99087615D01*
X187976481Y-99276586D01*
X187808963Y-99502580D01*
X187688754Y-99756913D01*
X187648096Y-99890961D01*
X187770085Y-100113000D01*
X188913000Y-100113000D01*
X188913000Y-100093000D01*
X189167000Y-100093000D01*
X189167000Y-100113000D01*
X190309915Y-100113000D01*
X190431904Y-99890961D01*
X190391246Y-99756913D01*
X190271037Y-99502580D01*
X190103519Y-99276586D01*
X189895131Y-99087615D01*
X189703318Y-98972579D01*
X189841101Y-98898932D01*
X190059608Y-98719608D01*
X190238932Y-98501101D01*
X190372182Y-98251808D01*
X190454236Y-97981309D01*
X190481943Y-97700000D01*
X190476976Y-97649570D01*
X191915000Y-97649570D01*
X191915000Y-98050430D01*
X191993204Y-98443587D01*
X192146607Y-98813934D01*
X192369313Y-99147237D01*
X192652763Y-99430687D01*
X192986066Y-99653393D01*
X193356413Y-99806796D01*
X193749570Y-99885000D01*
X194150430Y-99885000D01*
X194543587Y-99806796D01*
X194913934Y-99653393D01*
X195247237Y-99430687D01*
X195530687Y-99147237D01*
X195753393Y-98813934D01*
X195906796Y-98443587D01*
X195985000Y-98050430D01*
X195985000Y-97649570D01*
X195906796Y-97256413D01*
X195753393Y-96886066D01*
X195530687Y-96552763D01*
X195247237Y-96269313D01*
X194913934Y-96046607D01*
X194543587Y-95893204D01*
X194150430Y-95815000D01*
X193749570Y-95815000D01*
X193356413Y-95893204D01*
X192986066Y-96046607D01*
X192652763Y-96269313D01*
X192369313Y-96552763D01*
X192146607Y-96886066D01*
X191993204Y-97256413D01*
X191915000Y-97649570D01*
X190476976Y-97649570D01*
X190454236Y-97418691D01*
X190372182Y-97148192D01*
X190238932Y-96898899D01*
X190059608Y-96680392D01*
X189841101Y-96501068D01*
X189591808Y-96367818D01*
X189321309Y-96285764D01*
X189110492Y-96265000D01*
X188969508Y-96265000D01*
X188758691Y-96285764D01*
X188488192Y-96367818D01*
X188238899Y-96501068D01*
X188020392Y-96680392D01*
X187841068Y-96898899D01*
X187707818Y-97148192D01*
X187625764Y-97418691D01*
X187598057Y-97700000D01*
X179088072Y-97700000D01*
X179088072Y-97450000D01*
X179085664Y-97425550D01*
X179085664Y-97400991D01*
X179073404Y-97276510D01*
X179054282Y-97180377D01*
X179017973Y-97060681D01*
X178980464Y-96970125D01*
X178921498Y-96859808D01*
X178867042Y-96778309D01*
X178787690Y-96681618D01*
X178718382Y-96612310D01*
X178621691Y-96532958D01*
X178540192Y-96478502D01*
X178429875Y-96419536D01*
X178339319Y-96382027D01*
X178219623Y-96345718D01*
X178123490Y-96326596D01*
X177999009Y-96314336D01*
X177974450Y-96314336D01*
X177950000Y-96311928D01*
X177450000Y-96311928D01*
X177325518Y-96324188D01*
X177300000Y-96331929D01*
X177274482Y-96324188D01*
X177150000Y-96311928D01*
X176650000Y-96311928D01*
X176625550Y-96314336D01*
X176600991Y-96314336D01*
X176476510Y-96326596D01*
X176380377Y-96345718D01*
X176260681Y-96382027D01*
X176170125Y-96419536D01*
X176059808Y-96478502D01*
X175978309Y-96532958D01*
X175881618Y-96612310D01*
X175812310Y-96681618D01*
X175732958Y-96778309D01*
X175678502Y-96859808D01*
X175649001Y-96915000D01*
X175238072Y-96915000D01*
X175238072Y-96900000D01*
X175225812Y-96775518D01*
X175189502Y-96655820D01*
X175130537Y-96545506D01*
X175051185Y-96448815D01*
X174954494Y-96369463D01*
X174844180Y-96310498D01*
X174724482Y-96274188D01*
X174600000Y-96261928D01*
X173000000Y-96261928D01*
X172875518Y-96274188D01*
X172755820Y-96310498D01*
X172645506Y-96369463D01*
X172548815Y-96448815D01*
X172469463Y-96545506D01*
X172410498Y-96655820D01*
X172374188Y-96775518D01*
X172361928Y-96900000D01*
X172361928Y-98500000D01*
X172374188Y-98624482D01*
X172410498Y-98744180D01*
X172469463Y-98854494D01*
X172548815Y-98951185D01*
X172645506Y-99030537D01*
X172755820Y-99089502D01*
X172875518Y-99125812D01*
X172893482Y-99127581D01*
X172780392Y-99220392D01*
X172601068Y-99438899D01*
X172467818Y-99688192D01*
X172385764Y-99958691D01*
X172358057Y-100240000D01*
X172385764Y-100521309D01*
X172467818Y-100791808D01*
X172601068Y-101041101D01*
X172780392Y-101259608D01*
X172998899Y-101438932D01*
X173131858Y-101510000D01*
X172998899Y-101581068D01*
X172780392Y-101760392D01*
X172601068Y-101978899D01*
X172467818Y-102228192D01*
X172385764Y-102498691D01*
X172358057Y-102780000D01*
X172385764Y-103061309D01*
X172467818Y-103331808D01*
X172601068Y-103581101D01*
X172780392Y-103799608D01*
X172998899Y-103978932D01*
X173136682Y-104052579D01*
X172944869Y-104167615D01*
X172736481Y-104356586D01*
X172568963Y-104582580D01*
X172448754Y-104836913D01*
X172408096Y-104970961D01*
X172530085Y-105193000D01*
X173673000Y-105193000D01*
X173673000Y-105173000D01*
X173927000Y-105173000D01*
X173927000Y-105193000D01*
X175069915Y-105193000D01*
X175191904Y-104970961D01*
X175151246Y-104836913D01*
X175031037Y-104582580D01*
X174863519Y-104356586D01*
X174655131Y-104167615D01*
X174463318Y-104052579D01*
X174601101Y-103978932D01*
X174819608Y-103799608D01*
X174998932Y-103581101D01*
X175132182Y-103331808D01*
X175214236Y-103061309D01*
X175241943Y-102780000D01*
X175214236Y-102498691D01*
X175132182Y-102228192D01*
X174998932Y-101978899D01*
X174819608Y-101760392D01*
X174601101Y-101581068D01*
X174468142Y-101510000D01*
X174601101Y-101438932D01*
X174819608Y-101259608D01*
X174998932Y-101041101D01*
X175028919Y-100985000D01*
X175649001Y-100985000D01*
X175678502Y-101040192D01*
X175732958Y-101121691D01*
X175812310Y-101218382D01*
X175881618Y-101287690D01*
X175978309Y-101367042D01*
X176059808Y-101421498D01*
X176170125Y-101480464D01*
X176260681Y-101517973D01*
X176380377Y-101554282D01*
X176476510Y-101573404D01*
X176600991Y-101585664D01*
X176625550Y-101585664D01*
X176650000Y-101588072D01*
X177150000Y-101588072D01*
X177274482Y-101575812D01*
X177300000Y-101568071D01*
X177325518Y-101575812D01*
X177450000Y-101588072D01*
X177665001Y-101588072D01*
X177665000Y-108529868D01*
X177568388Y-108626480D01*
X177444176Y-108812376D01*
X177358617Y-109018933D01*
X177315000Y-109238212D01*
X177315000Y-109461788D01*
X177358617Y-109681067D01*
X177444176Y-109887624D01*
X177568388Y-110073520D01*
X177665001Y-110170133D01*
X177665000Y-111513405D01*
X177650000Y-111511928D01*
X177150000Y-111511928D01*
X177125550Y-111514336D01*
X177100991Y-111514336D01*
X176976510Y-111526596D01*
X176880377Y-111545718D01*
X176760681Y-111582027D01*
X176670125Y-111619536D01*
X176559808Y-111678502D01*
X176478309Y-111732958D01*
X176381618Y-111812310D01*
X176312310Y-111881618D01*
X176232958Y-111978309D01*
X176178502Y-112059808D01*
X176149001Y-112115000D01*
X174979319Y-112115000D01*
X174819608Y-111920392D01*
X174601101Y-111741068D01*
X174468142Y-111670000D01*
X174601101Y-111598932D01*
X174819608Y-111419608D01*
X174998932Y-111201101D01*
X175132182Y-110951808D01*
X175214236Y-110681309D01*
X175241943Y-110400000D01*
X175214236Y-110118691D01*
X175132182Y-109848192D01*
X174998932Y-109598899D01*
X174819608Y-109380392D01*
X174601101Y-109201068D01*
X174468142Y-109130000D01*
X174601101Y-109058932D01*
X174819608Y-108879608D01*
X174998932Y-108661101D01*
X175132182Y-108411808D01*
X175214236Y-108141309D01*
X175241943Y-107860000D01*
X175214236Y-107578691D01*
X175132182Y-107308192D01*
X174998932Y-107058899D01*
X174819608Y-106840392D01*
X174601101Y-106661068D01*
X174463318Y-106587421D01*
X174655131Y-106472385D01*
X174863519Y-106283414D01*
X175031037Y-106057420D01*
X175151246Y-105803087D01*
X175191904Y-105669039D01*
X175069915Y-105447000D01*
X173927000Y-105447000D01*
X173927000Y-105467000D01*
X173673000Y-105467000D01*
X173673000Y-105447000D01*
X172530085Y-105447000D01*
X172408096Y-105669039D01*
X172448754Y-105803087D01*
X172568963Y-106057420D01*
X172736481Y-106283414D01*
X172944869Y-106472385D01*
X173136682Y-106587421D01*
X172998899Y-106661068D01*
X172780392Y-106840392D01*
X172601068Y-107058899D01*
X172467818Y-107308192D01*
X172385764Y-107578691D01*
X172358057Y-107860000D01*
X172385764Y-108141309D01*
X172467818Y-108411808D01*
X172601068Y-108661101D01*
X172780392Y-108879608D01*
X172998899Y-109058932D01*
X173131858Y-109130000D01*
X172998899Y-109201068D01*
X172780392Y-109380392D01*
X172601068Y-109598899D01*
X172467818Y-109848192D01*
X172385764Y-110118691D01*
X172358057Y-110400000D01*
X172385764Y-110681309D01*
X172467818Y-110951808D01*
X172601068Y-111201101D01*
X172780392Y-111419608D01*
X172998899Y-111598932D01*
X173131858Y-111670000D01*
X172998899Y-111741068D01*
X172780392Y-111920392D01*
X172601068Y-112138899D01*
X172467818Y-112388192D01*
X172385764Y-112658691D01*
X172358057Y-112940000D01*
X172385764Y-113221309D01*
X172467818Y-113491808D01*
X172601068Y-113741101D01*
X172780392Y-113959608D01*
X172998899Y-114138932D01*
X173131858Y-114210000D01*
X172998899Y-114281068D01*
X172780392Y-114460392D01*
X172601068Y-114678899D01*
X172467818Y-114928192D01*
X172385764Y-115198691D01*
X172358057Y-115480000D01*
X172385764Y-115761309D01*
X172467818Y-116031808D01*
X172601068Y-116281101D01*
X172780392Y-116499608D01*
X172998899Y-116678932D01*
X173131858Y-116750000D01*
X172998899Y-116821068D01*
X172780392Y-117000392D01*
X172601068Y-117218899D01*
X172467818Y-117468192D01*
X172385764Y-117738691D01*
X172358057Y-118020000D01*
X172385764Y-118301309D01*
X172467818Y-118571808D01*
X172601068Y-118821101D01*
X172780392Y-119039608D01*
X172998899Y-119218932D01*
X173131858Y-119290000D01*
X172998899Y-119361068D01*
X172780392Y-119540392D01*
X172601068Y-119758899D01*
X172467818Y-120008192D01*
X172385764Y-120278691D01*
X172358057Y-120560000D01*
X172385764Y-120841309D01*
X172467818Y-121111808D01*
X172601068Y-121361101D01*
X172780392Y-121579608D01*
X172998899Y-121758932D01*
X173131858Y-121830000D01*
X172998899Y-121901068D01*
X172780392Y-122080392D01*
X172601068Y-122298899D01*
X172467818Y-122548192D01*
X172385764Y-122818691D01*
X172358057Y-123100000D01*
X172385764Y-123381309D01*
X172467818Y-123651808D01*
X172601068Y-123901101D01*
X172780392Y-124119608D01*
X172998899Y-124298932D01*
X173131858Y-124370000D01*
X172998899Y-124441068D01*
X172780392Y-124620392D01*
X172601068Y-124838899D01*
X172467818Y-125088192D01*
X172385764Y-125358691D01*
X172358057Y-125640000D01*
X172385764Y-125921309D01*
X172467818Y-126191808D01*
X172601068Y-126441101D01*
X172780392Y-126659608D01*
X172998899Y-126838932D01*
X173131858Y-126910000D01*
X172998899Y-126981068D01*
X172780392Y-127160392D01*
X172601068Y-127378899D01*
X172467818Y-127628192D01*
X172385764Y-127898691D01*
X172358057Y-128180000D01*
X172385764Y-128461309D01*
X172467818Y-128731808D01*
X172601068Y-128981101D01*
X172780392Y-129199608D01*
X172998899Y-129378932D01*
X173131858Y-129450000D01*
X172998899Y-129521068D01*
X172780392Y-129700392D01*
X172601068Y-129918899D01*
X172467818Y-130168192D01*
X172385764Y-130438691D01*
X172358057Y-130720000D01*
X172385764Y-131001309D01*
X172467818Y-131271808D01*
X172601068Y-131521101D01*
X172780392Y-131739608D01*
X172998899Y-131918932D01*
X173131858Y-131990000D01*
X172998899Y-132061068D01*
X172780392Y-132240392D01*
X172601068Y-132458899D01*
X172467818Y-132708192D01*
X172385764Y-132978691D01*
X172358057Y-133260000D01*
X172385764Y-133541309D01*
X172467818Y-133811808D01*
X172601068Y-134061101D01*
X172780392Y-134279608D01*
X172998899Y-134458932D01*
X173248192Y-134592182D01*
X173518691Y-134674236D01*
X173729508Y-134695000D01*
X173870492Y-134695000D01*
X174081309Y-134674236D01*
X174351808Y-134592182D01*
X174601101Y-134458932D01*
X174819608Y-134279608D01*
X174998932Y-134061101D01*
X175007538Y-134045000D01*
X175284843Y-134045000D01*
X175841488Y-134601645D01*
X175826596Y-134676510D01*
X175814336Y-134800991D01*
X175814336Y-134825550D01*
X175811928Y-134850000D01*
X175811928Y-135350000D01*
X175813405Y-135365000D01*
X168642319Y-135365000D01*
X168685000Y-135150430D01*
X168685000Y-134749570D01*
X168606796Y-134356413D01*
X168453393Y-133986066D01*
X168230687Y-133652763D01*
X167947237Y-133369313D01*
X167613934Y-133146607D01*
X167243587Y-132993204D01*
X166850430Y-132915000D01*
X166449570Y-132915000D01*
X166056413Y-132993204D01*
X165686066Y-133146607D01*
X165352763Y-133369313D01*
X165069313Y-133652763D01*
X164846607Y-133986066D01*
X164693204Y-134356413D01*
X164615000Y-134749570D01*
X164615000Y-135150430D01*
X164693204Y-135543587D01*
X164846607Y-135913934D01*
X165069313Y-136247237D01*
X165352763Y-136530687D01*
X165478946Y-136615000D01*
X160675158Y-136615000D01*
X159582679Y-135522521D01*
X159656796Y-135343587D01*
X159735000Y-134950430D01*
X159735000Y-134549570D01*
X159656796Y-134156413D01*
X159503393Y-133786066D01*
X159280687Y-133452763D01*
X158997237Y-133169313D01*
X158663934Y-132946607D01*
X158293587Y-132793204D01*
X157900430Y-132715000D01*
X157499570Y-132715000D01*
X157106413Y-132793204D01*
X156927478Y-132867321D01*
X156882346Y-132822189D01*
X156857765Y-132792237D01*
X156738234Y-132694139D01*
X156665327Y-132655170D01*
X134310157Y-110300000D01*
X153261928Y-110300000D01*
X153261928Y-113300000D01*
X153274188Y-113424482D01*
X153310498Y-113544180D01*
X153369463Y-113654494D01*
X153448815Y-113751185D01*
X153545506Y-113830537D01*
X153655820Y-113889502D01*
X153775518Y-113925812D01*
X153900000Y-113938072D01*
X156900000Y-113938072D01*
X157024482Y-113925812D01*
X157144180Y-113889502D01*
X157254494Y-113830537D01*
X157351185Y-113751185D01*
X157430537Y-113654494D01*
X157489502Y-113544180D01*
X157525812Y-113424482D01*
X157538072Y-113300000D01*
X157538072Y-110300000D01*
X157525812Y-110175518D01*
X157489502Y-110055820D01*
X157430537Y-109945506D01*
X157351185Y-109848815D01*
X157254494Y-109769463D01*
X157144180Y-109710498D01*
X157024482Y-109674188D01*
X156900000Y-109661928D01*
X153900000Y-109661928D01*
X153775518Y-109674188D01*
X153655820Y-109710498D01*
X153545506Y-109769463D01*
X153448815Y-109848815D01*
X153369463Y-109945506D01*
X153310498Y-110055820D01*
X153274188Y-110175518D01*
X153261928Y-110300000D01*
X134310157Y-110300000D01*
X128190157Y-104180000D01*
X153254670Y-104180000D01*
X153295892Y-104598533D01*
X153417974Y-105000982D01*
X153616223Y-105371881D01*
X153883023Y-105696977D01*
X154208119Y-105963777D01*
X154579018Y-106162026D01*
X154981467Y-106284108D01*
X155295118Y-106315000D01*
X155504882Y-106315000D01*
X155818533Y-106284108D01*
X156220982Y-106162026D01*
X156591881Y-105963777D01*
X156916977Y-105696977D01*
X157183777Y-105371881D01*
X157382026Y-105000982D01*
X157504108Y-104598533D01*
X157545330Y-104180000D01*
X157504108Y-103761467D01*
X157382026Y-103359018D01*
X157183777Y-102988119D01*
X156916977Y-102663023D01*
X156591881Y-102396223D01*
X156220982Y-102197974D01*
X155818533Y-102075892D01*
X155504882Y-102045000D01*
X155295118Y-102045000D01*
X154981467Y-102075892D01*
X154579018Y-102197974D01*
X154208119Y-102396223D01*
X153883023Y-102663023D01*
X153616223Y-102988119D01*
X153417974Y-103359018D01*
X153295892Y-103761467D01*
X153254670Y-104180000D01*
X128190157Y-104180000D01*
X121985000Y-97974843D01*
X121985000Y-97018833D01*
X153314887Y-97018833D01*
X153411375Y-97336923D01*
X153601156Y-97709956D01*
X153860066Y-98038797D01*
X154178154Y-98310809D01*
X154543197Y-98515538D01*
X154941167Y-98645117D01*
X155273000Y-98532473D01*
X155273000Y-96687000D01*
X155527000Y-96687000D01*
X155527000Y-98532473D01*
X155858833Y-98645117D01*
X156256803Y-98515538D01*
X156621846Y-98310809D01*
X156939934Y-98038797D01*
X157198844Y-97709956D01*
X157388625Y-97336923D01*
X157485113Y-97018833D01*
X157372165Y-96687000D01*
X155527000Y-96687000D01*
X155273000Y-96687000D01*
X153427835Y-96687000D01*
X153314887Y-97018833D01*
X121985000Y-97018833D01*
X121985000Y-96101167D01*
X153314887Y-96101167D01*
X153427835Y-96433000D01*
X155273000Y-96433000D01*
X155273000Y-94587527D01*
X155527000Y-94587527D01*
X155527000Y-96433000D01*
X157372165Y-96433000D01*
X157485113Y-96101167D01*
X157388625Y-95783077D01*
X157198844Y-95410044D01*
X156939934Y-95081203D01*
X156621846Y-94809191D01*
X156256803Y-94604462D01*
X155858833Y-94474883D01*
X155527000Y-94587527D01*
X155273000Y-94587527D01*
X154941167Y-94474883D01*
X154543197Y-94604462D01*
X154178154Y-94809191D01*
X153860066Y-95081203D01*
X153601156Y-95410044D01*
X153411375Y-95783077D01*
X153314887Y-96101167D01*
X121985000Y-96101167D01*
X121985000Y-90570132D01*
X122081612Y-90473520D01*
X122205824Y-90287624D01*
X122291383Y-90081067D01*
X122335000Y-89861788D01*
X122335000Y-89638212D01*
X122291383Y-89418933D01*
X122205824Y-89212376D01*
X122081612Y-89026480D01*
X121923520Y-88868388D01*
X121737624Y-88744176D01*
X121531067Y-88658617D01*
X121311788Y-88615000D01*
X121088212Y-88615000D01*
X120868933Y-88658617D01*
X120662376Y-88744176D01*
X120476480Y-88868388D01*
X120318388Y-89026480D01*
X120223549Y-89168417D01*
X120123520Y-89068388D01*
X119937624Y-88944176D01*
X119731067Y-88858617D01*
X119511788Y-88815000D01*
X119288212Y-88815000D01*
X119068933Y-88858617D01*
X118862376Y-88944176D01*
X118676480Y-89068388D01*
X118518388Y-89226480D01*
X118394176Y-89412376D01*
X118308617Y-89618933D01*
X118265000Y-89838212D01*
X100452922Y-89838212D01*
X100461283Y-87465886D01*
X136323000Y-87465886D01*
X136323000Y-87934114D01*
X136414347Y-88393345D01*
X136593530Y-88825932D01*
X136853664Y-89215249D01*
X137184751Y-89546336D01*
X137574068Y-89806470D01*
X138006655Y-89985653D01*
X138465886Y-90077000D01*
X138934114Y-90077000D01*
X139393345Y-89985653D01*
X139825932Y-89806470D01*
X140215249Y-89546336D01*
X140546336Y-89215249D01*
X140806470Y-88825932D01*
X140985653Y-88393345D01*
X141077000Y-87934114D01*
X141077000Y-87489721D01*
X151565000Y-87489721D01*
X151565000Y-87910279D01*
X151647047Y-88322756D01*
X151807988Y-88711302D01*
X152041637Y-89060983D01*
X152339017Y-89358363D01*
X152688698Y-89592012D01*
X153077244Y-89752953D01*
X153489721Y-89835000D01*
X153910279Y-89835000D01*
X154322756Y-89752953D01*
X154711302Y-89592012D01*
X155060983Y-89358363D01*
X155358363Y-89060983D01*
X155592012Y-88711302D01*
X155752953Y-88322756D01*
X155835000Y-87910279D01*
X155835000Y-87489721D01*
X155752953Y-87077244D01*
X155592012Y-86688698D01*
X155358363Y-86339017D01*
X155060983Y-86041637D01*
X154711302Y-85807988D01*
X154322756Y-85647047D01*
X153910279Y-85565000D01*
X153489721Y-85565000D01*
X153077244Y-85647047D01*
X152688698Y-85807988D01*
X152339017Y-86041637D01*
X152041637Y-86339017D01*
X151807988Y-86688698D01*
X151647047Y-87077244D01*
X151565000Y-87489721D01*
X141077000Y-87489721D01*
X141077000Y-87465886D01*
X140985653Y-87006655D01*
X140806470Y-86574068D01*
X140546336Y-86184751D01*
X140215249Y-85853664D01*
X139825932Y-85593530D01*
X139393345Y-85414347D01*
X138934114Y-85323000D01*
X138465886Y-85323000D01*
X138006655Y-85414347D01*
X137574068Y-85593530D01*
X137184751Y-85853664D01*
X136853664Y-86184751D01*
X136593530Y-86574068D01*
X136414347Y-87006655D01*
X136323000Y-87465886D01*
X100461283Y-87465886D01*
X100478906Y-82465886D01*
X136323000Y-82465886D01*
X136323000Y-82934114D01*
X136414347Y-83393345D01*
X136593530Y-83825932D01*
X136853664Y-84215249D01*
X137184751Y-84546336D01*
X137574068Y-84806470D01*
X138006655Y-84985653D01*
X138465886Y-85077000D01*
X138934114Y-85077000D01*
X139321217Y-85000000D01*
X159461928Y-85000000D01*
X159461928Y-87000000D01*
X159474188Y-87124482D01*
X159510498Y-87244180D01*
X159569463Y-87354494D01*
X159648815Y-87451185D01*
X159745506Y-87530537D01*
X159855820Y-87589502D01*
X159975518Y-87625812D01*
X160100000Y-87638072D01*
X162100000Y-87638072D01*
X162224482Y-87625812D01*
X162344180Y-87589502D01*
X162454494Y-87530537D01*
X162551185Y-87451185D01*
X162630537Y-87354494D01*
X162689502Y-87244180D01*
X162722496Y-87135413D01*
X165144192Y-87135413D01*
X165239956Y-87399814D01*
X165529571Y-87540704D01*
X165841108Y-87622384D01*
X166162595Y-87641718D01*
X166481675Y-87597961D01*
X166786088Y-87492795D01*
X166960044Y-87399814D01*
X167018574Y-87238212D01*
X188865000Y-87238212D01*
X188865000Y-87461788D01*
X188908617Y-87681067D01*
X188994176Y-87887624D01*
X189118388Y-88073520D01*
X189215000Y-88170132D01*
X189215001Y-89579867D01*
X189118388Y-89676480D01*
X188994176Y-89862376D01*
X188908617Y-90068933D01*
X188865000Y-90288212D01*
X188865000Y-90511788D01*
X188908617Y-90731067D01*
X188994176Y-90937624D01*
X189118388Y-91123520D01*
X189276480Y-91281612D01*
X189462376Y-91405824D01*
X189668933Y-91491383D01*
X189888212Y-91535000D01*
X190111788Y-91535000D01*
X190331067Y-91491383D01*
X190537624Y-91405824D01*
X190723520Y-91281612D01*
X190881612Y-91123520D01*
X191005824Y-90937624D01*
X191091383Y-90731067D01*
X191135000Y-90511788D01*
X191135000Y-90288212D01*
X191091383Y-90068933D01*
X191005824Y-89862376D01*
X190881612Y-89676480D01*
X190785000Y-89579868D01*
X190785000Y-88170132D01*
X190881612Y-88073520D01*
X191005824Y-87887624D01*
X191091383Y-87681067D01*
X191135000Y-87461788D01*
X191135000Y-87238212D01*
X191091383Y-87018933D01*
X191005824Y-86812376D01*
X190881612Y-86626480D01*
X190723520Y-86468388D01*
X190537624Y-86344176D01*
X190331067Y-86258617D01*
X190111788Y-86215000D01*
X189888212Y-86215000D01*
X189668933Y-86258617D01*
X189462376Y-86344176D01*
X189276480Y-86468388D01*
X189118388Y-86626480D01*
X188994176Y-86812376D01*
X188908617Y-87018933D01*
X188865000Y-87238212D01*
X167018574Y-87238212D01*
X167055808Y-87135413D01*
X166100000Y-86179605D01*
X165144192Y-87135413D01*
X162722496Y-87135413D01*
X162725812Y-87124482D01*
X162738072Y-87000000D01*
X162738072Y-86062595D01*
X164458282Y-86062595D01*
X164502039Y-86381675D01*
X164607205Y-86686088D01*
X164700186Y-86860044D01*
X164964587Y-86955808D01*
X165920395Y-86000000D01*
X166279605Y-86000000D01*
X167235413Y-86955808D01*
X167499814Y-86860044D01*
X167640704Y-86570429D01*
X167722384Y-86258892D01*
X167741718Y-85937405D01*
X167697961Y-85618325D01*
X167592795Y-85313912D01*
X167499814Y-85139956D01*
X167235413Y-85044192D01*
X166279605Y-86000000D01*
X165920395Y-86000000D01*
X164964587Y-85044192D01*
X164700186Y-85139956D01*
X164559296Y-85429571D01*
X164477616Y-85741108D01*
X164458282Y-86062595D01*
X162738072Y-86062595D01*
X162738072Y-85000000D01*
X162725812Y-84875518D01*
X162722497Y-84864587D01*
X165144192Y-84864587D01*
X166100000Y-85820395D01*
X167055808Y-84864587D01*
X166960044Y-84600186D01*
X166670429Y-84459296D01*
X166358892Y-84377616D01*
X166037405Y-84358282D01*
X165718325Y-84402039D01*
X165413912Y-84507205D01*
X165239956Y-84600186D01*
X165144192Y-84864587D01*
X162722497Y-84864587D01*
X162689502Y-84755820D01*
X162630537Y-84645506D01*
X162551185Y-84548815D01*
X162454494Y-84469463D01*
X162344180Y-84410498D01*
X162224482Y-84374188D01*
X162100000Y-84361928D01*
X160100000Y-84361928D01*
X159975518Y-84374188D01*
X159855820Y-84410498D01*
X159745506Y-84469463D01*
X159648815Y-84548815D01*
X159569463Y-84645506D01*
X159510498Y-84755820D01*
X159474188Y-84875518D01*
X159461928Y-85000000D01*
X139321217Y-85000000D01*
X139393345Y-84985653D01*
X139825932Y-84806470D01*
X140215249Y-84546336D01*
X140546336Y-84215249D01*
X140806470Y-83825932D01*
X140985653Y-83393345D01*
X141077000Y-82934114D01*
X141077000Y-82489721D01*
X151565000Y-82489721D01*
X151565000Y-82910279D01*
X151647047Y-83322756D01*
X151807988Y-83711302D01*
X152041637Y-84060983D01*
X152339017Y-84358363D01*
X152688698Y-84592012D01*
X153077244Y-84752953D01*
X153489721Y-84835000D01*
X153910279Y-84835000D01*
X154322756Y-84752953D01*
X154711302Y-84592012D01*
X155060983Y-84358363D01*
X155358363Y-84060983D01*
X155592012Y-83711302D01*
X155752953Y-83322756D01*
X155835000Y-82910279D01*
X155835000Y-82489721D01*
X155752953Y-82077244D01*
X155592012Y-81688698D01*
X155358363Y-81339017D01*
X155060983Y-81041637D01*
X154711302Y-80807988D01*
X154322756Y-80647047D01*
X153910279Y-80565000D01*
X153489721Y-80565000D01*
X153077244Y-80647047D01*
X152688698Y-80807988D01*
X152339017Y-81041637D01*
X152041637Y-81339017D01*
X151807988Y-81688698D01*
X151647047Y-82077244D01*
X151565000Y-82489721D01*
X141077000Y-82489721D01*
X141077000Y-82465886D01*
X140985653Y-82006655D01*
X140806470Y-81574068D01*
X140546336Y-81184751D01*
X140215249Y-80853664D01*
X139825932Y-80593530D01*
X139393345Y-80414347D01*
X138934114Y-80323000D01*
X138465886Y-80323000D01*
X138006655Y-80414347D01*
X137574068Y-80593530D01*
X137184751Y-80853664D01*
X136853664Y-81184751D01*
X136593530Y-81574068D01*
X136414347Y-82006655D01*
X136323000Y-82465886D01*
X100478906Y-82465886D01*
X100486757Y-80238212D01*
X180265000Y-80238212D01*
X180265000Y-80461788D01*
X180308617Y-80681067D01*
X180394176Y-80887624D01*
X180515000Y-81068450D01*
X180515001Y-82981549D01*
X180394176Y-83162376D01*
X180308617Y-83368933D01*
X180265000Y-83588212D01*
X180265000Y-83811788D01*
X180308617Y-84031067D01*
X180394176Y-84237624D01*
X180518388Y-84423520D01*
X180676480Y-84581612D01*
X180862376Y-84705824D01*
X181068933Y-84791383D01*
X181288212Y-84835000D01*
X181511788Y-84835000D01*
X181731067Y-84791383D01*
X181937624Y-84705824D01*
X182123520Y-84581612D01*
X182281612Y-84423520D01*
X182405824Y-84237624D01*
X182491383Y-84031067D01*
X182535000Y-83811788D01*
X182535000Y-83588212D01*
X182491383Y-83368933D01*
X182405824Y-83162376D01*
X182285000Y-82981550D01*
X182285000Y-81068450D01*
X182405824Y-80887624D01*
X182491383Y-80681067D01*
X182535000Y-80461788D01*
X182535000Y-80238212D01*
X182491383Y-80018933D01*
X182405824Y-79812376D01*
X182281612Y-79626480D01*
X182123520Y-79468388D01*
X181937624Y-79344176D01*
X181731067Y-79258617D01*
X181511788Y-79215000D01*
X181288212Y-79215000D01*
X181068933Y-79258617D01*
X180862376Y-79344176D01*
X180676480Y-79468388D01*
X180518388Y-79626480D01*
X180394176Y-79812376D01*
X180308617Y-80018933D01*
X180265000Y-80238212D01*
X100486757Y-80238212D01*
X100533860Y-66875000D01*
X109393757Y-66875000D01*
X109393757Y-69125000D01*
X109410690Y-69296922D01*
X109460838Y-69462237D01*
X109542273Y-69614592D01*
X109651867Y-69748133D01*
X109785408Y-69857727D01*
X109937763Y-69939162D01*
X110103078Y-69989310D01*
X110275000Y-70006243D01*
X116525000Y-70006243D01*
X116696922Y-69989310D01*
X116862237Y-69939162D01*
X117014592Y-69857727D01*
X117148133Y-69748133D01*
X117257727Y-69614592D01*
X117339162Y-69462237D01*
X117389310Y-69296922D01*
X117406243Y-69125000D01*
X117536928Y-69125000D01*
X117549188Y-69249482D01*
X117585498Y-69369180D01*
X117644463Y-69479494D01*
X117723815Y-69576185D01*
X117820506Y-69655537D01*
X117930820Y-69714502D01*
X118050518Y-69750812D01*
X118175000Y-69763072D01*
X121014250Y-69760000D01*
X121173000Y-69601250D01*
X121173000Y-68127000D01*
X121427000Y-68127000D01*
X121427000Y-69601250D01*
X121585750Y-69760000D01*
X124425000Y-69763072D01*
X124549482Y-69750812D01*
X124669180Y-69714502D01*
X124779494Y-69655537D01*
X124876185Y-69576185D01*
X124955537Y-69479494D01*
X125014502Y-69369180D01*
X125050812Y-69249482D01*
X125063072Y-69125000D01*
X125060000Y-68285750D01*
X124901250Y-68127000D01*
X121427000Y-68127000D01*
X121173000Y-68127000D01*
X117698750Y-68127000D01*
X117540000Y-68285750D01*
X117536928Y-69125000D01*
X117406243Y-69125000D01*
X117406243Y-66875000D01*
X117536928Y-66875000D01*
X117540000Y-67714250D01*
X117698750Y-67873000D01*
X121173000Y-67873000D01*
X121173000Y-66398750D01*
X121427000Y-66398750D01*
X121427000Y-67873000D01*
X124901250Y-67873000D01*
X125060000Y-67714250D01*
X125063072Y-66875000D01*
X137293757Y-66875000D01*
X137293757Y-69125000D01*
X137310690Y-69296922D01*
X137360838Y-69462237D01*
X137442273Y-69614592D01*
X137551867Y-69748133D01*
X137685408Y-69857727D01*
X137837763Y-69939162D01*
X138003078Y-69989310D01*
X138175000Y-70006243D01*
X144425000Y-70006243D01*
X144596922Y-69989310D01*
X144627612Y-69980000D01*
X172108299Y-69980000D01*
X172135040Y-70251507D01*
X172214236Y-70512581D01*
X172342843Y-70753188D01*
X172515919Y-70964081D01*
X172726812Y-71137157D01*
X172967419Y-71265764D01*
X173228493Y-71344960D01*
X173431963Y-71365000D01*
X174368037Y-71365000D01*
X174571507Y-71344960D01*
X174832581Y-71265764D01*
X175073188Y-71137157D01*
X175284081Y-70964081D01*
X175457157Y-70753188D01*
X175585764Y-70512581D01*
X175664960Y-70251507D01*
X175691701Y-69980000D01*
X175664960Y-69708493D01*
X175585764Y-69447419D01*
X175457157Y-69206812D01*
X175284081Y-68995919D01*
X175073188Y-68822843D01*
X174857422Y-68707514D01*
X174947349Y-68670972D01*
X175175061Y-68521028D01*
X175369145Y-68329540D01*
X175522142Y-68103868D01*
X175628173Y-67852684D01*
X175642318Y-67781185D01*
X175519656Y-67567000D01*
X174027000Y-67567000D01*
X174027000Y-67587000D01*
X173773000Y-67587000D01*
X173773000Y-67567000D01*
X172280344Y-67567000D01*
X172157682Y-67781185D01*
X172171827Y-67852684D01*
X172277858Y-68103868D01*
X172430855Y-68329540D01*
X172624939Y-68521028D01*
X172852651Y-68670972D01*
X172942578Y-68707514D01*
X172726812Y-68822843D01*
X172515919Y-68995919D01*
X172342843Y-69206812D01*
X172214236Y-69447419D01*
X172135040Y-69708493D01*
X172108299Y-69980000D01*
X144627612Y-69980000D01*
X144762237Y-69939162D01*
X144914592Y-69857727D01*
X145048133Y-69748133D01*
X145157727Y-69614592D01*
X145239162Y-69462237D01*
X145289310Y-69296922D01*
X145306243Y-69125000D01*
X145436928Y-69125000D01*
X145449188Y-69249482D01*
X145485498Y-69369180D01*
X145544463Y-69479494D01*
X145623815Y-69576185D01*
X145720506Y-69655537D01*
X145830820Y-69714502D01*
X145950518Y-69750812D01*
X146075000Y-69763072D01*
X148914250Y-69760000D01*
X149073000Y-69601250D01*
X149073000Y-68127000D01*
X149327000Y-68127000D01*
X149327000Y-69601250D01*
X149485750Y-69760000D01*
X152325000Y-69763072D01*
X152449482Y-69750812D01*
X152569180Y-69714502D01*
X152679494Y-69655537D01*
X152776185Y-69576185D01*
X152855537Y-69479494D01*
X152914502Y-69369180D01*
X152950812Y-69249482D01*
X152963072Y-69125000D01*
X152960000Y-68285750D01*
X152801250Y-68127000D01*
X149327000Y-68127000D01*
X149073000Y-68127000D01*
X145598750Y-68127000D01*
X145440000Y-68285750D01*
X145436928Y-69125000D01*
X145306243Y-69125000D01*
X145306243Y-66875000D01*
X145436928Y-66875000D01*
X145440000Y-67714250D01*
X145598750Y-67873000D01*
X149073000Y-67873000D01*
X149073000Y-66398750D01*
X149327000Y-66398750D01*
X149327000Y-67873000D01*
X152801250Y-67873000D01*
X152960000Y-67714250D01*
X152963072Y-66875000D01*
X152950812Y-66750518D01*
X152914502Y-66630820D01*
X152855537Y-66520506D01*
X152776185Y-66423815D01*
X152679494Y-66344463D01*
X152569180Y-66285498D01*
X152449482Y-66249188D01*
X152325000Y-66236928D01*
X149485750Y-66240000D01*
X149327000Y-66398750D01*
X149073000Y-66398750D01*
X148914250Y-66240000D01*
X146075000Y-66236928D01*
X145950518Y-66249188D01*
X145830820Y-66285498D01*
X145720506Y-66344463D01*
X145623815Y-66423815D01*
X145544463Y-66520506D01*
X145485498Y-66630820D01*
X145449188Y-66750518D01*
X145436928Y-66875000D01*
X145306243Y-66875000D01*
X145289310Y-66703078D01*
X145239162Y-66537763D01*
X145157727Y-66385408D01*
X145048133Y-66251867D01*
X144914592Y-66142273D01*
X144762237Y-66060838D01*
X144596922Y-66010690D01*
X144425000Y-65993757D01*
X138175000Y-65993757D01*
X138003078Y-66010690D01*
X137837763Y-66060838D01*
X137685408Y-66142273D01*
X137551867Y-66251867D01*
X137442273Y-66385408D01*
X137360838Y-66537763D01*
X137310690Y-66703078D01*
X137293757Y-66875000D01*
X125063072Y-66875000D01*
X125050812Y-66750518D01*
X125014502Y-66630820D01*
X124955537Y-66520506D01*
X124876185Y-66423815D01*
X124779494Y-66344463D01*
X124669180Y-66285498D01*
X124549482Y-66249188D01*
X124425000Y-66236928D01*
X121585750Y-66240000D01*
X121427000Y-66398750D01*
X121173000Y-66398750D01*
X121014250Y-66240000D01*
X118175000Y-66236928D01*
X118050518Y-66249188D01*
X117930820Y-66285498D01*
X117820506Y-66344463D01*
X117723815Y-66423815D01*
X117644463Y-66520506D01*
X117585498Y-66630820D01*
X117549188Y-66750518D01*
X117536928Y-66875000D01*
X117406243Y-66875000D01*
X117389310Y-66703078D01*
X117339162Y-66537763D01*
X117257727Y-66385408D01*
X117148133Y-66251867D01*
X117014592Y-66142273D01*
X116862237Y-66060838D01*
X116696922Y-66010690D01*
X116525000Y-65993757D01*
X110275000Y-65993757D01*
X110103078Y-66010690D01*
X109937763Y-66060838D01*
X109785408Y-66142273D01*
X109651867Y-66251867D01*
X109542273Y-66385408D01*
X109460838Y-66537763D01*
X109410690Y-66703078D01*
X109393757Y-66875000D01*
X100533860Y-66875000D01*
X100543464Y-64150000D01*
X171868757Y-64150000D01*
X171868757Y-65650000D01*
X171885690Y-65821922D01*
X171935838Y-65987237D01*
X172017273Y-66139592D01*
X172126867Y-66273133D01*
X172260408Y-66382727D01*
X172412763Y-66464162D01*
X172493500Y-66488653D01*
X172430855Y-66550460D01*
X172277858Y-66776132D01*
X172171827Y-67027316D01*
X172157682Y-67098815D01*
X172280344Y-67313000D01*
X173773000Y-67313000D01*
X173773000Y-67293000D01*
X174027000Y-67293000D01*
X174027000Y-67313000D01*
X175519656Y-67313000D01*
X175642318Y-67098815D01*
X175628173Y-67027316D01*
X175522142Y-66776132D01*
X175369145Y-66550460D01*
X175306500Y-66488653D01*
X175387237Y-66464162D01*
X175539592Y-66382727D01*
X175673133Y-66273133D01*
X175782727Y-66139592D01*
X175864162Y-65987237D01*
X175914310Y-65821922D01*
X175931243Y-65650000D01*
X175931243Y-64351081D01*
X188188000Y-64351081D01*
X188188000Y-64648919D01*
X188246105Y-64941034D01*
X188360083Y-65216201D01*
X188525553Y-65463844D01*
X188736156Y-65674447D01*
X188983799Y-65839917D01*
X189258966Y-65953895D01*
X189551081Y-66012000D01*
X189848919Y-66012000D01*
X190141034Y-65953895D01*
X190147827Y-65951081D01*
X193288000Y-65951081D01*
X193288000Y-66248919D01*
X193346105Y-66541034D01*
X193460083Y-66816201D01*
X193625553Y-67063844D01*
X193836156Y-67274447D01*
X194083799Y-67439917D01*
X194358966Y-67553895D01*
X194651081Y-67612000D01*
X194948919Y-67612000D01*
X195241034Y-67553895D01*
X195516201Y-67439917D01*
X195763844Y-67274447D01*
X195974447Y-67063844D01*
X196139917Y-66816201D01*
X196253895Y-66541034D01*
X196312000Y-66248919D01*
X196312000Y-65951081D01*
X196253895Y-65658966D01*
X196139917Y-65383799D01*
X195974447Y-65136156D01*
X195763844Y-64925553D01*
X195516201Y-64760083D01*
X195241034Y-64646105D01*
X194948919Y-64588000D01*
X194651081Y-64588000D01*
X194358966Y-64646105D01*
X194083799Y-64760083D01*
X193836156Y-64925553D01*
X193625553Y-65136156D01*
X193460083Y-65383799D01*
X193346105Y-65658966D01*
X193288000Y-65951081D01*
X190147827Y-65951081D01*
X190416201Y-65839917D01*
X190663844Y-65674447D01*
X190874447Y-65463844D01*
X191039917Y-65216201D01*
X191153895Y-64941034D01*
X191212000Y-64648919D01*
X191212000Y-64351081D01*
X191153895Y-64058966D01*
X191039917Y-63783799D01*
X190874447Y-63536156D01*
X190663844Y-63325553D01*
X190416201Y-63160083D01*
X190141034Y-63046105D01*
X189848919Y-62988000D01*
X189551081Y-62988000D01*
X189258966Y-63046105D01*
X188983799Y-63160083D01*
X188736156Y-63325553D01*
X188525553Y-63536156D01*
X188360083Y-63783799D01*
X188246105Y-64058966D01*
X188188000Y-64351081D01*
X175931243Y-64351081D01*
X175931243Y-64150000D01*
X175914310Y-63978078D01*
X175864162Y-63812763D01*
X175782727Y-63660408D01*
X175673133Y-63526867D01*
X175539592Y-63417273D01*
X175387237Y-63335838D01*
X175221922Y-63285690D01*
X175050000Y-63268757D01*
X172750000Y-63268757D01*
X172578078Y-63285690D01*
X172412763Y-63335838D01*
X172260408Y-63417273D01*
X172126867Y-63526867D01*
X172017273Y-63660408D01*
X171935838Y-63812763D01*
X171885690Y-63978078D01*
X171868757Y-64150000D01*
X100543464Y-64150000D01*
X100572207Y-55995433D01*
X162423000Y-55995433D01*
X162423000Y-56404567D01*
X162502818Y-56805839D01*
X162659386Y-57183829D01*
X162886689Y-57524011D01*
X163175989Y-57813311D01*
X163516171Y-58040614D01*
X163894161Y-58197182D01*
X164295433Y-58277000D01*
X164704567Y-58277000D01*
X165105839Y-58197182D01*
X165483829Y-58040614D01*
X165824011Y-57813311D01*
X166113311Y-57524011D01*
X166340614Y-57183829D01*
X166497182Y-56805839D01*
X166577000Y-56404567D01*
X166577000Y-56200000D01*
X192892951Y-56200000D01*
X192933053Y-56607163D01*
X193051818Y-56998679D01*
X193244682Y-57359502D01*
X193504233Y-57675767D01*
X193820498Y-57935318D01*
X194181321Y-58128182D01*
X194572837Y-58246947D01*
X194877971Y-58277000D01*
X195082029Y-58277000D01*
X195387163Y-58246947D01*
X195778679Y-58128182D01*
X196139502Y-57935318D01*
X196455767Y-57675767D01*
X196715318Y-57359502D01*
X196908182Y-56998679D01*
X197026947Y-56607163D01*
X197067049Y-56200000D01*
X197026947Y-55792837D01*
X196908182Y-55401321D01*
X196715318Y-55040498D01*
X196455767Y-54724233D01*
X196139502Y-54464682D01*
X195778679Y-54271818D01*
X195387163Y-54153053D01*
X195082029Y-54123000D01*
X194877971Y-54123000D01*
X194572837Y-54153053D01*
X194181321Y-54271818D01*
X193820498Y-54464682D01*
X193504233Y-54724233D01*
X193244682Y-55040498D01*
X193051818Y-55401321D01*
X192933053Y-55792837D01*
X192892951Y-56200000D01*
X166577000Y-56200000D01*
X166577000Y-55995433D01*
X166497182Y-55594161D01*
X166340614Y-55216171D01*
X166113311Y-54875989D01*
X165824011Y-54586689D01*
X165483829Y-54359386D01*
X165105839Y-54202818D01*
X164704567Y-54123000D01*
X164295433Y-54123000D01*
X163894161Y-54202818D01*
X163516171Y-54359386D01*
X163175989Y-54586689D01*
X162886689Y-54875989D01*
X162659386Y-55216171D01*
X162502818Y-55594161D01*
X162423000Y-55995433D01*
X100572207Y-55995433D01*
X100594438Y-49688212D01*
X109015000Y-49688212D01*
X109015000Y-49911788D01*
X109058617Y-50131067D01*
X109144176Y-50337624D01*
X109268388Y-50523520D01*
X109426480Y-50681612D01*
X109612376Y-50805824D01*
X109818933Y-50891383D01*
X110038212Y-50935000D01*
X110261788Y-50935000D01*
X110481067Y-50891383D01*
X110687624Y-50805824D01*
X110873520Y-50681612D01*
X111031612Y-50523520D01*
X111155824Y-50337624D01*
X111241383Y-50131067D01*
X111285000Y-49911788D01*
X111285000Y-49688212D01*
X123515000Y-49688212D01*
X123515000Y-49911788D01*
X123558617Y-50131067D01*
X123644176Y-50337624D01*
X123768388Y-50523520D01*
X123926480Y-50681612D01*
X124112376Y-50805824D01*
X124318933Y-50891383D01*
X124538212Y-50935000D01*
X124761788Y-50935000D01*
X124981067Y-50891383D01*
X125187624Y-50805824D01*
X125373520Y-50681612D01*
X125531612Y-50523520D01*
X125655824Y-50337624D01*
X125741383Y-50131067D01*
X125785000Y-49911788D01*
X125785000Y-49688212D01*
X136865000Y-49688212D01*
X136865000Y-49911788D01*
X136908617Y-50131067D01*
X136994176Y-50337624D01*
X137118388Y-50523520D01*
X137276480Y-50681612D01*
X137462376Y-50805824D01*
X137668933Y-50891383D01*
X137888212Y-50935000D01*
X138111788Y-50935000D01*
X138331067Y-50891383D01*
X138537624Y-50805824D01*
X138723520Y-50681612D01*
X138881612Y-50523520D01*
X139005824Y-50337624D01*
X139091383Y-50131067D01*
X139135000Y-49911788D01*
X139135000Y-49688212D01*
X151365000Y-49688212D01*
X151365000Y-49911788D01*
X151408617Y-50131067D01*
X151494176Y-50337624D01*
X151618388Y-50523520D01*
X151776480Y-50681612D01*
X151962376Y-50805824D01*
X152168933Y-50891383D01*
X152388212Y-50935000D01*
X152611788Y-50935000D01*
X152831067Y-50891383D01*
X153037624Y-50805824D01*
X153223520Y-50681612D01*
X153381612Y-50523520D01*
X153505824Y-50337624D01*
X153591383Y-50131067D01*
X153635000Y-49911788D01*
X153635000Y-49688212D01*
X153591383Y-49468933D01*
X153505824Y-49262376D01*
X153381612Y-49076480D01*
X153223520Y-48918388D01*
X153037624Y-48794176D01*
X152831067Y-48708617D01*
X152611788Y-48665000D01*
X152388212Y-48665000D01*
X152168933Y-48708617D01*
X151962376Y-48794176D01*
X151776480Y-48918388D01*
X151618388Y-49076480D01*
X151494176Y-49262376D01*
X151408617Y-49468933D01*
X151365000Y-49688212D01*
X139135000Y-49688212D01*
X139091383Y-49468933D01*
X139005824Y-49262376D01*
X138881612Y-49076480D01*
X138723520Y-48918388D01*
X138537624Y-48794176D01*
X138331067Y-48708617D01*
X138111788Y-48665000D01*
X137888212Y-48665000D01*
X137668933Y-48708617D01*
X137462376Y-48794176D01*
X137276480Y-48918388D01*
X137118388Y-49076480D01*
X136994176Y-49262376D01*
X136908617Y-49468933D01*
X136865000Y-49688212D01*
X125785000Y-49688212D01*
X125741383Y-49468933D01*
X125655824Y-49262376D01*
X125531612Y-49076480D01*
X125373520Y-48918388D01*
X125187624Y-48794176D01*
X124981067Y-48708617D01*
X124761788Y-48665000D01*
X124538212Y-48665000D01*
X124318933Y-48708617D01*
X124112376Y-48794176D01*
X123926480Y-48918388D01*
X123768388Y-49076480D01*
X123644176Y-49262376D01*
X123558617Y-49468933D01*
X123515000Y-49688212D01*
X111285000Y-49688212D01*
X111241383Y-49468933D01*
X111155824Y-49262376D01*
X111031612Y-49076480D01*
X110873520Y-48918388D01*
X110687624Y-48794176D01*
X110481067Y-48708617D01*
X110261788Y-48665000D01*
X110038212Y-48665000D01*
X109818933Y-48708617D01*
X109612376Y-48794176D01*
X109426480Y-48918388D01*
X109268388Y-49076480D01*
X109144176Y-49262376D01*
X109058617Y-49468933D01*
X109015000Y-49688212D01*
X100594438Y-49688212D01*
X100606749Y-46195433D01*
X162423000Y-46195433D01*
X162423000Y-46604567D01*
X162502818Y-47005839D01*
X162659386Y-47383829D01*
X162886689Y-47724011D01*
X163175989Y-48013311D01*
X163516171Y-48240614D01*
X163894161Y-48397182D01*
X164295433Y-48477000D01*
X164704567Y-48477000D01*
X165105839Y-48397182D01*
X165483829Y-48240614D01*
X165824011Y-48013311D01*
X166113311Y-47724011D01*
X166340614Y-47383829D01*
X166497182Y-47005839D01*
X166577000Y-46604567D01*
X166577000Y-46400000D01*
X192892951Y-46400000D01*
X192933053Y-46807163D01*
X193051818Y-47198679D01*
X193244682Y-47559502D01*
X193504233Y-47875767D01*
X193820498Y-48135318D01*
X194181321Y-48328182D01*
X194572837Y-48446947D01*
X194877971Y-48477000D01*
X195082029Y-48477000D01*
X195387163Y-48446947D01*
X195778679Y-48328182D01*
X196139502Y-48135318D01*
X196455767Y-47875767D01*
X196715318Y-47559502D01*
X196908182Y-47198679D01*
X197026947Y-46807163D01*
X197067049Y-46400000D01*
X197026947Y-45992837D01*
X196908182Y-45601321D01*
X196715318Y-45240498D01*
X196455767Y-44924233D01*
X196139502Y-44664682D01*
X195778679Y-44471818D01*
X195387163Y-44353053D01*
X195082029Y-44323000D01*
X194877971Y-44323000D01*
X194572837Y-44353053D01*
X194181321Y-44471818D01*
X193820498Y-44664682D01*
X193504233Y-44924233D01*
X193244682Y-45240498D01*
X193051818Y-45601321D01*
X192933053Y-45992837D01*
X192892951Y-46400000D01*
X166577000Y-46400000D01*
X166577000Y-46195433D01*
X166497182Y-45794161D01*
X166340614Y-45416171D01*
X166113311Y-45075989D01*
X165824011Y-44786689D01*
X165483829Y-44559386D01*
X165105839Y-44402818D01*
X164704567Y-44323000D01*
X164295433Y-44323000D01*
X163894161Y-44402818D01*
X163516171Y-44559386D01*
X163175989Y-44786689D01*
X162886689Y-45075989D01*
X162659386Y-45416171D01*
X162502818Y-45794161D01*
X162423000Y-46195433D01*
X100606749Y-46195433D01*
X100623479Y-41449131D01*
X100641309Y-41273591D01*
X100691058Y-41110828D01*
X100771465Y-40960819D01*
X100879467Y-40829278D01*
X101010956Y-40721209D01*
X101160922Y-40640728D01*
X101323666Y-40590896D01*
X101499187Y-40572978D01*
X198840226Y-40181066D01*
X199017183Y-40197821D01*
M02*
