M48
; DRILL file {KiCad (5.1.2)-2} date 12/7/2019 11:42:26 PM
; FORMAT={-:-/ absolute / metric / decimal}
; #@! TF.CreationDate,2019-12-07T23:42:26-08:00
; #@! TF.GenerationSoftware,Kicad,Pcbnew,(5.1.2)-2
; #@! TF.FileFunction,Plated,1,2,PTH
FMAT,2
METRIC
T1C0.500
T2C0.710
T3C0.800
T4C1.000
T5C1.200
T6C1.270
T7C1.300
T8C1.600
T9C2.100
%
G90
G05
T1
X119.4Y-89.95
X121.2Y-89.75
X154.45Y-120.8
X154.475Y-133.225
X154.6Y-76.3
X157.95Y-128.0
X166.8Y-105.3
X177.9Y-118.95
X178.45Y-109.35
X180.25Y-71.25
X180.8Y-73.7
X181.4Y-80.35
X181.4Y-83.7
X184.85Y-69.1
X190.0Y-87.35
X190.0Y-90.4
X193.85Y-83.05
X197.2Y-105.3
T2
X189.7Y-64.5
X194.8Y-66.1
T3
X173.8Y-97.7
X173.8Y-100.24
X173.8Y-102.78
X173.8Y-105.32
X173.8Y-107.86
X173.8Y-110.4
X173.8Y-112.94
X173.8Y-115.48
X173.8Y-118.02
X173.8Y-120.56
X173.8Y-123.1
X173.8Y-125.64
X173.8Y-128.18
X173.8Y-130.72
X173.8Y-133.26
X189.04Y-97.7
X189.04Y-100.24
X189.04Y-102.78
X189.04Y-105.32
X189.04Y-107.86
X189.04Y-110.4
X189.04Y-112.94
X189.04Y-115.48
X189.04Y-118.02
X189.04Y-120.56
X189.04Y-123.1
X189.04Y-125.64
X189.04Y-128.18
X189.04Y-130.72
X189.04Y-133.26
T4
X173.9Y-64.9
X173.9Y-67.44
X173.9Y-69.98
X161.1Y-86.0
X166.1Y-86.0
T5
X164.5Y-46.4
X194.98Y-46.4
X139.95Y-134.85
X143.45Y-134.85
X146.95Y-134.85
X150.45Y-134.85
X164.5Y-56.2
X194.98Y-56.2
T7
X138.7Y-82.7
X138.7Y-87.7
X153.7Y-82.7
X153.7Y-87.7
T8
X193.95Y-97.85
X195.8Y-126.0
X119.45Y-137.0
X157.7Y-134.75
X195.69Y-133.66
X102.5Y-137.6
X166.65Y-134.95
X195.7Y-119.0
X104.6Y-100.37
X104.6Y-104.18
X104.6Y-107.99
X155.4Y-96.56
X155.4Y-104.18
X155.4Y-111.8
T9
X104.6Y-96.56
X104.6Y-111.8
T6
G00X143.28Y-68.0
M15
G01X139.32Y-68.0
M16
G05
G00X151.18Y-68.0
M15
G01X147.22Y-68.0
M16
G05
G00X115.38Y-68.0
M15
G01X111.42Y-68.0
M16
G05
G00X123.28Y-68.0
M15
G01X119.32Y-68.0
M16
G05
G00X128.2Y-120.72
M15
G01X128.2Y-124.68
M16
G05
G00X128.2Y-128.62
M15
G01X128.2Y-132.58
M16
G05
T0
M30
