G04 #@! TF.GenerationSoftware,KiCad,Pcbnew,(5.1.2)-2*
G04 #@! TF.CreationDate,2019-12-07T23:42:41-08:00*
G04 #@! TF.ProjectId,Precharger,50726563-6861-4726-9765-722e6b696361,rev?*
G04 #@! TF.SameCoordinates,Original*
G04 #@! TF.FileFunction,Paste,Top*
G04 #@! TF.FilePolarity,Positive*
%FSLAX46Y46*%
G04 Gerber Fmt 4.6, Leading zero omitted, Abs format (unit mm)*
G04 Created by KiCad (PCBNEW (5.1.2)-2) date 2019-12-07 23:42:41*
%MOMM*%
%LPD*%
G04 APERTURE LIST*
%ADD10R,0.508000X7.874000*%
%ADD11R,0.762000X1.016000*%
%ADD12R,4.572000X6.858000*%
%ADD13R,0.762000X1.270000*%
%ADD14C,0.100000*%
%ADD15C,1.150000*%
%ADD16R,0.900000X0.800000*%
%ADD17R,1.500000X1.100000*%
%ADD18C,0.600000*%
%ADD19C,0.900000*%
%ADD20R,1.560000X0.650000*%
%ADD21C,1.425000*%
G04 APERTURE END LIST*
D10*
X123540000Y-76250000D03*
D11*
X128239000Y-79806000D03*
X128239000Y-72694000D03*
D12*
X125622800Y-76250000D03*
D11*
X131033000Y-79298000D03*
D13*
X131033000Y-77266000D03*
X131033000Y-75234000D03*
X131033000Y-73202000D03*
D14*
G36*
X106024505Y-136401204D02*
G01*
X106048773Y-136404804D01*
X106072572Y-136410765D01*
X106095671Y-136419030D01*
X106117850Y-136429520D01*
X106138893Y-136442132D01*
X106158599Y-136456747D01*
X106176777Y-136473223D01*
X106193253Y-136491401D01*
X106207868Y-136511107D01*
X106220480Y-136532150D01*
X106230970Y-136554329D01*
X106239235Y-136577428D01*
X106245196Y-136601227D01*
X106248796Y-136625495D01*
X106250000Y-136649999D01*
X106250000Y-137550001D01*
X106248796Y-137574505D01*
X106245196Y-137598773D01*
X106239235Y-137622572D01*
X106230970Y-137645671D01*
X106220480Y-137667850D01*
X106207868Y-137688893D01*
X106193253Y-137708599D01*
X106176777Y-137726777D01*
X106158599Y-137743253D01*
X106138893Y-137757868D01*
X106117850Y-137770480D01*
X106095671Y-137780970D01*
X106072572Y-137789235D01*
X106048773Y-137795196D01*
X106024505Y-137798796D01*
X106000001Y-137800000D01*
X105349999Y-137800000D01*
X105325495Y-137798796D01*
X105301227Y-137795196D01*
X105277428Y-137789235D01*
X105254329Y-137780970D01*
X105232150Y-137770480D01*
X105211107Y-137757868D01*
X105191401Y-137743253D01*
X105173223Y-137726777D01*
X105156747Y-137708599D01*
X105142132Y-137688893D01*
X105129520Y-137667850D01*
X105119030Y-137645671D01*
X105110765Y-137622572D01*
X105104804Y-137598773D01*
X105101204Y-137574505D01*
X105100000Y-137550001D01*
X105100000Y-136649999D01*
X105101204Y-136625495D01*
X105104804Y-136601227D01*
X105110765Y-136577428D01*
X105119030Y-136554329D01*
X105129520Y-136532150D01*
X105142132Y-136511107D01*
X105156747Y-136491401D01*
X105173223Y-136473223D01*
X105191401Y-136456747D01*
X105211107Y-136442132D01*
X105232150Y-136429520D01*
X105254329Y-136419030D01*
X105277428Y-136410765D01*
X105301227Y-136404804D01*
X105325495Y-136401204D01*
X105349999Y-136400000D01*
X106000001Y-136400000D01*
X106024505Y-136401204D01*
X106024505Y-136401204D01*
G37*
D15*
X105675000Y-137100000D03*
D14*
G36*
X108074505Y-136401204D02*
G01*
X108098773Y-136404804D01*
X108122572Y-136410765D01*
X108145671Y-136419030D01*
X108167850Y-136429520D01*
X108188893Y-136442132D01*
X108208599Y-136456747D01*
X108226777Y-136473223D01*
X108243253Y-136491401D01*
X108257868Y-136511107D01*
X108270480Y-136532150D01*
X108280970Y-136554329D01*
X108289235Y-136577428D01*
X108295196Y-136601227D01*
X108298796Y-136625495D01*
X108300000Y-136649999D01*
X108300000Y-137550001D01*
X108298796Y-137574505D01*
X108295196Y-137598773D01*
X108289235Y-137622572D01*
X108280970Y-137645671D01*
X108270480Y-137667850D01*
X108257868Y-137688893D01*
X108243253Y-137708599D01*
X108226777Y-137726777D01*
X108208599Y-137743253D01*
X108188893Y-137757868D01*
X108167850Y-137770480D01*
X108145671Y-137780970D01*
X108122572Y-137789235D01*
X108098773Y-137795196D01*
X108074505Y-137798796D01*
X108050001Y-137800000D01*
X107399999Y-137800000D01*
X107375495Y-137798796D01*
X107351227Y-137795196D01*
X107327428Y-137789235D01*
X107304329Y-137780970D01*
X107282150Y-137770480D01*
X107261107Y-137757868D01*
X107241401Y-137743253D01*
X107223223Y-137726777D01*
X107206747Y-137708599D01*
X107192132Y-137688893D01*
X107179520Y-137667850D01*
X107169030Y-137645671D01*
X107160765Y-137622572D01*
X107154804Y-137598773D01*
X107151204Y-137574505D01*
X107150000Y-137550001D01*
X107150000Y-136649999D01*
X107151204Y-136625495D01*
X107154804Y-136601227D01*
X107160765Y-136577428D01*
X107169030Y-136554329D01*
X107179520Y-136532150D01*
X107192132Y-136511107D01*
X107206747Y-136491401D01*
X107223223Y-136473223D01*
X107241401Y-136456747D01*
X107261107Y-136442132D01*
X107282150Y-136429520D01*
X107304329Y-136419030D01*
X107327428Y-136410765D01*
X107351227Y-136404804D01*
X107375495Y-136401204D01*
X107399999Y-136400000D01*
X108050001Y-136400000D01*
X108074505Y-136401204D01*
X108074505Y-136401204D01*
G37*
D15*
X107725000Y-137100000D03*
D14*
G36*
X115874505Y-136501204D02*
G01*
X115898773Y-136504804D01*
X115922572Y-136510765D01*
X115945671Y-136519030D01*
X115967850Y-136529520D01*
X115988893Y-136542132D01*
X116008599Y-136556747D01*
X116026777Y-136573223D01*
X116043253Y-136591401D01*
X116057868Y-136611107D01*
X116070480Y-136632150D01*
X116080970Y-136654329D01*
X116089235Y-136677428D01*
X116095196Y-136701227D01*
X116098796Y-136725495D01*
X116100000Y-136749999D01*
X116100000Y-137650001D01*
X116098796Y-137674505D01*
X116095196Y-137698773D01*
X116089235Y-137722572D01*
X116080970Y-137745671D01*
X116070480Y-137767850D01*
X116057868Y-137788893D01*
X116043253Y-137808599D01*
X116026777Y-137826777D01*
X116008599Y-137843253D01*
X115988893Y-137857868D01*
X115967850Y-137870480D01*
X115945671Y-137880970D01*
X115922572Y-137889235D01*
X115898773Y-137895196D01*
X115874505Y-137898796D01*
X115850001Y-137900000D01*
X115199999Y-137900000D01*
X115175495Y-137898796D01*
X115151227Y-137895196D01*
X115127428Y-137889235D01*
X115104329Y-137880970D01*
X115082150Y-137870480D01*
X115061107Y-137857868D01*
X115041401Y-137843253D01*
X115023223Y-137826777D01*
X115006747Y-137808599D01*
X114992132Y-137788893D01*
X114979520Y-137767850D01*
X114969030Y-137745671D01*
X114960765Y-137722572D01*
X114954804Y-137698773D01*
X114951204Y-137674505D01*
X114950000Y-137650001D01*
X114950000Y-136749999D01*
X114951204Y-136725495D01*
X114954804Y-136701227D01*
X114960765Y-136677428D01*
X114969030Y-136654329D01*
X114979520Y-136632150D01*
X114992132Y-136611107D01*
X115006747Y-136591401D01*
X115023223Y-136573223D01*
X115041401Y-136556747D01*
X115061107Y-136542132D01*
X115082150Y-136529520D01*
X115104329Y-136519030D01*
X115127428Y-136510765D01*
X115151227Y-136504804D01*
X115175495Y-136501204D01*
X115199999Y-136500000D01*
X115850001Y-136500000D01*
X115874505Y-136501204D01*
X115874505Y-136501204D01*
G37*
D15*
X115525000Y-137200000D03*
D14*
G36*
X113824505Y-136501204D02*
G01*
X113848773Y-136504804D01*
X113872572Y-136510765D01*
X113895671Y-136519030D01*
X113917850Y-136529520D01*
X113938893Y-136542132D01*
X113958599Y-136556747D01*
X113976777Y-136573223D01*
X113993253Y-136591401D01*
X114007868Y-136611107D01*
X114020480Y-136632150D01*
X114030970Y-136654329D01*
X114039235Y-136677428D01*
X114045196Y-136701227D01*
X114048796Y-136725495D01*
X114050000Y-136749999D01*
X114050000Y-137650001D01*
X114048796Y-137674505D01*
X114045196Y-137698773D01*
X114039235Y-137722572D01*
X114030970Y-137745671D01*
X114020480Y-137767850D01*
X114007868Y-137788893D01*
X113993253Y-137808599D01*
X113976777Y-137826777D01*
X113958599Y-137843253D01*
X113938893Y-137857868D01*
X113917850Y-137870480D01*
X113895671Y-137880970D01*
X113872572Y-137889235D01*
X113848773Y-137895196D01*
X113824505Y-137898796D01*
X113800001Y-137900000D01*
X113149999Y-137900000D01*
X113125495Y-137898796D01*
X113101227Y-137895196D01*
X113077428Y-137889235D01*
X113054329Y-137880970D01*
X113032150Y-137870480D01*
X113011107Y-137857868D01*
X112991401Y-137843253D01*
X112973223Y-137826777D01*
X112956747Y-137808599D01*
X112942132Y-137788893D01*
X112929520Y-137767850D01*
X112919030Y-137745671D01*
X112910765Y-137722572D01*
X112904804Y-137698773D01*
X112901204Y-137674505D01*
X112900000Y-137650001D01*
X112900000Y-136749999D01*
X112901204Y-136725495D01*
X112904804Y-136701227D01*
X112910765Y-136677428D01*
X112919030Y-136654329D01*
X112929520Y-136632150D01*
X112942132Y-136611107D01*
X112956747Y-136591401D01*
X112973223Y-136573223D01*
X112991401Y-136556747D01*
X113011107Y-136542132D01*
X113032150Y-136529520D01*
X113054329Y-136519030D01*
X113077428Y-136510765D01*
X113101227Y-136504804D01*
X113125495Y-136501204D01*
X113149999Y-136500000D01*
X113800001Y-136500000D01*
X113824505Y-136501204D01*
X113824505Y-136501204D01*
G37*
D15*
X113475000Y-137200000D03*
D16*
X163500000Y-106250000D03*
X165500000Y-105300000D03*
X165500000Y-107200000D03*
D14*
G36*
X181474505Y-124951204D02*
G01*
X181498773Y-124954804D01*
X181522572Y-124960765D01*
X181545671Y-124969030D01*
X181567850Y-124979520D01*
X181588893Y-124992132D01*
X181608599Y-125006747D01*
X181626777Y-125023223D01*
X181643253Y-125041401D01*
X181657868Y-125061107D01*
X181670480Y-125082150D01*
X181680970Y-125104329D01*
X181689235Y-125127428D01*
X181695196Y-125151227D01*
X181698796Y-125175495D01*
X181700000Y-125199999D01*
X181700000Y-126100001D01*
X181698796Y-126124505D01*
X181695196Y-126148773D01*
X181689235Y-126172572D01*
X181680970Y-126195671D01*
X181670480Y-126217850D01*
X181657868Y-126238893D01*
X181643253Y-126258599D01*
X181626777Y-126276777D01*
X181608599Y-126293253D01*
X181588893Y-126307868D01*
X181567850Y-126320480D01*
X181545671Y-126330970D01*
X181522572Y-126339235D01*
X181498773Y-126345196D01*
X181474505Y-126348796D01*
X181450001Y-126350000D01*
X180799999Y-126350000D01*
X180775495Y-126348796D01*
X180751227Y-126345196D01*
X180727428Y-126339235D01*
X180704329Y-126330970D01*
X180682150Y-126320480D01*
X180661107Y-126307868D01*
X180641401Y-126293253D01*
X180623223Y-126276777D01*
X180606747Y-126258599D01*
X180592132Y-126238893D01*
X180579520Y-126217850D01*
X180569030Y-126195671D01*
X180560765Y-126172572D01*
X180554804Y-126148773D01*
X180551204Y-126124505D01*
X180550000Y-126100001D01*
X180550000Y-125199999D01*
X180551204Y-125175495D01*
X180554804Y-125151227D01*
X180560765Y-125127428D01*
X180569030Y-125104329D01*
X180579520Y-125082150D01*
X180592132Y-125061107D01*
X180606747Y-125041401D01*
X180623223Y-125023223D01*
X180641401Y-125006747D01*
X180661107Y-124992132D01*
X180682150Y-124979520D01*
X180704329Y-124969030D01*
X180727428Y-124960765D01*
X180751227Y-124954804D01*
X180775495Y-124951204D01*
X180799999Y-124950000D01*
X181450001Y-124950000D01*
X181474505Y-124951204D01*
X181474505Y-124951204D01*
G37*
D15*
X181125000Y-125650000D03*
D14*
G36*
X179424505Y-124951204D02*
G01*
X179448773Y-124954804D01*
X179472572Y-124960765D01*
X179495671Y-124969030D01*
X179517850Y-124979520D01*
X179538893Y-124992132D01*
X179558599Y-125006747D01*
X179576777Y-125023223D01*
X179593253Y-125041401D01*
X179607868Y-125061107D01*
X179620480Y-125082150D01*
X179630970Y-125104329D01*
X179639235Y-125127428D01*
X179645196Y-125151227D01*
X179648796Y-125175495D01*
X179650000Y-125199999D01*
X179650000Y-126100001D01*
X179648796Y-126124505D01*
X179645196Y-126148773D01*
X179639235Y-126172572D01*
X179630970Y-126195671D01*
X179620480Y-126217850D01*
X179607868Y-126238893D01*
X179593253Y-126258599D01*
X179576777Y-126276777D01*
X179558599Y-126293253D01*
X179538893Y-126307868D01*
X179517850Y-126320480D01*
X179495671Y-126330970D01*
X179472572Y-126339235D01*
X179448773Y-126345196D01*
X179424505Y-126348796D01*
X179400001Y-126350000D01*
X178749999Y-126350000D01*
X178725495Y-126348796D01*
X178701227Y-126345196D01*
X178677428Y-126339235D01*
X178654329Y-126330970D01*
X178632150Y-126320480D01*
X178611107Y-126307868D01*
X178591401Y-126293253D01*
X178573223Y-126276777D01*
X178556747Y-126258599D01*
X178542132Y-126238893D01*
X178529520Y-126217850D01*
X178519030Y-126195671D01*
X178510765Y-126172572D01*
X178504804Y-126148773D01*
X178501204Y-126124505D01*
X178500000Y-126100001D01*
X178500000Y-125199999D01*
X178501204Y-125175495D01*
X178504804Y-125151227D01*
X178510765Y-125127428D01*
X178519030Y-125104329D01*
X178529520Y-125082150D01*
X178542132Y-125061107D01*
X178556747Y-125041401D01*
X178573223Y-125023223D01*
X178591401Y-125006747D01*
X178611107Y-124992132D01*
X178632150Y-124979520D01*
X178654329Y-124969030D01*
X178677428Y-124960765D01*
X178701227Y-124954804D01*
X178725495Y-124951204D01*
X178749999Y-124950000D01*
X179400001Y-124950000D01*
X179424505Y-124951204D01*
X179424505Y-124951204D01*
G37*
D15*
X179075000Y-125650000D03*
D14*
G36*
X181474505Y-127401204D02*
G01*
X181498773Y-127404804D01*
X181522572Y-127410765D01*
X181545671Y-127419030D01*
X181567850Y-127429520D01*
X181588893Y-127442132D01*
X181608599Y-127456747D01*
X181626777Y-127473223D01*
X181643253Y-127491401D01*
X181657868Y-127511107D01*
X181670480Y-127532150D01*
X181680970Y-127554329D01*
X181689235Y-127577428D01*
X181695196Y-127601227D01*
X181698796Y-127625495D01*
X181700000Y-127649999D01*
X181700000Y-128550001D01*
X181698796Y-128574505D01*
X181695196Y-128598773D01*
X181689235Y-128622572D01*
X181680970Y-128645671D01*
X181670480Y-128667850D01*
X181657868Y-128688893D01*
X181643253Y-128708599D01*
X181626777Y-128726777D01*
X181608599Y-128743253D01*
X181588893Y-128757868D01*
X181567850Y-128770480D01*
X181545671Y-128780970D01*
X181522572Y-128789235D01*
X181498773Y-128795196D01*
X181474505Y-128798796D01*
X181450001Y-128800000D01*
X180799999Y-128800000D01*
X180775495Y-128798796D01*
X180751227Y-128795196D01*
X180727428Y-128789235D01*
X180704329Y-128780970D01*
X180682150Y-128770480D01*
X180661107Y-128757868D01*
X180641401Y-128743253D01*
X180623223Y-128726777D01*
X180606747Y-128708599D01*
X180592132Y-128688893D01*
X180579520Y-128667850D01*
X180569030Y-128645671D01*
X180560765Y-128622572D01*
X180554804Y-128598773D01*
X180551204Y-128574505D01*
X180550000Y-128550001D01*
X180550000Y-127649999D01*
X180551204Y-127625495D01*
X180554804Y-127601227D01*
X180560765Y-127577428D01*
X180569030Y-127554329D01*
X180579520Y-127532150D01*
X180592132Y-127511107D01*
X180606747Y-127491401D01*
X180623223Y-127473223D01*
X180641401Y-127456747D01*
X180661107Y-127442132D01*
X180682150Y-127429520D01*
X180704329Y-127419030D01*
X180727428Y-127410765D01*
X180751227Y-127404804D01*
X180775495Y-127401204D01*
X180799999Y-127400000D01*
X181450001Y-127400000D01*
X181474505Y-127401204D01*
X181474505Y-127401204D01*
G37*
D15*
X181125000Y-128100000D03*
D14*
G36*
X179424505Y-127401204D02*
G01*
X179448773Y-127404804D01*
X179472572Y-127410765D01*
X179495671Y-127419030D01*
X179517850Y-127429520D01*
X179538893Y-127442132D01*
X179558599Y-127456747D01*
X179576777Y-127473223D01*
X179593253Y-127491401D01*
X179607868Y-127511107D01*
X179620480Y-127532150D01*
X179630970Y-127554329D01*
X179639235Y-127577428D01*
X179645196Y-127601227D01*
X179648796Y-127625495D01*
X179650000Y-127649999D01*
X179650000Y-128550001D01*
X179648796Y-128574505D01*
X179645196Y-128598773D01*
X179639235Y-128622572D01*
X179630970Y-128645671D01*
X179620480Y-128667850D01*
X179607868Y-128688893D01*
X179593253Y-128708599D01*
X179576777Y-128726777D01*
X179558599Y-128743253D01*
X179538893Y-128757868D01*
X179517850Y-128770480D01*
X179495671Y-128780970D01*
X179472572Y-128789235D01*
X179448773Y-128795196D01*
X179424505Y-128798796D01*
X179400001Y-128800000D01*
X178749999Y-128800000D01*
X178725495Y-128798796D01*
X178701227Y-128795196D01*
X178677428Y-128789235D01*
X178654329Y-128780970D01*
X178632150Y-128770480D01*
X178611107Y-128757868D01*
X178591401Y-128743253D01*
X178573223Y-128726777D01*
X178556747Y-128708599D01*
X178542132Y-128688893D01*
X178529520Y-128667850D01*
X178519030Y-128645671D01*
X178510765Y-128622572D01*
X178504804Y-128598773D01*
X178501204Y-128574505D01*
X178500000Y-128550001D01*
X178500000Y-127649999D01*
X178501204Y-127625495D01*
X178504804Y-127601227D01*
X178510765Y-127577428D01*
X178519030Y-127554329D01*
X178529520Y-127532150D01*
X178542132Y-127511107D01*
X178556747Y-127491401D01*
X178573223Y-127473223D01*
X178591401Y-127456747D01*
X178611107Y-127442132D01*
X178632150Y-127429520D01*
X178654329Y-127419030D01*
X178677428Y-127410765D01*
X178701227Y-127404804D01*
X178725495Y-127401204D01*
X178749999Y-127400000D01*
X179400001Y-127400000D01*
X179424505Y-127401204D01*
X179424505Y-127401204D01*
G37*
D15*
X179075000Y-128100000D03*
D14*
G36*
X181474505Y-130001204D02*
G01*
X181498773Y-130004804D01*
X181522572Y-130010765D01*
X181545671Y-130019030D01*
X181567850Y-130029520D01*
X181588893Y-130042132D01*
X181608599Y-130056747D01*
X181626777Y-130073223D01*
X181643253Y-130091401D01*
X181657868Y-130111107D01*
X181670480Y-130132150D01*
X181680970Y-130154329D01*
X181689235Y-130177428D01*
X181695196Y-130201227D01*
X181698796Y-130225495D01*
X181700000Y-130249999D01*
X181700000Y-131150001D01*
X181698796Y-131174505D01*
X181695196Y-131198773D01*
X181689235Y-131222572D01*
X181680970Y-131245671D01*
X181670480Y-131267850D01*
X181657868Y-131288893D01*
X181643253Y-131308599D01*
X181626777Y-131326777D01*
X181608599Y-131343253D01*
X181588893Y-131357868D01*
X181567850Y-131370480D01*
X181545671Y-131380970D01*
X181522572Y-131389235D01*
X181498773Y-131395196D01*
X181474505Y-131398796D01*
X181450001Y-131400000D01*
X180799999Y-131400000D01*
X180775495Y-131398796D01*
X180751227Y-131395196D01*
X180727428Y-131389235D01*
X180704329Y-131380970D01*
X180682150Y-131370480D01*
X180661107Y-131357868D01*
X180641401Y-131343253D01*
X180623223Y-131326777D01*
X180606747Y-131308599D01*
X180592132Y-131288893D01*
X180579520Y-131267850D01*
X180569030Y-131245671D01*
X180560765Y-131222572D01*
X180554804Y-131198773D01*
X180551204Y-131174505D01*
X180550000Y-131150001D01*
X180550000Y-130249999D01*
X180551204Y-130225495D01*
X180554804Y-130201227D01*
X180560765Y-130177428D01*
X180569030Y-130154329D01*
X180579520Y-130132150D01*
X180592132Y-130111107D01*
X180606747Y-130091401D01*
X180623223Y-130073223D01*
X180641401Y-130056747D01*
X180661107Y-130042132D01*
X180682150Y-130029520D01*
X180704329Y-130019030D01*
X180727428Y-130010765D01*
X180751227Y-130004804D01*
X180775495Y-130001204D01*
X180799999Y-130000000D01*
X181450001Y-130000000D01*
X181474505Y-130001204D01*
X181474505Y-130001204D01*
G37*
D15*
X181125000Y-130700000D03*
D14*
G36*
X179424505Y-130001204D02*
G01*
X179448773Y-130004804D01*
X179472572Y-130010765D01*
X179495671Y-130019030D01*
X179517850Y-130029520D01*
X179538893Y-130042132D01*
X179558599Y-130056747D01*
X179576777Y-130073223D01*
X179593253Y-130091401D01*
X179607868Y-130111107D01*
X179620480Y-130132150D01*
X179630970Y-130154329D01*
X179639235Y-130177428D01*
X179645196Y-130201227D01*
X179648796Y-130225495D01*
X179650000Y-130249999D01*
X179650000Y-131150001D01*
X179648796Y-131174505D01*
X179645196Y-131198773D01*
X179639235Y-131222572D01*
X179630970Y-131245671D01*
X179620480Y-131267850D01*
X179607868Y-131288893D01*
X179593253Y-131308599D01*
X179576777Y-131326777D01*
X179558599Y-131343253D01*
X179538893Y-131357868D01*
X179517850Y-131370480D01*
X179495671Y-131380970D01*
X179472572Y-131389235D01*
X179448773Y-131395196D01*
X179424505Y-131398796D01*
X179400001Y-131400000D01*
X178749999Y-131400000D01*
X178725495Y-131398796D01*
X178701227Y-131395196D01*
X178677428Y-131389235D01*
X178654329Y-131380970D01*
X178632150Y-131370480D01*
X178611107Y-131357868D01*
X178591401Y-131343253D01*
X178573223Y-131326777D01*
X178556747Y-131308599D01*
X178542132Y-131288893D01*
X178529520Y-131267850D01*
X178519030Y-131245671D01*
X178510765Y-131222572D01*
X178504804Y-131198773D01*
X178501204Y-131174505D01*
X178500000Y-131150001D01*
X178500000Y-130249999D01*
X178501204Y-130225495D01*
X178504804Y-130201227D01*
X178510765Y-130177428D01*
X178519030Y-130154329D01*
X178529520Y-130132150D01*
X178542132Y-130111107D01*
X178556747Y-130091401D01*
X178573223Y-130073223D01*
X178591401Y-130056747D01*
X178611107Y-130042132D01*
X178632150Y-130029520D01*
X178654329Y-130019030D01*
X178677428Y-130010765D01*
X178701227Y-130004804D01*
X178725495Y-130001204D01*
X178749999Y-130000000D01*
X179400001Y-130000000D01*
X179424505Y-130001204D01*
X179424505Y-130001204D01*
G37*
D15*
X179075000Y-130700000D03*
D17*
X182200000Y-85450000D03*
X179200000Y-85450000D03*
X179200000Y-86950000D03*
X182200000Y-86950000D03*
D14*
G36*
X151224505Y-127551204D02*
G01*
X151248773Y-127554804D01*
X151272572Y-127560765D01*
X151295671Y-127569030D01*
X151317850Y-127579520D01*
X151338893Y-127592132D01*
X151358599Y-127606747D01*
X151376777Y-127623223D01*
X151393253Y-127641401D01*
X151407868Y-127661107D01*
X151420480Y-127682150D01*
X151430970Y-127704329D01*
X151439235Y-127727428D01*
X151445196Y-127751227D01*
X151448796Y-127775495D01*
X151450000Y-127799999D01*
X151450000Y-128700001D01*
X151448796Y-128724505D01*
X151445196Y-128748773D01*
X151439235Y-128772572D01*
X151430970Y-128795671D01*
X151420480Y-128817850D01*
X151407868Y-128838893D01*
X151393253Y-128858599D01*
X151376777Y-128876777D01*
X151358599Y-128893253D01*
X151338893Y-128907868D01*
X151317850Y-128920480D01*
X151295671Y-128930970D01*
X151272572Y-128939235D01*
X151248773Y-128945196D01*
X151224505Y-128948796D01*
X151200001Y-128950000D01*
X150549999Y-128950000D01*
X150525495Y-128948796D01*
X150501227Y-128945196D01*
X150477428Y-128939235D01*
X150454329Y-128930970D01*
X150432150Y-128920480D01*
X150411107Y-128907868D01*
X150391401Y-128893253D01*
X150373223Y-128876777D01*
X150356747Y-128858599D01*
X150342132Y-128838893D01*
X150329520Y-128817850D01*
X150319030Y-128795671D01*
X150310765Y-128772572D01*
X150304804Y-128748773D01*
X150301204Y-128724505D01*
X150300000Y-128700001D01*
X150300000Y-127799999D01*
X150301204Y-127775495D01*
X150304804Y-127751227D01*
X150310765Y-127727428D01*
X150319030Y-127704329D01*
X150329520Y-127682150D01*
X150342132Y-127661107D01*
X150356747Y-127641401D01*
X150373223Y-127623223D01*
X150391401Y-127606747D01*
X150411107Y-127592132D01*
X150432150Y-127579520D01*
X150454329Y-127569030D01*
X150477428Y-127560765D01*
X150501227Y-127554804D01*
X150525495Y-127551204D01*
X150549999Y-127550000D01*
X151200001Y-127550000D01*
X151224505Y-127551204D01*
X151224505Y-127551204D01*
G37*
D15*
X150875000Y-128250000D03*
D14*
G36*
X149174505Y-127551204D02*
G01*
X149198773Y-127554804D01*
X149222572Y-127560765D01*
X149245671Y-127569030D01*
X149267850Y-127579520D01*
X149288893Y-127592132D01*
X149308599Y-127606747D01*
X149326777Y-127623223D01*
X149343253Y-127641401D01*
X149357868Y-127661107D01*
X149370480Y-127682150D01*
X149380970Y-127704329D01*
X149389235Y-127727428D01*
X149395196Y-127751227D01*
X149398796Y-127775495D01*
X149400000Y-127799999D01*
X149400000Y-128700001D01*
X149398796Y-128724505D01*
X149395196Y-128748773D01*
X149389235Y-128772572D01*
X149380970Y-128795671D01*
X149370480Y-128817850D01*
X149357868Y-128838893D01*
X149343253Y-128858599D01*
X149326777Y-128876777D01*
X149308599Y-128893253D01*
X149288893Y-128907868D01*
X149267850Y-128920480D01*
X149245671Y-128930970D01*
X149222572Y-128939235D01*
X149198773Y-128945196D01*
X149174505Y-128948796D01*
X149150001Y-128950000D01*
X148499999Y-128950000D01*
X148475495Y-128948796D01*
X148451227Y-128945196D01*
X148427428Y-128939235D01*
X148404329Y-128930970D01*
X148382150Y-128920480D01*
X148361107Y-128907868D01*
X148341401Y-128893253D01*
X148323223Y-128876777D01*
X148306747Y-128858599D01*
X148292132Y-128838893D01*
X148279520Y-128817850D01*
X148269030Y-128795671D01*
X148260765Y-128772572D01*
X148254804Y-128748773D01*
X148251204Y-128724505D01*
X148250000Y-128700001D01*
X148250000Y-127799999D01*
X148251204Y-127775495D01*
X148254804Y-127751227D01*
X148260765Y-127727428D01*
X148269030Y-127704329D01*
X148279520Y-127682150D01*
X148292132Y-127661107D01*
X148306747Y-127641401D01*
X148323223Y-127623223D01*
X148341401Y-127606747D01*
X148361107Y-127592132D01*
X148382150Y-127579520D01*
X148404329Y-127569030D01*
X148427428Y-127560765D01*
X148451227Y-127554804D01*
X148475495Y-127551204D01*
X148499999Y-127550000D01*
X149150001Y-127550000D01*
X149174505Y-127551204D01*
X149174505Y-127551204D01*
G37*
D15*
X148825000Y-128250000D03*
D14*
G36*
X150344703Y-125725722D02*
G01*
X150359264Y-125727882D01*
X150373543Y-125731459D01*
X150387403Y-125736418D01*
X150400710Y-125742712D01*
X150413336Y-125750280D01*
X150425159Y-125759048D01*
X150436066Y-125768934D01*
X150445952Y-125779841D01*
X150454720Y-125791664D01*
X150462288Y-125804290D01*
X150468582Y-125817597D01*
X150473541Y-125831457D01*
X150477118Y-125845736D01*
X150479278Y-125860297D01*
X150480000Y-125875000D01*
X150480000Y-126175000D01*
X150479278Y-126189703D01*
X150477118Y-126204264D01*
X150473541Y-126218543D01*
X150468582Y-126232403D01*
X150462288Y-126245710D01*
X150454720Y-126258336D01*
X150445952Y-126270159D01*
X150436066Y-126281066D01*
X150425159Y-126290952D01*
X150413336Y-126299720D01*
X150400710Y-126307288D01*
X150387403Y-126313582D01*
X150373543Y-126318541D01*
X150359264Y-126322118D01*
X150344703Y-126324278D01*
X150330000Y-126325000D01*
X148680000Y-126325000D01*
X148665297Y-126324278D01*
X148650736Y-126322118D01*
X148636457Y-126318541D01*
X148622597Y-126313582D01*
X148609290Y-126307288D01*
X148596664Y-126299720D01*
X148584841Y-126290952D01*
X148573934Y-126281066D01*
X148564048Y-126270159D01*
X148555280Y-126258336D01*
X148547712Y-126245710D01*
X148541418Y-126232403D01*
X148536459Y-126218543D01*
X148532882Y-126204264D01*
X148530722Y-126189703D01*
X148530000Y-126175000D01*
X148530000Y-125875000D01*
X148530722Y-125860297D01*
X148532882Y-125845736D01*
X148536459Y-125831457D01*
X148541418Y-125817597D01*
X148547712Y-125804290D01*
X148555280Y-125791664D01*
X148564048Y-125779841D01*
X148573934Y-125768934D01*
X148584841Y-125759048D01*
X148596664Y-125750280D01*
X148609290Y-125742712D01*
X148622597Y-125736418D01*
X148636457Y-125731459D01*
X148650736Y-125727882D01*
X148665297Y-125725722D01*
X148680000Y-125725000D01*
X150330000Y-125725000D01*
X150344703Y-125725722D01*
X150344703Y-125725722D01*
G37*
D18*
X149505000Y-126025000D03*
D14*
G36*
X150344703Y-124455722D02*
G01*
X150359264Y-124457882D01*
X150373543Y-124461459D01*
X150387403Y-124466418D01*
X150400710Y-124472712D01*
X150413336Y-124480280D01*
X150425159Y-124489048D01*
X150436066Y-124498934D01*
X150445952Y-124509841D01*
X150454720Y-124521664D01*
X150462288Y-124534290D01*
X150468582Y-124547597D01*
X150473541Y-124561457D01*
X150477118Y-124575736D01*
X150479278Y-124590297D01*
X150480000Y-124605000D01*
X150480000Y-124905000D01*
X150479278Y-124919703D01*
X150477118Y-124934264D01*
X150473541Y-124948543D01*
X150468582Y-124962403D01*
X150462288Y-124975710D01*
X150454720Y-124988336D01*
X150445952Y-125000159D01*
X150436066Y-125011066D01*
X150425159Y-125020952D01*
X150413336Y-125029720D01*
X150400710Y-125037288D01*
X150387403Y-125043582D01*
X150373543Y-125048541D01*
X150359264Y-125052118D01*
X150344703Y-125054278D01*
X150330000Y-125055000D01*
X148680000Y-125055000D01*
X148665297Y-125054278D01*
X148650736Y-125052118D01*
X148636457Y-125048541D01*
X148622597Y-125043582D01*
X148609290Y-125037288D01*
X148596664Y-125029720D01*
X148584841Y-125020952D01*
X148573934Y-125011066D01*
X148564048Y-125000159D01*
X148555280Y-124988336D01*
X148547712Y-124975710D01*
X148541418Y-124962403D01*
X148536459Y-124948543D01*
X148532882Y-124934264D01*
X148530722Y-124919703D01*
X148530000Y-124905000D01*
X148530000Y-124605000D01*
X148530722Y-124590297D01*
X148532882Y-124575736D01*
X148536459Y-124561457D01*
X148541418Y-124547597D01*
X148547712Y-124534290D01*
X148555280Y-124521664D01*
X148564048Y-124509841D01*
X148573934Y-124498934D01*
X148584841Y-124489048D01*
X148596664Y-124480280D01*
X148609290Y-124472712D01*
X148622597Y-124466418D01*
X148636457Y-124461459D01*
X148650736Y-124457882D01*
X148665297Y-124455722D01*
X148680000Y-124455000D01*
X150330000Y-124455000D01*
X150344703Y-124455722D01*
X150344703Y-124455722D01*
G37*
D18*
X149505000Y-124755000D03*
D14*
G36*
X150344703Y-123185722D02*
G01*
X150359264Y-123187882D01*
X150373543Y-123191459D01*
X150387403Y-123196418D01*
X150400710Y-123202712D01*
X150413336Y-123210280D01*
X150425159Y-123219048D01*
X150436066Y-123228934D01*
X150445952Y-123239841D01*
X150454720Y-123251664D01*
X150462288Y-123264290D01*
X150468582Y-123277597D01*
X150473541Y-123291457D01*
X150477118Y-123305736D01*
X150479278Y-123320297D01*
X150480000Y-123335000D01*
X150480000Y-123635000D01*
X150479278Y-123649703D01*
X150477118Y-123664264D01*
X150473541Y-123678543D01*
X150468582Y-123692403D01*
X150462288Y-123705710D01*
X150454720Y-123718336D01*
X150445952Y-123730159D01*
X150436066Y-123741066D01*
X150425159Y-123750952D01*
X150413336Y-123759720D01*
X150400710Y-123767288D01*
X150387403Y-123773582D01*
X150373543Y-123778541D01*
X150359264Y-123782118D01*
X150344703Y-123784278D01*
X150330000Y-123785000D01*
X148680000Y-123785000D01*
X148665297Y-123784278D01*
X148650736Y-123782118D01*
X148636457Y-123778541D01*
X148622597Y-123773582D01*
X148609290Y-123767288D01*
X148596664Y-123759720D01*
X148584841Y-123750952D01*
X148573934Y-123741066D01*
X148564048Y-123730159D01*
X148555280Y-123718336D01*
X148547712Y-123705710D01*
X148541418Y-123692403D01*
X148536459Y-123678543D01*
X148532882Y-123664264D01*
X148530722Y-123649703D01*
X148530000Y-123635000D01*
X148530000Y-123335000D01*
X148530722Y-123320297D01*
X148532882Y-123305736D01*
X148536459Y-123291457D01*
X148541418Y-123277597D01*
X148547712Y-123264290D01*
X148555280Y-123251664D01*
X148564048Y-123239841D01*
X148573934Y-123228934D01*
X148584841Y-123219048D01*
X148596664Y-123210280D01*
X148609290Y-123202712D01*
X148622597Y-123196418D01*
X148636457Y-123191459D01*
X148650736Y-123187882D01*
X148665297Y-123185722D01*
X148680000Y-123185000D01*
X150330000Y-123185000D01*
X150344703Y-123185722D01*
X150344703Y-123185722D01*
G37*
D18*
X149505000Y-123485000D03*
D14*
G36*
X150344703Y-121915722D02*
G01*
X150359264Y-121917882D01*
X150373543Y-121921459D01*
X150387403Y-121926418D01*
X150400710Y-121932712D01*
X150413336Y-121940280D01*
X150425159Y-121949048D01*
X150436066Y-121958934D01*
X150445952Y-121969841D01*
X150454720Y-121981664D01*
X150462288Y-121994290D01*
X150468582Y-122007597D01*
X150473541Y-122021457D01*
X150477118Y-122035736D01*
X150479278Y-122050297D01*
X150480000Y-122065000D01*
X150480000Y-122365000D01*
X150479278Y-122379703D01*
X150477118Y-122394264D01*
X150473541Y-122408543D01*
X150468582Y-122422403D01*
X150462288Y-122435710D01*
X150454720Y-122448336D01*
X150445952Y-122460159D01*
X150436066Y-122471066D01*
X150425159Y-122480952D01*
X150413336Y-122489720D01*
X150400710Y-122497288D01*
X150387403Y-122503582D01*
X150373543Y-122508541D01*
X150359264Y-122512118D01*
X150344703Y-122514278D01*
X150330000Y-122515000D01*
X148680000Y-122515000D01*
X148665297Y-122514278D01*
X148650736Y-122512118D01*
X148636457Y-122508541D01*
X148622597Y-122503582D01*
X148609290Y-122497288D01*
X148596664Y-122489720D01*
X148584841Y-122480952D01*
X148573934Y-122471066D01*
X148564048Y-122460159D01*
X148555280Y-122448336D01*
X148547712Y-122435710D01*
X148541418Y-122422403D01*
X148536459Y-122408543D01*
X148532882Y-122394264D01*
X148530722Y-122379703D01*
X148530000Y-122365000D01*
X148530000Y-122065000D01*
X148530722Y-122050297D01*
X148532882Y-122035736D01*
X148536459Y-122021457D01*
X148541418Y-122007597D01*
X148547712Y-121994290D01*
X148555280Y-121981664D01*
X148564048Y-121969841D01*
X148573934Y-121958934D01*
X148584841Y-121949048D01*
X148596664Y-121940280D01*
X148609290Y-121932712D01*
X148622597Y-121926418D01*
X148636457Y-121921459D01*
X148650736Y-121917882D01*
X148665297Y-121915722D01*
X148680000Y-121915000D01*
X150330000Y-121915000D01*
X150344703Y-121915722D01*
X150344703Y-121915722D01*
G37*
D18*
X149505000Y-122215000D03*
D14*
G36*
X155294703Y-121915722D02*
G01*
X155309264Y-121917882D01*
X155323543Y-121921459D01*
X155337403Y-121926418D01*
X155350710Y-121932712D01*
X155363336Y-121940280D01*
X155375159Y-121949048D01*
X155386066Y-121958934D01*
X155395952Y-121969841D01*
X155404720Y-121981664D01*
X155412288Y-121994290D01*
X155418582Y-122007597D01*
X155423541Y-122021457D01*
X155427118Y-122035736D01*
X155429278Y-122050297D01*
X155430000Y-122065000D01*
X155430000Y-122365000D01*
X155429278Y-122379703D01*
X155427118Y-122394264D01*
X155423541Y-122408543D01*
X155418582Y-122422403D01*
X155412288Y-122435710D01*
X155404720Y-122448336D01*
X155395952Y-122460159D01*
X155386066Y-122471066D01*
X155375159Y-122480952D01*
X155363336Y-122489720D01*
X155350710Y-122497288D01*
X155337403Y-122503582D01*
X155323543Y-122508541D01*
X155309264Y-122512118D01*
X155294703Y-122514278D01*
X155280000Y-122515000D01*
X153630000Y-122515000D01*
X153615297Y-122514278D01*
X153600736Y-122512118D01*
X153586457Y-122508541D01*
X153572597Y-122503582D01*
X153559290Y-122497288D01*
X153546664Y-122489720D01*
X153534841Y-122480952D01*
X153523934Y-122471066D01*
X153514048Y-122460159D01*
X153505280Y-122448336D01*
X153497712Y-122435710D01*
X153491418Y-122422403D01*
X153486459Y-122408543D01*
X153482882Y-122394264D01*
X153480722Y-122379703D01*
X153480000Y-122365000D01*
X153480000Y-122065000D01*
X153480722Y-122050297D01*
X153482882Y-122035736D01*
X153486459Y-122021457D01*
X153491418Y-122007597D01*
X153497712Y-121994290D01*
X153505280Y-121981664D01*
X153514048Y-121969841D01*
X153523934Y-121958934D01*
X153534841Y-121949048D01*
X153546664Y-121940280D01*
X153559290Y-121932712D01*
X153572597Y-121926418D01*
X153586457Y-121921459D01*
X153600736Y-121917882D01*
X153615297Y-121915722D01*
X153630000Y-121915000D01*
X155280000Y-121915000D01*
X155294703Y-121915722D01*
X155294703Y-121915722D01*
G37*
D18*
X154455000Y-122215000D03*
D14*
G36*
X155294703Y-123185722D02*
G01*
X155309264Y-123187882D01*
X155323543Y-123191459D01*
X155337403Y-123196418D01*
X155350710Y-123202712D01*
X155363336Y-123210280D01*
X155375159Y-123219048D01*
X155386066Y-123228934D01*
X155395952Y-123239841D01*
X155404720Y-123251664D01*
X155412288Y-123264290D01*
X155418582Y-123277597D01*
X155423541Y-123291457D01*
X155427118Y-123305736D01*
X155429278Y-123320297D01*
X155430000Y-123335000D01*
X155430000Y-123635000D01*
X155429278Y-123649703D01*
X155427118Y-123664264D01*
X155423541Y-123678543D01*
X155418582Y-123692403D01*
X155412288Y-123705710D01*
X155404720Y-123718336D01*
X155395952Y-123730159D01*
X155386066Y-123741066D01*
X155375159Y-123750952D01*
X155363336Y-123759720D01*
X155350710Y-123767288D01*
X155337403Y-123773582D01*
X155323543Y-123778541D01*
X155309264Y-123782118D01*
X155294703Y-123784278D01*
X155280000Y-123785000D01*
X153630000Y-123785000D01*
X153615297Y-123784278D01*
X153600736Y-123782118D01*
X153586457Y-123778541D01*
X153572597Y-123773582D01*
X153559290Y-123767288D01*
X153546664Y-123759720D01*
X153534841Y-123750952D01*
X153523934Y-123741066D01*
X153514048Y-123730159D01*
X153505280Y-123718336D01*
X153497712Y-123705710D01*
X153491418Y-123692403D01*
X153486459Y-123678543D01*
X153482882Y-123664264D01*
X153480722Y-123649703D01*
X153480000Y-123635000D01*
X153480000Y-123335000D01*
X153480722Y-123320297D01*
X153482882Y-123305736D01*
X153486459Y-123291457D01*
X153491418Y-123277597D01*
X153497712Y-123264290D01*
X153505280Y-123251664D01*
X153514048Y-123239841D01*
X153523934Y-123228934D01*
X153534841Y-123219048D01*
X153546664Y-123210280D01*
X153559290Y-123202712D01*
X153572597Y-123196418D01*
X153586457Y-123191459D01*
X153600736Y-123187882D01*
X153615297Y-123185722D01*
X153630000Y-123185000D01*
X155280000Y-123185000D01*
X155294703Y-123185722D01*
X155294703Y-123185722D01*
G37*
D18*
X154455000Y-123485000D03*
D14*
G36*
X155294703Y-124455722D02*
G01*
X155309264Y-124457882D01*
X155323543Y-124461459D01*
X155337403Y-124466418D01*
X155350710Y-124472712D01*
X155363336Y-124480280D01*
X155375159Y-124489048D01*
X155386066Y-124498934D01*
X155395952Y-124509841D01*
X155404720Y-124521664D01*
X155412288Y-124534290D01*
X155418582Y-124547597D01*
X155423541Y-124561457D01*
X155427118Y-124575736D01*
X155429278Y-124590297D01*
X155430000Y-124605000D01*
X155430000Y-124905000D01*
X155429278Y-124919703D01*
X155427118Y-124934264D01*
X155423541Y-124948543D01*
X155418582Y-124962403D01*
X155412288Y-124975710D01*
X155404720Y-124988336D01*
X155395952Y-125000159D01*
X155386066Y-125011066D01*
X155375159Y-125020952D01*
X155363336Y-125029720D01*
X155350710Y-125037288D01*
X155337403Y-125043582D01*
X155323543Y-125048541D01*
X155309264Y-125052118D01*
X155294703Y-125054278D01*
X155280000Y-125055000D01*
X153630000Y-125055000D01*
X153615297Y-125054278D01*
X153600736Y-125052118D01*
X153586457Y-125048541D01*
X153572597Y-125043582D01*
X153559290Y-125037288D01*
X153546664Y-125029720D01*
X153534841Y-125020952D01*
X153523934Y-125011066D01*
X153514048Y-125000159D01*
X153505280Y-124988336D01*
X153497712Y-124975710D01*
X153491418Y-124962403D01*
X153486459Y-124948543D01*
X153482882Y-124934264D01*
X153480722Y-124919703D01*
X153480000Y-124905000D01*
X153480000Y-124605000D01*
X153480722Y-124590297D01*
X153482882Y-124575736D01*
X153486459Y-124561457D01*
X153491418Y-124547597D01*
X153497712Y-124534290D01*
X153505280Y-124521664D01*
X153514048Y-124509841D01*
X153523934Y-124498934D01*
X153534841Y-124489048D01*
X153546664Y-124480280D01*
X153559290Y-124472712D01*
X153572597Y-124466418D01*
X153586457Y-124461459D01*
X153600736Y-124457882D01*
X153615297Y-124455722D01*
X153630000Y-124455000D01*
X155280000Y-124455000D01*
X155294703Y-124455722D01*
X155294703Y-124455722D01*
G37*
D18*
X154455000Y-124755000D03*
D14*
G36*
X155294703Y-125725722D02*
G01*
X155309264Y-125727882D01*
X155323543Y-125731459D01*
X155337403Y-125736418D01*
X155350710Y-125742712D01*
X155363336Y-125750280D01*
X155375159Y-125759048D01*
X155386066Y-125768934D01*
X155395952Y-125779841D01*
X155404720Y-125791664D01*
X155412288Y-125804290D01*
X155418582Y-125817597D01*
X155423541Y-125831457D01*
X155427118Y-125845736D01*
X155429278Y-125860297D01*
X155430000Y-125875000D01*
X155430000Y-126175000D01*
X155429278Y-126189703D01*
X155427118Y-126204264D01*
X155423541Y-126218543D01*
X155418582Y-126232403D01*
X155412288Y-126245710D01*
X155404720Y-126258336D01*
X155395952Y-126270159D01*
X155386066Y-126281066D01*
X155375159Y-126290952D01*
X155363336Y-126299720D01*
X155350710Y-126307288D01*
X155337403Y-126313582D01*
X155323543Y-126318541D01*
X155309264Y-126322118D01*
X155294703Y-126324278D01*
X155280000Y-126325000D01*
X153630000Y-126325000D01*
X153615297Y-126324278D01*
X153600736Y-126322118D01*
X153586457Y-126318541D01*
X153572597Y-126313582D01*
X153559290Y-126307288D01*
X153546664Y-126299720D01*
X153534841Y-126290952D01*
X153523934Y-126281066D01*
X153514048Y-126270159D01*
X153505280Y-126258336D01*
X153497712Y-126245710D01*
X153491418Y-126232403D01*
X153486459Y-126218543D01*
X153482882Y-126204264D01*
X153480722Y-126189703D01*
X153480000Y-126175000D01*
X153480000Y-125875000D01*
X153480722Y-125860297D01*
X153482882Y-125845736D01*
X153486459Y-125831457D01*
X153491418Y-125817597D01*
X153497712Y-125804290D01*
X153505280Y-125791664D01*
X153514048Y-125779841D01*
X153523934Y-125768934D01*
X153534841Y-125759048D01*
X153546664Y-125750280D01*
X153559290Y-125742712D01*
X153572597Y-125736418D01*
X153586457Y-125731459D01*
X153600736Y-125727882D01*
X153615297Y-125725722D01*
X153630000Y-125725000D01*
X155280000Y-125725000D01*
X155294703Y-125725722D01*
X155294703Y-125725722D01*
G37*
D18*
X154455000Y-126025000D03*
D14*
G36*
X131472054Y-83381083D02*
G01*
X131493895Y-83384323D01*
X131515314Y-83389688D01*
X131536104Y-83397127D01*
X131556064Y-83406568D01*
X131575003Y-83417919D01*
X131592738Y-83431073D01*
X131609099Y-83445901D01*
X131623927Y-83462262D01*
X131637081Y-83479997D01*
X131648432Y-83498936D01*
X131657873Y-83518896D01*
X131665312Y-83539686D01*
X131670677Y-83561105D01*
X131673917Y-83582946D01*
X131675000Y-83605000D01*
X131675000Y-84055000D01*
X131673917Y-84077054D01*
X131670677Y-84098895D01*
X131665312Y-84120314D01*
X131657873Y-84141104D01*
X131648432Y-84161064D01*
X131637081Y-84180003D01*
X131623927Y-84197738D01*
X131609099Y-84214099D01*
X131592738Y-84228927D01*
X131575003Y-84242081D01*
X131556064Y-84253432D01*
X131536104Y-84262873D01*
X131515314Y-84270312D01*
X131493895Y-84275677D01*
X131472054Y-84278917D01*
X131450000Y-84280000D01*
X130400000Y-84280000D01*
X130377946Y-84278917D01*
X130356105Y-84275677D01*
X130334686Y-84270312D01*
X130313896Y-84262873D01*
X130293936Y-84253432D01*
X130274997Y-84242081D01*
X130257262Y-84228927D01*
X130240901Y-84214099D01*
X130226073Y-84197738D01*
X130212919Y-84180003D01*
X130201568Y-84161064D01*
X130192127Y-84141104D01*
X130184688Y-84120314D01*
X130179323Y-84098895D01*
X130176083Y-84077054D01*
X130175000Y-84055000D01*
X130175000Y-83605000D01*
X130176083Y-83582946D01*
X130179323Y-83561105D01*
X130184688Y-83539686D01*
X130192127Y-83518896D01*
X130201568Y-83498936D01*
X130212919Y-83479997D01*
X130226073Y-83462262D01*
X130240901Y-83445901D01*
X130257262Y-83431073D01*
X130274997Y-83417919D01*
X130293936Y-83406568D01*
X130313896Y-83397127D01*
X130334686Y-83389688D01*
X130356105Y-83384323D01*
X130377946Y-83381083D01*
X130400000Y-83380000D01*
X131450000Y-83380000D01*
X131472054Y-83381083D01*
X131472054Y-83381083D01*
G37*
D19*
X130925000Y-83830000D03*
D14*
G36*
X131472054Y-85921083D02*
G01*
X131493895Y-85924323D01*
X131515314Y-85929688D01*
X131536104Y-85937127D01*
X131556064Y-85946568D01*
X131575003Y-85957919D01*
X131592738Y-85971073D01*
X131609099Y-85985901D01*
X131623927Y-86002262D01*
X131637081Y-86019997D01*
X131648432Y-86038936D01*
X131657873Y-86058896D01*
X131665312Y-86079686D01*
X131670677Y-86101105D01*
X131673917Y-86122946D01*
X131675000Y-86145000D01*
X131675000Y-86595000D01*
X131673917Y-86617054D01*
X131670677Y-86638895D01*
X131665312Y-86660314D01*
X131657873Y-86681104D01*
X131648432Y-86701064D01*
X131637081Y-86720003D01*
X131623927Y-86737738D01*
X131609099Y-86754099D01*
X131592738Y-86768927D01*
X131575003Y-86782081D01*
X131556064Y-86793432D01*
X131536104Y-86802873D01*
X131515314Y-86810312D01*
X131493895Y-86815677D01*
X131472054Y-86818917D01*
X131450000Y-86820000D01*
X130400000Y-86820000D01*
X130377946Y-86818917D01*
X130356105Y-86815677D01*
X130334686Y-86810312D01*
X130313896Y-86802873D01*
X130293936Y-86793432D01*
X130274997Y-86782081D01*
X130257262Y-86768927D01*
X130240901Y-86754099D01*
X130226073Y-86737738D01*
X130212919Y-86720003D01*
X130201568Y-86701064D01*
X130192127Y-86681104D01*
X130184688Y-86660314D01*
X130179323Y-86638895D01*
X130176083Y-86617054D01*
X130175000Y-86595000D01*
X130175000Y-86145000D01*
X130176083Y-86122946D01*
X130179323Y-86101105D01*
X130184688Y-86079686D01*
X130192127Y-86058896D01*
X130201568Y-86038936D01*
X130212919Y-86019997D01*
X130226073Y-86002262D01*
X130240901Y-85985901D01*
X130257262Y-85971073D01*
X130274997Y-85957919D01*
X130293936Y-85946568D01*
X130313896Y-85937127D01*
X130334686Y-85929688D01*
X130356105Y-85924323D01*
X130377946Y-85921083D01*
X130400000Y-85920000D01*
X131450000Y-85920000D01*
X131472054Y-85921083D01*
X131472054Y-85921083D01*
G37*
D19*
X130925000Y-86370000D03*
D14*
G36*
X125222054Y-85921083D02*
G01*
X125243895Y-85924323D01*
X125265314Y-85929688D01*
X125286104Y-85937127D01*
X125306064Y-85946568D01*
X125325003Y-85957919D01*
X125342738Y-85971073D01*
X125359099Y-85985901D01*
X125373927Y-86002262D01*
X125387081Y-86019997D01*
X125398432Y-86038936D01*
X125407873Y-86058896D01*
X125415312Y-86079686D01*
X125420677Y-86101105D01*
X125423917Y-86122946D01*
X125425000Y-86145000D01*
X125425000Y-86595000D01*
X125423917Y-86617054D01*
X125420677Y-86638895D01*
X125415312Y-86660314D01*
X125407873Y-86681104D01*
X125398432Y-86701064D01*
X125387081Y-86720003D01*
X125373927Y-86737738D01*
X125359099Y-86754099D01*
X125342738Y-86768927D01*
X125325003Y-86782081D01*
X125306064Y-86793432D01*
X125286104Y-86802873D01*
X125265314Y-86810312D01*
X125243895Y-86815677D01*
X125222054Y-86818917D01*
X125200000Y-86820000D01*
X124150000Y-86820000D01*
X124127946Y-86818917D01*
X124106105Y-86815677D01*
X124084686Y-86810312D01*
X124063896Y-86802873D01*
X124043936Y-86793432D01*
X124024997Y-86782081D01*
X124007262Y-86768927D01*
X123990901Y-86754099D01*
X123976073Y-86737738D01*
X123962919Y-86720003D01*
X123951568Y-86701064D01*
X123942127Y-86681104D01*
X123934688Y-86660314D01*
X123929323Y-86638895D01*
X123926083Y-86617054D01*
X123925000Y-86595000D01*
X123925000Y-86145000D01*
X123926083Y-86122946D01*
X123929323Y-86101105D01*
X123934688Y-86079686D01*
X123942127Y-86058896D01*
X123951568Y-86038936D01*
X123962919Y-86019997D01*
X123976073Y-86002262D01*
X123990901Y-85985901D01*
X124007262Y-85971073D01*
X124024997Y-85957919D01*
X124043936Y-85946568D01*
X124063896Y-85937127D01*
X124084686Y-85929688D01*
X124106105Y-85924323D01*
X124127946Y-85921083D01*
X124150000Y-85920000D01*
X125200000Y-85920000D01*
X125222054Y-85921083D01*
X125222054Y-85921083D01*
G37*
D19*
X124675000Y-86370000D03*
D14*
G36*
X125222054Y-83381083D02*
G01*
X125243895Y-83384323D01*
X125265314Y-83389688D01*
X125286104Y-83397127D01*
X125306064Y-83406568D01*
X125325003Y-83417919D01*
X125342738Y-83431073D01*
X125359099Y-83445901D01*
X125373927Y-83462262D01*
X125387081Y-83479997D01*
X125398432Y-83498936D01*
X125407873Y-83518896D01*
X125415312Y-83539686D01*
X125420677Y-83561105D01*
X125423917Y-83582946D01*
X125425000Y-83605000D01*
X125425000Y-84055000D01*
X125423917Y-84077054D01*
X125420677Y-84098895D01*
X125415312Y-84120314D01*
X125407873Y-84141104D01*
X125398432Y-84161064D01*
X125387081Y-84180003D01*
X125373927Y-84197738D01*
X125359099Y-84214099D01*
X125342738Y-84228927D01*
X125325003Y-84242081D01*
X125306064Y-84253432D01*
X125286104Y-84262873D01*
X125265314Y-84270312D01*
X125243895Y-84275677D01*
X125222054Y-84278917D01*
X125200000Y-84280000D01*
X124150000Y-84280000D01*
X124127946Y-84278917D01*
X124106105Y-84275677D01*
X124084686Y-84270312D01*
X124063896Y-84262873D01*
X124043936Y-84253432D01*
X124024997Y-84242081D01*
X124007262Y-84228927D01*
X123990901Y-84214099D01*
X123976073Y-84197738D01*
X123962919Y-84180003D01*
X123951568Y-84161064D01*
X123942127Y-84141104D01*
X123934688Y-84120314D01*
X123929323Y-84098895D01*
X123926083Y-84077054D01*
X123925000Y-84055000D01*
X123925000Y-83605000D01*
X123926083Y-83582946D01*
X123929323Y-83561105D01*
X123934688Y-83539686D01*
X123942127Y-83518896D01*
X123951568Y-83498936D01*
X123962919Y-83479997D01*
X123976073Y-83462262D01*
X123990901Y-83445901D01*
X124007262Y-83431073D01*
X124024997Y-83417919D01*
X124043936Y-83406568D01*
X124063896Y-83397127D01*
X124084686Y-83389688D01*
X124106105Y-83384323D01*
X124127946Y-83381083D01*
X124150000Y-83380000D01*
X125200000Y-83380000D01*
X125222054Y-83381083D01*
X125222054Y-83381083D01*
G37*
D19*
X124675000Y-83830000D03*
D14*
G36*
X158094703Y-61300722D02*
G01*
X158109264Y-61302882D01*
X158123543Y-61306459D01*
X158137403Y-61311418D01*
X158150710Y-61317712D01*
X158163336Y-61325280D01*
X158175159Y-61334048D01*
X158186066Y-61343934D01*
X158195952Y-61354841D01*
X158204720Y-61366664D01*
X158212288Y-61379290D01*
X158218582Y-61392597D01*
X158223541Y-61406457D01*
X158227118Y-61420736D01*
X158229278Y-61435297D01*
X158230000Y-61450000D01*
X158230000Y-62750000D01*
X158229278Y-62764703D01*
X158227118Y-62779264D01*
X158223541Y-62793543D01*
X158218582Y-62807403D01*
X158212288Y-62820710D01*
X158204720Y-62833336D01*
X158195952Y-62845159D01*
X158186066Y-62856066D01*
X158175159Y-62865952D01*
X158163336Y-62874720D01*
X158150710Y-62882288D01*
X158137403Y-62888582D01*
X158123543Y-62893541D01*
X158109264Y-62897118D01*
X158094703Y-62899278D01*
X158080000Y-62900000D01*
X157780000Y-62900000D01*
X157765297Y-62899278D01*
X157750736Y-62897118D01*
X157736457Y-62893541D01*
X157722597Y-62888582D01*
X157709290Y-62882288D01*
X157696664Y-62874720D01*
X157684841Y-62865952D01*
X157673934Y-62856066D01*
X157664048Y-62845159D01*
X157655280Y-62833336D01*
X157647712Y-62820710D01*
X157641418Y-62807403D01*
X157636459Y-62793543D01*
X157632882Y-62779264D01*
X157630722Y-62764703D01*
X157630000Y-62750000D01*
X157630000Y-61450000D01*
X157630722Y-61435297D01*
X157632882Y-61420736D01*
X157636459Y-61406457D01*
X157641418Y-61392597D01*
X157647712Y-61379290D01*
X157655280Y-61366664D01*
X157664048Y-61354841D01*
X157673934Y-61343934D01*
X157684841Y-61334048D01*
X157696664Y-61325280D01*
X157709290Y-61317712D01*
X157722597Y-61311418D01*
X157736457Y-61306459D01*
X157750736Y-61302882D01*
X157765297Y-61300722D01*
X157780000Y-61300000D01*
X158080000Y-61300000D01*
X158094703Y-61300722D01*
X158094703Y-61300722D01*
G37*
D18*
X157930000Y-62100000D03*
D14*
G36*
X160634703Y-61300722D02*
G01*
X160649264Y-61302882D01*
X160663543Y-61306459D01*
X160677403Y-61311418D01*
X160690710Y-61317712D01*
X160703336Y-61325280D01*
X160715159Y-61334048D01*
X160726066Y-61343934D01*
X160735952Y-61354841D01*
X160744720Y-61366664D01*
X160752288Y-61379290D01*
X160758582Y-61392597D01*
X160763541Y-61406457D01*
X160767118Y-61420736D01*
X160769278Y-61435297D01*
X160770000Y-61450000D01*
X160770000Y-62750000D01*
X160769278Y-62764703D01*
X160767118Y-62779264D01*
X160763541Y-62793543D01*
X160758582Y-62807403D01*
X160752288Y-62820710D01*
X160744720Y-62833336D01*
X160735952Y-62845159D01*
X160726066Y-62856066D01*
X160715159Y-62865952D01*
X160703336Y-62874720D01*
X160690710Y-62882288D01*
X160677403Y-62888582D01*
X160663543Y-62893541D01*
X160649264Y-62897118D01*
X160634703Y-62899278D01*
X160620000Y-62900000D01*
X160320000Y-62900000D01*
X160305297Y-62899278D01*
X160290736Y-62897118D01*
X160276457Y-62893541D01*
X160262597Y-62888582D01*
X160249290Y-62882288D01*
X160236664Y-62874720D01*
X160224841Y-62865952D01*
X160213934Y-62856066D01*
X160204048Y-62845159D01*
X160195280Y-62833336D01*
X160187712Y-62820710D01*
X160181418Y-62807403D01*
X160176459Y-62793543D01*
X160172882Y-62779264D01*
X160170722Y-62764703D01*
X160170000Y-62750000D01*
X160170000Y-61450000D01*
X160170722Y-61435297D01*
X160172882Y-61420736D01*
X160176459Y-61406457D01*
X160181418Y-61392597D01*
X160187712Y-61379290D01*
X160195280Y-61366664D01*
X160204048Y-61354841D01*
X160213934Y-61343934D01*
X160224841Y-61334048D01*
X160236664Y-61325280D01*
X160249290Y-61317712D01*
X160262597Y-61311418D01*
X160276457Y-61306459D01*
X160290736Y-61302882D01*
X160305297Y-61300722D01*
X160320000Y-61300000D01*
X160620000Y-61300000D01*
X160634703Y-61300722D01*
X160634703Y-61300722D01*
G37*
D18*
X160470000Y-62100000D03*
D14*
G36*
X160634703Y-66700722D02*
G01*
X160649264Y-66702882D01*
X160663543Y-66706459D01*
X160677403Y-66711418D01*
X160690710Y-66717712D01*
X160703336Y-66725280D01*
X160715159Y-66734048D01*
X160726066Y-66743934D01*
X160735952Y-66754841D01*
X160744720Y-66766664D01*
X160752288Y-66779290D01*
X160758582Y-66792597D01*
X160763541Y-66806457D01*
X160767118Y-66820736D01*
X160769278Y-66835297D01*
X160770000Y-66850000D01*
X160770000Y-68150000D01*
X160769278Y-68164703D01*
X160767118Y-68179264D01*
X160763541Y-68193543D01*
X160758582Y-68207403D01*
X160752288Y-68220710D01*
X160744720Y-68233336D01*
X160735952Y-68245159D01*
X160726066Y-68256066D01*
X160715159Y-68265952D01*
X160703336Y-68274720D01*
X160690710Y-68282288D01*
X160677403Y-68288582D01*
X160663543Y-68293541D01*
X160649264Y-68297118D01*
X160634703Y-68299278D01*
X160620000Y-68300000D01*
X160320000Y-68300000D01*
X160305297Y-68299278D01*
X160290736Y-68297118D01*
X160276457Y-68293541D01*
X160262597Y-68288582D01*
X160249290Y-68282288D01*
X160236664Y-68274720D01*
X160224841Y-68265952D01*
X160213934Y-68256066D01*
X160204048Y-68245159D01*
X160195280Y-68233336D01*
X160187712Y-68220710D01*
X160181418Y-68207403D01*
X160176459Y-68193543D01*
X160172882Y-68179264D01*
X160170722Y-68164703D01*
X160170000Y-68150000D01*
X160170000Y-66850000D01*
X160170722Y-66835297D01*
X160172882Y-66820736D01*
X160176459Y-66806457D01*
X160181418Y-66792597D01*
X160187712Y-66779290D01*
X160195280Y-66766664D01*
X160204048Y-66754841D01*
X160213934Y-66743934D01*
X160224841Y-66734048D01*
X160236664Y-66725280D01*
X160249290Y-66717712D01*
X160262597Y-66711418D01*
X160276457Y-66706459D01*
X160290736Y-66702882D01*
X160305297Y-66700722D01*
X160320000Y-66700000D01*
X160620000Y-66700000D01*
X160634703Y-66700722D01*
X160634703Y-66700722D01*
G37*
D18*
X160470000Y-67500000D03*
D14*
G36*
X158094703Y-66700722D02*
G01*
X158109264Y-66702882D01*
X158123543Y-66706459D01*
X158137403Y-66711418D01*
X158150710Y-66717712D01*
X158163336Y-66725280D01*
X158175159Y-66734048D01*
X158186066Y-66743934D01*
X158195952Y-66754841D01*
X158204720Y-66766664D01*
X158212288Y-66779290D01*
X158218582Y-66792597D01*
X158223541Y-66806457D01*
X158227118Y-66820736D01*
X158229278Y-66835297D01*
X158230000Y-66850000D01*
X158230000Y-68150000D01*
X158229278Y-68164703D01*
X158227118Y-68179264D01*
X158223541Y-68193543D01*
X158218582Y-68207403D01*
X158212288Y-68220710D01*
X158204720Y-68233336D01*
X158195952Y-68245159D01*
X158186066Y-68256066D01*
X158175159Y-68265952D01*
X158163336Y-68274720D01*
X158150710Y-68282288D01*
X158137403Y-68288582D01*
X158123543Y-68293541D01*
X158109264Y-68297118D01*
X158094703Y-68299278D01*
X158080000Y-68300000D01*
X157780000Y-68300000D01*
X157765297Y-68299278D01*
X157750736Y-68297118D01*
X157736457Y-68293541D01*
X157722597Y-68288582D01*
X157709290Y-68282288D01*
X157696664Y-68274720D01*
X157684841Y-68265952D01*
X157673934Y-68256066D01*
X157664048Y-68245159D01*
X157655280Y-68233336D01*
X157647712Y-68220710D01*
X157641418Y-68207403D01*
X157636459Y-68193543D01*
X157632882Y-68179264D01*
X157630722Y-68164703D01*
X157630000Y-68150000D01*
X157630000Y-66850000D01*
X157630722Y-66835297D01*
X157632882Y-66820736D01*
X157636459Y-66806457D01*
X157641418Y-66792597D01*
X157647712Y-66779290D01*
X157655280Y-66766664D01*
X157664048Y-66754841D01*
X157673934Y-66743934D01*
X157684841Y-66734048D01*
X157696664Y-66725280D01*
X157709290Y-66717712D01*
X157722597Y-66711418D01*
X157736457Y-66706459D01*
X157750736Y-66702882D01*
X157765297Y-66700722D01*
X157780000Y-66700000D01*
X158080000Y-66700000D01*
X158094703Y-66700722D01*
X158094703Y-66700722D01*
G37*
D18*
X157930000Y-67500000D03*
D20*
X159250000Y-75650000D03*
X159250000Y-77550000D03*
X156550000Y-77550000D03*
X156550000Y-76600000D03*
X156550000Y-75650000D03*
X187250000Y-83650000D03*
X187250000Y-81750000D03*
X189950000Y-81750000D03*
X189950000Y-82700000D03*
X189950000Y-83650000D03*
D14*
G36*
X121674505Y-86851204D02*
G01*
X121698773Y-86854804D01*
X121722572Y-86860765D01*
X121745671Y-86869030D01*
X121767850Y-86879520D01*
X121788893Y-86892132D01*
X121808599Y-86906747D01*
X121826777Y-86923223D01*
X121843253Y-86941401D01*
X121857868Y-86961107D01*
X121870480Y-86982150D01*
X121880970Y-87004329D01*
X121889235Y-87027428D01*
X121895196Y-87051227D01*
X121898796Y-87075495D01*
X121900000Y-87099999D01*
X121900000Y-87750001D01*
X121898796Y-87774505D01*
X121895196Y-87798773D01*
X121889235Y-87822572D01*
X121880970Y-87845671D01*
X121870480Y-87867850D01*
X121857868Y-87888893D01*
X121843253Y-87908599D01*
X121826777Y-87926777D01*
X121808599Y-87943253D01*
X121788893Y-87957868D01*
X121767850Y-87970480D01*
X121745671Y-87980970D01*
X121722572Y-87989235D01*
X121698773Y-87995196D01*
X121674505Y-87998796D01*
X121650001Y-88000000D01*
X120749999Y-88000000D01*
X120725495Y-87998796D01*
X120701227Y-87995196D01*
X120677428Y-87989235D01*
X120654329Y-87980970D01*
X120632150Y-87970480D01*
X120611107Y-87957868D01*
X120591401Y-87943253D01*
X120573223Y-87926777D01*
X120556747Y-87908599D01*
X120542132Y-87888893D01*
X120529520Y-87867850D01*
X120519030Y-87845671D01*
X120510765Y-87822572D01*
X120504804Y-87798773D01*
X120501204Y-87774505D01*
X120500000Y-87750001D01*
X120500000Y-87099999D01*
X120501204Y-87075495D01*
X120504804Y-87051227D01*
X120510765Y-87027428D01*
X120519030Y-87004329D01*
X120529520Y-86982150D01*
X120542132Y-86961107D01*
X120556747Y-86941401D01*
X120573223Y-86923223D01*
X120591401Y-86906747D01*
X120611107Y-86892132D01*
X120632150Y-86879520D01*
X120654329Y-86869030D01*
X120677428Y-86860765D01*
X120701227Y-86854804D01*
X120725495Y-86851204D01*
X120749999Y-86850000D01*
X121650001Y-86850000D01*
X121674505Y-86851204D01*
X121674505Y-86851204D01*
G37*
D15*
X121200000Y-87425000D03*
D14*
G36*
X121674505Y-84801204D02*
G01*
X121698773Y-84804804D01*
X121722572Y-84810765D01*
X121745671Y-84819030D01*
X121767850Y-84829520D01*
X121788893Y-84842132D01*
X121808599Y-84856747D01*
X121826777Y-84873223D01*
X121843253Y-84891401D01*
X121857868Y-84911107D01*
X121870480Y-84932150D01*
X121880970Y-84954329D01*
X121889235Y-84977428D01*
X121895196Y-85001227D01*
X121898796Y-85025495D01*
X121900000Y-85049999D01*
X121900000Y-85700001D01*
X121898796Y-85724505D01*
X121895196Y-85748773D01*
X121889235Y-85772572D01*
X121880970Y-85795671D01*
X121870480Y-85817850D01*
X121857868Y-85838893D01*
X121843253Y-85858599D01*
X121826777Y-85876777D01*
X121808599Y-85893253D01*
X121788893Y-85907868D01*
X121767850Y-85920480D01*
X121745671Y-85930970D01*
X121722572Y-85939235D01*
X121698773Y-85945196D01*
X121674505Y-85948796D01*
X121650001Y-85950000D01*
X120749999Y-85950000D01*
X120725495Y-85948796D01*
X120701227Y-85945196D01*
X120677428Y-85939235D01*
X120654329Y-85930970D01*
X120632150Y-85920480D01*
X120611107Y-85907868D01*
X120591401Y-85893253D01*
X120573223Y-85876777D01*
X120556747Y-85858599D01*
X120542132Y-85838893D01*
X120529520Y-85817850D01*
X120519030Y-85795671D01*
X120510765Y-85772572D01*
X120504804Y-85748773D01*
X120501204Y-85724505D01*
X120500000Y-85700001D01*
X120500000Y-85049999D01*
X120501204Y-85025495D01*
X120504804Y-85001227D01*
X120510765Y-84977428D01*
X120519030Y-84954329D01*
X120529520Y-84932150D01*
X120542132Y-84911107D01*
X120556747Y-84891401D01*
X120573223Y-84873223D01*
X120591401Y-84856747D01*
X120611107Y-84842132D01*
X120632150Y-84829520D01*
X120654329Y-84819030D01*
X120677428Y-84810765D01*
X120701227Y-84804804D01*
X120725495Y-84801204D01*
X120749999Y-84800000D01*
X121650001Y-84800000D01*
X121674505Y-84801204D01*
X121674505Y-84801204D01*
G37*
D15*
X121200000Y-85375000D03*
D14*
G36*
X162774505Y-70601204D02*
G01*
X162798773Y-70604804D01*
X162822572Y-70610765D01*
X162845671Y-70619030D01*
X162867850Y-70629520D01*
X162888893Y-70642132D01*
X162908599Y-70656747D01*
X162926777Y-70673223D01*
X162943253Y-70691401D01*
X162957868Y-70711107D01*
X162970480Y-70732150D01*
X162980970Y-70754329D01*
X162989235Y-70777428D01*
X162995196Y-70801227D01*
X162998796Y-70825495D01*
X163000000Y-70849999D01*
X163000000Y-71500001D01*
X162998796Y-71524505D01*
X162995196Y-71548773D01*
X162989235Y-71572572D01*
X162980970Y-71595671D01*
X162970480Y-71617850D01*
X162957868Y-71638893D01*
X162943253Y-71658599D01*
X162926777Y-71676777D01*
X162908599Y-71693253D01*
X162888893Y-71707868D01*
X162867850Y-71720480D01*
X162845671Y-71730970D01*
X162822572Y-71739235D01*
X162798773Y-71745196D01*
X162774505Y-71748796D01*
X162750001Y-71750000D01*
X161849999Y-71750000D01*
X161825495Y-71748796D01*
X161801227Y-71745196D01*
X161777428Y-71739235D01*
X161754329Y-71730970D01*
X161732150Y-71720480D01*
X161711107Y-71707868D01*
X161691401Y-71693253D01*
X161673223Y-71676777D01*
X161656747Y-71658599D01*
X161642132Y-71638893D01*
X161629520Y-71617850D01*
X161619030Y-71595671D01*
X161610765Y-71572572D01*
X161604804Y-71548773D01*
X161601204Y-71524505D01*
X161600000Y-71500001D01*
X161600000Y-70849999D01*
X161601204Y-70825495D01*
X161604804Y-70801227D01*
X161610765Y-70777428D01*
X161619030Y-70754329D01*
X161629520Y-70732150D01*
X161642132Y-70711107D01*
X161656747Y-70691401D01*
X161673223Y-70673223D01*
X161691401Y-70656747D01*
X161711107Y-70642132D01*
X161732150Y-70629520D01*
X161754329Y-70619030D01*
X161777428Y-70610765D01*
X161801227Y-70604804D01*
X161825495Y-70601204D01*
X161849999Y-70600000D01*
X162750001Y-70600000D01*
X162774505Y-70601204D01*
X162774505Y-70601204D01*
G37*
D15*
X162300000Y-71175000D03*
D14*
G36*
X162774505Y-72651204D02*
G01*
X162798773Y-72654804D01*
X162822572Y-72660765D01*
X162845671Y-72669030D01*
X162867850Y-72679520D01*
X162888893Y-72692132D01*
X162908599Y-72706747D01*
X162926777Y-72723223D01*
X162943253Y-72741401D01*
X162957868Y-72761107D01*
X162970480Y-72782150D01*
X162980970Y-72804329D01*
X162989235Y-72827428D01*
X162995196Y-72851227D01*
X162998796Y-72875495D01*
X163000000Y-72899999D01*
X163000000Y-73550001D01*
X162998796Y-73574505D01*
X162995196Y-73598773D01*
X162989235Y-73622572D01*
X162980970Y-73645671D01*
X162970480Y-73667850D01*
X162957868Y-73688893D01*
X162943253Y-73708599D01*
X162926777Y-73726777D01*
X162908599Y-73743253D01*
X162888893Y-73757868D01*
X162867850Y-73770480D01*
X162845671Y-73780970D01*
X162822572Y-73789235D01*
X162798773Y-73795196D01*
X162774505Y-73798796D01*
X162750001Y-73800000D01*
X161849999Y-73800000D01*
X161825495Y-73798796D01*
X161801227Y-73795196D01*
X161777428Y-73789235D01*
X161754329Y-73780970D01*
X161732150Y-73770480D01*
X161711107Y-73757868D01*
X161691401Y-73743253D01*
X161673223Y-73726777D01*
X161656747Y-73708599D01*
X161642132Y-73688893D01*
X161629520Y-73667850D01*
X161619030Y-73645671D01*
X161610765Y-73622572D01*
X161604804Y-73598773D01*
X161601204Y-73574505D01*
X161600000Y-73550001D01*
X161600000Y-72899999D01*
X161601204Y-72875495D01*
X161604804Y-72851227D01*
X161610765Y-72827428D01*
X161619030Y-72804329D01*
X161629520Y-72782150D01*
X161642132Y-72761107D01*
X161656747Y-72741401D01*
X161673223Y-72723223D01*
X161691401Y-72706747D01*
X161711107Y-72692132D01*
X161732150Y-72679520D01*
X161754329Y-72669030D01*
X161777428Y-72660765D01*
X161801227Y-72654804D01*
X161825495Y-72651204D01*
X161849999Y-72650000D01*
X162750001Y-72650000D01*
X162774505Y-72651204D01*
X162774505Y-72651204D01*
G37*
D15*
X162300000Y-73225000D03*
D14*
G36*
X153174505Y-71201204D02*
G01*
X153198773Y-71204804D01*
X153222572Y-71210765D01*
X153245671Y-71219030D01*
X153267850Y-71229520D01*
X153288893Y-71242132D01*
X153308599Y-71256747D01*
X153326777Y-71273223D01*
X153343253Y-71291401D01*
X153357868Y-71311107D01*
X153370480Y-71332150D01*
X153380970Y-71354329D01*
X153389235Y-71377428D01*
X153395196Y-71401227D01*
X153398796Y-71425495D01*
X153400000Y-71449999D01*
X153400000Y-72100001D01*
X153398796Y-72124505D01*
X153395196Y-72148773D01*
X153389235Y-72172572D01*
X153380970Y-72195671D01*
X153370480Y-72217850D01*
X153357868Y-72238893D01*
X153343253Y-72258599D01*
X153326777Y-72276777D01*
X153308599Y-72293253D01*
X153288893Y-72307868D01*
X153267850Y-72320480D01*
X153245671Y-72330970D01*
X153222572Y-72339235D01*
X153198773Y-72345196D01*
X153174505Y-72348796D01*
X153150001Y-72350000D01*
X152249999Y-72350000D01*
X152225495Y-72348796D01*
X152201227Y-72345196D01*
X152177428Y-72339235D01*
X152154329Y-72330970D01*
X152132150Y-72320480D01*
X152111107Y-72307868D01*
X152091401Y-72293253D01*
X152073223Y-72276777D01*
X152056747Y-72258599D01*
X152042132Y-72238893D01*
X152029520Y-72217850D01*
X152019030Y-72195671D01*
X152010765Y-72172572D01*
X152004804Y-72148773D01*
X152001204Y-72124505D01*
X152000000Y-72100001D01*
X152000000Y-71449999D01*
X152001204Y-71425495D01*
X152004804Y-71401227D01*
X152010765Y-71377428D01*
X152019030Y-71354329D01*
X152029520Y-71332150D01*
X152042132Y-71311107D01*
X152056747Y-71291401D01*
X152073223Y-71273223D01*
X152091401Y-71256747D01*
X152111107Y-71242132D01*
X152132150Y-71229520D01*
X152154329Y-71219030D01*
X152177428Y-71210765D01*
X152201227Y-71204804D01*
X152225495Y-71201204D01*
X152249999Y-71200000D01*
X153150001Y-71200000D01*
X153174505Y-71201204D01*
X153174505Y-71201204D01*
G37*
D15*
X152700000Y-71775000D03*
D14*
G36*
X153174505Y-73251204D02*
G01*
X153198773Y-73254804D01*
X153222572Y-73260765D01*
X153245671Y-73269030D01*
X153267850Y-73279520D01*
X153288893Y-73292132D01*
X153308599Y-73306747D01*
X153326777Y-73323223D01*
X153343253Y-73341401D01*
X153357868Y-73361107D01*
X153370480Y-73382150D01*
X153380970Y-73404329D01*
X153389235Y-73427428D01*
X153395196Y-73451227D01*
X153398796Y-73475495D01*
X153400000Y-73499999D01*
X153400000Y-74150001D01*
X153398796Y-74174505D01*
X153395196Y-74198773D01*
X153389235Y-74222572D01*
X153380970Y-74245671D01*
X153370480Y-74267850D01*
X153357868Y-74288893D01*
X153343253Y-74308599D01*
X153326777Y-74326777D01*
X153308599Y-74343253D01*
X153288893Y-74357868D01*
X153267850Y-74370480D01*
X153245671Y-74380970D01*
X153222572Y-74389235D01*
X153198773Y-74395196D01*
X153174505Y-74398796D01*
X153150001Y-74400000D01*
X152249999Y-74400000D01*
X152225495Y-74398796D01*
X152201227Y-74395196D01*
X152177428Y-74389235D01*
X152154329Y-74380970D01*
X152132150Y-74370480D01*
X152111107Y-74357868D01*
X152091401Y-74343253D01*
X152073223Y-74326777D01*
X152056747Y-74308599D01*
X152042132Y-74288893D01*
X152029520Y-74267850D01*
X152019030Y-74245671D01*
X152010765Y-74222572D01*
X152004804Y-74198773D01*
X152001204Y-74174505D01*
X152000000Y-74150001D01*
X152000000Y-73499999D01*
X152001204Y-73475495D01*
X152004804Y-73451227D01*
X152010765Y-73427428D01*
X152019030Y-73404329D01*
X152029520Y-73382150D01*
X152042132Y-73361107D01*
X152056747Y-73341401D01*
X152073223Y-73323223D01*
X152091401Y-73306747D01*
X152111107Y-73292132D01*
X152132150Y-73279520D01*
X152154329Y-73269030D01*
X152177428Y-73260765D01*
X152201227Y-73254804D01*
X152225495Y-73251204D01*
X152249999Y-73250000D01*
X153150001Y-73250000D01*
X153174505Y-73251204D01*
X153174505Y-73251204D01*
G37*
D15*
X152700000Y-73825000D03*
D14*
G36*
X153074505Y-76501204D02*
G01*
X153098773Y-76504804D01*
X153122572Y-76510765D01*
X153145671Y-76519030D01*
X153167850Y-76529520D01*
X153188893Y-76542132D01*
X153208599Y-76556747D01*
X153226777Y-76573223D01*
X153243253Y-76591401D01*
X153257868Y-76611107D01*
X153270480Y-76632150D01*
X153280970Y-76654329D01*
X153289235Y-76677428D01*
X153295196Y-76701227D01*
X153298796Y-76725495D01*
X153300000Y-76749999D01*
X153300000Y-77650001D01*
X153298796Y-77674505D01*
X153295196Y-77698773D01*
X153289235Y-77722572D01*
X153280970Y-77745671D01*
X153270480Y-77767850D01*
X153257868Y-77788893D01*
X153243253Y-77808599D01*
X153226777Y-77826777D01*
X153208599Y-77843253D01*
X153188893Y-77857868D01*
X153167850Y-77870480D01*
X153145671Y-77880970D01*
X153122572Y-77889235D01*
X153098773Y-77895196D01*
X153074505Y-77898796D01*
X153050001Y-77900000D01*
X152399999Y-77900000D01*
X152375495Y-77898796D01*
X152351227Y-77895196D01*
X152327428Y-77889235D01*
X152304329Y-77880970D01*
X152282150Y-77870480D01*
X152261107Y-77857868D01*
X152241401Y-77843253D01*
X152223223Y-77826777D01*
X152206747Y-77808599D01*
X152192132Y-77788893D01*
X152179520Y-77767850D01*
X152169030Y-77745671D01*
X152160765Y-77722572D01*
X152154804Y-77698773D01*
X152151204Y-77674505D01*
X152150000Y-77650001D01*
X152150000Y-76749999D01*
X152151204Y-76725495D01*
X152154804Y-76701227D01*
X152160765Y-76677428D01*
X152169030Y-76654329D01*
X152179520Y-76632150D01*
X152192132Y-76611107D01*
X152206747Y-76591401D01*
X152223223Y-76573223D01*
X152241401Y-76556747D01*
X152261107Y-76542132D01*
X152282150Y-76529520D01*
X152304329Y-76519030D01*
X152327428Y-76510765D01*
X152351227Y-76504804D01*
X152375495Y-76501204D01*
X152399999Y-76500000D01*
X153050001Y-76500000D01*
X153074505Y-76501204D01*
X153074505Y-76501204D01*
G37*
D15*
X152725000Y-77200000D03*
D14*
G36*
X151024505Y-76501204D02*
G01*
X151048773Y-76504804D01*
X151072572Y-76510765D01*
X151095671Y-76519030D01*
X151117850Y-76529520D01*
X151138893Y-76542132D01*
X151158599Y-76556747D01*
X151176777Y-76573223D01*
X151193253Y-76591401D01*
X151207868Y-76611107D01*
X151220480Y-76632150D01*
X151230970Y-76654329D01*
X151239235Y-76677428D01*
X151245196Y-76701227D01*
X151248796Y-76725495D01*
X151250000Y-76749999D01*
X151250000Y-77650001D01*
X151248796Y-77674505D01*
X151245196Y-77698773D01*
X151239235Y-77722572D01*
X151230970Y-77745671D01*
X151220480Y-77767850D01*
X151207868Y-77788893D01*
X151193253Y-77808599D01*
X151176777Y-77826777D01*
X151158599Y-77843253D01*
X151138893Y-77857868D01*
X151117850Y-77870480D01*
X151095671Y-77880970D01*
X151072572Y-77889235D01*
X151048773Y-77895196D01*
X151024505Y-77898796D01*
X151000001Y-77900000D01*
X150349999Y-77900000D01*
X150325495Y-77898796D01*
X150301227Y-77895196D01*
X150277428Y-77889235D01*
X150254329Y-77880970D01*
X150232150Y-77870480D01*
X150211107Y-77857868D01*
X150191401Y-77843253D01*
X150173223Y-77826777D01*
X150156747Y-77808599D01*
X150142132Y-77788893D01*
X150129520Y-77767850D01*
X150119030Y-77745671D01*
X150110765Y-77722572D01*
X150104804Y-77698773D01*
X150101204Y-77674505D01*
X150100000Y-77650001D01*
X150100000Y-76749999D01*
X150101204Y-76725495D01*
X150104804Y-76701227D01*
X150110765Y-76677428D01*
X150119030Y-76654329D01*
X150129520Y-76632150D01*
X150142132Y-76611107D01*
X150156747Y-76591401D01*
X150173223Y-76573223D01*
X150191401Y-76556747D01*
X150211107Y-76542132D01*
X150232150Y-76529520D01*
X150254329Y-76519030D01*
X150277428Y-76510765D01*
X150301227Y-76504804D01*
X150325495Y-76501204D01*
X150349999Y-76500000D01*
X151000001Y-76500000D01*
X151024505Y-76501204D01*
X151024505Y-76501204D01*
G37*
D15*
X150675000Y-77200000D03*
D14*
G36*
X148574505Y-76501204D02*
G01*
X148598773Y-76504804D01*
X148622572Y-76510765D01*
X148645671Y-76519030D01*
X148667850Y-76529520D01*
X148688893Y-76542132D01*
X148708599Y-76556747D01*
X148726777Y-76573223D01*
X148743253Y-76591401D01*
X148757868Y-76611107D01*
X148770480Y-76632150D01*
X148780970Y-76654329D01*
X148789235Y-76677428D01*
X148795196Y-76701227D01*
X148798796Y-76725495D01*
X148800000Y-76749999D01*
X148800000Y-77650001D01*
X148798796Y-77674505D01*
X148795196Y-77698773D01*
X148789235Y-77722572D01*
X148780970Y-77745671D01*
X148770480Y-77767850D01*
X148757868Y-77788893D01*
X148743253Y-77808599D01*
X148726777Y-77826777D01*
X148708599Y-77843253D01*
X148688893Y-77857868D01*
X148667850Y-77870480D01*
X148645671Y-77880970D01*
X148622572Y-77889235D01*
X148598773Y-77895196D01*
X148574505Y-77898796D01*
X148550001Y-77900000D01*
X147899999Y-77900000D01*
X147875495Y-77898796D01*
X147851227Y-77895196D01*
X147827428Y-77889235D01*
X147804329Y-77880970D01*
X147782150Y-77870480D01*
X147761107Y-77857868D01*
X147741401Y-77843253D01*
X147723223Y-77826777D01*
X147706747Y-77808599D01*
X147692132Y-77788893D01*
X147679520Y-77767850D01*
X147669030Y-77745671D01*
X147660765Y-77722572D01*
X147654804Y-77698773D01*
X147651204Y-77674505D01*
X147650000Y-77650001D01*
X147650000Y-76749999D01*
X147651204Y-76725495D01*
X147654804Y-76701227D01*
X147660765Y-76677428D01*
X147669030Y-76654329D01*
X147679520Y-76632150D01*
X147692132Y-76611107D01*
X147706747Y-76591401D01*
X147723223Y-76573223D01*
X147741401Y-76556747D01*
X147761107Y-76542132D01*
X147782150Y-76529520D01*
X147804329Y-76519030D01*
X147827428Y-76510765D01*
X147851227Y-76504804D01*
X147875495Y-76501204D01*
X147899999Y-76500000D01*
X148550001Y-76500000D01*
X148574505Y-76501204D01*
X148574505Y-76501204D01*
G37*
D15*
X148225000Y-77200000D03*
D14*
G36*
X146524505Y-76501204D02*
G01*
X146548773Y-76504804D01*
X146572572Y-76510765D01*
X146595671Y-76519030D01*
X146617850Y-76529520D01*
X146638893Y-76542132D01*
X146658599Y-76556747D01*
X146676777Y-76573223D01*
X146693253Y-76591401D01*
X146707868Y-76611107D01*
X146720480Y-76632150D01*
X146730970Y-76654329D01*
X146739235Y-76677428D01*
X146745196Y-76701227D01*
X146748796Y-76725495D01*
X146750000Y-76749999D01*
X146750000Y-77650001D01*
X146748796Y-77674505D01*
X146745196Y-77698773D01*
X146739235Y-77722572D01*
X146730970Y-77745671D01*
X146720480Y-77767850D01*
X146707868Y-77788893D01*
X146693253Y-77808599D01*
X146676777Y-77826777D01*
X146658599Y-77843253D01*
X146638893Y-77857868D01*
X146617850Y-77870480D01*
X146595671Y-77880970D01*
X146572572Y-77889235D01*
X146548773Y-77895196D01*
X146524505Y-77898796D01*
X146500001Y-77900000D01*
X145849999Y-77900000D01*
X145825495Y-77898796D01*
X145801227Y-77895196D01*
X145777428Y-77889235D01*
X145754329Y-77880970D01*
X145732150Y-77870480D01*
X145711107Y-77857868D01*
X145691401Y-77843253D01*
X145673223Y-77826777D01*
X145656747Y-77808599D01*
X145642132Y-77788893D01*
X145629520Y-77767850D01*
X145619030Y-77745671D01*
X145610765Y-77722572D01*
X145604804Y-77698773D01*
X145601204Y-77674505D01*
X145600000Y-77650001D01*
X145600000Y-76749999D01*
X145601204Y-76725495D01*
X145604804Y-76701227D01*
X145610765Y-76677428D01*
X145619030Y-76654329D01*
X145629520Y-76632150D01*
X145642132Y-76611107D01*
X145656747Y-76591401D01*
X145673223Y-76573223D01*
X145691401Y-76556747D01*
X145711107Y-76542132D01*
X145732150Y-76529520D01*
X145754329Y-76519030D01*
X145777428Y-76510765D01*
X145801227Y-76504804D01*
X145825495Y-76501204D01*
X145849999Y-76500000D01*
X146500001Y-76500000D01*
X146524505Y-76501204D01*
X146524505Y-76501204D01*
G37*
D15*
X146175000Y-77200000D03*
D14*
G36*
X196774505Y-83276204D02*
G01*
X196798773Y-83279804D01*
X196822572Y-83285765D01*
X196845671Y-83294030D01*
X196867850Y-83304520D01*
X196888893Y-83317132D01*
X196908599Y-83331747D01*
X196926777Y-83348223D01*
X196943253Y-83366401D01*
X196957868Y-83386107D01*
X196970480Y-83407150D01*
X196980970Y-83429329D01*
X196989235Y-83452428D01*
X196995196Y-83476227D01*
X196998796Y-83500495D01*
X197000000Y-83524999D01*
X197000000Y-84175001D01*
X196998796Y-84199505D01*
X196995196Y-84223773D01*
X196989235Y-84247572D01*
X196980970Y-84270671D01*
X196970480Y-84292850D01*
X196957868Y-84313893D01*
X196943253Y-84333599D01*
X196926777Y-84351777D01*
X196908599Y-84368253D01*
X196888893Y-84382868D01*
X196867850Y-84395480D01*
X196845671Y-84405970D01*
X196822572Y-84414235D01*
X196798773Y-84420196D01*
X196774505Y-84423796D01*
X196750001Y-84425000D01*
X195849999Y-84425000D01*
X195825495Y-84423796D01*
X195801227Y-84420196D01*
X195777428Y-84414235D01*
X195754329Y-84405970D01*
X195732150Y-84395480D01*
X195711107Y-84382868D01*
X195691401Y-84368253D01*
X195673223Y-84351777D01*
X195656747Y-84333599D01*
X195642132Y-84313893D01*
X195629520Y-84292850D01*
X195619030Y-84270671D01*
X195610765Y-84247572D01*
X195604804Y-84223773D01*
X195601204Y-84199505D01*
X195600000Y-84175001D01*
X195600000Y-83524999D01*
X195601204Y-83500495D01*
X195604804Y-83476227D01*
X195610765Y-83452428D01*
X195619030Y-83429329D01*
X195629520Y-83407150D01*
X195642132Y-83386107D01*
X195656747Y-83366401D01*
X195673223Y-83348223D01*
X195691401Y-83331747D01*
X195711107Y-83317132D01*
X195732150Y-83304520D01*
X195754329Y-83294030D01*
X195777428Y-83285765D01*
X195801227Y-83279804D01*
X195825495Y-83276204D01*
X195849999Y-83275000D01*
X196750001Y-83275000D01*
X196774505Y-83276204D01*
X196774505Y-83276204D01*
G37*
D15*
X196300000Y-83850000D03*
D14*
G36*
X196774505Y-81226204D02*
G01*
X196798773Y-81229804D01*
X196822572Y-81235765D01*
X196845671Y-81244030D01*
X196867850Y-81254520D01*
X196888893Y-81267132D01*
X196908599Y-81281747D01*
X196926777Y-81298223D01*
X196943253Y-81316401D01*
X196957868Y-81336107D01*
X196970480Y-81357150D01*
X196980970Y-81379329D01*
X196989235Y-81402428D01*
X196995196Y-81426227D01*
X196998796Y-81450495D01*
X197000000Y-81474999D01*
X197000000Y-82125001D01*
X196998796Y-82149505D01*
X196995196Y-82173773D01*
X196989235Y-82197572D01*
X196980970Y-82220671D01*
X196970480Y-82242850D01*
X196957868Y-82263893D01*
X196943253Y-82283599D01*
X196926777Y-82301777D01*
X196908599Y-82318253D01*
X196888893Y-82332868D01*
X196867850Y-82345480D01*
X196845671Y-82355970D01*
X196822572Y-82364235D01*
X196798773Y-82370196D01*
X196774505Y-82373796D01*
X196750001Y-82375000D01*
X195849999Y-82375000D01*
X195825495Y-82373796D01*
X195801227Y-82370196D01*
X195777428Y-82364235D01*
X195754329Y-82355970D01*
X195732150Y-82345480D01*
X195711107Y-82332868D01*
X195691401Y-82318253D01*
X195673223Y-82301777D01*
X195656747Y-82283599D01*
X195642132Y-82263893D01*
X195629520Y-82242850D01*
X195619030Y-82220671D01*
X195610765Y-82197572D01*
X195604804Y-82173773D01*
X195601204Y-82149505D01*
X195600000Y-82125001D01*
X195600000Y-81474999D01*
X195601204Y-81450495D01*
X195604804Y-81426227D01*
X195610765Y-81402428D01*
X195619030Y-81379329D01*
X195629520Y-81357150D01*
X195642132Y-81336107D01*
X195656747Y-81316401D01*
X195673223Y-81298223D01*
X195691401Y-81281747D01*
X195711107Y-81267132D01*
X195732150Y-81254520D01*
X195754329Y-81244030D01*
X195777428Y-81235765D01*
X195801227Y-81229804D01*
X195825495Y-81226204D01*
X195849999Y-81225000D01*
X196750001Y-81225000D01*
X196774505Y-81226204D01*
X196774505Y-81226204D01*
G37*
D15*
X196300000Y-81800000D03*
D14*
G36*
X196774505Y-78676204D02*
G01*
X196798773Y-78679804D01*
X196822572Y-78685765D01*
X196845671Y-78694030D01*
X196867850Y-78704520D01*
X196888893Y-78717132D01*
X196908599Y-78731747D01*
X196926777Y-78748223D01*
X196943253Y-78766401D01*
X196957868Y-78786107D01*
X196970480Y-78807150D01*
X196980970Y-78829329D01*
X196989235Y-78852428D01*
X196995196Y-78876227D01*
X196998796Y-78900495D01*
X197000000Y-78924999D01*
X197000000Y-79575001D01*
X196998796Y-79599505D01*
X196995196Y-79623773D01*
X196989235Y-79647572D01*
X196980970Y-79670671D01*
X196970480Y-79692850D01*
X196957868Y-79713893D01*
X196943253Y-79733599D01*
X196926777Y-79751777D01*
X196908599Y-79768253D01*
X196888893Y-79782868D01*
X196867850Y-79795480D01*
X196845671Y-79805970D01*
X196822572Y-79814235D01*
X196798773Y-79820196D01*
X196774505Y-79823796D01*
X196750001Y-79825000D01*
X195849999Y-79825000D01*
X195825495Y-79823796D01*
X195801227Y-79820196D01*
X195777428Y-79814235D01*
X195754329Y-79805970D01*
X195732150Y-79795480D01*
X195711107Y-79782868D01*
X195691401Y-79768253D01*
X195673223Y-79751777D01*
X195656747Y-79733599D01*
X195642132Y-79713893D01*
X195629520Y-79692850D01*
X195619030Y-79670671D01*
X195610765Y-79647572D01*
X195604804Y-79623773D01*
X195601204Y-79599505D01*
X195600000Y-79575001D01*
X195600000Y-78924999D01*
X195601204Y-78900495D01*
X195604804Y-78876227D01*
X195610765Y-78852428D01*
X195619030Y-78829329D01*
X195629520Y-78807150D01*
X195642132Y-78786107D01*
X195656747Y-78766401D01*
X195673223Y-78748223D01*
X195691401Y-78731747D01*
X195711107Y-78717132D01*
X195732150Y-78704520D01*
X195754329Y-78694030D01*
X195777428Y-78685765D01*
X195801227Y-78679804D01*
X195825495Y-78676204D01*
X195849999Y-78675000D01*
X196750001Y-78675000D01*
X196774505Y-78676204D01*
X196774505Y-78676204D01*
G37*
D15*
X196300000Y-79250000D03*
D14*
G36*
X196774505Y-76626204D02*
G01*
X196798773Y-76629804D01*
X196822572Y-76635765D01*
X196845671Y-76644030D01*
X196867850Y-76654520D01*
X196888893Y-76667132D01*
X196908599Y-76681747D01*
X196926777Y-76698223D01*
X196943253Y-76716401D01*
X196957868Y-76736107D01*
X196970480Y-76757150D01*
X196980970Y-76779329D01*
X196989235Y-76802428D01*
X196995196Y-76826227D01*
X196998796Y-76850495D01*
X197000000Y-76874999D01*
X197000000Y-77525001D01*
X196998796Y-77549505D01*
X196995196Y-77573773D01*
X196989235Y-77597572D01*
X196980970Y-77620671D01*
X196970480Y-77642850D01*
X196957868Y-77663893D01*
X196943253Y-77683599D01*
X196926777Y-77701777D01*
X196908599Y-77718253D01*
X196888893Y-77732868D01*
X196867850Y-77745480D01*
X196845671Y-77755970D01*
X196822572Y-77764235D01*
X196798773Y-77770196D01*
X196774505Y-77773796D01*
X196750001Y-77775000D01*
X195849999Y-77775000D01*
X195825495Y-77773796D01*
X195801227Y-77770196D01*
X195777428Y-77764235D01*
X195754329Y-77755970D01*
X195732150Y-77745480D01*
X195711107Y-77732868D01*
X195691401Y-77718253D01*
X195673223Y-77701777D01*
X195656747Y-77683599D01*
X195642132Y-77663893D01*
X195629520Y-77642850D01*
X195619030Y-77620671D01*
X195610765Y-77597572D01*
X195604804Y-77573773D01*
X195601204Y-77549505D01*
X195600000Y-77525001D01*
X195600000Y-76874999D01*
X195601204Y-76850495D01*
X195604804Y-76826227D01*
X195610765Y-76802428D01*
X195619030Y-76779329D01*
X195629520Y-76757150D01*
X195642132Y-76736107D01*
X195656747Y-76716401D01*
X195673223Y-76698223D01*
X195691401Y-76681747D01*
X195711107Y-76667132D01*
X195732150Y-76654520D01*
X195754329Y-76644030D01*
X195777428Y-76635765D01*
X195801227Y-76629804D01*
X195825495Y-76626204D01*
X195849999Y-76625000D01*
X196750001Y-76625000D01*
X196774505Y-76626204D01*
X196774505Y-76626204D01*
G37*
D15*
X196300000Y-77200000D03*
D14*
G36*
X196774505Y-74351204D02*
G01*
X196798773Y-74354804D01*
X196822572Y-74360765D01*
X196845671Y-74369030D01*
X196867850Y-74379520D01*
X196888893Y-74392132D01*
X196908599Y-74406747D01*
X196926777Y-74423223D01*
X196943253Y-74441401D01*
X196957868Y-74461107D01*
X196970480Y-74482150D01*
X196980970Y-74504329D01*
X196989235Y-74527428D01*
X196995196Y-74551227D01*
X196998796Y-74575495D01*
X197000000Y-74599999D01*
X197000000Y-75250001D01*
X196998796Y-75274505D01*
X196995196Y-75298773D01*
X196989235Y-75322572D01*
X196980970Y-75345671D01*
X196970480Y-75367850D01*
X196957868Y-75388893D01*
X196943253Y-75408599D01*
X196926777Y-75426777D01*
X196908599Y-75443253D01*
X196888893Y-75457868D01*
X196867850Y-75470480D01*
X196845671Y-75480970D01*
X196822572Y-75489235D01*
X196798773Y-75495196D01*
X196774505Y-75498796D01*
X196750001Y-75500000D01*
X195849999Y-75500000D01*
X195825495Y-75498796D01*
X195801227Y-75495196D01*
X195777428Y-75489235D01*
X195754329Y-75480970D01*
X195732150Y-75470480D01*
X195711107Y-75457868D01*
X195691401Y-75443253D01*
X195673223Y-75426777D01*
X195656747Y-75408599D01*
X195642132Y-75388893D01*
X195629520Y-75367850D01*
X195619030Y-75345671D01*
X195610765Y-75322572D01*
X195604804Y-75298773D01*
X195601204Y-75274505D01*
X195600000Y-75250001D01*
X195600000Y-74599999D01*
X195601204Y-74575495D01*
X195604804Y-74551227D01*
X195610765Y-74527428D01*
X195619030Y-74504329D01*
X195629520Y-74482150D01*
X195642132Y-74461107D01*
X195656747Y-74441401D01*
X195673223Y-74423223D01*
X195691401Y-74406747D01*
X195711107Y-74392132D01*
X195732150Y-74379520D01*
X195754329Y-74369030D01*
X195777428Y-74360765D01*
X195801227Y-74354804D01*
X195825495Y-74351204D01*
X195849999Y-74350000D01*
X196750001Y-74350000D01*
X196774505Y-74351204D01*
X196774505Y-74351204D01*
G37*
D15*
X196300000Y-74925000D03*
D14*
G36*
X196774505Y-72301204D02*
G01*
X196798773Y-72304804D01*
X196822572Y-72310765D01*
X196845671Y-72319030D01*
X196867850Y-72329520D01*
X196888893Y-72342132D01*
X196908599Y-72356747D01*
X196926777Y-72373223D01*
X196943253Y-72391401D01*
X196957868Y-72411107D01*
X196970480Y-72432150D01*
X196980970Y-72454329D01*
X196989235Y-72477428D01*
X196995196Y-72501227D01*
X196998796Y-72525495D01*
X197000000Y-72549999D01*
X197000000Y-73200001D01*
X196998796Y-73224505D01*
X196995196Y-73248773D01*
X196989235Y-73272572D01*
X196980970Y-73295671D01*
X196970480Y-73317850D01*
X196957868Y-73338893D01*
X196943253Y-73358599D01*
X196926777Y-73376777D01*
X196908599Y-73393253D01*
X196888893Y-73407868D01*
X196867850Y-73420480D01*
X196845671Y-73430970D01*
X196822572Y-73439235D01*
X196798773Y-73445196D01*
X196774505Y-73448796D01*
X196750001Y-73450000D01*
X195849999Y-73450000D01*
X195825495Y-73448796D01*
X195801227Y-73445196D01*
X195777428Y-73439235D01*
X195754329Y-73430970D01*
X195732150Y-73420480D01*
X195711107Y-73407868D01*
X195691401Y-73393253D01*
X195673223Y-73376777D01*
X195656747Y-73358599D01*
X195642132Y-73338893D01*
X195629520Y-73317850D01*
X195619030Y-73295671D01*
X195610765Y-73272572D01*
X195604804Y-73248773D01*
X195601204Y-73224505D01*
X195600000Y-73200001D01*
X195600000Y-72549999D01*
X195601204Y-72525495D01*
X195604804Y-72501227D01*
X195610765Y-72477428D01*
X195619030Y-72454329D01*
X195629520Y-72432150D01*
X195642132Y-72411107D01*
X195656747Y-72391401D01*
X195673223Y-72373223D01*
X195691401Y-72356747D01*
X195711107Y-72342132D01*
X195732150Y-72329520D01*
X195754329Y-72319030D01*
X195777428Y-72310765D01*
X195801227Y-72304804D01*
X195825495Y-72301204D01*
X195849999Y-72300000D01*
X196750001Y-72300000D01*
X196774505Y-72301204D01*
X196774505Y-72301204D01*
G37*
D15*
X196300000Y-72875000D03*
D14*
G36*
X179199504Y-63176204D02*
G01*
X179223773Y-63179804D01*
X179247571Y-63185765D01*
X179270671Y-63194030D01*
X179292849Y-63204520D01*
X179313893Y-63217133D01*
X179333598Y-63231747D01*
X179351777Y-63248223D01*
X179368253Y-63266402D01*
X179382867Y-63286107D01*
X179395480Y-63307151D01*
X179405970Y-63329329D01*
X179414235Y-63352429D01*
X179420196Y-63376227D01*
X179423796Y-63400496D01*
X179425000Y-63425000D01*
X179425000Y-65575000D01*
X179423796Y-65599504D01*
X179420196Y-65623773D01*
X179414235Y-65647571D01*
X179405970Y-65670671D01*
X179395480Y-65692849D01*
X179382867Y-65713893D01*
X179368253Y-65733598D01*
X179351777Y-65751777D01*
X179333598Y-65768253D01*
X179313893Y-65782867D01*
X179292849Y-65795480D01*
X179270671Y-65805970D01*
X179247571Y-65814235D01*
X179223773Y-65820196D01*
X179199504Y-65823796D01*
X179175000Y-65825000D01*
X178250000Y-65825000D01*
X178225496Y-65823796D01*
X178201227Y-65820196D01*
X178177429Y-65814235D01*
X178154329Y-65805970D01*
X178132151Y-65795480D01*
X178111107Y-65782867D01*
X178091402Y-65768253D01*
X178073223Y-65751777D01*
X178056747Y-65733598D01*
X178042133Y-65713893D01*
X178029520Y-65692849D01*
X178019030Y-65670671D01*
X178010765Y-65647571D01*
X178004804Y-65623773D01*
X178001204Y-65599504D01*
X178000000Y-65575000D01*
X178000000Y-63425000D01*
X178001204Y-63400496D01*
X178004804Y-63376227D01*
X178010765Y-63352429D01*
X178019030Y-63329329D01*
X178029520Y-63307151D01*
X178042133Y-63286107D01*
X178056747Y-63266402D01*
X178073223Y-63248223D01*
X178091402Y-63231747D01*
X178111107Y-63217133D01*
X178132151Y-63204520D01*
X178154329Y-63194030D01*
X178177429Y-63185765D01*
X178201227Y-63179804D01*
X178225496Y-63176204D01*
X178250000Y-63175000D01*
X179175000Y-63175000D01*
X179199504Y-63176204D01*
X179199504Y-63176204D01*
G37*
D21*
X178712500Y-64500000D03*
D14*
G36*
X182174504Y-63176204D02*
G01*
X182198773Y-63179804D01*
X182222571Y-63185765D01*
X182245671Y-63194030D01*
X182267849Y-63204520D01*
X182288893Y-63217133D01*
X182308598Y-63231747D01*
X182326777Y-63248223D01*
X182343253Y-63266402D01*
X182357867Y-63286107D01*
X182370480Y-63307151D01*
X182380970Y-63329329D01*
X182389235Y-63352429D01*
X182395196Y-63376227D01*
X182398796Y-63400496D01*
X182400000Y-63425000D01*
X182400000Y-65575000D01*
X182398796Y-65599504D01*
X182395196Y-65623773D01*
X182389235Y-65647571D01*
X182380970Y-65670671D01*
X182370480Y-65692849D01*
X182357867Y-65713893D01*
X182343253Y-65733598D01*
X182326777Y-65751777D01*
X182308598Y-65768253D01*
X182288893Y-65782867D01*
X182267849Y-65795480D01*
X182245671Y-65805970D01*
X182222571Y-65814235D01*
X182198773Y-65820196D01*
X182174504Y-65823796D01*
X182150000Y-65825000D01*
X181225000Y-65825000D01*
X181200496Y-65823796D01*
X181176227Y-65820196D01*
X181152429Y-65814235D01*
X181129329Y-65805970D01*
X181107151Y-65795480D01*
X181086107Y-65782867D01*
X181066402Y-65768253D01*
X181048223Y-65751777D01*
X181031747Y-65733598D01*
X181017133Y-65713893D01*
X181004520Y-65692849D01*
X180994030Y-65670671D01*
X180985765Y-65647571D01*
X180979804Y-65623773D01*
X180976204Y-65599504D01*
X180975000Y-65575000D01*
X180975000Y-63425000D01*
X180976204Y-63400496D01*
X180979804Y-63376227D01*
X180985765Y-63352429D01*
X180994030Y-63329329D01*
X181004520Y-63307151D01*
X181017133Y-63286107D01*
X181031747Y-63266402D01*
X181048223Y-63248223D01*
X181066402Y-63231747D01*
X181086107Y-63217133D01*
X181107151Y-63204520D01*
X181129329Y-63194030D01*
X181152429Y-63185765D01*
X181176227Y-63179804D01*
X181200496Y-63176204D01*
X181225000Y-63175000D01*
X182150000Y-63175000D01*
X182174504Y-63176204D01*
X182174504Y-63176204D01*
G37*
D21*
X181687500Y-64500000D03*
D14*
G36*
X156874505Y-127301204D02*
G01*
X156898773Y-127304804D01*
X156922572Y-127310765D01*
X156945671Y-127319030D01*
X156967850Y-127329520D01*
X156988893Y-127342132D01*
X157008599Y-127356747D01*
X157026777Y-127373223D01*
X157043253Y-127391401D01*
X157057868Y-127411107D01*
X157070480Y-127432150D01*
X157080970Y-127454329D01*
X157089235Y-127477428D01*
X157095196Y-127501227D01*
X157098796Y-127525495D01*
X157100000Y-127549999D01*
X157100000Y-128450001D01*
X157098796Y-128474505D01*
X157095196Y-128498773D01*
X157089235Y-128522572D01*
X157080970Y-128545671D01*
X157070480Y-128567850D01*
X157057868Y-128588893D01*
X157043253Y-128608599D01*
X157026777Y-128626777D01*
X157008599Y-128643253D01*
X156988893Y-128657868D01*
X156967850Y-128670480D01*
X156945671Y-128680970D01*
X156922572Y-128689235D01*
X156898773Y-128695196D01*
X156874505Y-128698796D01*
X156850001Y-128700000D01*
X156199999Y-128700000D01*
X156175495Y-128698796D01*
X156151227Y-128695196D01*
X156127428Y-128689235D01*
X156104329Y-128680970D01*
X156082150Y-128670480D01*
X156061107Y-128657868D01*
X156041401Y-128643253D01*
X156023223Y-128626777D01*
X156006747Y-128608599D01*
X155992132Y-128588893D01*
X155979520Y-128567850D01*
X155969030Y-128545671D01*
X155960765Y-128522572D01*
X155954804Y-128498773D01*
X155951204Y-128474505D01*
X155950000Y-128450001D01*
X155950000Y-127549999D01*
X155951204Y-127525495D01*
X155954804Y-127501227D01*
X155960765Y-127477428D01*
X155969030Y-127454329D01*
X155979520Y-127432150D01*
X155992132Y-127411107D01*
X156006747Y-127391401D01*
X156023223Y-127373223D01*
X156041401Y-127356747D01*
X156061107Y-127342132D01*
X156082150Y-127329520D01*
X156104329Y-127319030D01*
X156127428Y-127310765D01*
X156151227Y-127304804D01*
X156175495Y-127301204D01*
X156199999Y-127300000D01*
X156850001Y-127300000D01*
X156874505Y-127301204D01*
X156874505Y-127301204D01*
G37*
D15*
X156525000Y-128000000D03*
D14*
G36*
X154824505Y-127301204D02*
G01*
X154848773Y-127304804D01*
X154872572Y-127310765D01*
X154895671Y-127319030D01*
X154917850Y-127329520D01*
X154938893Y-127342132D01*
X154958599Y-127356747D01*
X154976777Y-127373223D01*
X154993253Y-127391401D01*
X155007868Y-127411107D01*
X155020480Y-127432150D01*
X155030970Y-127454329D01*
X155039235Y-127477428D01*
X155045196Y-127501227D01*
X155048796Y-127525495D01*
X155050000Y-127549999D01*
X155050000Y-128450001D01*
X155048796Y-128474505D01*
X155045196Y-128498773D01*
X155039235Y-128522572D01*
X155030970Y-128545671D01*
X155020480Y-128567850D01*
X155007868Y-128588893D01*
X154993253Y-128608599D01*
X154976777Y-128626777D01*
X154958599Y-128643253D01*
X154938893Y-128657868D01*
X154917850Y-128670480D01*
X154895671Y-128680970D01*
X154872572Y-128689235D01*
X154848773Y-128695196D01*
X154824505Y-128698796D01*
X154800001Y-128700000D01*
X154149999Y-128700000D01*
X154125495Y-128698796D01*
X154101227Y-128695196D01*
X154077428Y-128689235D01*
X154054329Y-128680970D01*
X154032150Y-128670480D01*
X154011107Y-128657868D01*
X153991401Y-128643253D01*
X153973223Y-128626777D01*
X153956747Y-128608599D01*
X153942132Y-128588893D01*
X153929520Y-128567850D01*
X153919030Y-128545671D01*
X153910765Y-128522572D01*
X153904804Y-128498773D01*
X153901204Y-128474505D01*
X153900000Y-128450001D01*
X153900000Y-127549999D01*
X153901204Y-127525495D01*
X153904804Y-127501227D01*
X153910765Y-127477428D01*
X153919030Y-127454329D01*
X153929520Y-127432150D01*
X153942132Y-127411107D01*
X153956747Y-127391401D01*
X153973223Y-127373223D01*
X153991401Y-127356747D01*
X154011107Y-127342132D01*
X154032150Y-127329520D01*
X154054329Y-127319030D01*
X154077428Y-127310765D01*
X154101227Y-127304804D01*
X154125495Y-127301204D01*
X154149999Y-127300000D01*
X154800001Y-127300000D01*
X154824505Y-127301204D01*
X154824505Y-127301204D01*
G37*
D15*
X154475000Y-128000000D03*
D14*
G36*
X195974505Y-104601204D02*
G01*
X195998773Y-104604804D01*
X196022572Y-104610765D01*
X196045671Y-104619030D01*
X196067850Y-104629520D01*
X196088893Y-104642132D01*
X196108599Y-104656747D01*
X196126777Y-104673223D01*
X196143253Y-104691401D01*
X196157868Y-104711107D01*
X196170480Y-104732150D01*
X196180970Y-104754329D01*
X196189235Y-104777428D01*
X196195196Y-104801227D01*
X196198796Y-104825495D01*
X196200000Y-104849999D01*
X196200000Y-105750001D01*
X196198796Y-105774505D01*
X196195196Y-105798773D01*
X196189235Y-105822572D01*
X196180970Y-105845671D01*
X196170480Y-105867850D01*
X196157868Y-105888893D01*
X196143253Y-105908599D01*
X196126777Y-105926777D01*
X196108599Y-105943253D01*
X196088893Y-105957868D01*
X196067850Y-105970480D01*
X196045671Y-105980970D01*
X196022572Y-105989235D01*
X195998773Y-105995196D01*
X195974505Y-105998796D01*
X195950001Y-106000000D01*
X195299999Y-106000000D01*
X195275495Y-105998796D01*
X195251227Y-105995196D01*
X195227428Y-105989235D01*
X195204329Y-105980970D01*
X195182150Y-105970480D01*
X195161107Y-105957868D01*
X195141401Y-105943253D01*
X195123223Y-105926777D01*
X195106747Y-105908599D01*
X195092132Y-105888893D01*
X195079520Y-105867850D01*
X195069030Y-105845671D01*
X195060765Y-105822572D01*
X195054804Y-105798773D01*
X195051204Y-105774505D01*
X195050000Y-105750001D01*
X195050000Y-104849999D01*
X195051204Y-104825495D01*
X195054804Y-104801227D01*
X195060765Y-104777428D01*
X195069030Y-104754329D01*
X195079520Y-104732150D01*
X195092132Y-104711107D01*
X195106747Y-104691401D01*
X195123223Y-104673223D01*
X195141401Y-104656747D01*
X195161107Y-104642132D01*
X195182150Y-104629520D01*
X195204329Y-104619030D01*
X195227428Y-104610765D01*
X195251227Y-104604804D01*
X195275495Y-104601204D01*
X195299999Y-104600000D01*
X195950001Y-104600000D01*
X195974505Y-104601204D01*
X195974505Y-104601204D01*
G37*
D15*
X195625000Y-105300000D03*
D14*
G36*
X193924505Y-104601204D02*
G01*
X193948773Y-104604804D01*
X193972572Y-104610765D01*
X193995671Y-104619030D01*
X194017850Y-104629520D01*
X194038893Y-104642132D01*
X194058599Y-104656747D01*
X194076777Y-104673223D01*
X194093253Y-104691401D01*
X194107868Y-104711107D01*
X194120480Y-104732150D01*
X194130970Y-104754329D01*
X194139235Y-104777428D01*
X194145196Y-104801227D01*
X194148796Y-104825495D01*
X194150000Y-104849999D01*
X194150000Y-105750001D01*
X194148796Y-105774505D01*
X194145196Y-105798773D01*
X194139235Y-105822572D01*
X194130970Y-105845671D01*
X194120480Y-105867850D01*
X194107868Y-105888893D01*
X194093253Y-105908599D01*
X194076777Y-105926777D01*
X194058599Y-105943253D01*
X194038893Y-105957868D01*
X194017850Y-105970480D01*
X193995671Y-105980970D01*
X193972572Y-105989235D01*
X193948773Y-105995196D01*
X193924505Y-105998796D01*
X193900001Y-106000000D01*
X193249999Y-106000000D01*
X193225495Y-105998796D01*
X193201227Y-105995196D01*
X193177428Y-105989235D01*
X193154329Y-105980970D01*
X193132150Y-105970480D01*
X193111107Y-105957868D01*
X193091401Y-105943253D01*
X193073223Y-105926777D01*
X193056747Y-105908599D01*
X193042132Y-105888893D01*
X193029520Y-105867850D01*
X193019030Y-105845671D01*
X193010765Y-105822572D01*
X193004804Y-105798773D01*
X193001204Y-105774505D01*
X193000000Y-105750001D01*
X193000000Y-104849999D01*
X193001204Y-104825495D01*
X193004804Y-104801227D01*
X193010765Y-104777428D01*
X193019030Y-104754329D01*
X193029520Y-104732150D01*
X193042132Y-104711107D01*
X193056747Y-104691401D01*
X193073223Y-104673223D01*
X193091401Y-104656747D01*
X193111107Y-104642132D01*
X193132150Y-104629520D01*
X193154329Y-104619030D01*
X193177428Y-104610765D01*
X193201227Y-104604804D01*
X193225495Y-104601204D01*
X193249999Y-104600000D01*
X193900001Y-104600000D01*
X193924505Y-104601204D01*
X193924505Y-104601204D01*
G37*
D15*
X193575000Y-105300000D03*
D14*
G36*
X179774505Y-73001204D02*
G01*
X179798773Y-73004804D01*
X179822572Y-73010765D01*
X179845671Y-73019030D01*
X179867850Y-73029520D01*
X179888893Y-73042132D01*
X179908599Y-73056747D01*
X179926777Y-73073223D01*
X179943253Y-73091401D01*
X179957868Y-73111107D01*
X179970480Y-73132150D01*
X179980970Y-73154329D01*
X179989235Y-73177428D01*
X179995196Y-73201227D01*
X179998796Y-73225495D01*
X180000000Y-73249999D01*
X180000000Y-74150001D01*
X179998796Y-74174505D01*
X179995196Y-74198773D01*
X179989235Y-74222572D01*
X179980970Y-74245671D01*
X179970480Y-74267850D01*
X179957868Y-74288893D01*
X179943253Y-74308599D01*
X179926777Y-74326777D01*
X179908599Y-74343253D01*
X179888893Y-74357868D01*
X179867850Y-74370480D01*
X179845671Y-74380970D01*
X179822572Y-74389235D01*
X179798773Y-74395196D01*
X179774505Y-74398796D01*
X179750001Y-74400000D01*
X179099999Y-74400000D01*
X179075495Y-74398796D01*
X179051227Y-74395196D01*
X179027428Y-74389235D01*
X179004329Y-74380970D01*
X178982150Y-74370480D01*
X178961107Y-74357868D01*
X178941401Y-74343253D01*
X178923223Y-74326777D01*
X178906747Y-74308599D01*
X178892132Y-74288893D01*
X178879520Y-74267850D01*
X178869030Y-74245671D01*
X178860765Y-74222572D01*
X178854804Y-74198773D01*
X178851204Y-74174505D01*
X178850000Y-74150001D01*
X178850000Y-73249999D01*
X178851204Y-73225495D01*
X178854804Y-73201227D01*
X178860765Y-73177428D01*
X178869030Y-73154329D01*
X178879520Y-73132150D01*
X178892132Y-73111107D01*
X178906747Y-73091401D01*
X178923223Y-73073223D01*
X178941401Y-73056747D01*
X178961107Y-73042132D01*
X178982150Y-73029520D01*
X179004329Y-73019030D01*
X179027428Y-73010765D01*
X179051227Y-73004804D01*
X179075495Y-73001204D01*
X179099999Y-73000000D01*
X179750001Y-73000000D01*
X179774505Y-73001204D01*
X179774505Y-73001204D01*
G37*
D15*
X179425000Y-73700000D03*
D14*
G36*
X177724505Y-73001204D02*
G01*
X177748773Y-73004804D01*
X177772572Y-73010765D01*
X177795671Y-73019030D01*
X177817850Y-73029520D01*
X177838893Y-73042132D01*
X177858599Y-73056747D01*
X177876777Y-73073223D01*
X177893253Y-73091401D01*
X177907868Y-73111107D01*
X177920480Y-73132150D01*
X177930970Y-73154329D01*
X177939235Y-73177428D01*
X177945196Y-73201227D01*
X177948796Y-73225495D01*
X177950000Y-73249999D01*
X177950000Y-74150001D01*
X177948796Y-74174505D01*
X177945196Y-74198773D01*
X177939235Y-74222572D01*
X177930970Y-74245671D01*
X177920480Y-74267850D01*
X177907868Y-74288893D01*
X177893253Y-74308599D01*
X177876777Y-74326777D01*
X177858599Y-74343253D01*
X177838893Y-74357868D01*
X177817850Y-74370480D01*
X177795671Y-74380970D01*
X177772572Y-74389235D01*
X177748773Y-74395196D01*
X177724505Y-74398796D01*
X177700001Y-74400000D01*
X177049999Y-74400000D01*
X177025495Y-74398796D01*
X177001227Y-74395196D01*
X176977428Y-74389235D01*
X176954329Y-74380970D01*
X176932150Y-74370480D01*
X176911107Y-74357868D01*
X176891401Y-74343253D01*
X176873223Y-74326777D01*
X176856747Y-74308599D01*
X176842132Y-74288893D01*
X176829520Y-74267850D01*
X176819030Y-74245671D01*
X176810765Y-74222572D01*
X176804804Y-74198773D01*
X176801204Y-74174505D01*
X176800000Y-74150001D01*
X176800000Y-73249999D01*
X176801204Y-73225495D01*
X176804804Y-73201227D01*
X176810765Y-73177428D01*
X176819030Y-73154329D01*
X176829520Y-73132150D01*
X176842132Y-73111107D01*
X176856747Y-73091401D01*
X176873223Y-73073223D01*
X176891401Y-73056747D01*
X176911107Y-73042132D01*
X176932150Y-73029520D01*
X176954329Y-73019030D01*
X176977428Y-73010765D01*
X177001227Y-73004804D01*
X177025495Y-73001204D01*
X177049999Y-73000000D01*
X177700001Y-73000000D01*
X177724505Y-73001204D01*
X177724505Y-73001204D01*
G37*
D15*
X177375000Y-73700000D03*
D14*
G36*
X179199504Y-70476204D02*
G01*
X179223773Y-70479804D01*
X179247571Y-70485765D01*
X179270671Y-70494030D01*
X179292849Y-70504520D01*
X179313893Y-70517133D01*
X179333598Y-70531747D01*
X179351777Y-70548223D01*
X179368253Y-70566402D01*
X179382867Y-70586107D01*
X179395480Y-70607151D01*
X179405970Y-70629329D01*
X179414235Y-70652429D01*
X179420196Y-70676227D01*
X179423796Y-70700496D01*
X179425000Y-70725000D01*
X179425000Y-71650000D01*
X179423796Y-71674504D01*
X179420196Y-71698773D01*
X179414235Y-71722571D01*
X179405970Y-71745671D01*
X179395480Y-71767849D01*
X179382867Y-71788893D01*
X179368253Y-71808598D01*
X179351777Y-71826777D01*
X179333598Y-71843253D01*
X179313893Y-71857867D01*
X179292849Y-71870480D01*
X179270671Y-71880970D01*
X179247571Y-71889235D01*
X179223773Y-71895196D01*
X179199504Y-71898796D01*
X179175000Y-71900000D01*
X177025000Y-71900000D01*
X177000496Y-71898796D01*
X176976227Y-71895196D01*
X176952429Y-71889235D01*
X176929329Y-71880970D01*
X176907151Y-71870480D01*
X176886107Y-71857867D01*
X176866402Y-71843253D01*
X176848223Y-71826777D01*
X176831747Y-71808598D01*
X176817133Y-71788893D01*
X176804520Y-71767849D01*
X176794030Y-71745671D01*
X176785765Y-71722571D01*
X176779804Y-71698773D01*
X176776204Y-71674504D01*
X176775000Y-71650000D01*
X176775000Y-70725000D01*
X176776204Y-70700496D01*
X176779804Y-70676227D01*
X176785765Y-70652429D01*
X176794030Y-70629329D01*
X176804520Y-70607151D01*
X176817133Y-70586107D01*
X176831747Y-70566402D01*
X176848223Y-70548223D01*
X176866402Y-70531747D01*
X176886107Y-70517133D01*
X176907151Y-70504520D01*
X176929329Y-70494030D01*
X176952429Y-70485765D01*
X176976227Y-70479804D01*
X177000496Y-70476204D01*
X177025000Y-70475000D01*
X179175000Y-70475000D01*
X179199504Y-70476204D01*
X179199504Y-70476204D01*
G37*
D21*
X178100000Y-71187500D03*
D14*
G36*
X179199504Y-67501204D02*
G01*
X179223773Y-67504804D01*
X179247571Y-67510765D01*
X179270671Y-67519030D01*
X179292849Y-67529520D01*
X179313893Y-67542133D01*
X179333598Y-67556747D01*
X179351777Y-67573223D01*
X179368253Y-67591402D01*
X179382867Y-67611107D01*
X179395480Y-67632151D01*
X179405970Y-67654329D01*
X179414235Y-67677429D01*
X179420196Y-67701227D01*
X179423796Y-67725496D01*
X179425000Y-67750000D01*
X179425000Y-68675000D01*
X179423796Y-68699504D01*
X179420196Y-68723773D01*
X179414235Y-68747571D01*
X179405970Y-68770671D01*
X179395480Y-68792849D01*
X179382867Y-68813893D01*
X179368253Y-68833598D01*
X179351777Y-68851777D01*
X179333598Y-68868253D01*
X179313893Y-68882867D01*
X179292849Y-68895480D01*
X179270671Y-68905970D01*
X179247571Y-68914235D01*
X179223773Y-68920196D01*
X179199504Y-68923796D01*
X179175000Y-68925000D01*
X177025000Y-68925000D01*
X177000496Y-68923796D01*
X176976227Y-68920196D01*
X176952429Y-68914235D01*
X176929329Y-68905970D01*
X176907151Y-68895480D01*
X176886107Y-68882867D01*
X176866402Y-68868253D01*
X176848223Y-68851777D01*
X176831747Y-68833598D01*
X176817133Y-68813893D01*
X176804520Y-68792849D01*
X176794030Y-68770671D01*
X176785765Y-68747571D01*
X176779804Y-68723773D01*
X176776204Y-68699504D01*
X176775000Y-68675000D01*
X176775000Y-67750000D01*
X176776204Y-67725496D01*
X176779804Y-67701227D01*
X176785765Y-67677429D01*
X176794030Y-67654329D01*
X176804520Y-67632151D01*
X176817133Y-67611107D01*
X176831747Y-67591402D01*
X176848223Y-67573223D01*
X176866402Y-67556747D01*
X176886107Y-67542133D01*
X176907151Y-67529520D01*
X176929329Y-67519030D01*
X176952429Y-67510765D01*
X176976227Y-67504804D01*
X177000496Y-67501204D01*
X177025000Y-67500000D01*
X179175000Y-67500000D01*
X179199504Y-67501204D01*
X179199504Y-67501204D01*
G37*
D21*
X178100000Y-68212500D03*
D14*
G36*
X186199504Y-66776204D02*
G01*
X186223773Y-66779804D01*
X186247571Y-66785765D01*
X186270671Y-66794030D01*
X186292849Y-66804520D01*
X186313893Y-66817133D01*
X186333598Y-66831747D01*
X186351777Y-66848223D01*
X186368253Y-66866402D01*
X186382867Y-66886107D01*
X186395480Y-66907151D01*
X186405970Y-66929329D01*
X186414235Y-66952429D01*
X186420196Y-66976227D01*
X186423796Y-67000496D01*
X186425000Y-67025000D01*
X186425000Y-67950000D01*
X186423796Y-67974504D01*
X186420196Y-67998773D01*
X186414235Y-68022571D01*
X186405970Y-68045671D01*
X186395480Y-68067849D01*
X186382867Y-68088893D01*
X186368253Y-68108598D01*
X186351777Y-68126777D01*
X186333598Y-68143253D01*
X186313893Y-68157867D01*
X186292849Y-68170480D01*
X186270671Y-68180970D01*
X186247571Y-68189235D01*
X186223773Y-68195196D01*
X186199504Y-68198796D01*
X186175000Y-68200000D01*
X184025000Y-68200000D01*
X184000496Y-68198796D01*
X183976227Y-68195196D01*
X183952429Y-68189235D01*
X183929329Y-68180970D01*
X183907151Y-68170480D01*
X183886107Y-68157867D01*
X183866402Y-68143253D01*
X183848223Y-68126777D01*
X183831747Y-68108598D01*
X183817133Y-68088893D01*
X183804520Y-68067849D01*
X183794030Y-68045671D01*
X183785765Y-68022571D01*
X183779804Y-67998773D01*
X183776204Y-67974504D01*
X183775000Y-67950000D01*
X183775000Y-67025000D01*
X183776204Y-67000496D01*
X183779804Y-66976227D01*
X183785765Y-66952429D01*
X183794030Y-66929329D01*
X183804520Y-66907151D01*
X183817133Y-66886107D01*
X183831747Y-66866402D01*
X183848223Y-66848223D01*
X183866402Y-66831747D01*
X183886107Y-66817133D01*
X183907151Y-66804520D01*
X183929329Y-66794030D01*
X183952429Y-66785765D01*
X183976227Y-66779804D01*
X184000496Y-66776204D01*
X184025000Y-66775000D01*
X186175000Y-66775000D01*
X186199504Y-66776204D01*
X186199504Y-66776204D01*
G37*
D21*
X185100000Y-67487500D03*
D14*
G36*
X186199504Y-63801204D02*
G01*
X186223773Y-63804804D01*
X186247571Y-63810765D01*
X186270671Y-63819030D01*
X186292849Y-63829520D01*
X186313893Y-63842133D01*
X186333598Y-63856747D01*
X186351777Y-63873223D01*
X186368253Y-63891402D01*
X186382867Y-63911107D01*
X186395480Y-63932151D01*
X186405970Y-63954329D01*
X186414235Y-63977429D01*
X186420196Y-64001227D01*
X186423796Y-64025496D01*
X186425000Y-64050000D01*
X186425000Y-64975000D01*
X186423796Y-64999504D01*
X186420196Y-65023773D01*
X186414235Y-65047571D01*
X186405970Y-65070671D01*
X186395480Y-65092849D01*
X186382867Y-65113893D01*
X186368253Y-65133598D01*
X186351777Y-65151777D01*
X186333598Y-65168253D01*
X186313893Y-65182867D01*
X186292849Y-65195480D01*
X186270671Y-65205970D01*
X186247571Y-65214235D01*
X186223773Y-65220196D01*
X186199504Y-65223796D01*
X186175000Y-65225000D01*
X184025000Y-65225000D01*
X184000496Y-65223796D01*
X183976227Y-65220196D01*
X183952429Y-65214235D01*
X183929329Y-65205970D01*
X183907151Y-65195480D01*
X183886107Y-65182867D01*
X183866402Y-65168253D01*
X183848223Y-65151777D01*
X183831747Y-65133598D01*
X183817133Y-65113893D01*
X183804520Y-65092849D01*
X183794030Y-65070671D01*
X183785765Y-65047571D01*
X183779804Y-65023773D01*
X183776204Y-64999504D01*
X183775000Y-64975000D01*
X183775000Y-64050000D01*
X183776204Y-64025496D01*
X183779804Y-64001227D01*
X183785765Y-63977429D01*
X183794030Y-63954329D01*
X183804520Y-63932151D01*
X183817133Y-63911107D01*
X183831747Y-63891402D01*
X183848223Y-63873223D01*
X183866402Y-63856747D01*
X183886107Y-63842133D01*
X183907151Y-63829520D01*
X183929329Y-63819030D01*
X183952429Y-63810765D01*
X183976227Y-63804804D01*
X184000496Y-63801204D01*
X184025000Y-63800000D01*
X186175000Y-63800000D01*
X186199504Y-63801204D01*
X186199504Y-63801204D01*
G37*
D21*
X185100000Y-64512500D03*
M02*
